<?xml version="1.0" standalone="no"?>
<!DOCTYPE svg PUBLIC "-//W3C//DTD SVG 1.1//EN"
  "http://www.w3.org/Graphics/SVG/1.1/DTD/svg11.dtd">
<!-- Created with matplotlib (http://matplotlib.sourceforge.net/) -->
<svg width="444pt" height="444pt" viewBox="0 0 444 444"
   xmlns="http://www.w3.org/2000/svg"
   xmlns:xlink="http://www.w3.org/1999/xlink"
   version="1.1"
   id="svg1">
<g id="figure1">
<g id="patch1">
<path style="fill: #ffffff; stroke: #ffffff; stroke-width: 1.000000; stroke-linejoin: round; stroke-linecap: square;  opacity: 1.000000"  d="M0.000000 444.600000L444.600000 444.600000L444.600000 0.000000
L0.000000 0.000000L0.000000 444.600000"/>
</g>
<g id="axes1">
<g id="patch2">
<path style="fill: none; stroke: #000000; stroke-width: 1.000000; stroke-linejoin: round; stroke-linecap: square;  opacity: 1.000000"  d="M227.857500 394.582500
C273.547353 394.582500 317.372019 376.429729 349.679624 344.122124
C381.987229 311.814519 400.140000 267.989853 400.140000 222.300000
C400.140000 176.610147 381.987229 132.785481 349.679624 100.477876
C317.372019 68.170271 273.547353 50.017500 227.857500 50.017500
C182.167647 50.017500 138.342981 68.170271 106.035376 100.477876
C73.727771 132.785481 55.575000 176.610147 55.575000 222.300000
C55.575000 267.989853 73.727771 311.814519 106.035376 344.122124
C138.342981 376.429729 182.167647 394.582500 227.857500 394.582500z"/>
</g>
<g id="line2d1">
<defs>
  <clipPath id="pfa3adc3754b66ff4da75a66cebb9b252">
<rect x="55.575000" y="50.017500" width="344.565000" height="344.565000"/>
  </clipPath>
</defs><path style="fill: none; stroke: #800080; stroke-width: 1.000000; stroke-linejoin: round; stroke-linecap: butt; stroke-dasharray: 1.000000,1.000000; stroke-dashoffset: 0.000000; opacity: 1.000000" clip-path="url(#pfa3adc3754b66ff4da75a66cebb9b252)" d="M227.857500 394.582500L227.857500 394.582500"/>
</g>
<g id="line2d2">
<path style="fill: none; stroke: #800080; stroke-width: 1.000000; stroke-linejoin: round; stroke-linecap: butt; stroke-dasharray: 1.000000,1.000000; stroke-dashoffset: 0.000000; opacity: 1.000000" clip-path="url(#pfa3adc3754b66ff4da75a66cebb9b252)" d="M227.857500 388.712116L240.030903 388.360368L252.123131 387.307469
L263.295183 385.693049L274.433450 383.439864L285.555171 380.504237
L295.662944 377.188098L305.770409 373.184735L314.880145 368.908215
L323.981321 363.899214L332.061774 358.717400L340.118573 352.703494
L347.171268 346.556029L349.188121 344.610676L349.188121 344.610676"/>
</g>
<g id="line2d3">
<path style="fill: none; stroke: #800080; stroke-width: 1.000000; stroke-linejoin: round; stroke-linecap: butt; stroke-dasharray: 1.000000,1.000000; stroke-dashoffset: 0.000000; opacity: 1.000000" clip-path="url(#pfa3adc3754b66ff4da75a66cebb9b252)" d="M106.043811 344.130559L113.095575 350.630071L120.134096 356.206312
L128.216200 361.736715L137.298477 367.056182L146.378530 371.591270
L156.504785 375.865622L166.625317 379.418038L177.758723 382.586757
L188.889405 385.050230L200.053507 386.864048L212.158159 388.126446
L224.316326 388.682397L227.362732 388.711536L227.362732 388.711536"/>
</g>
<g id="line2d4">
<path style="fill: none; stroke: #800080; stroke-width: 1.000000; stroke-linejoin: round; stroke-linecap: butt; stroke-dasharray: 1.000000,1.000000; stroke-dashoffset: 0.000000; opacity: 1.000000" clip-path="url(#pfa3adc3754b66ff4da75a66cebb9b252)" d="M227.857500 371.501022L240.045223 371.185013L252.167486 370.238685
L264.329228 368.640176L276.456141 366.371355L288.631498 363.373287
L299.787996 359.940668L310.937761 355.787384L321.058397 351.314719
L331.178486 346.073493L340.283896 340.586147L348.368472 334.978201
L356.449729 328.519346L363.521464 321.977818L370.095050 314.909636
L375.694190 307.854442L380.444235 300.788807L384.411773 293.728206
L387.662004 286.659086L388.068928 285.651976L388.068928 285.651976"/>
</g>
<g id="line2d5">
<path style="fill: none; stroke: #800080; stroke-width: 1.000000; stroke-linejoin: round; stroke-linecap: butt; stroke-dasharray: 1.000000,1.000000; stroke-dashoffset: 0.000000; opacity: 1.000000" clip-path="url(#pfa3adc3754b66ff4da75a66cebb9b252)" d="M67.536587 285.375070L70.663661 292.450408L74.493360 299.505005
L79.098436 306.573290L84.545728 313.640957L90.927132 320.699411
L97.984424 327.402899L105.047953 333.236458L113.117487 339.058173
L122.208210 344.745286L131.316098 349.675465L141.428044 354.385695
L151.558468 358.403903L162.701453 362.106573L173.843816 365.130188
L185.994430 367.716838L198.245538 369.623072L210.318277 370.845629
L222.485221 371.439688L227.567056 371.500842L227.567056 371.500842"/>
</g>
<g id="line2d6">
<path style="fill: none; stroke: #800080; stroke-width: 1.000000; stroke-linejoin: round; stroke-linecap: butt; stroke-dasharray: 1.000000,1.000000; stroke-dashoffset: 0.000000; opacity: 1.000000" clip-path="url(#pfa3adc3754b66ff4da75a66cebb9b252)" d="M227.857500 344.122124L240.115274 343.813388L252.310917 342.888744
L264.412000 341.348369L276.644201 339.135606L288.811282 336.242741
L299.957938 332.940830L311.092272 328.961222L321.234889 324.676567
L331.371520 319.680972L340.453196 314.504851L349.573268 308.516390
L357.663517 302.398870L364.721237 296.291815L371.670622 289.378482
L377.789746 282.306589L383.018979 275.244194L387.459534 268.171836
L391.160583 261.115995L394.191539 254.035213L396.578724 246.941515
L398.533749 238.896353L399.615965 231.794463L400.107671 224.659931
L400.139410 222.618929L400.139410 222.618929"/>
</g>
<g id="line2d7">
<path style="fill: none; stroke: #800080; stroke-width: 1.000000; stroke-linejoin: round; stroke-linecap: butt; stroke-dasharray: 1.000000,1.000000; stroke-dashoffset: 0.000000; opacity: 1.000000" clip-path="url(#pfa3adc3754b66ff4da75a66cebb9b252)" d="M55.575000 222.300000L55.871156 229.439928L56.758604 236.555310
L58.234295 243.621681L60.321150 250.697459L63.032756 257.754644
L66.411681 264.823567L70.494075 271.888366L75.333652 278.946870
L81.025401 286.024385L87.652046 293.094387L94.709944 299.607788
L102.805428 306.095105L110.889932 311.742294L119.998391 317.293874
L130.126987 322.624490L140.262120 327.200689L151.416280 331.474172
L162.567313 335.035202L174.733682 338.185978L186.879174 340.625899
L199.037224 342.405478L211.195308 343.551044L223.437847 344.082032
L227.526742 344.121900L227.526742 344.121900"/>
</g>
<g id="line2d8">
<path style="fill: none; stroke: #800080; stroke-width: 1.000000; stroke-linejoin: round; stroke-linecap: butt; stroke-dasharray: 1.000000,1.000000; stroke-dashoffset: 0.000000; opacity: 1.000000" clip-path="url(#pfa3adc3754b66ff4da75a66cebb9b252)" d="M227.857500 308.441250L240.045223 308.125241L252.167486 307.178913
L264.329228 305.580404L276.456141 303.311583L288.631498 300.313516
L299.787996 296.880896L310.937761 292.727612L321.058397 288.254947
L331.178486 283.013721L340.283896 277.526376L348.368472 271.918429
L356.449729 265.459575L363.521464 258.918046L370.095050 251.849864
L375.694190 244.794671L380.444235 237.729035L384.411773 230.668434
L387.662004 223.599315L390.236491 216.519442L392.156707 209.461865
L393.458301 202.375435L394.143589 195.348818L394.233119 188.305796
L393.726572 181.271603L392.613522 174.210439L390.876528 167.129165
L388.501123 160.056772L388.501123 160.056772"/>
</g>
<g id="line2d9">
<path style="fill: none; stroke: #800080; stroke-width: 1.000000; stroke-linejoin: round; stroke-linecap: butt; stroke-dasharray: 1.000000,1.000000; stroke-dashoffset: 0.000000; opacity: 1.000000" clip-path="url(#pfa3adc3754b66ff4da75a66cebb9b252)" d="M67.528803 159.244716L65.075852 166.324998L63.268987 173.397525
L62.083705 180.473481L61.509457 187.505073L61.531188 194.548362
L62.148820 201.578116L63.382170 208.670646L65.234404 215.737302
L67.732767 222.809640L70.903471 229.875263L74.788058 236.936868
L79.451586 244.008620L84.960801 251.075694L91.407534 258.128853
L98.476179 264.775067L105.558807 270.569933L113.644494 276.351600
L122.747704 281.997641L131.837268 286.877105L141.974717 291.559846
L152.101024 295.541171L163.236361 299.206964L174.393582 302.203058
L186.556891 304.759702L198.788736 306.632100L210.867143 307.826340
L223.036805 308.391867L227.102348 308.440038L227.102348 308.440038"/>
</g>
<g id="line2d10">
<path style="fill: none; stroke: #800080; stroke-width: 1.000000; stroke-linejoin: round; stroke-linecap: butt; stroke-dasharray: 1.000000,1.000000; stroke-dashoffset: 0.000000; opacity: 1.000000" clip-path="url(#pfa3adc3754b66ff4da75a66cebb9b252)" d="M227.857500 266.889992L240.030903 266.538244L252.123131 265.485345
L263.295183 263.870925L274.433450 261.617740L285.555171 258.682113
L295.662944 255.365974L305.770409 251.362611L314.880145 247.086091
L323.981321 242.077090L332.061774 236.895276L340.118573 230.881370
L347.171268 224.733905L353.058871 218.771695L358.212542 212.713922
L363.276973 205.675003L367.463490 198.611999L370.825320 191.564652
L373.431115 184.511087L375.322047 177.438116L376.513236 170.400513
L377.033468 163.322238L376.880396 156.235236L376.054710 149.171495
L374.545880 142.108585L372.332162 135.044898L369.381375 127.982818
L365.651391 120.930389L361.067421 113.870195L356.400232 107.827241
L350.950563 101.769131L349.956213 100.755411L349.956213 100.755411"/>
</g>
<g id="line2d11">
<path style="fill: none; stroke: #800080; stroke-width: 1.000000; stroke-linejoin: round; stroke-linecap: butt; stroke-dasharray: 1.000000,1.000000; stroke-dashoffset: 0.000000; opacity: 1.000000" clip-path="url(#pfa3adc3754b66ff4da75a66cebb9b252)" d="M106.028777 100.484476L100.411973 106.531931L94.847556 113.590927
L90.223926 120.658457L86.457793 127.720943L83.474303 134.795355
L81.236182 141.855197L79.702951 148.915479L78.852858 155.977771
L78.675296 163.064488L79.171068 170.143641L80.337934 177.183280
L82.204420 184.259498L84.785833 191.317544L88.123300 198.370678
L92.285397 205.440895L97.325490 212.488543L102.444104 218.539725
L108.309613 224.512814L115.356626 230.687200L122.430125 236.041512
L130.524273 241.348890L139.633496 246.469694L148.726764 250.829621
L158.825584 254.918450L168.961313 258.322379L180.095718 261.338318
L191.232143 263.661926L202.410749 265.344235L214.490634 266.465747
L226.659650 266.886592L227.675217 266.889913L227.675217 266.889913"/>
</g>
<g id="line2d12">
<path style="fill: none; stroke: #800080; stroke-width: 1.000000; stroke-linejoin: round; stroke-linecap: butt; stroke-dasharray: 1.000000,1.000000; stroke-dashoffset: 0.000000; opacity: 1.000000" clip-path="url(#pfa3adc3754b66ff4da75a66cebb9b252)" d="M227.857500 222.300000L239.067938 221.934492L250.183242 220.841071
L260.290097 219.191143L270.381067 216.881659L280.475928 213.850226
L289.558616 210.433922L298.651887 206.261477L306.715649 201.817041
L313.757863 197.239670L320.822361 191.828151L326.861629 186.352436
L332.454245 180.318408L337.097628 174.285016L340.912259 168.246531
L343.977212 162.205270L346.348325 156.165677L348.068035 150.124014
L349.164673 144.070756L349.650634 138.037911L349.537284 131.995820
L348.825183 125.974213L347.493841 119.914124L345.534137 113.878276
L342.910426 107.843965L339.575706 101.810007L335.449982 95.757712
L330.463923 89.723032L324.570170 83.778938L318.531114 78.630819
L311.467224 73.508754L303.393665 68.575773L295.325953 64.434843
L286.247415 60.557005L277.173828 57.391594L267.076334 54.603514
L256.978093 52.514799L246.872677 51.073343L236.737122 50.246637
L225.518827 50.033375L214.320378 50.550993L204.237174 51.652211
L194.135729 53.383536L184.021761 55.787555L173.919752 58.920970
L164.841307 62.437690L155.754334 66.726181L147.678562 71.305193
L140.625754 76.028673L133.586642 81.598530L127.557138 87.268734
L122.186762 93.296617L117.729332 99.332018L114.081094 105.372719
L111.167421 111.419556L108.936869 117.470339L107.354697 123.515486
L106.394416 129.550077L106.038055 135.587444L106.281134 141.627622
L107.125292 147.655789L108.588101 153.700705L110.696131 159.757940
L113.476980 165.804378L116.986458 171.853581L121.288860 177.894555
L126.483494 183.928724L132.478817 189.747633L138.501867 194.708732
L145.555666 199.668741L153.629435 204.462572L161.704688 208.492820
L170.778148 212.259267L179.866660 215.334217L189.969820 218.028017
L200.080714 220.030915L210.166531 221.386854L220.314329 222.134707
L227.453523 222.299526L227.453523 222.299526"/>
</g>
<g id="line2d13">
<path style="fill: none; stroke: #800080; stroke-width: 1.000000; stroke-linejoin: round; stroke-linecap: butt; stroke-dasharray: 1.000000,1.000000; stroke-dashoffset: 0.000000; opacity: 1.000000" clip-path="url(#pfa3adc3754b66ff4da75a66cebb9b252)" d="M227.857500 177.710008L236.906568 177.372989L245.973102 176.347833
L255.033636 174.599346L263.086484 172.383268L271.136281 169.464219
L278.173294 166.238989L285.228595 162.235013L291.265823 158.028180
L296.298499 153.786407L301.115814 148.842154L305.055298 143.824998
L308.179906 138.806058L310.582592 133.782381L312.322975 128.755083
L313.438193 123.736523L313.956715 118.701583L313.883823 113.653574
L313.220016 108.627170L311.950345 103.594622L310.052458 98.573909
L307.476115 93.548235L304.161328 88.531997L300.003212 83.517486
L295.047134 78.681574L289.023171 73.909112L282.985798 69.995176
L275.927316 66.253878L268.881254 63.238856L260.822329 60.524462
L252.769453 58.490672L243.703299 56.927310L234.646040 56.077324
L225.587556 55.909036L216.539286 56.415948L207.470573 57.618340
L198.409586 59.557635L190.366149 61.959573L182.298876 65.104039
L175.263105 68.559208L169.230368 72.171744L163.202241 76.549645
L158.185443 80.979123L153.551888 85.985062L149.812449 91.018285
L146.870145 96.046075L144.635897 101.075082L143.053803 106.106706
L142.090106 111.130215L141.720817 116.171729L141.943201 121.217551
L142.758059 126.243525L144.181308 131.266319L146.244362 136.287540
L148.999320 141.311212L152.523955 146.338512L156.925902 151.360654
L161.946850 156.016934L167.986323 160.592536L174.010050 164.342437
L181.042530 167.929531L189.085458 171.191242L197.141689 173.706124
L205.214168 175.567962L214.278104 176.948405L223.334201 177.625974
L227.361365 177.708998L227.361365 177.708998"/>
</g>
<g id="line2d14">
<path style="fill: none; stroke: #800080; stroke-width: 1.000000; stroke-linejoin: round; stroke-linecap: butt; stroke-dasharray: 1.000000,1.000000; stroke-dashoffset: 0.000000; opacity: 1.000000" clip-path="url(#pfa3adc3754b66ff4da75a66cebb9b252)" d="M227.857500 136.158750L233.878213 135.870010L239.901094 134.986888
L245.915645 133.457416L251.927161 131.170518L256.940462 128.529164
L260.952630 125.759171L264.945689 122.132201L268.153889 118.128280
L270.379048 114.120580L271.768718 110.109391L272.399447 106.092137
L272.301984 102.083746L271.471475 98.068050L269.869053 94.062483
L267.394922 90.050462L264.867741 87.043225L260.869053 83.433289
L256.857786 80.678386L251.841934 78.048662L245.823095 75.771415
L239.811149 74.253071L233.793379 73.379602L227.771893 73.099036
L221.751975 73.395949L215.731503 74.287246L209.714007 75.827119
L203.696194 78.128877L198.680263 80.786085L194.668654 83.572180
L190.683131 87.217177L187.494716 91.228993L185.289355 95.242161
L183.920822 99.251333L183.309271 103.264545L183.424543 107.272701
L184.272889 111.286532L185.895731 115.293698L188.392285 119.304767
L190.938660 122.310304L194.950781 125.905791L198.963766 128.643646
L203.978131 131.256323L209.998809 133.519473L216.016355 135.026682
L222.037338 135.889007L227.055954 136.153655L227.055954 136.153655"/>
</g>
<g id="line2d15">
<path style="fill: none; stroke: #800080; stroke-width: 1.000000; stroke-linejoin: round; stroke-linecap: butt; stroke-dasharray: 1.000000,1.000000; stroke-dashoffset: 0.000000; opacity: 1.000000" clip-path="url(#pfa3adc3754b66ff4da75a66cebb9b252)" d="L227.857500 100.477876"/>
</g>
<g id="line2d16">
<path style="fill: none; stroke: #800080; stroke-width: 1.000000; stroke-linejoin: round; stroke-linecap: butt; stroke-dasharray: 1.000000,1.000000; stroke-dashoffset: 0.000000; opacity: 1.000000" clip-path="url(#pfa3adc3754b66ff4da75a66cebb9b252)" d="M227.857500 123.482818L232.867236 123.184107L237.878293 122.260803
L242.888063 120.619085L246.898845 118.644673L250.908592 115.812816
L253.768596 112.902525L255.794476 109.895822L257.069414 106.892813
L257.692934 103.885287L257.703694 100.878769L257.102810 97.872659
L255.851968 94.868425L253.854293 91.860432L251.021346 88.941400
L247.015391 86.080940L243.005287 84.086588L237.996280 82.426308
L232.975304 81.486272L227.967150 81.174580L222.955899 81.460305
L217.945016 82.369392L212.930893 83.995653L208.921059 85.951652
L204.916622 88.750785L202.032961 91.649380L199.978834 94.654663
L198.678630 97.659952L198.033591 100.665208L198.001310 103.671649
L198.579595 106.676258L199.806359 109.681620L201.773315 112.687556
L204.581715 115.618423L207.588502 117.887664L211.598832 120.086094
L216.611847 121.931367L221.627287 123.019011L226.641244 123.465328
L227.643424 123.482276L227.643424 123.482276"/>
</g>
<g id="line2d17">
<path style="fill: none; stroke: #800080; stroke-width: 1.000000; stroke-linejoin: round; stroke-linecap: butt; stroke-dasharray: 1.000000,1.000000; stroke-dashoffset: 0.000000; opacity: 1.000000" clip-path="url(#pfa3adc3754b66ff4da75a66cebb9b252)" d="M227.857500 394.582500L227.857500 124.099533L227.857500 124.099533"/>
</g>
<g id="line2d18">
<path style="fill: none; stroke: #800080; stroke-width: 1.000000; stroke-linejoin: round; stroke-linecap: butt; stroke-dasharray: 1.000000,1.000000; stroke-dashoffset: 0.000000; opacity: 1.000000" clip-path="url(#pfa3adc3754b66ff4da75a66cebb9b252)" d="M292.977505 381.801237L295.986893 380.289106L299.010166 378.111367
L301.926249 375.210744L304.874331 371.191942L307.544807 366.162117
L309.833651 360.122473L311.674489 353.062336L313.009872 344.995828
L313.795160 335.922324L313.987645 325.831437L313.542444 314.719791
L312.407475 302.544780L310.540546 289.394630L307.883018 275.228000
L304.369592 260.039682L299.912717 243.790578L294.811285 227.652683
L288.651509 210.450680L281.751877 193.273066L274.520922 177.051178
L266.522101 160.793226L258.292201 145.609451L249.861917 131.469318
L243.289330 121.348700L243.289330 121.348700"/>
</g>
<g id="line2d19">
<path style="fill: none; stroke: #800080; stroke-width: 1.000000; stroke-linejoin: round; stroke-linecap: butt; stroke-dasharray: 1.000000,1.000000; stroke-dashoffset: 0.000000; opacity: 1.000000" clip-path="url(#pfa3adc3754b66ff4da75a66cebb9b252)" d="M361.312833 331.253815L365.034432 326.214906L368.613214 320.167684
L371.407218 314.114600L373.841292 307.059474L375.529408 299.983208
L376.565315 292.906870L377.045396 284.821566L376.852682 276.730118
L375.907993 267.641769L374.252308 258.549406L371.920561 249.419344
L368.604575 239.335290L364.496220 229.155332L359.618625 218.936781
L353.999251 208.737164L347.669732 198.613902L340.580445 188.508831
L332.675063 178.395865L323.901634 168.284430L314.180678 158.179145
L304.098187 148.708680L293.987518 140.095008L282.854687 131.508658
L271.703727 123.757162L260.582564 116.804254L254.458107 113.289299
L254.458107 113.289299"/>
</g>
<g id="line2d20">
<path style="fill: none; stroke: #800080; stroke-width: 1.000000; stroke-linejoin: round; stroke-linecap: butt; stroke-dasharray: 1.000000,1.000000; stroke-dashoffset: 0.000000; opacity: 1.000000" clip-path="url(#pfa3adc3754b66ff4da75a66cebb9b252)" d="M400.140000 222.300000L399.843844 215.160072L398.956396 208.044690
L397.480705 200.978319L395.393850 193.902541L392.682244 186.845356
L389.303319 179.776433L385.220925 172.711634L380.381348 165.653130
L374.689599 158.575615L368.062954 151.505613L361.005056 144.992212
L352.909572 138.504895L344.825068 132.857706L335.716609 127.306126
L325.588013 121.975510L315.452880 117.399311L304.298720 113.125828
L293.147687 109.564798L280.981318 106.414022L268.835826 103.974101
L258.691577 102.444838L258.691577 102.444838"/>
</g>
<g id="line2d21">
<path style="fill: none; stroke: #800080; stroke-width: 1.000000; stroke-linejoin: round; stroke-linecap: butt; stroke-dasharray: 1.000000,1.000000; stroke-dashoffset: 0.000000; opacity: 1.000000" clip-path="url(#pfa3adc3754b66ff4da75a66cebb9b252)" d="M361.301187 113.331922L356.729519 108.299037L351.696181 103.797376
L346.669082 100.107959L340.614558 96.489137L334.566813 93.592825
L327.498800 90.947996L320.431309 88.969701L312.365889 87.402792
L304.277185 86.472364L295.152132 86.099969L286.059088 86.368241
L275.939871 87.347631L265.819188 88.989204L254.637450 91.523402
L254.637450 91.523402"/>
</g>
<g id="line2d22">
<path style="fill: none; stroke: #800080; stroke-width: 1.000000; stroke-linejoin: round; stroke-linecap: butt; stroke-dasharray: 1.000000,1.000000; stroke-dashoffset: 0.000000; opacity: 1.000000" clip-path="url(#pfa3adc3754b66ff4da75a66cebb9b252)" d="M292.967663 62.794746L288.949020 61.593189L284.925158 61.153214
L280.903196 61.348504L275.864918 62.353739L270.823921 64.091097
L265.794909 66.464803L259.763816 70.065473L253.717654 74.424920
L246.663304 80.384076L243.644184 83.206453L243.644184 83.206453"/>
</g>
<g id="line2d23">
<path style="fill: none; stroke: #800080; stroke-width: 1.000000; stroke-linejoin: round; stroke-linecap: butt; stroke-dasharray: 1.000000,1.000000; stroke-dashoffset: 0.000000; opacity: 1.000000" clip-path="url(#pfa3adc3754b66ff4da75a66cebb9b252)" d="M227.857500 50.017500L227.857500 80.215370L227.857500 80.215370"/>
</g>
<g id="line2d24">
<path style="fill: none; stroke: #800080; stroke-width: 1.000000; stroke-linejoin: round; stroke-linecap: butt; stroke-dasharray: 1.000000,1.000000; stroke-dashoffset: 0.000000; opacity: 1.000000" clip-path="url(#pfa3adc3754b66ff4da75a66cebb9b252)" d="M162.747337 62.794746L166.765980 61.593189L170.789842 61.153214
L174.811804 61.348504L179.850082 62.353739L184.891079 64.091097
L189.920091 66.464803L195.951184 70.065473L201.997346 74.424920
L209.051696 80.384076L212.070816 83.206453L212.070816 83.206453"/>
</g>
<g id="line2d25">
<path style="fill: none; stroke: #800080; stroke-width: 1.000000; stroke-linejoin: round; stroke-linecap: butt; stroke-dasharray: 1.000000,1.000000; stroke-dashoffset: 0.000000; opacity: 1.000000" clip-path="url(#pfa3adc3754b66ff4da75a66cebb9b252)" d="M94.413813 113.331922L98.985481 108.299037L104.018819 103.797376
L109.045918 100.107959L115.100442 96.489137L121.148187 93.592825
L128.216200 90.947996L135.283691 88.969701L143.349111 87.402792
L151.437815 86.472364L160.562868 86.099969L169.655912 86.368241
L179.775129 87.347631L189.895812 88.989204L201.077550 91.523402
L201.077550 91.523402"/>
</g>
<g id="line2d26">
<path style="fill: none; stroke: #800080; stroke-width: 1.000000; stroke-linejoin: round; stroke-linecap: butt; stroke-dasharray: 1.000000,1.000000; stroke-dashoffset: 0.000000; opacity: 1.000000" clip-path="url(#pfa3adc3754b66ff4da75a66cebb9b252)" d="M55.575000 222.300000L55.871156 215.160072L56.758604 208.044690
L58.234295 200.978319L60.321150 193.902541L63.032756 186.845356
L66.411681 179.776433L70.494075 172.711634L75.333652 165.653130
L81.025401 158.575615L87.652046 151.505613L94.709944 144.992212
L102.805428 138.504895L110.889932 132.857706L119.998391 127.306126
L130.126987 121.975510L140.262120 117.399311L151.416280 113.125828
L162.567313 109.564798L174.733682 106.414022L186.879174 103.974101
L197.023423 102.444838L197.023423 102.444838"/>
</g>
<g id="line2d27">
<path style="fill: none; stroke: #800080; stroke-width: 1.000000; stroke-linejoin: round; stroke-linecap: butt; stroke-dasharray: 1.000000,1.000000; stroke-dashoffset: 0.000000; opacity: 1.000000" clip-path="url(#pfa3adc3754b66ff4da75a66cebb9b252)" d="M94.402167 331.253815L90.680568 326.214906L87.101786 320.167684
L84.307782 314.114600L81.873708 307.059474L80.185592 299.983208
L79.149685 292.906870L78.669604 284.821566L78.862318 276.730118
L79.807007 267.641769L81.462692 258.549406L83.794439 249.419344
L87.110425 239.335290L91.218780 229.155332L96.096375 218.936781
L101.715749 208.737164L108.045268 198.613902L115.134555 188.508831
L123.039937 178.395865L131.813366 168.284430L141.534322 158.179145
L151.616813 148.708680L161.727482 140.095008L172.860313 131.508658
L184.011273 123.757162L195.132436 116.804254L201.256893 113.289299
L201.256893 113.289299"/>
</g>
<g id="line2d28">
<path style="fill: none; stroke: #800080; stroke-width: 1.000000; stroke-linejoin: round; stroke-linecap: butt; stroke-dasharray: 1.000000,1.000000; stroke-dashoffset: 0.000000; opacity: 1.000000" clip-path="url(#pfa3adc3754b66ff4da75a66cebb9b252)" d="M162.737495 381.801237L159.728107 380.289106L156.704834 378.111367
L153.788751 375.210744L150.840669 371.191942L148.170193 366.162117
L145.881349 360.122473L144.040511 353.062336L142.705128 344.995828
L141.919840 335.922324L141.727355 325.831437L142.172556 314.719791
L143.307525 302.544780L145.174454 289.394630L147.831982 275.228000
L151.345408 260.039682L155.802283 243.790578L160.903715 227.652683
L167.063491 210.450680L173.963123 193.273066L181.194078 177.051178
L189.192899 160.793226L197.422799 145.609451L205.853083 131.469318
L212.425670 121.348700L212.425670 121.348700"/>
</g>
<g id="line2d29">
<path style="fill: none; stroke: #800080; stroke-width: 1.000000; stroke-linejoin: round; stroke-linecap: butt; stroke-dasharray: 1.000000,1.000000; stroke-dashoffset: 0.000000; opacity: 1.000000" clip-path="url(#pfa3adc3754b66ff4da75a66cebb9b252)" d="M227.857500 394.582500L227.857500 124.099533L227.857500 124.099533"/>
</g>
<g id="line2d30">
</g>
<g id="line2d31">
<path style="fill: none; stroke: #0000ff; stroke-width: 1.000000; stroke-linejoin: round; stroke-linecap: square;  opacity: 1.000000" clip-path="url(#pfa3adc3754b66ff4da75a66cebb9b252)" d="M326.746941 214.299317L324.600012 211.111657L322.030349 206.326007
L319.864318 201.619643L318.669912 196.239997L316.803510 192.709851
L317.348957 189.140210L317.105582 186.817692L318.898073 186.071007"/>
</g>
<g id="line2d32">
<path style="fill: none; stroke: #0000ff; stroke-width: 1.000000; stroke-linejoin: round; stroke-linecap: square;  opacity: 1.000000" clip-path="url(#pfa3adc3754b66ff4da75a66cebb9b252)" d="M332.135734 206.532313L329.439486 200.683323"/>
</g>
<g id="line2d33">
<path style="fill: none; stroke: #0000ff; stroke-width: 1.000000; stroke-linejoin: round; stroke-linecap: square;  opacity: 1.000000" clip-path="url(#pfa3adc3754b66ff4da75a66cebb9b252)" d="M330.943519 196.839746L333.670834 202.504900"/>
</g>
<g id="line2d34">
<path style="fill: none; stroke: #0000ff; stroke-width: 1.000000; stroke-linejoin: round; stroke-linecap: square;  opacity: 1.000000" clip-path="url(#pfa3adc3754b66ff4da75a66cebb9b252)" d="M318.907156 199.823765"/>
</g>
<g id="line2d35">
<path style="fill: none; stroke: #0000ff; stroke-width: 1.000000; stroke-linejoin: round; stroke-linecap: square;  opacity: 1.000000" clip-path="url(#pfa3adc3754b66ff4da75a66cebb9b252)" d="M317.844433 201.398054"/>
</g>
<g id="line2d36">
<path style="fill: none; stroke: #0000ff; stroke-width: 1.000000; stroke-linejoin: round; stroke-linecap: square;  opacity: 1.000000" clip-path="url(#pfa3adc3754b66ff4da75a66cebb9b252)" d="M317.288279 199.418171"/>
</g>
<g id="line2d37">
<path style="fill: none; stroke: #0000ff; stroke-width: 1.000000; stroke-linejoin: round; stroke-linecap: square;  opacity: 1.000000" clip-path="url(#pfa3adc3754b66ff4da75a66cebb9b252)" d="M317.744698 198.429799"/>
</g>
<g id="line2d38">
<path style="fill: none; stroke: #0000ff; stroke-width: 1.000000; stroke-linejoin: round; stroke-linecap: square;  opacity: 1.000000" clip-path="url(#pfa3adc3754b66ff4da75a66cebb9b252)" d="M317.131803 196.413176"/>
</g>
<g id="line2d39">
<path style="fill: none; stroke: #0000ff; stroke-width: 1.000000; stroke-linejoin: round; stroke-linecap: square;  opacity: 1.000000" clip-path="url(#pfa3adc3754b66ff4da75a66cebb9b252)" d="M316.788696 193.557503"/>
</g>
<g id="line2d40">
<path style="fill: none; stroke: #0000ff; stroke-width: 1.000000; stroke-linejoin: round; stroke-linecap: square;  opacity: 1.000000" clip-path="url(#pfa3adc3754b66ff4da75a66cebb9b252)" d="M317.406716 191.767131"/>
</g>
<g id="line2d41">
<path style="fill: none; stroke: #0000ff; stroke-width: 1.000000; stroke-linejoin: round; stroke-linecap: square;  opacity: 1.000000" clip-path="url(#pfa3adc3754b66ff4da75a66cebb9b252)" d="M316.107316 191.384871"/>
</g>
<g id="line2d42">
<path style="fill: none; stroke: #0000ff; stroke-width: 1.000000; stroke-linejoin: round; stroke-linecap: square;  opacity: 1.000000" clip-path="url(#pfa3adc3754b66ff4da75a66cebb9b252)" d="M317.336312 191.098404"/>
</g>
<g id="line2d43">
<path style="fill: none; stroke: #0000ff; stroke-width: 1.000000; stroke-linejoin: round; stroke-linecap: square;  opacity: 1.000000" clip-path="url(#pfa3adc3754b66ff4da75a66cebb9b252)" d="M325.165500 216.316129"/>
</g>
<g id="line2d44">
<path style="fill: none; stroke: #0000ff; stroke-width: 1.000000; stroke-linejoin: round; stroke-linecap: square;  opacity: 1.000000" clip-path="url(#pfa3adc3754b66ff4da75a66cebb9b252)" d="M327.175094 225.031082"/>
</g>
<g id="line2d45">
<path style="fill: none; stroke: #0000ff; stroke-width: 1.000000; stroke-linejoin: round; stroke-linecap: square;  opacity: 1.000000" clip-path="url(#pfa3adc3754b66ff4da75a66cebb9b252)" d="M327.971980 225.734787"/>
</g>
<g id="line2d46">
<path style="fill: none; stroke: #0000ff; stroke-width: 1.000000; stroke-linejoin: round; stroke-linecap: square;  opacity: 1.000000" clip-path="url(#pfa3adc3754b66ff4da75a66cebb9b252)" d="M322.569040 232.484376"/>
</g>
<g id="line2d47">
<path style="fill: none; stroke: #0000ff; stroke-width: 1.000000; stroke-linejoin: round; stroke-linecap: square;  opacity: 1.000000" clip-path="url(#pfa3adc3754b66ff4da75a66cebb9b252)" d="M321.148591 243.116122"/>
</g>
<g id="line2d48">
<path style="fill: none; stroke: #0000ff; stroke-width: 1.000000; stroke-linejoin: round; stroke-linecap: square;  opacity: 1.000000" clip-path="url(#pfa3adc3754b66ff4da75a66cebb9b252)" d="M321.038891 244.975758"/>
</g>
<g id="line2d49">
<path style="fill: none; stroke: #0000ff; stroke-width: 1.000000; stroke-linejoin: round; stroke-linecap: square;  opacity: 1.000000" clip-path="url(#pfa3adc3754b66ff4da75a66cebb9b252)" d="M322.224870 241.809928L324.138682 246.176553L326.844976 248.687376
L330.430280 248.854234L331.355036 254.976406L333.621665 255.929410
L334.223442 258.423226"/>
</g>
<g id="line2d50">
<path style="fill: none; stroke: #0000ff; stroke-width: 1.000000; stroke-linejoin: round; stroke-linecap: square;  opacity: 1.000000" clip-path="url(#pfa3adc3754b66ff4da75a66cebb9b252)" d="M335.887966 256.123215L339.351648 251.023082L337.840700 246.071114
L333.728219 245.452665L327.673253 244.687759L324.896797 241.147595
L322.115380 241.908197"/>
</g>
<g id="line2d51">
<path style="fill: none; stroke: #0000ff; stroke-width: 1.000000; stroke-linejoin: round; stroke-linecap: square;  opacity: 1.000000" clip-path="url(#pfa3adc3754b66ff4da75a66cebb9b252)" d="M328.492099 249.637376"/>
</g>
<g id="line2d52">
<path style="fill: none; stroke: #0000ff; stroke-width: 1.000000; stroke-linejoin: round; stroke-linecap: square;  opacity: 1.000000" clip-path="url(#pfa3adc3754b66ff4da75a66cebb9b252)" d="M325.686307 247.620886"/>
</g>
<g id="line2d53">
<path style="fill: none; stroke: #0000ff; stroke-width: 1.000000; stroke-linejoin: round; stroke-linecap: square;  opacity: 1.000000" clip-path="url(#pfa3adc3754b66ff4da75a66cebb9b252)" d="M324.563375 247.212028"/>
</g>
<g id="line2d54">
<path style="fill: none; stroke: #0000ff; stroke-width: 1.000000; stroke-linejoin: round; stroke-linecap: square;  opacity: 1.000000" clip-path="url(#pfa3adc3754b66ff4da75a66cebb9b252)" d="M323.593198 247.356821"/>
</g>
<g id="line2d55">
<path style="fill: none; stroke: #0000ff; stroke-width: 1.000000; stroke-linejoin: round; stroke-linecap: square;  opacity: 1.000000" clip-path="url(#pfa3adc3754b66ff4da75a66cebb9b252)" d="M322.382556 245.239301"/>
</g>
<g id="line2d56">
<path style="fill: none; stroke: #0000ff; stroke-width: 1.000000; stroke-linejoin: round; stroke-linecap: square;  opacity: 1.000000" clip-path="url(#pfa3adc3754b66ff4da75a66cebb9b252)" d="M323.829527 251.644534L322.014273 255.429921L325.307505 258.478574
L325.595648 261.832263L328.324738 255.649172"/>
</g>
<g id="line2d57">
<path style="fill: none; stroke: #0000ff; stroke-width: 1.000000; stroke-linejoin: round; stroke-linecap: square;  opacity: 1.000000" clip-path="url(#pfa3adc3754b66ff4da75a66cebb9b252)" d="M326.827322 252.523967L323.955099 251.881474"/>
</g>
<g id="line2d58">
<path style="fill: none; stroke: #0000ff; stroke-width: 1.000000; stroke-linejoin: round; stroke-linecap: square;  opacity: 1.000000" clip-path="url(#pfa3adc3754b66ff4da75a66cebb9b252)" d="M341.590595 244.552512"/>
</g>
<g id="line2d59">
<path style="fill: none; stroke: #0000ff; stroke-width: 1.000000; stroke-linejoin: round; stroke-linecap: square;  opacity: 1.000000" clip-path="url(#pfa3adc3754b66ff4da75a66cebb9b252)" d="M341.632253 244.889938"/>
</g>
<g id="line2d60">
<path style="fill: none; stroke: #0000ff; stroke-width: 1.000000; stroke-linejoin: round; stroke-linecap: square;  opacity: 1.000000" clip-path="url(#pfa3adc3754b66ff4da75a66cebb9b252)" d="M341.459439 245.498560"/>
</g>
<g id="line2d61">
<path style="fill: none; stroke: #0000ff; stroke-width: 1.000000; stroke-linejoin: round; stroke-linecap: square;  opacity: 1.000000" clip-path="url(#pfa3adc3754b66ff4da75a66cebb9b252)" d="M341.571777 246.514399"/>
</g>
<g id="line2d62">
<path style="fill: none; stroke: #0000ff; stroke-width: 1.000000; stroke-linejoin: round; stroke-linecap: square;  opacity: 1.000000" clip-path="url(#pfa3adc3754b66ff4da75a66cebb9b252)" d="M352.346655 262.037029"/>
</g>
<g id="line2d63">
<path style="fill: none; stroke: #0000ff; stroke-width: 1.000000; stroke-linejoin: round; stroke-linecap: square;  opacity: 1.000000" clip-path="url(#pfa3adc3754b66ff4da75a66cebb9b252)" d="M345.286581 268.830498L342.517047 263.585827L337.435536 263.705768
L338.098812 260.401746L340.026160 255.998681L340.814855 248.953755"/>
</g>
<g id="line2d64">
<path style="fill: none; stroke: #0000ff; stroke-width: 1.000000; stroke-linejoin: round; stroke-linecap: square;  opacity: 1.000000" clip-path="url(#pfa3adc3754b66ff4da75a66cebb9b252)" d="M334.322407 221.433990L334.314266 228.500286L330.396889 226.434119
L328.670748 226.123244L328.496411 222.771814L326.034469 221.650627"/>
</g>
<g id="line2d65">
<path style="fill: none; stroke: #0000ff; stroke-width: 1.000000; stroke-linejoin: round; stroke-linecap: square;  opacity: 1.000000" clip-path="url(#pfa3adc3754b66ff4da75a66cebb9b252)" d="M325.958195 221.755543"/>
</g>
<g id="line2d66">
<path style="fill: none; stroke: #0000ff; stroke-width: 1.000000; stroke-linejoin: round; stroke-linecap: square;  opacity: 1.000000" clip-path="url(#pfa3adc3754b66ff4da75a66cebb9b252)" d="M325.991880 223.504472"/>
</g>
<g id="line2d67">
<path style="fill: none; stroke: #0000ff; stroke-width: 1.000000; stroke-linejoin: round; stroke-linecap: square;  opacity: 1.000000" clip-path="url(#pfa3adc3754b66ff4da75a66cebb9b252)" d="M329.983429 226.998353"/>
</g>
<g id="line2d68">
<path style="fill: none; stroke: #0000ff; stroke-width: 1.000000; stroke-linejoin: round; stroke-linecap: square;  opacity: 1.000000" clip-path="url(#pfa3adc3754b66ff4da75a66cebb9b252)" d="M330.783674 228.546251"/>
</g>
<g id="line2d69">
<path style="fill: none; stroke: #0000ff; stroke-width: 1.000000; stroke-linejoin: round; stroke-linecap: square;  opacity: 1.000000" clip-path="url(#pfa3adc3754b66ff4da75a66cebb9b252)" d="M332.687283 207.853556L336.994279 213.117835L338.431057 213.571195
L341.020072 216.211436L343.649898 221.956804L341.234634 223.961511
L335.738197 222.040378"/>
</g>
<g id="line2d70">
<path style="fill: none; stroke: #0000ff; stroke-width: 1.000000; stroke-linejoin: round; stroke-linecap: square;  opacity: 1.000000" clip-path="url(#pfa3adc3754b66ff4da75a66cebb9b252)" d="M343.525759 218.308386"/>
</g>
<g id="line2d71">
<path style="fill: none; stroke: #0000ff; stroke-width: 1.000000; stroke-linejoin: round; stroke-linecap: square;  opacity: 1.000000" clip-path="url(#pfa3adc3754b66ff4da75a66cebb9b252)" d="M343.085063 215.126997"/>
</g>
<g id="line2d72">
<path style="fill: none; stroke: #0000ff; stroke-width: 1.000000; stroke-linejoin: round; stroke-linecap: square;  opacity: 1.000000" clip-path="url(#pfa3adc3754b66ff4da75a66cebb9b252)" d="M341.055703 198.059450L340.834800 205.249506L335.887082 204.536774"/>
</g>
<g id="line2d73">
<path style="fill: none; stroke: #0000ff; stroke-width: 1.000000; stroke-linejoin: round; stroke-linecap: square;  opacity: 1.000000" clip-path="url(#pfa3adc3754b66ff4da75a66cebb9b252)" d="M338.454701 208.348407"/>
</g>
<g id="line2d74">
<path style="fill: none; stroke: #0000ff; stroke-width: 1.000000; stroke-linejoin: round; stroke-linecap: square;  opacity: 1.000000" clip-path="url(#pfa3adc3754b66ff4da75a66cebb9b252)" d="M339.675617 206.424358"/>
</g>
<g id="line2d75">
<path style="fill: none; stroke: #0000ff; stroke-width: 1.000000; stroke-linejoin: round; stroke-linecap: square;  opacity: 1.000000" clip-path="url(#pfa3adc3754b66ff4da75a66cebb9b252)" d="M340.495130 205.512822"/>
</g>
<g id="line2d76">
<path style="fill: none; stroke: #0000ff; stroke-width: 1.000000; stroke-linejoin: round; stroke-linecap: square;  opacity: 1.000000" clip-path="url(#pfa3adc3754b66ff4da75a66cebb9b252)" d="M342.023967 225.558283L343.528284 226.835119L343.413450 228.020632"/>
</g>
<g id="line2d77">
<path style="fill: none; stroke: #0000ff; stroke-width: 1.000000; stroke-linejoin: round; stroke-linecap: square;  opacity: 1.000000" clip-path="url(#pfa3adc3754b66ff4da75a66cebb9b252)" d="M341.096938 230.013878"/>
</g>
<g id="line2d78">
<path style="fill: none; stroke: #0000ff; stroke-width: 1.000000; stroke-linejoin: round; stroke-linecap: square;  opacity: 1.000000" clip-path="url(#pfa3adc3754b66ff4da75a66cebb9b252)" d="M342.693205 229.259134"/>
</g>
<g id="line2d79">
<path style="fill: none; stroke: #0000ff; stroke-width: 1.000000; stroke-linejoin: round; stroke-linecap: square;  opacity: 1.000000" clip-path="url(#pfa3adc3754b66ff4da75a66cebb9b252)" d="M337.940842 230.351951L339.161394 227.526563L341.872109 231.533293"/>
</g>
<g id="line2d80">
<path style="fill: none; stroke: #0000ff; stroke-width: 1.000000; stroke-linejoin: round; stroke-linecap: square;  opacity: 1.000000" clip-path="url(#pfa3adc3754b66ff4da75a66cebb9b252)" d="M342.771414 234.173906L342.345855 237.838204"/>
</g>
<g id="line2d81">
<path style="fill: none; stroke: #0000ff; stroke-width: 1.000000; stroke-linejoin: round; stroke-linecap: square;  opacity: 1.000000" clip-path="url(#pfa3adc3754b66ff4da75a66cebb9b252)" d="M343.820541 231.129912"/>
</g>
<g id="line2d82">
<path style="fill: none; stroke: #0000ff; stroke-width: 1.000000; stroke-linejoin: round; stroke-linecap: square;  opacity: 1.000000" clip-path="url(#pfa3adc3754b66ff4da75a66cebb9b252)" d="M341.014459 241.331649L341.167499 241.531332L340.951736 240.198059
L340.951736 240.198059"/>
</g>
<g id="line2d83">
<path style="fill: none; stroke: #0000ff; stroke-width: 1.000000; stroke-linejoin: round; stroke-linecap: square;  opacity: 1.000000" clip-path="url(#pfa3adc3754b66ff4da75a66cebb9b252)" d="M345.827996 227.601875"/>
</g>
<g id="line2d84">
<path style="fill: none; stroke: #0000ff; stroke-width: 1.000000; stroke-linejoin: round; stroke-linecap: square;  opacity: 1.000000" clip-path="url(#pfa3adc3754b66ff4da75a66cebb9b252)" d="M345.781642 226.683467"/>
</g>
<g id="line2d85">
<path style="fill: none; stroke: #0000ff; stroke-width: 1.000000; stroke-linejoin: round; stroke-linecap: square;  opacity: 1.000000" clip-path="url(#pfa3adc3754b66ff4da75a66cebb9b252)" d="M347.336559 226.238053L348.973199 218.755125"/>
</g>
<g id="line2d86">
<path style="fill: none; stroke: #0000ff; stroke-width: 1.000000; stroke-linejoin: round; stroke-linecap: square;  opacity: 1.000000" clip-path="url(#pfa3adc3754b66ff4da75a66cebb9b252)" d="M370.843375 212.440628"/>
</g>
<g id="line2d87">
<path style="fill: none; stroke: #0000ff; stroke-width: 1.000000; stroke-linejoin: round; stroke-linecap: square;  opacity: 1.000000" clip-path="url(#pfa3adc3754b66ff4da75a66cebb9b252)" d="M371.095360 213.962134"/>
</g>
<g id="line2d88">
<path style="fill: none; stroke: #0000ff; stroke-width: 1.000000; stroke-linejoin: round; stroke-linecap: square;  opacity: 1.000000" clip-path="url(#pfa3adc3754b66ff4da75a66cebb9b252)" d="M356.080362 256.660521"/>
</g>
<g id="line2d89">
<path style="fill: none; stroke: #0000ff; stroke-width: 1.000000; stroke-linejoin: round; stroke-linecap: square;  opacity: 1.000000" clip-path="url(#pfa3adc3754b66ff4da75a66cebb9b252)" d="M285.249429 153.802642"/>
</g>
<g id="line2d90">
<path style="fill: none; stroke: #0000ff; stroke-width: 1.000000; stroke-linejoin: round; stroke-linecap: square;  opacity: 1.000000" clip-path="url(#pfa3adc3754b66ff4da75a66cebb9b252)" d="M280.879132 150.806255"/>
</g>
<g id="line2d91">
<path style="fill: none; stroke: #0000ff; stroke-width: 1.000000; stroke-linejoin: round; stroke-linecap: square;  opacity: 1.000000" clip-path="url(#pfa3adc3754b66ff4da75a66cebb9b252)" d="M279.128880 148.167616L279.867519 149.333536"/>
</g>
<g id="line2d92">
<path style="fill: none; stroke: #0000ff; stroke-width: 1.000000; stroke-linejoin: round; stroke-linecap: square;  opacity: 1.000000" clip-path="url(#pfa3adc3754b66ff4da75a66cebb9b252)" d="M279.955780 146.876281L280.702339 143.432678L281.304050 147.217357"/>
</g>
<g id="line2d93">
<path style="fill: none; stroke: #0000ff; stroke-width: 1.000000; stroke-linejoin: round; stroke-linecap: square;  opacity: 1.000000" clip-path="url(#pfa3adc3754b66ff4da75a66cebb9b252)" d="M280.161563 143.096716L279.987692 140.965104"/>
</g>
<g id="line2d94">
<path style="fill: none; stroke: #0000ff; stroke-width: 1.000000; stroke-linejoin: round; stroke-linecap: square;  opacity: 1.000000" clip-path="url(#pfa3adc3754b66ff4da75a66cebb9b252)" d="M277.701360 139.772671"/>
</g>
<g id="line2d95">
<path style="fill: none; stroke: #0000ff; stroke-width: 1.000000; stroke-linejoin: round; stroke-linecap: square;  opacity: 1.000000" clip-path="url(#pfa3adc3754b66ff4da75a66cebb9b252)" d="M299.210187 142.640123L294.434428 141.678862L288.027573 139.856140
L284.353191 138.721854"/>
</g>
<g id="line2d96">
<path style="fill: none; stroke: #0000ff; stroke-width: 1.000000; stroke-linejoin: round; stroke-linecap: square;  opacity: 1.000000" clip-path="url(#pfa3adc3754b66ff4da75a66cebb9b252)" d="M281.436970 139.225502L280.088888 137.919389L278.467606 136.030681
L276.126983 131.134312L281.970612 129.436884L280.355581 128.442757
L274.488749 126.552920"/>
</g>
<g id="line2d97">
<path style="fill: none; stroke: #0000ff; stroke-width: 1.000000; stroke-linejoin: round; stroke-linecap: square;  opacity: 1.000000" clip-path="url(#pfa3adc3754b66ff4da75a66cebb9b252)" d="M288.164462 144.107427"/>
</g>
<g id="line2d98">
<path style="fill: none; stroke: #0000ff; stroke-width: 1.000000; stroke-linejoin: round; stroke-linecap: square;  opacity: 1.000000" clip-path="url(#pfa3adc3754b66ff4da75a66cebb9b252)" d="M286.086318 139.316731"/>
</g>
<g id="line2d99">
<path style="fill: none; stroke: #0000ff; stroke-width: 1.000000; stroke-linejoin: round; stroke-linecap: square;  opacity: 1.000000" clip-path="url(#pfa3adc3754b66ff4da75a66cebb9b252)" d="M285.087855 140.704260"/>
</g>
<g id="line2d100">
<path style="fill: none; stroke: #0000ff; stroke-width: 1.000000; stroke-linejoin: round; stroke-linecap: square;  opacity: 1.000000" clip-path="url(#pfa3adc3754b66ff4da75a66cebb9b252)" d="M278.056551 129.290348"/>
</g>
<g id="line2d101">
<path style="fill: none; stroke: #0000ff; stroke-width: 1.000000; stroke-linejoin: round; stroke-linecap: square;  opacity: 1.000000" clip-path="url(#pfa3adc3754b66ff4da75a66cebb9b252)" d="M272.659427 125.796360L268.504802 125.642676L263.789399 121.894821
L261.155609 118.384540"/>
</g>
<g id="line2d102">
<path style="fill: none; stroke: #0000ff; stroke-width: 1.000000; stroke-linejoin: round; stroke-linecap: square;  opacity: 1.000000" clip-path="url(#pfa3adc3754b66ff4da75a66cebb9b252)" d="M320.241224 184.565976L322.244407 181.046259L325.693328 176.267249
L330.089983 179.185731L327.705261 184.903323L331.043824 184.062303
L335.530046 182.029439L333.208893 180.004687L330.822233 177.271501
L328.925903 172.568705L324.521544 172.049978L325.887134 170.954928
L325.388822 167.167879L321.011515 161.435165"/>
</g>
<g id="line2d103">
<path style="fill: none; stroke: #0000ff; stroke-width: 1.000000; stroke-linejoin: round; stroke-linecap: square;  opacity: 1.000000" clip-path="url(#pfa3adc3754b66ff4da75a66cebb9b252)" d="M320.990831 167.159755L320.990831 167.159755"/>
</g>
<g id="line2d104">
<path style="fill: none; stroke: #0000ff; stroke-width: 1.000000; stroke-linejoin: round; stroke-linecap: square;  opacity: 1.000000" clip-path="url(#pfa3adc3754b66ff4da75a66cebb9b252)" d="M310.930015 160.576986L315.993236 158.754093L315.002976 163.386175
L310.482904 162.714456"/>
</g>
<g id="line2d105">
<path style="fill: none; stroke: #0000ff; stroke-width: 1.000000; stroke-linejoin: round; stroke-linecap: square;  opacity: 1.000000" clip-path="url(#pfa3adc3754b66ff4da75a66cebb9b252)" d="M307.073866 161.687638L301.135852 158.390945L298.403959 153.792068
L304.419392 157.758553L309.976052 160.861221"/>
</g>
<g id="line2d106">
<path style="fill: none; stroke: #0000ff; stroke-width: 1.000000; stroke-linejoin: round; stroke-linecap: square;  opacity: 1.000000" clip-path="url(#pfa3adc3754b66ff4da75a66cebb9b252)" d="M315.837438 163.715113"/>
</g>
<g id="line2d107">
<path style="fill: none; stroke: #0000ff; stroke-width: 1.000000; stroke-linejoin: round; stroke-linecap: square;  opacity: 1.000000" clip-path="url(#pfa3adc3754b66ff4da75a66cebb9b252)" d="M316.898404 156.265707"/>
</g>
<g id="line2d108">
<path style="fill: none; stroke: #0000ff; stroke-width: 1.000000; stroke-linejoin: round; stroke-linecap: square;  opacity: 1.000000" clip-path="url(#pfa3adc3754b66ff4da75a66cebb9b252)" d="M304.571246 149.709413"/>
</g>
<g id="line2d109">
<path style="fill: none; stroke: #0000ff; stroke-width: 1.000000; stroke-linejoin: round; stroke-linecap: square;  opacity: 1.000000" clip-path="url(#pfa3adc3754b66ff4da75a66cebb9b252)" d="M303.845229 146.771746"/>
</g>
<g id="line2d110">
<path style="fill: none; stroke: #0000ff; stroke-width: 1.000000; stroke-linejoin: round; stroke-linecap: square;  opacity: 1.000000" clip-path="url(#pfa3adc3754b66ff4da75a66cebb9b252)" d="M301.476209 143.153012"/>
</g>
<g id="line2d111">
<path style="fill: none; stroke: #0000ff; stroke-width: 1.000000; stroke-linejoin: round; stroke-linecap: square;  opacity: 1.000000" clip-path="url(#pfa3adc3754b66ff4da75a66cebb9b252)" d="M304.598607 137.544080"/>
</g>
<g id="line2d112">
<path style="fill: none; stroke: #0000ff; stroke-width: 1.000000; stroke-linejoin: round; stroke-linecap: square;  opacity: 1.000000" clip-path="url(#pfa3adc3754b66ff4da75a66cebb9b252)" d="M320.958144 161.233880L320.416236 157.772805L316.832141 154.151655
L317.109033 147.723870L312.822043 149.927688L306.823528 150.251501"/>
</g>
<g id="line2d113">
<path style="fill: none; stroke: #0000ff; stroke-width: 1.000000; stroke-linejoin: round; stroke-linecap: square;  opacity: 1.000000" clip-path="url(#pfa3adc3754b66ff4da75a66cebb9b252)" d="M305.515840 147.588364L310.372217 145.204422L314.903849 142.646194
L319.394378 142.797788L313.784877 141.360367L313.073809 138.470861
L310.689719 140.450346L309.085494 144.079347L304.604618 145.780527
L306.120057 141.158508L302.683064 142.033916L303.868453 138.087269
L301.275250 138.630135"/>
</g>
<g id="line2d114">
<path style="fill: none; stroke: #0000ff; stroke-width: 1.000000; stroke-linejoin: round; stroke-linecap: square;  opacity: 1.000000" clip-path="url(#pfa3adc3754b66ff4da75a66cebb9b252)" d="M292.548449 91.115978L298.987588 90.537424L298.070433 91.430188
L294.646796 92.048844"/>
</g>
<g id="line2d115">
<path style="fill: none; stroke: #0000ff; stroke-width: 1.000000; stroke-linejoin: round; stroke-linecap: square;  opacity: 1.000000" clip-path="url(#pfa3adc3754b66ff4da75a66cebb9b252)" d="M346.650025 121.427697L347.507280 122.367692L352.237668 126.244534
L349.731229 125.964098"/>
</g>
<g id="line2d116">
<path style="fill: none; stroke: #0000ff; stroke-width: 1.000000; stroke-linejoin: round; stroke-linecap: square;  opacity: 1.000000" clip-path="url(#pfa3adc3754b66ff4da75a66cebb9b252)" d="M232.071046 95.643316L238.678928 93.967731L242.942142 90.076452
L246.187926 86.319875L246.734943 83.708009"/>
</g>
<g id="line2d117">
<path style="fill: none; stroke: #0000ff; stroke-width: 1.000000; stroke-linejoin: round; stroke-linecap: square;  opacity: 1.000000" clip-path="url(#pfa3adc3754b66ff4da75a66cebb9b252)" d="M245.523811 84.134307"/>
</g>
<g id="line2d118">
<path style="fill: none; stroke: #0000ff; stroke-width: 1.000000; stroke-linejoin: round; stroke-linecap: square;  opacity: 1.000000" clip-path="url(#pfa3adc3754b66ff4da75a66cebb9b252)" d="M349.885438 217.708259L349.381338 215.160734L345.012717 210.097998
L345.581564 205.988539L342.240124 203.079712L342.848832 196.419865
L341.055703 198.059450"/>
</g>
<g id="line2d119">
<path style="fill: none; stroke: #0000ff; stroke-width: 1.000000; stroke-linejoin: round; stroke-linecap: square;  opacity: 1.000000" clip-path="url(#pfa3adc3754b66ff4da75a66cebb9b252)" d="M344.350924 209.110401"/>
</g>
<g id="line2d120">
<path style="fill: none; stroke: #0000ff; stroke-width: 1.000000; stroke-linejoin: round; stroke-linecap: square;  opacity: 1.000000" clip-path="url(#pfa3adc3754b66ff4da75a66cebb9b252)" d="M342.625475 206.750314"/>
</g>
<g id="line2d121">
<path style="fill: none; stroke: #0000ff; stroke-width: 1.000000; stroke-linejoin: round; stroke-linecap: square;  opacity: 1.000000" clip-path="url(#pfa3adc3754b66ff4da75a66cebb9b252)" d="M339.499497 192.331278L343.573952 193.606472L339.478072 192.463199"/>
</g>
<g id="line2d122">
<path style="fill: none; stroke: #0000ff; stroke-width: 1.000000; stroke-linejoin: round; stroke-linecap: square;  opacity: 1.000000" clip-path="url(#pfa3adc3754b66ff4da75a66cebb9b252)" d="M374.095491 195.813556L371.787117 196.000585L369.460368 194.010199
L371.282196 201.429328L372.117642 201.719248L373.085345 202.304846"/>
</g>
<g id="line2d123">
<path style="fill: none; stroke: #0000ff; stroke-width: 1.000000; stroke-linejoin: round; stroke-linecap: square;  opacity: 1.000000" clip-path="url(#pfa3adc3754b66ff4da75a66cebb9b252)" d="M371.080523 205.057729L369.398986 209.251234"/>
</g>
<g id="line2d124">
<path style="fill: none; stroke: #0000ff; stroke-width: 1.000000; stroke-linejoin: round; stroke-linecap: square;  opacity: 1.000000" clip-path="url(#pfa3adc3754b66ff4da75a66cebb9b252)" d="M377.110995 168.401373L374.504809 165.069080L374.178423 168.108988
L371.842660 171.888219L369.109419 164.778437L366.844017 164.895231
L368.542225 172.292349L371.506847 177.326792L375.170609 178.042126"/>
</g>
<g id="line2d125">
<path style="fill: none; stroke: #0000ff; stroke-width: 1.000000; stroke-linejoin: round; stroke-linecap: square;  opacity: 1.000000" clip-path="url(#pfa3adc3754b66ff4da75a66cebb9b252)" d="M364.587101 149.024468L362.634352 150.096426L365.847199 154.754703
L368.042982 153.262680"/>
</g>
<g id="line2d126">
<path style="fill: none; stroke: #0000ff; stroke-width: 1.000000; stroke-linejoin: round; stroke-linecap: square;  opacity: 1.000000" clip-path="url(#pfa3adc3754b66ff4da75a66cebb9b252)" d="M260.940180 119.574629L260.646857 118.130163L260.338993 115.988804
L260.606613 115.057857L261.047145 112.984597L261.297208 111.619887
L259.405202 110.633939L255.828048 109.494508L251.578759 107.895571
L247.633684 106.945139L243.368437 105.780526L238.959096 104.388026
L235.367080 102.496764L232.390613 100.543570L231.029475 98.637871
L229.813019 96.500991L229.358806 95.293160L229.159898 93.154928
L229.658087 92.586096"/>
</g>
<g id="line2d127">
<path style="fill: none; stroke: #0000ff; stroke-width: 1.000000; stroke-linejoin: round; stroke-linecap: square;  opacity: 1.000000" clip-path="url(#pfa3adc3754b66ff4da75a66cebb9b252)" d="M353.006751 263.913254L350.464969 266.003928L346.957192 268.335003
L345.464147 269.599990L344.269817 270.194548"/>
</g>
<g id="line2d128">
<path style="fill: none; stroke: #0000ff; stroke-width: 1.000000; stroke-linejoin: round; stroke-linecap: square;  opacity: 1.000000" clip-path="url(#pfa3adc3754b66ff4da75a66cebb9b252)" d="M238.825960 86.859326L240.102511 85.925092L242.769567 84.149573
L245.310425 82.697911L248.957656 81.685384L253.962906 81.558447
L259.387719 81.884360L265.780676 83.478212L271.104934 84.235185
L275.063136 83.117549L279.258239 80.887084L282.449315 80.618335
L289.359687 82.107732L293.800782 81.849486L299.044913 83.202445
L305.137561 85.021456L311.098238 86.629949L317.832061 89.980605
L324.967106 94.884319L329.509845 99.160310L331.197175 101.083017
L334.398992 103.394184L338.411554 106.531908L342.287927 109.647803
L344.776526 111.938150L347.949536 114.683708L351.680457 118.029262
L355.033256 121.000209L358.317045 124.150339L360.942931 126.916770
L363.249326 129.192057L367.061480 133.199088L370.292777 138.444397
L374.161697 146.592228L376.809885 154.755074L376.919898 157.179993
L377.363133 162.494248L377.042410 166.586346L376.992354 171.949545
L377.069406 175.971701L376.624221 179.401945L376.097256 185.207624
L375.884833 188.959293L375.529530 192.462337L375.224847 194.568060
L373.741811 196.855209L372.741864 200.216892L372.896358 204.304393
L373.046238 207.411873L372.179206 212.976251L370.816726 215.326192
L367.747045 217.225717L363.762443 217.212064L360.673486 219.116166
L359.313114 223.720054L358.802249 229.519270L358.312855 233.185205
L356.356161 238.512203L353.859562 244.571243L352.604983 251.242865
L353.261801 254.436697L355.690578 255.398250"/>
</g>
<g id="line2d129">
<path style="fill: none; stroke: #0000ff; stroke-width: 1.000000; stroke-linejoin: round; stroke-linecap: square;  opacity: 1.000000" clip-path="url(#pfa3adc3754b66ff4da75a66cebb9b252)" d="M343.850529 269.353918L342.577959 268.086383L339.507339 268.205593
L335.884883 268.350074L334.427941 267.408840L330.876299 268.800095
L326.780995 269.771225L325.101168 267.585225L322.933797 263.806451
L320.621077 262.263135L319.078239 259.499534L318.861988 257.395892
L319.754550 255.132185L320.353456 250.012088L318.352393 247.136012
L318.034801 244.977177L318.903664 241.825669L319.390451 238.537848
L320.397682 236.523096L321.029077 234.040223L321.413036 231.339239
L321.931989 229.606639L322.812973 224.911887L323.227505 222.683836
L323.376901 221.168826L322.970552 219.458324L319.815018 215.463020
L318.408923 211.251244L317.581567 207.468403L316.899356 203.186108
L316.435736 199.291962"/>
</g>
<g id="line2d130">
<path style="fill: none; stroke: #0000ff; stroke-width: 1.000000; stroke-linejoin: round; stroke-linecap: square;  opacity: 1.000000" clip-path="url(#pfa3adc3754b66ff4da75a66cebb9b252)" d="M282.453121 156.148454L281.262091 154.764160L279.880067 153.384209
L278.588724 151.607016L277.480006 149.230368L276.684651 146.945477
L275.972615 144.832505L275.140632 142.758833L274.072641 140.409868
L272.116624 137.887853L270.062823 136.042498L269.028816 135.046295"/>
</g>
<g id="matplotlib.axis1">
</g>
<g id="matplotlib.axis2">
</g>
</g>
<g id="text1">
<defs>
<path id="c_f15a64fcd463ef4629c48bab42cde24c" d="M18.109375 -8.203125l0.000000 29.000000l-9.031250 0.000000l0.000000 -75.484375l9.031250 0.000000l0.000000 8.296875q2.843750 -4.875000 7.156250 -7.234375q4.328125 -2.375000 10.328125 -2.375000q9.968750 0.000000 16.187500 7.906250q6.234375 7.906250 6.234375 20.796875q0.000000 12.890625 -6.234375 20.812500q-6.218750 7.906250 -16.187500 7.906250q-6.000000 0.000000 -10.328125 -2.375000q-4.312500 -2.375000 -7.156250 -7.250000M48.687500 -27.296875q0.000000 -9.906250 -4.078125 -15.546875q-4.078125 -5.640625 -11.203125 -5.640625q-7.140625 0.000000 -11.218750 5.640625q-4.078125 5.640625 -4.078125 15.546875q0.000000 9.906250 4.078125 15.546875q4.078125 5.640625 11.218750 5.640625q7.125000 0.000000 11.203125 -5.640625q4.078125 -5.640625 4.078125 -15.546875"/>
<path id="c_4653c6dfde66c7610eae0911760d3490" d="M52.000000 -44.187500q3.375000 -6.062500 8.062500 -8.937500q4.687500 -2.875000 11.031250 -2.875000q8.546875 0.000000 13.187500 5.984375q4.640625 5.968750 4.640625 17.000000l0.000000 33.015625l-9.031250 0.000000l0.000000 -32.718750q0.000000 -7.859375 -2.796875 -11.656250q-2.781250 -3.812500 -8.484375 -3.812500q-6.984375 0.000000 -11.046875 4.640625q-4.046875 4.625000 -4.046875 12.640625l0.000000 30.906250l-9.031250 0.000000l0.000000 -32.718750q0.000000 -7.906250 -2.781250 -11.687500q-2.781250 -3.781250 -8.593750 -3.781250q-6.890625 0.000000 -10.953125 4.656250q-4.046875 4.656250 -4.046875 12.625000l0.000000 30.906250l-9.031250 0.000000l0.000000 -54.687500l9.031250 0.000000l0.000000 8.500000q3.078125 -5.031250 7.375000 -7.421875q4.296875 -2.390625 10.203125 -2.390625q5.968750 0.000000 10.140625 3.031250q4.171875 3.015625 6.171875 8.781250"/>
<path id="c_01d93a582460e35a7945ca50d148ffeb" d="M34.281250 -27.484375q-10.890625 0.000000 -15.093750 2.484375q-4.203125 2.484375 -4.203125 8.500000q0.000000 4.781250 3.156250 7.593750q3.156250 2.796875 8.562500 2.796875q7.484375 0.000000 12.000000 -5.296875q4.515625 -5.296875 4.515625 -14.078125l0.000000 -2.000000zM52.203125 -31.203125l0.000000 31.203125l-8.984375 0.000000l0.000000 -8.296875q-3.078125 4.968750 -7.671875 7.343750q-4.593750 2.375000 -11.234375 2.375000q-8.390625 0.000000 -13.359375 -4.718750q-4.953125 -4.718750 -4.953125 -12.625000q0.000000 -9.218750 6.171875 -13.906250q6.187500 -4.687500 18.437500 -4.687500l12.609375 0.000000l0.000000 -0.890625q0.000000 -6.203125 -4.078125 -9.593750q-4.078125 -3.390625 -11.453125 -3.390625q-4.687500 0.000000 -9.140625 1.125000q-4.437500 1.125000 -8.531250 3.375000l0.000000 -8.312500q4.921875 -1.906250 9.562500 -2.843750q4.640625 -0.953125 9.031250 -0.953125q11.875000 0.000000 17.734375 6.156250q5.859375 6.140625 5.859375 18.640625"/>
<path id="c_e3864de5dabf2f8dd9eee74726882ec1" d="M45.406250 -27.984375q0.000000 -9.765625 -4.031250 -15.125000q-4.015625 -5.375000 -11.296875 -5.375000q-7.218750 0.000000 -11.250000 5.375000q-4.031250 5.359375 -4.031250 15.125000q0.000000 9.718750 4.031250 15.093750q4.031250 5.375000 11.250000 5.375000q7.281250 0.000000 11.296875 -5.375000q4.031250 -5.375000 4.031250 -15.093750M54.390625 -6.781250q0.000000 13.953125 -6.203125 20.765625q-6.187500 6.812500 -18.984375 6.812500q-4.734375 0.000000 -8.937500 -0.703125q-4.203125 -0.703125 -8.156250 -2.171875l0.000000 -8.734375q3.953125 2.140625 7.812500 3.156250q3.859375 1.031250 7.859375 1.031250q8.843750 0.000000 13.234375 -4.609375q4.390625 -4.609375 4.390625 -13.937500l0.000000 -4.453125q-2.781250 4.843750 -7.125000 7.234375q-4.343750 2.390625 -10.406250 2.390625q-10.046875 0.000000 -16.203125 -7.656250q-6.156250 -7.671875 -6.156250 -20.328125q0.000000 -12.687500 6.156250 -20.343750q6.156250 -7.671875 16.203125 -7.671875q6.062500 0.000000 10.406250 2.390625q4.343750 2.390625 7.125000 7.218750l0.000000 -8.296875l8.984375 0.000000z"/>
<path id="c_3fe22c4af425ac970aec982ae9662abe" d="M32.171875 5.078125q-3.796875 9.765625 -7.421875 12.734375q-3.609375 2.984375 -9.656250 2.984375l-7.187500 0.000000l0.000000 -7.515625l5.281250 0.000000q3.703125 0.000000 5.750000 -1.765625q2.062500 -1.750000 4.546875 -8.296875l1.609375 -4.093750l-22.109375 -53.812500l9.515625 0.000000l17.093750 42.765625l17.093750 -42.765625l9.515625 0.000000z"/>
<path id="c_7b26b13f539f13a4c64eef23b6952d29" d="M4.890625 -31.390625l26.312500 0.000000l0.000000 8.000000l-26.312500 0.000000z"/>
<path id="c_ed3f3ed3ebfbd18bcb9c012009a68ad1" d="M19.187500 -8.296875l34.421875 0.000000l0.000000 8.296875l-46.281250 0.000000l0.000000 -8.296875q5.609375 -5.812500 15.296875 -15.593750q9.703125 -9.796875 12.187500 -12.640625q4.734375 -5.312500 6.609375 -9.000000q1.890625 -3.687500 1.890625 -7.250000q0.000000 -5.812500 -4.078125 -9.468750q-4.078125 -3.671875 -10.625000 -3.671875q-4.640625 0.000000 -9.796875 1.609375q-5.140625 1.609375 -11.000000 4.890625l0.000000 -9.968750q5.953125 -2.390625 11.125000 -3.609375q5.187500 -1.218750 9.484375 -1.218750q11.328125 0.000000 18.062500 5.671875q6.734375 5.656250 6.734375 15.125000q0.000000 4.500000 -1.687500 8.531250q-1.671875 4.015625 -6.125000 9.484375q-1.218750 1.421875 -7.765625 8.187500q-6.531250 6.765625 -18.453125 18.921875"/>
<path id="c_ed3e21196fb739f392806f09ca0594ef" d="M10.687500 -12.406250l10.312500 0.000000l0.000000 12.406250l-10.312500 0.000000z"/>
<path id="c_a0416418d96557a09b8c1332d34883ba" d="M37.796875 -64.312500l-24.906250 38.921875l24.906250 0.000000zM35.203125 -72.906250l12.406250 0.000000l0.000000 47.515625l10.406250 0.000000l0.000000 8.203125l-10.406250 0.000000l0.000000 17.187500l-9.812500 0.000000l0.000000 -17.187500l-32.906250 0.000000l0.000000 -9.515625z"/>
<path id="c_956f18cfdaf972f35a6c2b4aaac2532b" d="M8.203125 -72.906250l46.875000 0.000000l0.000000 4.203125l-26.468750 68.703125l-10.296875 0.000000l24.906250 -64.593750l-35.015625 0.000000z"/>
</defs>
<g style="fill: #000000; opacity: 1.000000" transform="translate(8.892000,437.654000)scale(0.120000)">
<use xlink:href="#c_f15a64fcd463ef4629c48bab42cde24c"/>
<use xlink:href="#c_4653c6dfde66c7610eae0911760d3490" x="63.476562"/>
<use xlink:href="#c_01d93a582460e35a7945ca50d148ffeb" x="160.888672"/>
<use xlink:href="#c_e3864de5dabf2f8dd9eee74726882ec1" x="222.167969"/>
<use xlink:href="#c_f15a64fcd463ef4629c48bab42cde24c" x="285.644531"/>
<use xlink:href="#c_3fe22c4af425ac970aec982ae9662abe" x="349.121094"/>
<use xlink:href="#c_7b26b13f539f13a4c64eef23b6952d29" x="406.550781"/>
<use xlink:href="#c_ed3f3ed3ebfbd18bcb9c012009a68ad1" x="442.634766"/>
<use xlink:href="#c_ed3e21196fb739f392806f09ca0594ef" x="506.257813"/>
<use xlink:href="#c_a0416418d96557a09b8c1332d34883ba" x="538.044922"/>
<use xlink:href="#c_956f18cfdaf972f35a6c2b4aaac2532b" x="601.667969"/>
</g>
</g>
</g>
</svg>
