<?xml version="1.0" standalone="no"?>
<!DOCTYPE svg PUBLIC "-//W3C//DTD SVG 1.1//EN"
  "http://www.w3.org/Graphics/SVG/1.1/DTD/svg11.dtd">
<!-- Created with matplotlib (http://matplotlib.sourceforge.net/) -->
<svg width="372" height="372" viewBox="0 0 372 372"
   xmlns="http://www.w3.org/2000/svg"
   xmlns:xlink="http://www.w3.org/1999/xlink"
   version="1.1"
   id="svg1">
<g id="figure1">
<polygon style="fill: #ffffff; stroke: #ffffff; stroke-width: 1.000000; stroke-linejoin: miter; stroke-linecap: square;  opacity: 1.000000"  points = "0.000000,372.600000 0.000000,0.000000 372.600000,0.000000 372.600000,372.600000"/>
<g id="axes1">
<polygon style="fill: #ffffff; stroke: #000000; stroke-width: 1.000000; stroke-linejoin: miter; stroke-linecap: square;  opacity: 1.000000"  points = "46.575000,335.340000 46.575000,37.260000 335.340000,37.260000 335.340000,335.340000"/>
<defs>
    <clipPath id="-1467158557">
    <rect x="46.575000" y="37.260000" width="288.765000" height="298.080000"
    style="stroke: gray; fill: none;"/>
    </clipPath>
</defs>
<path style="fill: none; stroke: #0000ff; stroke-width: 1.000000; stroke-linejoin: miter; stroke-linecap: square;  opacity: 1.000000" clip-path="url(#-1467158557)" d="M 46.575000,72.409075 L 52.350300,83.389002 L 58.125600,103.357610 L 63.900900,133.249720 L 69.676200,170.261718 L 75.451500,207.718620 L 81.226800,241.918627 L 87.002100,266.577529 L 92.777400,279.139599 L 98.552700,283.745841 L 104.328000,285.229449 L 110.103300,285.729807 L 115.878600,285.991301 L 121.653900,286.030750 L 127.429200,286.162745 L 133.204500,286.255270 L 138.979800,286.362192 L 144.755100,286.296174 L 150.530400,286.422952 L 156.305700,286.350816 L 162.081000,286.386336 L 167.856300,286.412479 L 173.631600,286.400780 L 179.406900,286.401329 L 185.182200,286.359647 L 190.957500,286.374459 L 196.732800,286.356893 L 202.508100,286.398839 L 208.283400,286.333824 L 214.058700,286.283089 L 219.834000,286.271807 L 225.609300,286.267326 L 231.384600,286.220210 L 237.159900,286.149633 L 242.935200,286.223849 L 248.710500,286.221034 L 254.485800,286.214445 L 260.261100,286.147681 L 266.036400,286.189897 L 271.811700,286.159298 L 277.587000,286.189144 L 283.362300,286.156805 L 289.137600,286.166120 L 294.912900,286.124235 L 300.688200,286.031256 L 306.463500,285.949390 L 312.238800,285.942224 L 318.014100,285.853092 L 323.789400,285.769237 L 329.564700,285.701961 "/>
<path style="fill: none; stroke: #ff0000; stroke-width: 1.000000; stroke-linejoin: miter; stroke-linecap: square;  opacity: 1.000000" clip-path="url(#-1467158557)" d="M 46.575000,179.034537 L 72.563850,179.034537 L 72.563850,285.660000 "/>
<path style="fill: none; stroke: #000000; stroke-width: 1.000000; stroke-linejoin: miter; stroke-linecap: square;  opacity: 1.000000" clip-path="url(#-1467158557)" d="M 46.575000,285.660000 L 335.340000,285.660000 "/>
<path style="fill: none; stroke: #000000; stroke-width: 1.000000; stroke-linejoin: miter; stroke-linecap: square;  opacity: 1.000000" clip-path="url(#-1467158557)" d="M 46.575000,335.340000 L 46.575000,37.260000 "/>
<rect style="fill: #0000ff; stroke: #000000; stroke-width: 0.500000; stroke-linejoin: miter; stroke-linecap: butt;  opacity: 1.000000" clip-path="url(#-1467158557)" width="6.000000" height="6.000000" x="69.563850" y="282.660000"/>
<g id="matplotlib.axis1">
<g id="xtick1">
<text style="font-size: 12.000000; font-family: Times; font-style: Regular; fill: #000000;" x="39.575000" y="347.340000" >0.0</text>
</g>
<g id="xtick2">
<path style="fill: none; stroke: #000000; stroke-width: 0.500000; stroke-linejoin: miter; stroke-linecap: butt;  opacity: 1.000000"  d="M 104.328000,335.340000 L 104.328000,331.340000"/>
<path style="fill: none; stroke: #000000; stroke-width: 0.500000; stroke-linejoin: miter; stroke-linecap: butt;  opacity: 1.000000"  d="M 104.328000,41.260000 L 104.328000,37.260000"/>
<text style="font-size: 12.000000; font-family: Times; font-style: Regular; fill: #000000;" x="97.328000" y="347.340000" >0.1</text>
</g>
<g id="xtick3">
<path style="fill: none; stroke: #000000; stroke-width: 0.500000; stroke-linejoin: miter; stroke-linecap: butt;  opacity: 1.000000"  d="M 162.081000,335.340000 L 162.081000,331.340000"/>
<path style="fill: none; stroke: #000000; stroke-width: 0.500000; stroke-linejoin: miter; stroke-linecap: butt;  opacity: 1.000000"  d="M 162.081000,41.260000 L 162.081000,37.260000"/>
<text style="font-size: 12.000000; font-family: Times; font-style: Regular; fill: #000000;" x="155.081000" y="347.340000" >0.2</text>
</g>
<g id="xtick4">
<path style="fill: none; stroke: #000000; stroke-width: 0.500000; stroke-linejoin: miter; stroke-linecap: butt;  opacity: 1.000000"  d="M 219.834000,335.340000 L 219.834000,331.340000"/>
<path style="fill: none; stroke: #000000; stroke-width: 0.500000; stroke-linejoin: miter; stroke-linecap: butt;  opacity: 1.000000"  d="M 219.834000,41.260000 L 219.834000,37.260000"/>
<text style="font-size: 12.000000; font-family: Times; font-style: Regular; fill: #000000;" x="212.834000" y="347.340000" >0.3</text>
</g>
<g id="xtick5">
<path style="fill: none; stroke: #000000; stroke-width: 0.500000; stroke-linejoin: miter; stroke-linecap: butt;  opacity: 1.000000"  d="M 277.587000,335.340000 L 277.587000,331.340000"/>
<path style="fill: none; stroke: #000000; stroke-width: 0.500000; stroke-linejoin: miter; stroke-linecap: butt;  opacity: 1.000000"  d="M 277.587000,41.260000 L 277.587000,37.260000"/>
<text style="font-size: 12.000000; font-family: Times; font-style: Regular; fill: #000000;" x="270.087000" y="347.340000" >0.4</text>
</g>
<g id="xtick6">
<text style="font-size: 12.000000; font-family: Times; font-style: Regular; fill: #000000;" x="328.340000" y="347.433750" >0.5</text>
</g>
<text style="font-size: 12.000000; font-family: Times; font-style: Regular; fill: #000000;" x="178.457500" y="362.433750" >B (T)</text>
</g>
<g id="matplotlib.axis2">
<g id="ytick1">
<text style="font-size: 12.000000; font-family: Times; font-style: Regular; fill: #000000;" x="24.575000" y="339.340000" >-0.2</text>
</g>
<g id="ytick2">
<path style="fill: none; stroke: #000000; stroke-width: 0.500000; stroke-linejoin: miter; stroke-linecap: butt;  opacity: 1.000000"  d="M 46.575000,285.660000 L 50.575000,285.660000"/>
<path style="fill: none; stroke: #000000; stroke-width: 0.500000; stroke-linejoin: miter; stroke-linecap: butt;  opacity: 1.000000"  d="M 331.340000,285.660000 L 335.340000,285.660000"/>
<text style="font-size: 12.000000; font-family: Times; font-style: Regular; fill: #000000;" x="28.575000" y="289.660000" >0.0</text>
</g>
<g id="ytick3">
<path style="fill: none; stroke: #000000; stroke-width: 0.500000; stroke-linejoin: miter; stroke-linecap: butt;  opacity: 1.000000"  d="M 46.575000,235.980000 L 50.575000,235.980000"/>
<path style="fill: none; stroke: #000000; stroke-width: 0.500000; stroke-linejoin: miter; stroke-linecap: butt;  opacity: 1.000000"  d="M 331.340000,235.980000 L 335.340000,235.980000"/>
<text style="font-size: 12.000000; font-family: Times; font-style: Regular; fill: #000000;" x="28.575000" y="239.980000" >0.2</text>
</g>
<g id="ytick4">
<path style="fill: none; stroke: #000000; stroke-width: 0.500000; stroke-linejoin: miter; stroke-linecap: butt;  opacity: 1.000000"  d="M 46.575000,186.300000 L 50.575000,186.300000"/>
<path style="fill: none; stroke: #000000; stroke-width: 0.500000; stroke-linejoin: miter; stroke-linecap: butt;  opacity: 1.000000"  d="M 331.340000,186.300000 L 335.340000,186.300000"/>
<text style="font-size: 12.000000; font-family: Times; font-style: Regular; fill: #000000;" x="27.575000" y="190.300000" >0.4</text>
</g>
<g id="ytick5">
<path style="fill: none; stroke: #000000; stroke-width: 0.500000; stroke-linejoin: miter; stroke-linecap: butt;  opacity: 1.000000"  d="M 46.575000,136.620000 L 50.575000,136.620000"/>
<path style="fill: none; stroke: #000000; stroke-width: 0.500000; stroke-linejoin: miter; stroke-linecap: butt;  opacity: 1.000000"  d="M 331.340000,136.620000 L 335.340000,136.620000"/>
<text style="font-size: 12.000000; font-family: Times; font-style: Regular; fill: #000000;" x="28.575000" y="140.620000" >0.6</text>
</g>
<g id="ytick6">
<path style="fill: none; stroke: #000000; stroke-width: 0.500000; stroke-linejoin: miter; stroke-linecap: butt;  opacity: 1.000000"  d="M 46.575000,86.940000 L 50.575000,86.940000"/>
<path style="fill: none; stroke: #000000; stroke-width: 0.500000; stroke-linejoin: miter; stroke-linecap: butt;  opacity: 1.000000"  d="M 331.340000,86.940000 L 335.340000,86.940000"/>
<text style="font-size: 12.000000; font-family: Times; font-style: Regular; fill: #000000;" x="28.575000" y="90.940000" >0.8</text>
</g>
<g id="ytick7">
<text style="font-size: 12.000000; font-family: Times; font-style: Regular; fill: #000000;" x="30.575000" y="41.260000" >1.0</text>
</g>
<text style="font-size: 12.000000; font-family: Times; font-style: Regular; fill: #000000;" x="19.575000" y="205.300000" transform="translate(19.575000,205.300000) rotate(-90.0) translate(-19.575000,-205.300000)">Delta M</text>
</g>
<path style="fill: none; stroke: #000000; stroke-width: 1.000000; stroke-linejoin: miter; stroke-linecap: square;  opacity: 1.000000"  d="M 46.575000,335.340000 L 335.340000,335.340000 L 335.340000,37.260000 L 46.575000,37.260000 L 46.575000,335.340000 "/>
<text style="font-size: 12.000000; font-family: Times; font-style: Regular; fill: #000000;" x="190.957500" y="62.100000" >Bcr: 4.50e-02 T</text>
<text style="font-size: 14.000000; font-family: Times; font-style: Regular; fill: #000000;" x="128.457500" y="31.298400" >TC04-15-03F:LP-HYS</text>
</g>
<text style="font-size: 12.000000; font-family: Times; font-style: Regular; fill: #000000;" x="7.452000" y="368.874000" >pmagpy-1.51b</text>
</g>
</svg>
