<?xml version="1.0" standalone="no"?>
<!DOCTYPE svg PUBLIC "-//W3C//DTD SVG 1.1//EN"
  "http://www.w3.org/Graphics/SVG/1.1/DTD/svg11.dtd">
<!-- Created with matplotlib (http://matplotlib.sourceforge.net/) -->
<svg width="372" height="372" viewBox="0 0 372 372"
   xmlns="http://www.w3.org/2000/svg"
   xmlns:xlink="http://www.w3.org/1999/xlink"
   version="1.1"
   id="svg1">
<g id="figure1">
<polygon style="fill: #ffffff; stroke: #ffffff; stroke-width: 1.000000; stroke-linejoin: miter; stroke-linecap: square;  opacity: 1.000000"  points = "0.000000,372.600000 0.000000,0.000000 372.600000,0.000000 372.600000,372.600000"/>
<g id="axes1">
<polygon style="fill: #ffffff; stroke: #000000; stroke-width: 1.000000; stroke-linejoin: miter; stroke-linecap: square;  opacity: 1.000000"  points = "46.575000,335.340000 46.575000,37.260000 335.340000,37.260000 335.340000,335.340000"/>
<defs>
    <clipPath id="-1467158557">
    <rect x="46.575000" y="37.260000" width="288.765000" height="298.080000"
    style="stroke: gray; fill: none;"/>
    </clipPath>
</defs>
<path style="fill: none; stroke: #ff0000; stroke-width: 1.000000; stroke-linejoin: miter; stroke-linecap: square;  opacity: 1.000000" clip-path="url(#-1467158557)" d="M 281.196562,84.609762 L 280.655128,84.584597 L 279.951263,84.597179 L 279.229351,84.609762 L 278.507438,84.609762 L 277.785526,84.622344 L 277.063613,84.634926 L 276.323653,84.660091 L 275.601741,84.672673 L 274.879828,84.697838 L 274.157916,84.723002 L 273.436003,84.710420 L 272.714091,84.735585 L 271.992178,84.760749 L 271.270266,84.798496 L 270.548353,84.811079 L 269.826441,84.836243 L 269.104528,84.873990 L 268.382616,84.873990 L 267.660703,84.886572 L 266.938791,84.924319 L 266.216878,84.936902 L 265.494966,84.962066 L 264.773053,84.999813 L 264.051141,85.024978 L 263.311180,85.024978 L 262.607316,85.062725 L 261.867355,85.100472 L 261.145443,85.100472 L 260.441578,85.138219 L 259.701618,85.163383 L 258.979705,85.201130 L 258.275841,85.213713 L 257.553928,85.251459 L 256.832016,85.314371 L 256.110103,85.326953 L 255.370143,85.377283 L 254.666278,85.415030 L 253.926318,85.440194 L 253.204405,85.477941 L 252.482493,85.528270 L 251.760580,85.566017 L 251.056716,85.616347 L 250.316755,85.654093 L 249.594843,85.729587 L 248.890978,85.767334 L 248.169066,85.830246 L 247.447153,85.880575 L 246.725241,85.943487 L 246.003328,86.006398 L 245.281416,86.069310 L 244.559503,86.132221 L 243.837591,86.195133 L 243.115678,86.283209 L 242.393766,86.346121 L 241.671853,86.434197 L 240.949941,86.497108 L 240.228028,86.585184 L 239.506116,86.685843 L 238.784203,86.773919 L 238.062291,86.861995 L 237.340378,86.962654 L 236.618466,87.075895 L 235.878505,87.163971 L 235.174641,87.277212 L 234.434680,87.390452 L 233.712768,87.528858 L 233.008903,87.654681 L 232.268943,87.793086 L 231.565078,87.918909 L 230.825118,88.082479 L 230.121253,88.233467 L 229.399341,88.397037 L 228.677428,88.585772 L 227.955516,88.774507 L 227.215555,88.963241 L 226.493643,89.151976 L 225.771730,89.365875 L 225.049818,89.592357 L 224.327905,89.831421 L 223.624041,90.095649 L 222.902128,90.359878 L 222.162168,90.636689 L 221.440255,90.913499 L 220.736391,91.240640 L 220.014478,91.580362 L 219.274518,91.907502 L 218.552605,92.297554 L 217.830693,92.687605 L 217.108780,93.102822 L 216.386868,93.530620 L 215.664955,94.008748 L 214.943043,94.461711 L 214.221130,94.965004 L 213.499218,95.518625 L 212.777305,96.072247 L 212.055393,96.663616 L 211.333480,97.292731 L 210.611568,97.972176 L 209.907703,98.676785 L 209.185791,99.393977 L 208.453049,100.174080 L 207.729332,100.979348 L 207.007420,101.860110 L 206.285507,102.766037 L 205.563595,103.697128 L 204.841682,104.716295 L 204.119770,105.785791 L 203.397857,106.905617 L 202.677749,108.088354 L 201.955837,109.334003 L 201.233924,110.667728 L 200.515621,112.051782 L 199.790099,113.511330 L 199.066382,115.096701 L 198.346274,116.719820 L 197.624362,118.468761 L 196.902449,120.305778 L 196.175123,122.281201 L 195.456820,124.344700 L 194.734907,126.559187 L 194.012995,128.937244 L 193.291082,131.491453 L 192.570794,134.272144 L 191.852311,137.329645 L 191.132943,140.827528 L 190.408666,145.092931 L 189.687295,149.874209 L 188.966826,155.007792 L 188.241304,160.405604 L 187.519392,166.055061 L 186.799284,172.031659 L 186.075567,178.535456 L 185.350045,185.575133 L 184.629937,193.078091 L 183.909829,200.819987 L 183.187917,208.683931 L 182.464199,216.472382 L 181.742287,224.046933 L 181.018570,231.369838 L 180.296657,238.390768 L 179.576549,244.908405 L 178.854637,250.721433 L 178.134529,255.704028 L 177.414421,259.805861 L 176.687095,263.115009 L 175.966987,265.656636 L 175.246879,267.619477 L 174.523162,269.167101 L 173.799445,270.437914 L 173.079337,271.519993 L 172.350205,272.476249 L 171.628293,273.331846 L 170.906380,274.111949 L 170.184468,274.829141 L 169.462555,275.496003 L 168.740643,276.137701 L 168.018730,276.741652 L 167.296818,277.307856 L 166.574905,277.811149 L 165.852993,278.327023 L 165.131080,278.817734 L 164.409168,279.258114 L 163.705303,279.685913 L 162.965343,280.101129 L 162.243430,280.478599 L 161.521518,280.843486 L 160.799605,281.183208 L 160.077693,281.497766 L 159.355780,281.799741 L 158.633868,282.076552 L 157.911955,282.353363 L 157.190043,282.605009 L 156.468130,282.844073 L 155.764266,283.070555 L 155.042353,283.297036 L 154.320441,283.485771 L 153.580480,283.687088 L 152.858568,283.875823 L 152.136655,284.026810 L 151.414743,284.202963 L 150.692830,284.366533 L 149.970918,284.517521 L 149.249005,284.655926 L 148.527093,284.806914 L 147.805180,284.932737 L 147.083268,285.058560 L 146.361355,285.184383 L 145.639443,285.297624 L 144.917530,285.410865 L 144.195618,285.524105 L 143.473705,285.624764 L 142.751793,285.725422 L 142.029880,285.826081 L 141.307968,285.901575 L 140.586055,285.989651 L 139.864143,286.077727 L 139.142230,286.165803 L 138.420318,286.241297 L 137.698405,286.304209 L 136.976493,286.379703 L 136.254580,286.442614 L 135.532668,286.518108 L 134.810755,286.568437 L 134.088843,286.631349 L 133.366930,286.706843 L 132.645018,286.757172 L 131.923105,286.820083 L 131.201193,286.857830 L 130.479280,286.920742 L 129.757368,286.971071 L 129.035455,287.008818 L 128.313543,287.046565 L 127.591630,287.084312 L 126.869718,287.122059 L 126.147805,287.159806 L 125.425893,287.210135 L 124.703980,287.260464 L 123.982068,287.273047 L 123.260155,287.323376 L 122.538243,287.373705 L 121.816330,287.386287 L 121.094418,287.398870 L 120.372505,287.436617 L 119.650593,287.461781 L 118.946728,287.512111 L 118.224816,287.537275 L 117.502903,287.549857 L 116.762943,287.587604 L 116.041030,287.600187 L 115.319118,287.650516 L 114.597205,287.663098 L 113.875293,287.675681 L 113.153380,287.713428 L 112.431468,287.726010 L 111.709555,287.738592 L 110.987643,287.751174 L 110.283778,287.751174 L 109.561866,287.763757 L 108.821905,287.788921 L 108.118041,287.801504 L 107.378080,287.801504 L 106.656168,287.839251 L 105.934255,287.864415 L 105.212343,287.851833 L 104.490430,287.864415 L 103.768518,287.889580 L 103.046605,287.927327 L 102.324693,287.902162 L 101.602780,287.927327 L 100.718437,287.927327 L 100.718437,287.889580 L 101.241824,287.902162 L 101.945689,287.864415 L 102.685649,287.864415 L 103.407562,287.876998 L 104.129474,287.864415 L 104.851387,287.839251 L 105.573299,287.839251 L 106.295212,287.839251 L 107.017124,287.814086 L 107.739037,287.801504 L 108.460949,287.788921 L 109.182862,287.776339 L 109.904774,287.763757 L 110.626687,287.751174 L 111.348599,287.726010 L 112.070512,287.688263 L 112.792424,287.688263 L 113.514337,287.650516 L 114.236249,287.637934 L 114.958162,287.612769 L 115.680074,287.612769 L 116.401987,287.575022 L 117.141947,287.549857 L 117.863859,287.537275 L 118.585772,287.499528 L 119.307684,287.449199 L 120.029597,287.424034 L 120.751509,287.398870 L 121.473422,287.361123 L 122.195334,287.335958 L 122.917247,287.298211 L 123.639159,287.273047 L 124.361072,287.235300 L 125.082984,287.197553 L 125.804897,287.159806 L 126.526809,287.147224 L 127.248722,287.084312 L 127.970634,287.059147 L 128.692547,287.008818 L 129.414459,286.958489 L 130.136372,286.908160 L 130.858284,286.870413 L 131.580197,286.820083 L 132.302109,286.769754 L 133.024022,286.719425 L 133.745934,286.656513 L 134.467847,286.606184 L 135.189759,286.543273 L 135.911672,286.480361 L 136.633584,286.417449 L 137.355497,286.354538 L 138.077409,286.266462 L 138.799322,286.216133 L 139.521234,286.140639 L 140.243147,286.039980 L 140.965059,285.951904 L 141.686972,285.876410 L 142.408884,285.800916 L 143.130797,285.687675 L 143.852709,285.599599 L 144.574622,285.511523 L 145.296534,285.410865 L 146.018447,285.297624 L 146.740359,285.171801 L 147.462272,285.045978 L 148.184184,284.932737 L 148.906097,284.819496 L 149.628009,284.655926 L 150.349922,284.504938 L 151.071834,284.379115 L 151.793747,284.202963 L 152.515659,284.051975 L 153.237572,283.875823 L 153.959484,283.699670 L 154.681397,283.485771 L 155.403309,283.284454 L 156.125222,283.070555 L 156.847134,282.818909 L 157.569047,282.605009 L 158.290959,282.353363 L 159.012872,282.063970 L 159.734784,281.699083 L 160.456697,281.447437 L 161.178609,281.158043 L 161.900522,280.805739 L 162.622434,280.466016 L 163.344347,280.050800 L 164.066259,279.648166 L 164.788172,279.220368 L 165.510084,278.805151 L 166.231997,278.289277 L 166.953909,277.785984 L 167.675822,277.257527 L 168.397734,276.691323 L 169.119647,276.087372 L 169.841559,275.483421 L 170.563472,274.829141 L 171.285384,274.137114 L 172.007297,273.432504 L 172.729209,272.652401 L 173.454731,271.834551 L 174.178449,270.991536 L 174.900361,270.098192 L 175.620469,269.154519 L 176.342381,268.160516 L 177.067903,267.116184 L 177.788011,266.021523 L 178.508119,264.838786 L 179.230031,263.643466 L 179.951944,262.322324 L 180.673856,260.950852 L 181.397574,259.503886 L 182.117681,257.968844 L 182.841399,256.320561 L 183.563311,254.621949 L 184.283419,252.797514 L 185.001722,250.872421 L 185.732658,248.808922 L 186.454571,246.632182 L 187.174678,244.279290 L 187.896591,241.750245 L 188.620308,239.007301 L 189.339694,236.012711 L 190.061246,232.590323 L 190.783014,228.463325 L 191.503085,223.770122 L 192.223554,218.674286 L 192.946369,213.314222 L 193.668281,207.740258 L 194.390194,201.826572 L 195.112106,195.424692 L 195.834019,188.488064 L 196.555931,181.065759 L 197.279649,173.340220 L 197.999756,165.501440 L 198.721669,157.700407 L 199.447191,150.050362 L 200.172713,142.677127 L 200.891016,135.631033 L 201.611124,128.962408 L 202.333036,123.010975 L 203.053144,117.839645 L 203.775056,113.536495 L 204.498774,110.088942 L 205.220686,107.408909 L 205.942599,105.332828 L 206.662706,103.709710 L 207.384619,102.401150 L 208.110141,101.281324 L 208.833858,100.299904 L 209.564795,99.419142 L 210.268659,98.626456 L 210.990572,97.909264 L 211.712484,97.166908 L 212.434397,96.562957 L 213.156309,95.959006 L 213.878222,95.417967 L 214.600134,94.889510 L 215.322047,94.386217 L 216.043959,93.908090 L 216.765872,93.442544 L 217.487784,93.014745 L 218.209697,92.599529 L 218.931609,92.209478 L 219.653522,91.832008 L 220.375434,91.492286 L 221.097347,91.177728 L 221.819259,90.875753 L 222.541172,90.586359 L 223.263084,90.296966 L 223.984997,90.057902 L 224.706909,89.806256 L 225.428822,89.579775 L 226.150734,89.353293 L 226.872647,89.151976 L 227.594559,88.950659 L 228.316472,88.761924 L 229.038384,88.585772 L 229.760297,88.409620 L 230.482209,88.258632 L 231.204122,88.107644 L 231.926034,87.969239 L 232.647947,87.830833 L 233.369859,87.705010 L 234.091772,87.579187 L 234.813684,87.465946 L 235.535597,87.352705 L 236.257509,87.239465 L 236.979422,87.126224 L 237.701334,87.050730 L 238.423247,86.950071 L 239.145159,86.861995 L 239.867072,86.773919 L 240.588984,86.723590 L 241.310897,86.635514 L 242.032809,86.560020 L 242.754722,86.497108 L 243.476634,86.434197 L 244.198547,86.358703 L 244.920459,86.295791 L 245.642372,86.245462 L 246.382332,86.169968 L 247.086197,86.119639 L 247.808109,86.056727 L 248.530022,86.018980 L 249.251934,85.981234 L 249.973847,85.930904 L 250.695759,85.893157 L 251.417672,85.830246 L 252.139584,85.792499 L 252.861497,85.729587 L 253.583409,85.717005 L 254.305322,85.666676 L 255.027234,85.641511 L 255.749147,85.603764 L 256.471059,85.553435 L 257.192972,85.540853 L 257.914884,85.515688 L 258.636797,85.477941 L 259.358709,85.452776 L 260.080622,85.427612 L 260.802534,85.402447 L 261.524447,85.389865 L 262.246359,85.377283 L 262.968272,85.326953 L 263.690184,85.301789 L 264.412097,85.301789 L 265.134009,85.289206 L 265.855922,85.251459 L 266.577834,85.238877 L 267.299747,85.226295 L 268.021659,85.213713 L 268.743572,85.201130 L 269.465484,85.188548 L 270.187397,85.188548 L 270.909309,85.175966 L 271.631222,85.163383 L 272.353134,85.163383 L 273.075047,85.150801 L 273.796959,85.138219 L 274.518872,85.150801 L 275.240784,85.150801 L 275.962697,85.125636 L 276.684609,85.138219 L 277.406522,85.125636 L 278.128434,85.125636 L 278.850347,85.125636 L 279.572259,85.138219 L 280.294172,85.100472 L 281.196562,85.138219 "/>
<path style="fill: none; stroke: #0000ff; stroke-width: 1.000000; stroke-linejoin: miter; stroke-linecap: square;  opacity: 1.000000" clip-path="url(#-1467158557)" d="M 281.196562,86.940000 L 280.655128,86.898731 L 279.951263,86.890710 L 279.229351,86.882189 L 278.507438,86.861085 L 277.785526,86.852564 L 277.063613,86.844043 L 276.323653,86.847604 L 275.601741,86.839082 L 274.879828,86.843143 L 274.157916,86.847204 L 273.436003,86.813518 L 272.714091,86.817579 L 271.992178,86.821640 L 271.270266,86.838284 L 270.548353,86.829762 L 269.826441,86.833823 L 269.104528,86.850467 L 268.382616,86.829363 L 267.660703,86.820842 L 266.938791,86.837485 L 266.216878,86.828964 L 265.494966,86.833025 L 264.773053,86.849668 L 264.051141,86.853729 L 263.311180,86.832125 L 262.607316,86.849269 L 261.867355,86.865412 L 261.145443,86.844308 L 260.441578,86.861452 L 259.701618,86.865013 L 258.979705,86.881656 L 258.275841,86.873635 L 257.553928,86.890278 L 256.832016,86.932086 L 256.110103,86.923565 L 255.370143,86.952290 L 254.666278,86.969434 L 253.926318,86.972995 L 253.204405,86.989638 L 252.482493,87.018864 L 251.760580,87.035507 L 251.056716,87.065233 L 250.316755,87.081376 L 249.594843,87.135766 L 248.890978,87.152909 L 248.169066,87.194717 L 247.447153,87.223943 L 246.725241,87.265751 L 246.003328,87.307559 L 245.281416,87.349367 L 244.559503,87.391175 L 243.837591,87.432983 L 243.115678,87.499955 L 242.393766,87.541763 L 241.671853,87.608736 L 240.949941,87.650544 L 240.228028,87.717516 L 239.506116,87.797071 L 238.784203,87.864044 L 238.062291,87.931016 L 237.340378,88.010571 L 236.618466,88.102708 L 235.878505,88.169181 L 235.174641,88.261818 L 234.434680,88.353455 L 233.712768,88.470757 L 233.008903,88.575976 L 232.268943,88.692778 L 231.565078,88.797998 L 230.825118,88.939964 L 230.121253,89.070348 L 229.399341,89.212815 L 228.677428,89.380446 L 227.955516,89.548077 L 227.215555,89.715208 L 226.493643,89.882839 L 225.771730,90.075635 L 225.049818,90.281013 L 224.327905,90.498973 L 223.624041,90.742598 L 222.902128,90.985723 L 222.162168,91.240930 L 221.440255,91.496637 L 220.736391,91.803174 L 220.014478,92.121792 L 219.274518,92.427329 L 218.552605,92.796277 L 217.830693,93.165225 L 217.108780,93.559338 L 216.386868,93.966032 L 215.664955,94.423057 L 214.943043,94.854916 L 214.221130,95.337105 L 213.499218,95.869623 L 212.777305,96.402141 L 212.055393,96.972406 L 211.333480,97.580418 L 210.611568,98.238759 L 209.907703,98.922765 L 209.185791,99.618853 L 208.453049,100.377553 L 207.729332,101.161667 L 207.007420,102.021325 L 206.285507,102.906148 L 205.563595,103.816136 L 204.841682,104.814199 L 204.119770,105.862592 L 203.397857,106.961314 L 202.677749,108.122998 L 201.955837,109.347543 L 201.233924,110.660164 L 200.515621,112.023215 L 199.790099,113.461559 L 199.066382,115.025777 L 198.346274,116.627841 L 197.624362,118.355679 L 196.902449,120.171593 L 196.175123,122.125762 L 195.456820,124.168257 L 194.734907,126.361641 L 194.012995,128.718594 L 193.291082,131.251699 L 192.570794,134.011331 L 191.852311,137.047824 L 191.132943,140.524674 L 190.408666,144.768908 L 189.687295,149.529098 L 188.966826,154.641617 L 188.241304,160.018225 L 187.519392,165.646579 L 186.799284,171.602123 L 186.075567,178.084766 L 185.350045,185.103240 L 184.629937,192.585144 L 183.909829,200.305986 L 183.187917,208.148827 L 182.464199,215.916124 L 181.742287,223.469572 L 181.018570,230.771323 L 180.296657,237.771149 L 179.576549,244.267733 L 178.854637,250.059657 L 178.134529,255.021198 L 177.414421,259.101978 L 176.687095,262.389872 L 175.966987,264.910446 L 175.246879,266.852233 L 174.523162,268.378703 L 173.799445,269.628363 L 173.079337,270.689388 L 172.350205,271.624340 L 171.628293,272.458834 L 170.906380,273.217833 L 170.184468,273.913922 L 169.462555,274.559680 L 168.740643,275.180275 L 168.018730,275.763122 L 167.296818,276.308222 L 166.574905,276.790411 L 165.852993,277.285182 L 165.131080,277.754789 L 164.409168,278.174066 L 163.705303,278.581261 L 162.965343,278.974874 L 162.243430,279.331239 L 161.521518,279.675023 L 160.799605,279.993642 L 160.077693,280.287096 L 159.355780,280.567968 L 158.633868,280.823675 L 157.911955,281.079382 L 157.190043,281.309925 L 156.468130,281.527885 L 155.764266,281.733763 L 155.042353,281.939141 L 154.320441,282.106772 L 153.580480,282.286485 L 152.858568,282.454116 L 152.136655,282.584000 L 151.414743,282.739049 L 150.692830,282.881516 L 149.970918,283.011400 L 149.249005,283.128702 L 148.527093,283.258586 L 147.805180,283.363305 L 147.083268,283.468025 L 146.361355,283.572744 L 145.639443,283.664881 L 144.917530,283.757019 L 144.195618,283.849156 L 143.473705,283.928711 L 142.751793,284.008265 L 142.029880,284.087820 L 141.307968,284.142211 L 140.586055,284.209183 L 139.864143,284.276156 L 139.142230,284.343128 L 138.420318,284.397518 L 137.698405,284.439326 L 136.976493,284.493717 L 136.254580,284.535525 L 135.532668,284.589915 L 134.810755,284.619140 L 134.088843,284.660948 L 133.366930,284.715339 L 132.645018,284.744564 L 131.923105,284.786372 L 131.201193,284.803016 L 130.479280,284.844823 L 129.757368,284.874049 L 129.035455,284.890692 L 128.313543,284.907336 L 127.591630,284.923979 L 126.869718,284.940622 L 126.147805,284.957266 L 125.425893,284.986491 L 124.703980,285.015717 L 123.982068,285.007196 L 123.260155,285.036421 L 122.538243,285.065647 L 121.816330,285.057126 L 121.094418,285.048604 L 120.372505,285.065248 L 119.650593,285.069309 L 118.946728,285.099034 L 118.224816,285.103095 L 117.502903,285.094574 L 116.762943,285.110717 L 116.041030,285.102196 L 115.319118,285.131421 L 114.597205,285.122900 L 113.875293,285.114379 L 113.153380,285.131022 L 112.431468,285.122501 L 111.709555,285.113980 L 110.987643,285.105458 L 110.283778,285.084855 L 109.561866,285.076333 L 108.821905,285.079894 L 108.118041,285.071873 L 107.378080,285.050269 L 106.656168,285.066913 L 105.934255,285.070974 L 105.212343,285.037288 L 104.490430,285.028766 L 103.768518,285.032827 L 103.046605,285.049471 L 102.324693,285.003203 L 101.602780,285.007264 L 100.718437,284.981660 L 100.718437,284.942808 L 101.241824,284.968785 L 101.945689,284.949431 L 102.685649,284.968825 L 103.407562,285.000301 L 104.129474,285.006612 L 104.851387,285.000341 L 105.573299,285.019234 L 106.295212,285.038128 L 107.017124,285.031857 L 107.739037,285.038168 L 108.460949,285.044479 L 109.182862,285.050790 L 109.904774,285.057102 L 110.626687,285.063413 L 111.348599,285.057142 L 112.070512,285.038289 L 112.792424,285.057182 L 113.514337,285.038329 L 114.236249,285.044640 L 114.958162,285.038369 L 115.680074,285.057262 L 116.401987,285.038409 L 117.141947,285.032638 L 117.863859,285.038949 L 118.585772,285.020096 L 119.307684,284.988660 L 120.029597,284.982389 L 120.751509,284.976118 L 121.473422,284.957265 L 122.195334,284.950994 L 122.917247,284.932140 L 123.639159,284.925869 L 124.361072,284.907016 L 125.082984,284.888162 L 125.804897,284.869309 L 126.526809,284.875620 L 127.248722,284.831602 L 127.970634,284.825331 L 128.692547,284.793895 L 129.414459,284.762460 L 130.136372,284.731024 L 130.858284,284.712171 L 131.580197,284.680735 L 132.302109,284.649299 L 133.024022,284.617864 L 133.745934,284.573846 L 134.467847,284.542410 L 135.189759,284.498392 L 135.911672,284.454374 L 136.633584,284.410356 L 137.355497,284.366338 L 138.077409,284.297155 L 138.799322,284.265720 L 139.521234,284.209119 L 140.243147,284.127354 L 140.965059,284.058172 L 141.686972,284.001571 L 142.408884,283.944971 L 143.130797,283.850624 L 143.852709,283.781441 L 144.574622,283.712259 L 145.296534,283.630494 L 146.018447,283.536146 L 146.740359,283.429217 L 147.462272,283.322287 L 148.184184,283.227940 L 148.906097,283.133593 L 149.628009,282.988916 L 150.349922,282.856822 L 151.071834,282.749893 L 151.793747,282.592634 L 152.515659,282.460540 L 153.237572,282.303281 L 153.959484,282.146022 L 154.681397,281.951016 L 155.403309,281.768593 L 156.125222,281.573587 L 156.847134,281.340834 L 157.569047,281.145829 L 158.290959,280.913076 L 159.012872,280.642576 L 159.734784,280.296583 L 160.456697,280.063830 L 161.178609,279.793331 L 161.900522,279.459919 L 162.622434,279.139091 L 163.344347,278.742768 L 164.066259,278.359028 L 164.788172,277.950123 L 165.510084,277.553800 L 166.231997,277.056819 L 166.953909,276.572420 L 167.675822,276.062856 L 168.397734,275.515546 L 169.119647,274.930488 L 169.841559,274.345431 L 170.563472,273.710044 L 171.285384,273.036911 L 172.007297,272.351195 L 172.729209,271.589985 L 173.454731,270.791129 L 174.178449,269.967057 L 174.900361,269.092607 L 175.620469,268.167777 L 176.342381,267.192668 L 177.067903,266.167330 L 177.788011,265.091512 L 178.508119,263.927618 L 179.230031,262.751192 L 179.951944,261.448943 L 180.673856,260.096365 L 181.397574,258.668343 L 182.117681,257.152144 L 182.841399,255.522805 L 183.563311,253.843087 L 184.283419,252.037495 L 185.001722,250.131195 L 185.732658,248.086840 L 186.454571,245.928993 L 187.174678,243.594945 L 187.896591,241.084794 L 188.620308,238.360793 L 189.339694,235.385027 L 190.061246,231.981522 L 190.783014,227.873413 L 191.503085,223.199054 L 192.223554,218.122071 L 192.946369,212.780925 L 193.668281,207.225855 L 194.390194,201.331063 L 195.112106,194.948076 L 195.834019,188.030342 L 196.555931,180.626930 L 197.279649,172.920334 L 197.999756,165.100398 L 198.721669,157.318259 L 199.447191,149.687207 L 200.172713,142.332966 L 200.891016,135.305666 L 201.611124,128.655884 L 202.333036,122.723345 L 203.053144,117.570859 L 203.775056,113.286602 L 204.498774,109.857992 L 205.220686,107.196853 L 205.942599,105.139666 L 206.662706,103.535391 L 207.384619,102.245724 L 208.110141,101.144892 L 208.833858,100.182415 L 209.564795,99.320797 L 210.268659,98.546505 L 210.990572,97.848207 L 211.712484,97.124744 L 212.434397,96.539687 L 213.156309,95.954629 L 213.878222,95.432483 L 214.600134,94.922920 L 215.322047,94.438521 L 216.043959,93.979287 L 216.765872,93.532635 L 217.487784,93.123730 L 218.209697,92.727407 L 218.931609,92.356249 L 219.653522,91.997673 L 220.375434,91.676844 L 221.097347,91.381180 L 221.819259,91.098098 L 222.541172,90.827599 L 223.263084,90.557099 L 223.984997,90.336929 L 224.706909,90.104176 L 225.428822,89.896588 L 226.150734,89.689000 L 226.872647,89.506576 L 227.594559,89.324153 L 228.316472,89.154312 L 229.038384,88.997053 L 229.760297,88.839794 L 230.482209,88.707700 L 231.204122,88.575606 L 231.926034,88.456094 L 232.647947,88.336582 L 233.369859,88.229653 L 234.091772,88.122723 L 234.813684,88.028376 L 235.535597,87.934029 L 236.257509,87.839681 L 236.979422,87.745334 L 237.701334,87.688734 L 238.423247,87.606969 L 239.145159,87.537786 L 239.867072,87.468604 L 240.588984,87.437168 L 241.310897,87.367985 L 242.032809,87.311385 L 242.754722,87.267367 L 243.476634,87.223349 L 244.198547,87.166749 L 244.920459,87.122731 L 245.642372,87.091295 L 246.382332,87.035195 L 247.086197,87.003259 L 247.808109,86.959241 L 248.530022,86.940388 L 249.251934,86.921534 L 249.973847,86.890099 L 250.695759,86.871245 L 251.417672,86.827227 L 252.139584,86.808374 L 252.861497,86.764356 L 253.583409,86.770667 L 254.305322,86.739231 L 255.027234,86.732960 L 255.749147,86.714107 L 256.471059,86.682671 L 257.192972,86.688982 L 257.914884,86.682711 L 258.636797,86.663858 L 259.358709,86.657587 L 260.080622,86.651316 L 260.802534,86.645045 L 261.524447,86.651356 L 262.246359,86.657667 L 262.968272,86.626232 L 263.690184,86.619960 L 264.412097,86.638854 L 265.134009,86.645165 L 265.855922,86.626312 L 266.577834,86.632623 L 267.299747,86.638934 L 268.021659,86.645246 L 268.743572,86.651557 L 269.465484,86.657868 L 270.187397,86.676762 L 270.909309,86.683073 L 271.631222,86.689384 L 272.353134,86.708278 L 273.075047,86.714589 L 273.796959,86.720900 L 274.518872,86.752376 L 275.240784,86.771270 L 275.962697,86.764999 L 276.684609,86.796474 L 277.406522,86.802786 L 278.128434,86.821679 L 278.850347,86.840573 L 279.572259,86.872049 L 280.294172,86.853195 L 281.196562,86.914835 "/>
<path style="fill: none; stroke: #000000; stroke-width: 1.000000; stroke-linejoin: miter; stroke-linecap: square;  opacity: 1.000000" clip-path="url(#-1467158557)" d="M 46.575000,186.300000 L 335.340000,186.300000 "/>
<path style="fill: none; stroke: #000000; stroke-width: 1.000000; stroke-linejoin: miter; stroke-linecap: square;  opacity: 1.000000" clip-path="url(#-1467158557)" d="M 190.957500,335.340000 L 190.957500,37.260000 "/>
<rect style="fill: #0000ff; stroke: #000000; stroke-width: 0.500000; stroke-linejoin: miter; stroke-linecap: butt;  opacity: 1.000000" clip-path="url(#-1467158557)" width="6.000000" height="6.000000" x="187.957500" y="138.558432"/>
<rect style="fill: #0000ff; stroke: #000000; stroke-width: 0.500000; stroke-linejoin: miter; stroke-linecap: butt;  opacity: 1.000000" clip-path="url(#-1467158557)" width="6.000000" height="6.000000" x="193.680461" y="183.300000"/>
<g id="matplotlib.axis1">
<g id="xtick1">
<text style="font-size: 12.000000; font-family: Times; font-style: Regular; fill: #000000;" x="37.575000" y="347.340000" >-0.8</text>
</g>
<g id="xtick2">
<path style="fill: none; stroke: #000000; stroke-width: 0.500000; stroke-linejoin: miter; stroke-linecap: butt;  opacity: 1.000000"  d="M 82.670625,335.340000 L 82.670625,331.340000"/>
<path style="fill: none; stroke: #000000; stroke-width: 0.500000; stroke-linejoin: miter; stroke-linecap: butt;  opacity: 1.000000"  d="M 82.670625,41.260000 L 82.670625,37.260000"/>
<text style="font-size: 12.000000; font-family: Times; font-style: Regular; fill: #000000;" x="73.670625" y="347.340000" >-0.6</text>
</g>
<g id="xtick3">
<path style="fill: none; stroke: #000000; stroke-width: 0.500000; stroke-linejoin: miter; stroke-linecap: butt;  opacity: 1.000000"  d="M 118.766250,335.340000 L 118.766250,331.340000"/>
<path style="fill: none; stroke: #000000; stroke-width: 0.500000; stroke-linejoin: miter; stroke-linecap: butt;  opacity: 1.000000"  d="M 118.766250,41.260000 L 118.766250,37.260000"/>
<text style="font-size: 12.000000; font-family: Times; font-style: Regular; fill: #000000;" x="109.266250" y="347.340000" >-0.4</text>
</g>
<g id="xtick4">
<path style="fill: none; stroke: #000000; stroke-width: 0.500000; stroke-linejoin: miter; stroke-linecap: butt;  opacity: 1.000000"  d="M 154.861875,335.340000 L 154.861875,331.340000"/>
<path style="fill: none; stroke: #000000; stroke-width: 0.500000; stroke-linejoin: miter; stroke-linecap: butt;  opacity: 1.000000"  d="M 154.861875,41.260000 L 154.861875,37.260000"/>
<text style="font-size: 12.000000; font-family: Times; font-style: Regular; fill: #000000;" x="145.861875" y="347.340000" >-0.2</text>
</g>
<g id="xtick5">
<path style="fill: none; stroke: #000000; stroke-width: 0.500000; stroke-linejoin: miter; stroke-linecap: butt;  opacity: 1.000000"  d="M 190.957500,335.340000 L 190.957500,331.340000"/>
<path style="fill: none; stroke: #000000; stroke-width: 0.500000; stroke-linejoin: miter; stroke-linecap: butt;  opacity: 1.000000"  d="M 190.957500,41.260000 L 190.957500,37.260000"/>
<text style="font-size: 12.000000; font-family: Times; font-style: Regular; fill: #000000;" x="183.957500" y="347.340000" >0.0</text>
</g>
<g id="xtick6">
<path style="fill: none; stroke: #000000; stroke-width: 0.500000; stroke-linejoin: miter; stroke-linecap: butt;  opacity: 1.000000"  d="M 227.053125,335.340000 L 227.053125,331.340000"/>
<path style="fill: none; stroke: #000000; stroke-width: 0.500000; stroke-linejoin: miter; stroke-linecap: butt;  opacity: 1.000000"  d="M 227.053125,41.260000 L 227.053125,37.260000"/>
<text style="font-size: 12.000000; font-family: Times; font-style: Regular; fill: #000000;" x="220.053125" y="347.340000" >0.2</text>
</g>
<g id="xtick7">
<path style="fill: none; stroke: #000000; stroke-width: 0.500000; stroke-linejoin: miter; stroke-linecap: butt;  opacity: 1.000000"  d="M 263.148750,335.340000 L 263.148750,331.340000"/>
<path style="fill: none; stroke: #000000; stroke-width: 0.500000; stroke-linejoin: miter; stroke-linecap: butt;  opacity: 1.000000"  d="M 263.148750,41.260000 L 263.148750,37.260000"/>
<text style="font-size: 12.000000; font-family: Times; font-style: Regular; fill: #000000;" x="255.648750" y="347.340000" >0.4</text>
</g>
<g id="xtick8">
<path style="fill: none; stroke: #000000; stroke-width: 0.500000; stroke-linejoin: miter; stroke-linecap: butt;  opacity: 1.000000"  d="M 299.244375,335.340000 L 299.244375,331.340000"/>
<path style="fill: none; stroke: #000000; stroke-width: 0.500000; stroke-linejoin: miter; stroke-linecap: butt;  opacity: 1.000000"  d="M 299.244375,41.260000 L 299.244375,37.260000"/>
<text style="font-size: 12.000000; font-family: Times; font-style: Regular; fill: #000000;" x="292.244375" y="347.340000" >0.6</text>
</g>
<g id="xtick9">
<text style="font-size: 12.000000; font-family: Times; font-style: Regular; fill: #000000;" x="328.340000" y="347.340000" >0.8</text>
</g>
<text style="font-size: 12.000000; font-family: Times; font-style: Regular; fill: #000000;" x="178.457500" y="362.340000" >B (T)</text>
</g>
<g id="matplotlib.axis2">
<g id="ytick1">
<text style="font-size: 12.000000; font-family: Times; font-style: Regular; fill: #000000;" x="24.575000" y="339.386875" >-1.5</text>
</g>
<g id="ytick2">
<path style="fill: none; stroke: #000000; stroke-width: 0.500000; stroke-linejoin: miter; stroke-linecap: butt;  opacity: 1.000000"  d="M 46.575000,285.660000 L 50.575000,285.660000"/>
<path style="fill: none; stroke: #000000; stroke-width: 0.500000; stroke-linejoin: miter; stroke-linecap: butt;  opacity: 1.000000"  d="M 331.340000,285.660000 L 335.340000,285.660000"/>
<text style="font-size: 12.000000; font-family: Times; font-style: Regular; fill: #000000;" x="24.575000" y="289.660000" >-1.0</text>
</g>
<g id="ytick3">
<path style="fill: none; stroke: #000000; stroke-width: 0.500000; stroke-linejoin: miter; stroke-linecap: butt;  opacity: 1.000000"  d="M 46.575000,235.980000 L 50.575000,235.980000"/>
<path style="fill: none; stroke: #000000; stroke-width: 0.500000; stroke-linejoin: miter; stroke-linecap: butt;  opacity: 1.000000"  d="M 331.340000,235.980000 L 335.340000,235.980000"/>
<text style="font-size: 12.000000; font-family: Times; font-style: Regular; fill: #000000;" x="24.575000" y="240.026875" >-0.5</text>
</g>
<g id="ytick4">
<path style="fill: none; stroke: #000000; stroke-width: 0.500000; stroke-linejoin: miter; stroke-linecap: butt;  opacity: 1.000000"  d="M 46.575000,186.300000 L 50.575000,186.300000"/>
<path style="fill: none; stroke: #000000; stroke-width: 0.500000; stroke-linejoin: miter; stroke-linecap: butt;  opacity: 1.000000"  d="M 331.340000,186.300000 L 335.340000,186.300000"/>
<text style="font-size: 12.000000; font-family: Times; font-style: Regular; fill: #000000;" x="28.575000" y="190.300000" >0.0</text>
</g>
<g id="ytick5">
<path style="fill: none; stroke: #000000; stroke-width: 0.500000; stroke-linejoin: miter; stroke-linecap: butt;  opacity: 1.000000"  d="M 46.575000,136.620000 L 50.575000,136.620000"/>
<path style="fill: none; stroke: #000000; stroke-width: 0.500000; stroke-linejoin: miter; stroke-linecap: butt;  opacity: 1.000000"  d="M 331.340000,136.620000 L 335.340000,136.620000"/>
<text style="font-size: 12.000000; font-family: Times; font-style: Regular; fill: #000000;" x="28.575000" y="140.666875" >0.5</text>
</g>
<g id="ytick6">
<path style="fill: none; stroke: #000000; stroke-width: 0.500000; stroke-linejoin: miter; stroke-linecap: butt;  opacity: 1.000000"  d="M 46.575000,86.940000 L 50.575000,86.940000"/>
<path style="fill: none; stroke: #000000; stroke-width: 0.500000; stroke-linejoin: miter; stroke-linecap: butt;  opacity: 1.000000"  d="M 331.340000,86.940000 L 335.340000,86.940000"/>
<text style="font-size: 12.000000; font-family: Times; font-style: Regular; fill: #000000;" x="30.575000" y="90.940000" >1.0</text>
</g>
<g id="ytick7">
<text style="font-size: 12.000000; font-family: Times; font-style: Regular; fill: #000000;" x="30.575000" y="41.306875" >1.5</text>
</g>
<text style="font-size: 12.000000; font-family: Times; font-style: Regular; fill: #000000;" x="19.575000" y="205.300000" transform="translate(19.575000,205.300000) rotate(-90.0) translate(-19.575000,-205.300000)">M/Msat</text>
</g>
<path style="fill: none; stroke: #000000; stroke-width: 1.000000; stroke-linejoin: miter; stroke-linecap: square;  opacity: 1.000000"  d="M 46.575000,335.340000 L 335.340000,335.340000 L 335.340000,37.260000 L 46.575000,37.260000 L 46.575000,335.340000 "/>
<text style="font-size: 12.000000; font-family: Times; font-style: Regular; fill: #000000;" x="205.395750" y="275.724000" >Ms: 7.90e-07 Am^2</text>
<text style="font-size: 12.000000; font-family: Times; font-style: Regular; fill: #000000;" x="205.395750" y="255.852000" >Mr: 3.56e-07 Am^2</text>
<text style="font-size: 12.000000; font-family: Times; font-style: Regular; fill: #000000;" x="205.395750" y="235.980000" >Bc: 3.17e-02 T</text>
<text style="font-size: 12.000000; font-family: Times; font-style: Regular; fill: #000000;" x="205.395750" y="216.108000" >Xhf: 4.99e-14 m^3</text>
<text style="font-size: 14.000000; font-family: Times; font-style: Regular; fill: #000000;" x="128.457500" y="31.298400" >TC04-15-03F:LP-HYS</text>
</g>
<text style="font-size: 12.000000; font-family: Times; font-style: Regular; fill: #000000;" x="7.452000" y="368.874000" >pmagpy-1.51b</text>
</g>
</svg>
