<?xml version="1.0" standalone="no"?>
<!DOCTYPE svg PUBLIC "-//W3C//DTD SVG 1.1//EN"
  "http://www.w3.org/Graphics/SVG/1.1/DTD/svg11.dtd">
<!-- Created with matplotlib (http://matplotlib.sourceforge.net/) -->
<svg width="372" height="372" viewBox="0 0 372 372"
   xmlns="http://www.w3.org/2000/svg"
   xmlns:xlink="http://www.w3.org/1999/xlink"
   version="1.1"
   id="svg1">
<g id="figure1">
<polygon style="fill: #ffffff; stroke: #ffffff; stroke-width: 1.000000; stroke-linejoin: miter; stroke-linecap: square;  opacity: 1.000000"  points = "0.000000,372.600000 0.000000,0.000000 372.600000,0.000000 372.600000,372.600000"/>
<g id="axes1">
<g id="regpolycollection1">
<defs>
    <clipPath id="-1467158557">
    <rect x="46.575000" y="37.260000" width="288.765000" height="298.080000"
    style="stroke: gray; fill: none;"/>
    </clipPath>
</defs>
<polygon style="fill: #ff0000; stroke: #000000; stroke-width: 1.000000; stroke-linejoin: miter; stroke-linecap: butt;  opacity: 1.000000" clip-path="url(#-1467158557)" points = "221.662712,105.827145 222.442403,105.950636 223.145772,106.309020 223.703969,106.867217 224.062354,107.570587 224.185845,108.350277 224.062354,109.129968 223.703969,109.833338 223.145772,110.391535 222.442403,110.749919 221.662712,110.873410 220.883021,110.749919 220.179652,110.391535 219.621455,109.833338 219.263071,109.129968 219.139580,108.350277 219.263071,107.570587 219.621455,106.867217 220.179652,106.309020 220.883021,105.950636"/>
<polygon style="fill: #ff0000; stroke: #000000; stroke-width: 1.000000; stroke-linejoin: miter; stroke-linecap: butt;  opacity: 1.000000" clip-path="url(#-1467158557)" points = "240.589000,123.782690 241.368691,123.906181 242.072060,124.264566 242.630257,124.822763 242.988641,125.526132 243.112132,126.305823 242.988641,127.085514 242.630257,127.788883 242.072060,128.347080 241.368691,128.705464 240.589000,128.828955 239.809309,128.705464 239.105940,128.347080 238.547743,127.788883 238.189358,127.085514 238.065867,126.305823 238.189358,125.526132 238.547743,124.822763 239.105940,124.264566 239.809309,123.906181"/>
<polygon style="fill: #ff0000; stroke: #000000; stroke-width: 1.000000; stroke-linejoin: miter; stroke-linecap: butt;  opacity: 1.000000" clip-path="url(#-1467158557)" points = "239.453614,129.916476 240.233305,130.039967 240.936674,130.398352 241.494871,130.956549 241.853256,131.659918 241.976747,132.439609 241.853256,133.219300 241.494871,133.922669 240.936674,134.480866 240.233305,134.839250 239.453614,134.962741 238.673923,134.839250 237.970554,134.480866 237.412357,133.922669 237.053972,133.219300 236.930481,132.439609 237.053972,131.659918 237.412357,130.956549 237.970554,130.398352 238.673923,130.039967"/>
<polygon style="fill: #ff0000; stroke: #000000; stroke-width: 1.000000; stroke-linejoin: miter; stroke-linecap: butt;  opacity: 1.000000" clip-path="url(#-1467158557)" points = "209.196585,115.707676 209.976276,115.831167 210.679645,116.189551 211.237842,116.747748 211.596227,117.451117 211.719718,118.230808 211.596227,119.010499 211.237842,119.713868 210.679645,120.272065 209.976276,120.630450 209.196585,120.753941 208.416894,120.630450 207.713525,120.272065 207.155328,119.713868 206.796943,119.010499 206.673452,118.230808 206.796943,117.451117 207.155328,116.747748 207.713525,116.189551 208.416894,115.831167"/>
<polygon style="fill: #ff0000; stroke: #000000; stroke-width: 1.000000; stroke-linejoin: miter; stroke-linecap: butt;  opacity: 1.000000" clip-path="url(#-1467158557)" points = "231.031678,129.619724 231.811369,129.743215 232.514738,130.101600 233.072935,130.659797 233.431319,131.363166 233.554810,132.142857 233.431319,132.922548 233.072935,133.625917 232.514738,134.184114 231.811369,134.542499 231.031678,134.665989 230.251987,134.542499 229.548618,134.184114 228.990421,133.625917 228.632036,132.922548 228.508545,132.142857 228.632036,131.363166 228.990421,130.659797 229.548618,130.101600 230.251987,129.743215"/>
<polygon style="fill: #ff0000; stroke: #000000; stroke-width: 1.000000; stroke-linejoin: miter; stroke-linecap: butt;  opacity: 1.000000" clip-path="url(#-1467158557)" points = "227.630215,129.202110 228.409906,129.325600 229.113276,129.683985 229.671473,130.242182 230.029857,130.945551 230.153348,131.725242 230.029857,132.504933 229.671473,133.208302 229.113276,133.766499 228.409906,134.124884 227.630215,134.248375 226.850525,134.124884 226.147155,133.766499 225.588958,133.208302 225.230574,132.504933 225.107083,131.725242 225.230574,130.945551 225.588958,130.242182 226.147155,129.683985 226.850525,129.325600"/>
<polygon style="fill: #ff0000; stroke: #000000; stroke-width: 1.000000; stroke-linejoin: miter; stroke-linecap: butt;  opacity: 1.000000" clip-path="url(#-1467158557)" points = "221.268869,126.286241 222.048560,126.409732 222.751929,126.768117 223.310126,127.326314 223.668510,128.029683 223.792001,128.809374 223.668510,129.589065 223.310126,130.292434 222.751929,130.850631 222.048560,131.209015 221.268869,131.332506 220.489178,131.209015 219.785809,130.850631 219.227612,130.292434 218.869227,129.589065 218.745736,128.809374 218.869227,128.029683 219.227612,127.326314 219.785809,126.768117 220.489178,126.409732"/>
<polygon style="fill: #ff0000; stroke: #000000; stroke-width: 1.000000; stroke-linejoin: miter; stroke-linecap: butt;  opacity: 1.000000" clip-path="url(#-1467158557)" points = "233.404797,136.302150 234.184488,136.425641 234.887857,136.784025 235.446054,137.342222 235.804438,138.045591 235.927929,138.825282 235.804438,139.604973 235.446054,140.308342 234.887857,140.866539 234.184488,141.224924 233.404797,141.348415 232.625106,141.224924 231.921737,140.866539 231.363540,140.308342 231.005155,139.604973 230.881664,138.825282 231.005155,138.045591 231.363540,137.342222 231.921737,136.784025 232.625106,136.425641"/>
<polygon style="fill: #ff0000; stroke: #000000; stroke-width: 1.000000; stroke-linejoin: miter; stroke-linecap: butt;  opacity: 1.000000" clip-path="url(#-1467158557)" points = "172.783054,123.198283 173.562744,123.321774 174.266114,123.680158 174.824311,124.238355 175.182695,124.941725 175.306186,125.721415 175.182695,126.501106 174.824311,127.204476 174.266114,127.762673 173.562744,128.121057 172.783054,128.244548 172.003363,128.121057 171.299994,127.762673 170.741797,127.204476 170.383412,126.501106 170.259921,125.721415 170.383412,124.941725 170.741797,124.238355 171.299994,123.680158 172.003363,123.321774"/>
<polygon style="fill: #ff0000; stroke: #000000; stroke-width: 1.000000; stroke-linejoin: miter; stroke-linecap: butt;  opacity: 1.000000" clip-path="url(#-1467158557)" points = "221.598874,128.950584 222.378565,129.074075 223.081934,129.432459 223.640131,129.990656 223.998516,130.694025 224.122007,131.473716 223.998516,132.253407 223.640131,132.956776 223.081934,133.514973 222.378565,133.873358 221.598874,133.996849 220.819183,133.873358 220.115814,133.514973 219.557617,132.956776 219.199233,132.253407 219.075742,131.473716 219.199233,130.694025 219.557617,129.990656 220.115814,129.432459 220.819183,129.074075"/>
<polygon style="fill: #ff0000; stroke: #000000; stroke-width: 1.000000; stroke-linejoin: miter; stroke-linecap: butt;  opacity: 1.000000" clip-path="url(#-1467158557)" points = "250.687515,164.714588 251.467206,164.838079 252.170575,165.196464 252.728772,165.754661 253.087157,166.458030 253.210648,167.237721 253.087157,168.017411 252.728772,168.720781 252.170575,169.278978 251.467206,169.637362 250.687515,169.760853 249.907824,169.637362 249.204455,169.278978 248.646258,168.720781 248.287873,168.017411 248.164382,167.237721 248.287873,166.458030 248.646258,165.754661 249.204455,165.196464 249.907824,164.838079"/>
<polygon style="fill: #ff0000; stroke: #000000; stroke-width: 1.000000; stroke-linejoin: miter; stroke-linecap: butt;  opacity: 1.000000" clip-path="url(#-1467158557)" points = "231.523116,137.275628 232.302807,137.399119 233.006177,137.757504 233.564374,138.315701 233.922758,139.019070 234.046249,139.798761 233.922758,140.578452 233.564374,141.281821 233.006177,141.840018 232.302807,142.198402 231.523116,142.321893 230.743426,142.198402 230.040056,141.840018 229.481859,141.281821 229.123475,140.578452 228.999984,139.798761 229.123475,139.019070 229.481859,138.315701 230.040056,137.757504 230.743426,137.399119"/>
<polygon style="fill: #ff0000; stroke: #000000; stroke-width: 1.000000; stroke-linejoin: miter; stroke-linecap: butt;  opacity: 1.000000" clip-path="url(#-1467158557)" points = "222.275982,132.669749 223.055673,132.793240 223.759042,133.151625 224.317239,133.709822 224.675624,134.413191 224.799115,135.192882 224.675624,135.972573 224.317239,136.675942 223.759042,137.234139 223.055673,137.592523 222.275982,137.716014 221.496292,137.592523 220.792922,137.234139 220.234725,136.675942 219.876341,135.972573 219.752850,135.192882 219.876341,134.413191 220.234725,133.709822 220.792922,133.151625 221.496292,132.793240"/>
<polygon style="fill: #ff0000; stroke: #000000; stroke-width: 1.000000; stroke-linejoin: miter; stroke-linecap: butt;  opacity: 1.000000" clip-path="url(#-1467158557)" points = "171.830768,128.852374 172.610458,128.975865 173.313828,129.334249 173.872025,129.892446 174.230409,130.595815 174.353900,131.375506 174.230409,132.155197 173.872025,132.858566 173.313828,133.416763 172.610458,133.775148 171.830768,133.898639 171.051077,133.775148 170.347708,133.416763 169.789511,132.858566 169.431126,132.155197 169.307635,131.375506 169.431126,130.595815 169.789511,129.892446 170.347708,129.334249 171.051077,128.975865"/>
<polygon style="fill: #ff0000; stroke: #000000; stroke-width: 1.000000; stroke-linejoin: miter; stroke-linecap: butt;  opacity: 1.000000" clip-path="url(#-1467158557)" points = "243.107522,160.667159 243.887213,160.790650 244.590582,161.149034 245.148779,161.707231 245.507163,162.410600 245.630654,163.190291 245.507163,163.969982 245.148779,164.673351 244.590582,165.231548 243.887213,165.589933 243.107522,165.713424 242.327831,165.589933 241.624462,165.231548 241.066265,164.673351 240.707880,163.969982 240.584389,163.190291 240.707880,162.410600 241.066265,161.707231 241.624462,161.149034 242.327831,160.790650"/>
<polygon style="fill: #ff0000; stroke: #000000; stroke-width: 1.000000; stroke-linejoin: miter; stroke-linecap: butt;  opacity: 1.000000" clip-path="url(#-1467158557)" points = "235.783537,151.684577 236.563228,151.808068 237.266597,152.166453 237.824794,152.724650 238.183179,153.428019 238.306669,154.207710 238.183179,154.987400 237.824794,155.690770 237.266597,156.248967 236.563228,156.607351 235.783537,156.730842 235.003846,156.607351 234.300477,156.248967 233.742280,155.690770 233.383895,154.987400 233.260404,154.207710 233.383895,153.428019 233.742280,152.724650 234.300477,152.166453 235.003846,151.808068"/>
<polygon style="fill: #ff0000; stroke: #000000; stroke-width: 1.000000; stroke-linejoin: miter; stroke-linecap: butt;  opacity: 1.000000" clip-path="url(#-1467158557)" points = "197.244479,130.258364 198.024170,130.381855 198.727539,130.740239 199.285736,131.298436 199.644121,132.001806 199.767612,132.781496 199.644121,133.561187 199.285736,134.264557 198.727539,134.822754 198.024170,135.181138 197.244479,135.304629 196.464788,135.181138 195.761419,134.822754 195.203222,134.264557 194.844838,133.561187 194.721347,132.781496 194.844838,132.001806 195.203222,131.298436 195.761419,130.740239 196.464788,130.381855"/>
<polygon style="fill: #ff0000; stroke: #000000; stroke-width: 1.000000; stroke-linejoin: miter; stroke-linecap: butt;  opacity: 1.000000" clip-path="url(#-1467158557)" points = "207.806315,132.830758 208.586005,132.954249 209.289375,133.312634 209.847572,133.870831 210.205956,134.574200 210.329447,135.353891 210.205956,136.133582 209.847572,136.836951 209.289375,137.395148 208.586005,137.753533 207.806315,137.877023 207.026624,137.753533 206.323255,137.395148 205.765058,136.836951 205.406673,136.133582 205.283182,135.353891 205.406673,134.574200 205.765058,133.870831 206.323255,133.312634 207.026624,132.954249"/>
<polygon style="fill: #ff0000; stroke: #000000; stroke-width: 1.000000; stroke-linejoin: miter; stroke-linecap: butt;  opacity: 1.000000" clip-path="url(#-1467158557)" points = "241.287306,169.154707 242.066997,169.278198 242.770367,169.636582 243.328564,170.194779 243.686948,170.898149 243.810439,171.677840 243.686948,172.457530 243.328564,173.160900 242.770367,173.719097 242.066997,174.077481 241.287306,174.200972 240.507616,174.077481 239.804246,173.719097 239.246049,173.160900 238.887665,172.457530 238.764174,171.677840 238.887665,170.898149 239.246049,170.194779 239.804246,169.636582 240.507616,169.278198"/>
<polygon style="fill: #ff0000; stroke: #000000; stroke-width: 1.000000; stroke-linejoin: miter; stroke-linecap: butt;  opacity: 1.000000" clip-path="url(#-1467158557)" points = "204.900727,135.151055 205.680418,135.274546 206.383787,135.632931 206.941984,136.191128 207.300369,136.894497 207.423860,137.674188 207.300369,138.453879 206.941984,139.157248 206.383787,139.715445 205.680418,140.073829 204.900727,140.197320 204.121036,140.073829 203.417667,139.715445 202.859470,139.157248 202.501086,138.453879 202.377595,137.674188 202.501086,136.894497 202.859470,136.191128 203.417667,135.632931 204.121036,135.274546"/>
<polygon style="fill: #ff0000; stroke: #000000; stroke-width: 1.000000; stroke-linejoin: miter; stroke-linecap: butt;  opacity: 1.000000" clip-path="url(#-1467158557)" points = "225.927989,155.559240 226.707680,155.682731 227.411049,156.041116 227.969246,156.599313 228.327630,157.302682 228.451121,158.082373 228.327630,158.862064 227.969246,159.565433 227.411049,160.123630 226.707680,160.482014 225.927989,160.605505 225.148298,160.482014 224.444929,160.123630 223.886732,159.565433 223.528347,158.862064 223.404856,158.082373 223.528347,157.302682 223.886732,156.599313 224.444929,156.041116 225.148298,155.682731"/>
<polygon style="fill: #ff0000; stroke: #000000; stroke-width: 1.000000; stroke-linejoin: miter; stroke-linecap: butt;  opacity: 1.000000" clip-path="url(#-1467158557)" points = "207.751026,146.926838 208.530717,147.050329 209.234086,147.408713 209.792283,147.966910 210.150668,148.670279 210.274159,149.449970 210.150668,150.229661 209.792283,150.933030 209.234086,151.491227 208.530717,151.849612 207.751026,151.973103 206.971335,151.849612 206.267966,151.491227 205.709769,150.933030 205.351384,150.229661 205.227894,149.449970 205.351384,148.670279 205.709769,147.966910 206.267966,147.408713 206.971335,147.050329"/>
<polygon style="fill: #ff0000; stroke: #000000; stroke-width: 1.000000; stroke-linejoin: miter; stroke-linecap: butt;  opacity: 1.000000" clip-path="url(#-1467158557)" points = "205.944849,156.627331 206.724540,156.750822 207.427909,157.109206 207.986106,157.667403 208.344491,158.370773 208.467982,159.150463 208.344491,159.930154 207.986106,160.633524 207.427909,161.191721 206.724540,161.550105 205.944849,161.673596 205.165159,161.550105 204.461789,161.191721 203.903592,160.633524 203.545208,159.930154 203.421717,159.150463 203.545208,158.370773 203.903592,157.667403 204.461789,157.109206 205.165159,156.750822"/>
</g>
<g id="regpolycollection2">
<polygon style="fill: #ffffff; stroke: #000000; stroke-width: 1.000000; stroke-linejoin: miter; stroke-linecap: butt;  opacity: 1.000000" clip-path="url(#-1467158557)" points = "145.700829,100.000249 145.700829,103.568497 142.132581,103.568497 142.132581,100.000249"/>
<polygon style="fill: #ffffff; stroke: #000000; stroke-width: 1.000000; stroke-linejoin: miter; stroke-linecap: butt;  opacity: 1.000000" clip-path="url(#-1467158557)" points = "158.107379,114.438805 158.107379,118.007054 154.539130,118.007054 154.539130,114.438805"/>
<polygon style="fill: #ffffff; stroke: #000000; stroke-width: 1.000000; stroke-linejoin: miter; stroke-linecap: butt;  opacity: 1.000000" clip-path="url(#-1467158557)" points = "146.815826,247.265522 146.815826,250.833770 143.247578,250.833770 143.247578,247.265522"/>
<polygon style="fill: #ffffff; stroke: #000000; stroke-width: 1.000000; stroke-linejoin: miter; stroke-linecap: butt;  opacity: 1.000000" clip-path="url(#-1467158557)" points = "176.525361,259.519062 176.525361,263.087310 172.957113,263.087310 172.957113,259.519062"/>
<polygon style="fill: #ffffff; stroke: #000000; stroke-width: 1.000000; stroke-linejoin: miter; stroke-linecap: butt;  opacity: 1.000000" clip-path="url(#-1467158557)" points = "164.019789,254.896585 164.019789,258.464833 160.451540,258.464833 160.451540,254.896585"/>
<polygon style="fill: #ffffff; stroke: #000000; stroke-width: 1.000000; stroke-linejoin: miter; stroke-linecap: butt;  opacity: 1.000000" clip-path="url(#-1467158557)" points = "144.279114,241.459133 144.279114,245.027381 140.710865,245.027381 140.710865,241.459133"/>
<polygon style="fill: #ffffff; stroke: #000000; stroke-width: 1.000000; stroke-linejoin: miter; stroke-linecap: butt;  opacity: 1.000000" clip-path="url(#-1467158557)" points = "149.894307,241.791066 149.894307,245.359315 146.326059,245.359315 146.326059,241.791066"/>
<polygon style="fill: #ffffff; stroke: #000000; stroke-width: 1.000000; stroke-linejoin: miter; stroke-linecap: butt;  opacity: 1.000000" clip-path="url(#-1467158557)" points = "176.001316,253.187378 176.001316,256.755627 172.433068,256.755627 172.433068,253.187378"/>
<polygon style="fill: #ffffff; stroke: #000000; stroke-width: 1.000000; stroke-linejoin: miter; stroke-linecap: butt;  opacity: 1.000000" clip-path="url(#-1467158557)" points = "157.026198,241.895107 157.026198,245.463355 153.457950,245.463355 153.457950,241.895107"/>
<polygon style="fill: #ffffff; stroke: #000000; stroke-width: 1.000000; stroke-linejoin: miter; stroke-linecap: butt;  opacity: 1.000000" clip-path="url(#-1467158557)" points = "174.986449,244.074428 174.986449,247.642677 171.418200,247.642677 171.418200,244.074428"/>
<polygon style="fill: #ffffff; stroke: #000000; stroke-width: 1.000000; stroke-linejoin: miter; stroke-linecap: butt;  opacity: 1.000000" clip-path="url(#-1467158557)" points = "169.577107,240.996804 169.577107,244.565053 166.008859,244.565053 166.008859,240.996804"/>
<polygon style="fill: #ffffff; stroke: #000000; stroke-width: 1.000000; stroke-linejoin: miter; stroke-linecap: butt;  opacity: 1.000000" clip-path="url(#-1467158557)" points = "174.188668,241.278715 174.188668,244.846963 170.620420,244.846963 170.620420,241.278715"/>
<polygon style="fill: #ffffff; stroke: #000000; stroke-width: 1.000000; stroke-linejoin: miter; stroke-linecap: butt;  opacity: 1.000000" clip-path="url(#-1467158557)" points = "231.085938,229.570293 231.085938,233.138541 227.517690,233.138541 227.517690,229.570293"/>
<polygon style="fill: #ffffff; stroke: #000000; stroke-width: 1.000000; stroke-linejoin: miter; stroke-linecap: butt;  opacity: 1.000000" clip-path="url(#-1467158557)" points = "212.976349,240.110326 212.976349,243.678574 209.408101,243.678574 209.408101,240.110326"/>
<polygon style="fill: #ffffff; stroke: #000000; stroke-width: 1.000000; stroke-linejoin: miter; stroke-linecap: butt;  opacity: 1.000000" clip-path="url(#-1467158557)" points = "186.630172,239.872719 186.630172,243.440967 183.061924,243.440967 183.061924,239.872719"/>
<polygon style="fill: #ffffff; stroke: #000000; stroke-width: 1.000000; stroke-linejoin: miter; stroke-linecap: butt;  opacity: 1.000000" clip-path="url(#-1467158557)" points = "226.509235,226.364535 226.509235,229.932783 222.940987,229.932783 222.940987,226.364535"/>
<polygon style="fill: #ffffff; stroke: #000000; stroke-width: 1.000000; stroke-linejoin: miter; stroke-linecap: butt;  opacity: 1.000000" clip-path="url(#-1467158557)" points = "199.015388,237.921884 199.015388,241.490132 195.447140,241.490132 195.447140,237.921884"/>
<polygon style="fill: #ffffff; stroke: #000000; stroke-width: 1.000000; stroke-linejoin: miter; stroke-linecap: butt;  opacity: 1.000000" clip-path="url(#-1467158557)" points = "178.223707,235.821109 178.223707,239.389357 174.655458,239.389357 174.655458,235.821109"/>
<polygon style="fill: #ffffff; stroke: #000000; stroke-width: 1.000000; stroke-linejoin: miter; stroke-linecap: butt;  opacity: 1.000000" clip-path="url(#-1467158557)" points = "218.280316,225.228040 218.280316,228.796288 214.712068,228.796288 214.712068,225.228040"/>
<polygon style="fill: #ffffff; stroke: #000000; stroke-width: 1.000000; stroke-linejoin: miter; stroke-linecap: butt;  opacity: 1.000000" clip-path="url(#-1467158557)" points = "161.287252,218.842300 161.287252,222.410548 157.719003,222.410548 157.719003,218.842300"/>
<polygon style="fill: #ffffff; stroke: #000000; stroke-width: 1.000000; stroke-linejoin: miter; stroke-linecap: butt;  opacity: 1.000000" clip-path="url(#-1467158557)" points = "192.585988,229.102068 192.585988,232.670316 189.017740,232.670316 189.017740,229.102068"/>
<polygon style="fill: #ffffff; stroke: #000000; stroke-width: 1.000000; stroke-linejoin: miter; stroke-linecap: butt;  opacity: 1.000000" clip-path="url(#-1467158557)" points = "185.459497,228.503640 185.459497,232.071888 181.891249,232.071888 181.891249,228.503640"/>
<polygon style="fill: #ffffff; stroke: #000000; stroke-width: 1.000000; stroke-linejoin: miter; stroke-linecap: butt;  opacity: 1.000000" clip-path="url(#-1467158557)" points = "201.887568,227.916489 201.887568,231.484737 198.319320,231.484737 198.319320,227.916489"/>
<polygon style="fill: #ffffff; stroke: #000000; stroke-width: 1.000000; stroke-linejoin: miter; stroke-linecap: butt;  opacity: 1.000000" clip-path="url(#-1467158557)" points = "185.212118,225.141458 185.212118,228.709706 181.643869,228.709706 181.643869,225.141458"/>
<polygon style="fill: #ffffff; stroke: #000000; stroke-width: 1.000000; stroke-linejoin: miter; stroke-linecap: butt;  opacity: 1.000000" clip-path="url(#-1467158557)" points = "223.388267,211.344984 223.388267,214.913232 219.820019,214.913232 219.820019,211.344984"/>
<polygon style="fill: #ffffff; stroke: #000000; stroke-width: 1.000000; stroke-linejoin: miter; stroke-linecap: butt;  opacity: 1.000000" clip-path="url(#-1467158557)" points = "176.622204,219.084083 176.622204,222.652331 173.053956,222.652331 173.053956,219.084083"/>
</g>
<path style="fill: none; stroke: #000000; stroke-width: 1.000000; stroke-linejoin: miter; stroke-linecap: square;  opacity: 1.000000" clip-path="url(#-1467158557)" d="M 190.957500,86.940000 L 192.691571,86.955133 L 194.425114,87.000527 L 196.157601,87.076169 L 197.888503,87.182036 L 199.617295,87.318095 L 201.343448,87.484304 L 203.066438,87.680614 L 204.785739,87.906965 L 206.500828,88.163286 L 208.211183,88.449502 L 209.916282,88.765523 L 211.615606,89.111254 L 213.308637,89.486590 L 214.994860,89.891417 L 216.673760,90.325610 L 218.344828,90.789038 L 220.007553,91.281559 L 221.661429,91.803025 L 223.305952,92.353274 L 224.940621,92.932141 L 226.564939,93.539449 L 228.178411,94.175012 L 229.780545,94.838638 L 231.370853,95.530123 L 232.948850,96.249258 L 234.514057,96.995824 L 236.065996,97.769592 L 237.604194,98.570327 L 239.128184,99.397786 L 240.637500,100.251716 L 242.131683,101.131857 L 243.610278,102.037941 L 245.072835,102.969692 L 246.518907,103.926827 L 247.948055,104.909053 L 249.359843,105.916071 L 250.753841,106.947576 L 252.129624,108.003252 L 253.486774,109.082777 L 254.824877,110.185824 L 256.143525,111.312056 L 257.442317,112.461130 L 258.720857,113.632696 L 259.978756,114.826397 L 261.215630,116.041870 L 262.431103,117.278744 L 263.624804,118.536643 L 264.796370,119.815183 L 265.945444,121.113975 L 267.071676,122.432623 L 268.174723,123.770726 L 269.254248,125.127876 L 270.309924,126.503659 L 271.341429,127.897657 L 272.348447,129.309445 L 273.330673,130.738593 L 274.287808,132.184665 L 275.219559,133.647222 L 276.125643,135.125817 L 277.005784,136.620000 L 277.859714,138.129316 L 278.687173,139.653306 L 279.487908,141.191504 L 280.261676,142.743443 L 281.008242,144.308650 L 281.727377,145.886647 L 282.418862,147.476955 L 283.082488,149.079089 L 283.718051,150.692561 L 284.325359,152.316879 L 284.904226,153.951548 L 285.454475,155.596071 L 285.975941,157.249947 L 286.468462,158.912672 L 286.931890,160.583740 L 287.366083,162.262640 L 287.770910,163.948863 L 288.146246,165.641894 L 288.491977,167.341218 L 288.807998,169.046317 L 289.094214,170.756672 L 289.350535,172.471761 L 289.576886,174.191062 L 289.773196,175.914052 L 289.939405,177.640205 L 290.075464,179.368997 L 290.181331,181.099899 L 290.256973,182.832386 L 290.302367,184.565929 L 290.317500,186.300000 L 290.302367,188.034071 L 290.256973,189.767614 L 290.181331,191.500101 L 290.075464,193.231003 L 289.939405,194.959795 L 289.773196,196.685948 L 289.576886,198.408938 L 289.350535,200.128239 L 289.094214,201.843328 L 288.807998,203.553683 L 288.491977,205.258782 L 288.146246,206.958106 L 287.770910,208.651137 L 287.366083,210.337360 L 286.931890,212.016260 L 286.468462,213.687328 L 285.975941,215.350053 L 285.454475,217.003929 L 284.904226,218.648452 L 284.325359,220.283121 L 283.718051,221.907439 L 283.082488,223.520911 L 282.418862,225.123045 L 281.727377,226.713353 L 281.008242,228.291350 L 280.261676,229.856557 L 279.487908,231.408496 L 278.687173,232.946694 L 277.859714,234.470684 L 277.005784,235.980000 L 276.125643,237.474183 L 275.219559,238.952778 L 274.287808,240.415335 L 273.330673,241.861407 L 272.348447,243.290555 L 271.341429,244.702343 L 270.309924,246.096341 L 269.254248,247.472124 L 268.174723,248.829274 L 267.071676,250.167377 L 265.945444,251.486025 L 264.796370,252.784817 L 263.624804,254.063357 L 262.431103,255.321256 L 261.215630,256.558130 L 259.978756,257.773603 L 258.720857,258.967304 L 257.442317,260.138870 L 256.143525,261.287944 L 254.824877,262.414176 L 253.486774,263.517223 L 252.129624,264.596748 L 250.753841,265.652424 L 249.359843,266.683929 L 247.948055,267.690947 L 246.518907,268.673173 L 245.072835,269.630308 L 243.610278,270.562059 L 242.131683,271.468143 L 240.637500,272.348284 L 239.128184,273.202214 L 237.604194,274.029673 L 236.065996,274.830408 L 234.514057,275.604176 L 232.948850,276.350742 L 231.370853,277.069877 L 229.780545,277.761362 L 228.178411,278.424988 L 226.564939,279.060551 L 224.940621,279.667859 L 223.305952,280.246726 L 221.661429,280.796975 L 220.007553,281.318441 L 218.344828,281.810962 L 216.673760,282.274390 L 214.994860,282.708583 L 213.308637,283.113410 L 211.615606,283.488746 L 209.916282,283.834477 L 208.211183,284.150498 L 206.500828,284.436714 L 204.785739,284.693035 L 203.066438,284.919386 L 201.343448,285.115696 L 199.617295,285.281905 L 197.888503,285.417964 L 196.157601,285.523831 L 194.425114,285.599473 L 192.691571,285.644867 L 190.957500,285.660000 L 189.223429,285.644867 L 187.489886,285.599473 L 185.757399,285.523831 L 184.026497,285.417964 L 182.297705,285.281905 L 180.571552,285.115696 L 178.848562,284.919386 L 177.129261,284.693035 L 175.414172,284.436714 L 173.703817,284.150498 L 171.998718,283.834477 L 170.299394,283.488746 L 168.606363,283.113410 L 166.920140,282.708583 L 165.241240,282.274390 L 163.570172,281.810962 L 161.907447,281.318441 L 160.253571,280.796975 L 158.609048,280.246726 L 156.974379,279.667859 L 155.350061,279.060551 L 153.736589,278.424988 L 152.134455,277.761362 L 150.544147,277.069877 L 148.966150,276.350742 L 147.400943,275.604176 L 145.849004,274.830408 L 144.310806,274.029673 L 142.786816,273.202214 L 141.277500,272.348284 L 139.783317,271.468143 L 138.304722,270.562059 L 136.842165,269.630308 L 135.396093,268.673173 L 133.966945,267.690947 L 132.555157,266.683929 L 131.161159,265.652424 L 129.785376,264.596748 L 128.428226,263.517223 L 127.090123,262.414176 L 125.771475,261.287944 L 124.472683,260.138870 L 123.194143,258.967304 L 121.936244,257.773603 L 120.699370,256.558130 L 119.483897,255.321256 L 118.290196,254.063357 L 117.118630,252.784817 L 115.969556,251.486025 L 114.843324,250.167377 L 113.740277,248.829274 L 112.660752,247.472124 L 111.605076,246.096341 L 110.573571,244.702343 L 109.566553,243.290555 L 108.584327,241.861407 L 107.627192,240.415335 L 106.695441,238.952778 L 105.789357,237.474183 L 104.909216,235.980000 L 104.055286,234.470684 L 103.227827,232.946694 L 102.427092,231.408496 L 101.653324,229.856557 L 100.906758,228.291350 L 100.187623,226.713353 L 99.496138,225.123045 L 98.832512,223.520911 L 98.196949,221.907439 L 97.589641,220.283121 L 97.010774,218.648452 L 96.460525,217.003929 L 95.939059,215.350053 L 95.446538,213.687328 L 94.983110,212.016260 L 94.548917,210.337360 L 94.144090,208.651137 L 93.768754,206.958106 L 93.423023,205.258782 L 93.107002,203.553683 L 92.820786,201.843328 L 92.564465,200.128239 L 92.338114,198.408938 L 92.141804,196.685948 L 91.975595,194.959795 L 91.839536,193.231003 L 91.733669,191.500101 L 91.658027,189.767614 L 91.612633,188.034071 L 91.597500,186.300000 L 91.612633,184.565929 L 91.658027,182.832386 L 91.733669,181.099899 L 91.839536,179.368997 L 91.975595,177.640205 L 92.141804,175.914052 L 92.338114,174.191062 L 92.564465,172.471761 L 92.820786,170.756672 L 93.107002,169.046317 L 93.423023,167.341218 L 93.768754,165.641894 L 94.144090,163.948863 L 94.548917,162.262640 L 94.983110,160.583740 L 95.446538,158.912672 L 95.939059,157.249947 L 96.460525,155.596071 L 97.010774,153.951548 L 97.589641,152.316879 L 98.196949,150.692561 L 98.832512,149.079089 L 99.496138,147.476955 L 100.187623,145.886647 L 100.906758,144.308650 L 101.653324,142.743443 L 102.427092,141.191504 L 103.227827,139.653306 L 104.055286,138.129316 L 104.909216,136.620000 L 105.789357,135.125817 L 106.695441,133.647222 L 107.627192,132.184665 L 108.584327,130.738593 L 109.566553,129.309445 L 110.573571,127.897657 L 111.605076,126.503659 L 112.660752,125.127876 L 113.740277,123.770726 L 114.843324,122.432623 L 115.969556,121.113975 L 117.118630,119.815183 L 118.290196,118.536643 L 119.483897,117.278744 L 120.699370,116.041870 L 121.936244,114.826397 L 123.194143,113.632696 L 124.472683,112.461130 L 125.771475,111.312056 L 127.090123,110.185824 L 128.428226,109.082777 L 129.785376,108.003252 L 131.161159,106.947576 L 132.555157,105.916071 L 133.966945,104.909053 L 135.396093,103.926827 L 136.842165,102.969692 L 138.304722,102.037941 L 139.783317,101.131857 L 141.277500,100.251716 L 142.786816,99.397786 L 144.310806,98.570327 L 145.849004,97.769592 L 147.400943,96.995824 L 148.966150,96.249258 L 150.544147,95.530123 L 152.134455,94.838638 L 153.736589,94.175012 L 155.350061,93.539449 L 156.974379,92.932141 L 158.609048,92.353274 L 160.253571,91.803025 L 161.907447,91.281559 L 163.570172,90.789038 L 165.241240,90.325610 L 166.920140,89.891417 L 168.606363,89.486590 L 170.299394,89.111254 L 171.998718,88.765523 L 173.703817,88.449502 L 175.414172,88.163286 L 177.129261,87.906965 L 178.848562,87.680614 L 180.571552,87.484304 L 182.297705,87.318095 L 184.026497,87.182036 L 185.757399,87.076169 L 187.489886,87.000527 L 189.223429,86.955133 L 190.957500,86.940000 "/>
<path style="fill: none; stroke: #000000; stroke-width: 0.500000; stroke-linejoin: miter; stroke-linecap: butt;  opacity: 1.000000" clip-path="url(#-1467158557)" d="M 278.279611,186.300000 L 284.279611,186.300000"/>
<path style="fill: none; stroke: #000000; stroke-width: 0.500000; stroke-linejoin: miter; stroke-linecap: butt;  opacity: 1.000000" clip-path="url(#-1467158557)" d="M 281.279611,189.300000 L 281.279611,183.300000"/>
<path style="fill: none; stroke: #000000; stroke-width: 0.500000; stroke-linejoin: miter; stroke-linecap: butt;  opacity: 1.000000" clip-path="url(#-1467158557)" d="M 268.554315,186.300000 L 274.554315,186.300000"/>
<path style="fill: none; stroke: #000000; stroke-width: 0.500000; stroke-linejoin: miter; stroke-linecap: butt;  opacity: 1.000000" clip-path="url(#-1467158557)" d="M 271.554315,189.300000 L 271.554315,183.300000"/>
<path style="fill: none; stroke: #000000; stroke-width: 0.500000; stroke-linejoin: miter; stroke-linecap: butt;  opacity: 1.000000" clip-path="url(#-1467158557)" d="M 258.215630,186.300000 L 264.215630,186.300000"/>
<path style="fill: none; stroke: #000000; stroke-width: 0.500000; stroke-linejoin: miter; stroke-linecap: butt;  opacity: 1.000000" clip-path="url(#-1467158557)" d="M 261.215630,189.300000 L 261.215630,183.300000"/>
<path style="fill: none; stroke: #000000; stroke-width: 0.500000; stroke-linejoin: miter; stroke-linecap: butt;  opacity: 1.000000" clip-path="url(#-1467158557)" d="M 247.342237,186.300000 L 253.342237,186.300000"/>
<path style="fill: none; stroke: #000000; stroke-width: 0.500000; stroke-linejoin: miter; stroke-linecap: butt;  opacity: 1.000000" clip-path="url(#-1467158557)" d="M 250.342237,189.300000 L 250.342237,183.300000"/>
<path style="fill: none; stroke: #000000; stroke-width: 0.500000; stroke-linejoin: miter; stroke-linecap: butt;  opacity: 1.000000" clip-path="url(#-1467158557)" d="M 236.016891,186.300000 L 242.016891,186.300000"/>
<path style="fill: none; stroke: #000000; stroke-width: 0.500000; stroke-linejoin: miter; stroke-linecap: butt;  opacity: 1.000000" clip-path="url(#-1467158557)" d="M 239.016891,189.300000 L 239.016891,183.300000"/>
<path style="fill: none; stroke: #000000; stroke-width: 0.500000; stroke-linejoin: miter; stroke-linecap: butt;  opacity: 1.000000" clip-path="url(#-1467158557)" d="M 224.325784,186.300000 L 230.325784,186.300000"/>
<path style="fill: none; stroke: #000000; stroke-width: 0.500000; stroke-linejoin: miter; stroke-linecap: butt;  opacity: 1.000000" clip-path="url(#-1467158557)" d="M 227.325784,189.300000 L 227.325784,183.300000"/>
<path style="fill: none; stroke: #000000; stroke-width: 0.500000; stroke-linejoin: miter; stroke-linecap: butt;  opacity: 1.000000" clip-path="url(#-1467158557)" d="M 212.357892,186.300000 L 218.357892,186.300000"/>
<path style="fill: none; stroke: #000000; stroke-width: 0.500000; stroke-linejoin: miter; stroke-linecap: butt;  opacity: 1.000000" clip-path="url(#-1467158557)" d="M 215.357892,189.300000 L 215.357892,183.300000"/>
<path style="fill: none; stroke: #000000; stroke-width: 0.500000; stroke-linejoin: miter; stroke-linecap: butt;  opacity: 1.000000" clip-path="url(#-1467158557)" d="M 200.204299,186.300000 L 206.204299,186.300000"/>
<path style="fill: none; stroke: #000000; stroke-width: 0.500000; stroke-linejoin: miter; stroke-linecap: butt;  opacity: 1.000000" clip-path="url(#-1467158557)" d="M 203.204299,189.300000 L 203.204299,183.300000"/>
<path style="fill: none; stroke: #000000; stroke-width: 0.500000; stroke-linejoin: miter; stroke-linecap: butt;  opacity: 1.000000" clip-path="url(#-1467158557)" d="M 187.957500,186.300000 L 193.957500,186.300000"/>
<path style="fill: none; stroke: #000000; stroke-width: 0.500000; stroke-linejoin: miter; stroke-linecap: butt;  opacity: 1.000000" clip-path="url(#-1467158557)" d="M 190.957500,189.300000 L 190.957500,183.300000"/>
<path style="fill: none; stroke: #000000; stroke-width: 1.000000; stroke-linejoin: miter; stroke-linecap: square;  opacity: 1.000000" clip-path="url(#-1467158557)" d="M 190.957500,86.940000 L 190.957500,87.810852 L 190.957500,88.689204 L 190.957500,89.574990 "/>
<path style="fill: none; stroke: #000000; stroke-width: 1.000000; stroke-linejoin: miter; stroke-linecap: square;  opacity: 1.000000" clip-path="url(#-1467158557)" d="M 208.211183,88.449502 L 208.059961,89.307123 L 207.907437,90.172131 L 207.753622,91.044460 "/>
<path style="fill: none; stroke: #000000; stroke-width: 1.000000; stroke-linejoin: miter; stroke-linecap: square;  opacity: 1.000000" clip-path="url(#-1467158557)" d="M 224.940621,92.932141 L 224.642773,93.750474 L 224.342358,94.575855 L 224.039402,95.408222 "/>
<path style="fill: none; stroke: #000000; stroke-width: 1.000000; stroke-linejoin: miter; stroke-linecap: square;  opacity: 1.000000" clip-path="url(#-1467158557)" d="M 240.637500,100.251716 L 240.202074,101.005896 L 239.762898,101.766571 L 239.320005,102.533684 "/>
<path style="fill: none; stroke: #000000; stroke-width: 1.000000; stroke-linejoin: miter; stroke-linecap: square;  opacity: 1.000000" clip-path="url(#-1467158557)" d="M 254.824877,110.185824 L 254.265104,110.852935 L 253.700510,111.525792 L 253.131138,112.204343 "/>
<path style="fill: none; stroke: #000000; stroke-width: 1.000000; stroke-linejoin: miter; stroke-linecap: square;  opacity: 1.000000" clip-path="url(#-1467158557)" d="M 267.071676,122.432623 L 266.404565,122.992396 L 265.731708,123.556990 L 265.053157,124.126362 "/>
<path style="fill: none; stroke: #000000; stroke-width: 1.000000; stroke-linejoin: miter; stroke-linecap: square;  opacity: 1.000000" clip-path="url(#-1467158557)" d="M 277.005784,136.620000 L 276.251604,137.055426 L 275.490929,137.494602 L 274.723816,137.937495 "/>
<path style="fill: none; stroke: #000000; stroke-width: 1.000000; stroke-linejoin: miter; stroke-linecap: square;  opacity: 1.000000" clip-path="url(#-1467158557)" d="M 284.325359,152.316879 L 283.507026,152.614727 L 282.681645,152.915142 L 281.849278,153.218098 "/>
<path style="fill: none; stroke: #000000; stroke-width: 1.000000; stroke-linejoin: miter; stroke-linecap: square;  opacity: 1.000000" clip-path="url(#-1467158557)" d="M 288.807998,169.046317 L 287.950377,169.197539 L 287.085369,169.350063 L 286.213040,169.503878 "/>
<path style="fill: none; stroke: #000000; stroke-width: 1.000000; stroke-linejoin: miter; stroke-linecap: square;  opacity: 1.000000" clip-path="url(#-1467158557)" d="M 290.317500,186.300000 L 289.446648,186.300000 L 288.568296,186.300000 L 287.682510,186.300000 "/>
<path style="fill: none; stroke: #000000; stroke-width: 1.000000; stroke-linejoin: miter; stroke-linecap: square;  opacity: 1.000000" clip-path="url(#-1467158557)" d="M 288.807998,203.553683 L 287.950377,203.402461 L 287.085369,203.249937 L 286.213040,203.096122 "/>
<path style="fill: none; stroke: #000000; stroke-width: 1.000000; stroke-linejoin: miter; stroke-linecap: square;  opacity: 1.000000" clip-path="url(#-1467158557)" d="M 284.325359,220.283121 L 283.507026,219.985273 L 282.681645,219.684858 L 281.849278,219.381902 "/>
<path style="fill: none; stroke: #000000; stroke-width: 1.000000; stroke-linejoin: miter; stroke-linecap: square;  opacity: 1.000000" clip-path="url(#-1467158557)" d="M 277.005784,235.980000 L 276.251604,235.544574 L 275.490929,235.105398 L 274.723816,234.662505 "/>
<path style="fill: none; stroke: #000000; stroke-width: 1.000000; stroke-linejoin: miter; stroke-linecap: square;  opacity: 1.000000" clip-path="url(#-1467158557)" d="M 267.071676,250.167377 L 266.404565,249.607604 L 265.731708,249.043010 L 265.053157,248.473638 "/>
<path style="fill: none; stroke: #000000; stroke-width: 1.000000; stroke-linejoin: miter; stroke-linecap: square;  opacity: 1.000000" clip-path="url(#-1467158557)" d="M 254.824877,262.414176 L 254.265104,261.747065 L 253.700510,261.074208 L 253.131138,260.395657 "/>
<path style="fill: none; stroke: #000000; stroke-width: 1.000000; stroke-linejoin: miter; stroke-linecap: square;  opacity: 1.000000" clip-path="url(#-1467158557)" d="M 240.637500,272.348284 L 240.202074,271.594104 L 239.762898,270.833429 L 239.320005,270.066316 "/>
<path style="fill: none; stroke: #000000; stroke-width: 1.000000; stroke-linejoin: miter; stroke-linecap: square;  opacity: 1.000000" clip-path="url(#-1467158557)" d="M 224.940621,279.667859 L 224.642773,278.849526 L 224.342358,278.024145 L 224.039402,277.191778 "/>
<path style="fill: none; stroke: #000000; stroke-width: 1.000000; stroke-linejoin: miter; stroke-linecap: square;  opacity: 1.000000" clip-path="url(#-1467158557)" d="M 208.211183,284.150498 L 208.059961,283.292877 L 207.907437,282.427869 L 207.753622,281.555540 "/>
<path style="fill: none; stroke: #000000; stroke-width: 1.000000; stroke-linejoin: miter; stroke-linecap: square;  opacity: 1.000000" clip-path="url(#-1467158557)" d="M 190.957500,285.660000 L 190.957500,284.789148 L 190.957500,283.910796 L 190.957500,283.025010 "/>
<path style="fill: none; stroke: #000000; stroke-width: 1.000000; stroke-linejoin: miter; stroke-linecap: square;  opacity: 1.000000" clip-path="url(#-1467158557)" d="M 173.703817,284.150498 L 173.855039,283.292877 L 174.007563,282.427869 L 174.161378,281.555540 "/>
<path style="fill: none; stroke: #000000; stroke-width: 1.000000; stroke-linejoin: miter; stroke-linecap: square;  opacity: 1.000000" clip-path="url(#-1467158557)" d="M 156.974379,279.667859 L 157.272227,278.849526 L 157.572642,278.024145 L 157.875598,277.191778 "/>
<path style="fill: none; stroke: #000000; stroke-width: 1.000000; stroke-linejoin: miter; stroke-linecap: square;  opacity: 1.000000" clip-path="url(#-1467158557)" d="M 141.277500,272.348284 L 141.712926,271.594104 L 142.152102,270.833429 L 142.594995,270.066316 "/>
<path style="fill: none; stroke: #000000; stroke-width: 1.000000; stroke-linejoin: miter; stroke-linecap: square;  opacity: 1.000000" clip-path="url(#-1467158557)" d="M 127.090123,262.414176 L 127.649896,261.747065 L 128.214490,261.074208 L 128.783862,260.395657 "/>
<path style="fill: none; stroke: #000000; stroke-width: 1.000000; stroke-linejoin: miter; stroke-linecap: square;  opacity: 1.000000" clip-path="url(#-1467158557)" d="M 114.843324,250.167377 L 115.510435,249.607604 L 116.183292,249.043010 L 116.861843,248.473638 "/>
<path style="fill: none; stroke: #000000; stroke-width: 1.000000; stroke-linejoin: miter; stroke-linecap: square;  opacity: 1.000000" clip-path="url(#-1467158557)" d="M 104.909216,235.980000 L 105.663396,235.544574 L 106.424071,235.105398 L 107.191184,234.662505 "/>
<path style="fill: none; stroke: #000000; stroke-width: 1.000000; stroke-linejoin: miter; stroke-linecap: square;  opacity: 1.000000" clip-path="url(#-1467158557)" d="M 97.589641,220.283121 L 98.407974,219.985273 L 99.233355,219.684858 L 100.065722,219.381902 "/>
<path style="fill: none; stroke: #000000; stroke-width: 1.000000; stroke-linejoin: miter; stroke-linecap: square;  opacity: 1.000000" clip-path="url(#-1467158557)" d="M 93.107002,203.553683 L 93.964623,203.402461 L 94.829631,203.249937 L 95.701960,203.096122 "/>
<path style="fill: none; stroke: #000000; stroke-width: 1.000000; stroke-linejoin: miter; stroke-linecap: square;  opacity: 1.000000" clip-path="url(#-1467158557)" d="M 91.597500,186.300000 L 92.468352,186.300000 L 93.346704,186.300000 L 94.232490,186.300000 "/>
<path style="fill: none; stroke: #000000; stroke-width: 1.000000; stroke-linejoin: miter; stroke-linecap: square;  opacity: 1.000000" clip-path="url(#-1467158557)" d="M 93.107002,169.046317 L 93.964623,169.197539 L 94.829631,169.350063 L 95.701960,169.503878 "/>
<path style="fill: none; stroke: #000000; stroke-width: 1.000000; stroke-linejoin: miter; stroke-linecap: square;  opacity: 1.000000" clip-path="url(#-1467158557)" d="M 97.589641,152.316879 L 98.407974,152.614727 L 99.233355,152.915142 L 100.065722,153.218098 "/>
<path style="fill: none; stroke: #000000; stroke-width: 1.000000; stroke-linejoin: miter; stroke-linecap: square;  opacity: 1.000000" clip-path="url(#-1467158557)" d="M 104.909216,136.620000 L 105.663396,137.055426 L 106.424071,137.494602 L 107.191184,137.937495 "/>
<path style="fill: none; stroke: #000000; stroke-width: 1.000000; stroke-linejoin: miter; stroke-linecap: square;  opacity: 1.000000" clip-path="url(#-1467158557)" d="M 114.843324,122.432623 L 115.510435,122.992396 L 116.183292,123.556990 L 116.861843,124.126362 "/>
<path style="fill: none; stroke: #000000; stroke-width: 1.000000; stroke-linejoin: miter; stroke-linecap: square;  opacity: 1.000000" clip-path="url(#-1467158557)" d="M 127.090123,110.185824 L 127.649896,110.852935 L 128.214490,111.525792 L 128.783862,112.204343 "/>
<path style="fill: none; stroke: #000000; stroke-width: 1.000000; stroke-linejoin: miter; stroke-linecap: square;  opacity: 1.000000" clip-path="url(#-1467158557)" d="M 141.277500,100.251716 L 141.712926,101.005896 L 142.152102,101.766571 L 142.594995,102.533684 "/>
<path style="fill: none; stroke: #000000; stroke-width: 1.000000; stroke-linejoin: miter; stroke-linecap: square;  opacity: 1.000000" clip-path="url(#-1467158557)" d="M 156.974379,92.932141 L 157.272227,93.750474 L 157.572642,94.575855 L 157.875598,95.408222 "/>
<path style="fill: none; stroke: #000000; stroke-width: 1.000000; stroke-linejoin: miter; stroke-linecap: square;  opacity: 1.000000" clip-path="url(#-1467158557)" d="M 173.703817,88.449502 L 173.855039,89.307123 L 174.007563,90.172131 L 174.161378,91.044460 "/>
<path style="fill: none; stroke: #000000; stroke-width: 0.500000; stroke-linejoin: miter; stroke-linecap: square;  opacity: 1.000000" clip-path="url(#-1467158557)" d="M 81.661500,295.596000 L 300.253500,295.596000 L 300.253500,77.004000 L 81.661500,77.004000 L 81.661500,295.596000 "/>
<text style="font-size: 12.000000; font-family: Times; font-style: Regular; fill: #000000;" x="81.661500" y="72.036000" >hyp.di</text>
</g>
<text style="font-size: 12.000000; font-family: Times; font-style: Regular; fill: #000000;" x="7.452000" y="368.874000" >pmagpy-1.50b</text>
</g>
</svg>
