<?xml version="1.0" standalone="no"?>
<!DOCTYPE svg PUBLIC "-//W3C//DTD SVG 1.1//EN"
  "http://www.w3.org/Graphics/SVG/1.1/DTD/svg11.dtd">
<!-- Created with matplotlib (http://matplotlib.sourceforge.net/) -->
<svg width="372" height="372" viewBox="0 0 372 372"
   xmlns="http://www.w3.org/2000/svg"
   xmlns:xlink="http://www.w3.org/1999/xlink"
   version="1.1"
   id="svg1">
<g id="figure1">
<polygon style="fill: #ffffff; stroke: #ffffff; stroke-width: 1.000000; stroke-linejoin: miter; stroke-linecap: square;  opacity: 1.000000"  points = "0.000000,372.600000 0.000000,0.000000 372.600000,0.000000 372.600000,372.600000"/>
<g id="axes1">
<g id="regpolycollection1">
<defs>
    <clipPath id="-1467158557">
    <rect x="46.575000" y="37.260000" width="288.765000" height="298.080000"
    style="stroke: gray; fill: none;"/>
    </clipPath>
</defs>
<polygon style="fill: #ff0000; stroke: #000000; stroke-width: 1.000000; stroke-linejoin: miter; stroke-linecap: butt;  opacity: 1.000000" clip-path="url(#-1467158557)" points = "187.052924,200.825142 187.832615,200.948633 188.535984,201.307018 189.094181,201.865215 189.452565,202.568584 189.576056,203.348275 189.452565,204.127966 189.094181,204.831335 188.535984,205.389532 187.832615,205.747916 187.052924,205.871407 186.273233,205.747916 185.569864,205.389532 185.011667,204.831335 184.653282,204.127966 184.529791,203.348275 184.653282,202.568584 185.011667,201.865215 185.569864,201.307018 186.273233,200.948633"/>
<polygon style="fill: #ff0000; stroke: #000000; stroke-width: 1.000000; stroke-linejoin: miter; stroke-linecap: butt;  opacity: 1.000000" clip-path="url(#-1467158557)" points = "183.519353,199.874492 184.299044,199.997983 185.002413,200.356367 185.560610,200.914564 185.918995,201.617934 186.042486,202.397624 185.918995,203.177315 185.560610,203.880685 185.002413,204.438882 184.299044,204.797266 183.519353,204.920757 182.739662,204.797266 182.036293,204.438882 181.478096,203.880685 181.119712,203.177315 180.996221,202.397624 181.119712,201.617934 181.478096,200.914564 182.036293,200.356367 182.739662,199.997983"/>
<polygon style="fill: #ff0000; stroke: #000000; stroke-width: 1.000000; stroke-linejoin: miter; stroke-linecap: butt;  opacity: 1.000000" clip-path="url(#-1467158557)" points = "159.549801,200.406388 160.329491,200.529879 161.032861,200.888264 161.591058,201.446461 161.949442,202.149830 162.072933,202.929521 161.949442,203.709212 161.591058,204.412581 161.032861,204.970778 160.329491,205.329162 159.549801,205.452653 158.770110,205.329162 158.066741,204.970778 157.508544,204.412581 157.150159,203.709212 157.026668,202.929521 157.150159,202.149830 157.508544,201.446461 158.066741,200.888264 158.770110,200.529879"/>
<polygon style="fill: #ff0000; stroke: #000000; stroke-width: 1.000000; stroke-linejoin: miter; stroke-linecap: butt;  opacity: 1.000000" clip-path="url(#-1467158557)" points = "195.849086,196.586664 196.628777,196.710155 197.332146,197.068540 197.890343,197.626737 198.248727,198.330106 198.372218,199.109797 198.248727,199.889488 197.890343,200.592857 197.332146,201.151054 196.628777,201.509438 195.849086,201.632929 195.069395,201.509438 194.366026,201.151054 193.807829,200.592857 193.449444,199.889488 193.325953,199.109797 193.449444,198.330106 193.807829,197.626737 194.366026,197.068540 195.069395,196.710155"/>
<polygon style="fill: #ff0000; stroke: #000000; stroke-width: 1.000000; stroke-linejoin: miter; stroke-linecap: butt;  opacity: 1.000000" clip-path="url(#-1467158557)" points = "219.882528,219.369107 220.662219,219.492597 221.365588,219.850982 221.923785,220.409179 222.282170,221.112548 222.405661,221.892239 222.282170,222.671930 221.923785,223.375299 221.365588,223.933496 220.662219,224.291881 219.882528,224.415372 219.102837,224.291881 218.399468,223.933496 217.841271,223.375299 217.482886,222.671930 217.359396,221.892239 217.482886,221.112548 217.841271,220.409179 218.399468,219.850982 219.102837,219.492597"/>
<polygon style="fill: #ff0000; stroke: #000000; stroke-width: 1.000000; stroke-linejoin: miter; stroke-linecap: butt;  opacity: 1.000000" clip-path="url(#-1467158557)" points = "172.535470,203.257618 173.315161,203.381109 174.018530,203.739493 174.576727,204.297690 174.935112,205.001059 175.058603,205.780750 174.935112,206.560441 174.576727,207.263810 174.018530,207.822007 173.315161,208.180392 172.535470,208.303883 171.755779,208.180392 171.052410,207.822007 170.494213,207.263810 170.135829,206.560441 170.012338,205.780750 170.135829,205.001059 170.494213,204.297690 171.052410,203.739493 171.755779,203.381109"/>
<polygon style="fill: #ff0000; stroke: #000000; stroke-width: 1.000000; stroke-linejoin: miter; stroke-linecap: butt;  opacity: 1.000000" clip-path="url(#-1467158557)" points = "179.144587,212.579725 179.924278,212.703216 180.627647,213.061600 181.185844,213.619797 181.544229,214.323167 181.667720,215.102858 181.544229,215.882548 181.185844,216.585918 180.627647,217.144115 179.924278,217.502499 179.144587,217.625990 178.364896,217.502499 177.661527,217.144115 177.103330,216.585918 176.744946,215.882548 176.621455,215.102858 176.744946,214.323167 177.103330,213.619797 177.661527,213.061600 178.364896,212.703216"/>
<polygon style="fill: #ff0000; stroke: #000000; stroke-width: 1.000000; stroke-linejoin: miter; stroke-linecap: butt;  opacity: 1.000000" clip-path="url(#-1467158557)" points = "195.754752,202.735422 196.534443,202.858913 197.237812,203.217297 197.796009,203.775494 198.154393,204.478863 198.277884,205.258554 198.154393,206.038245 197.796009,206.741614 197.237812,207.299811 196.534443,207.658196 195.754752,207.781687 194.975061,207.658196 194.271692,207.299811 193.713495,206.741614 193.355110,206.038245 193.231619,205.258554 193.355110,204.478863 193.713495,203.775494 194.271692,203.217297 194.975061,202.858913"/>
<polygon style="fill: #ff0000; stroke: #000000; stroke-width: 1.000000; stroke-linejoin: miter; stroke-linecap: butt;  opacity: 1.000000" clip-path="url(#-1467158557)" points = "232.624193,220.900537 233.403884,221.024028 234.107253,221.382413 234.665450,221.940610 235.023835,222.643979 235.147326,223.423670 235.023835,224.203360 234.665450,224.906730 234.107253,225.464927 233.403884,225.823311 232.624193,225.946802 231.844503,225.823311 231.141133,225.464927 230.582936,224.906730 230.224552,224.203360 230.101061,223.423670 230.224552,222.643979 230.582936,221.940610 231.141133,221.382413 231.844503,221.024028"/>
<polygon style="fill: #ff0000; stroke: #000000; stroke-width: 1.000000; stroke-linejoin: miter; stroke-linecap: butt;  opacity: 1.000000" clip-path="url(#-1467158557)" points = "203.422583,202.467471 204.202274,202.590962 204.905643,202.949346 205.463840,203.507543 205.822225,204.210913 205.945716,204.990603 205.822225,205.770294 205.463840,206.473664 204.905643,207.031861 204.202274,207.390245 203.422583,207.513736 202.642892,207.390245 201.939523,207.031861 201.381326,206.473664 201.022941,205.770294 200.899450,204.990603 201.022941,204.210913 201.381326,203.507543 201.939523,202.949346 202.642892,202.590962"/>
<polygon style="fill: #ff0000; stroke: #000000; stroke-width: 1.000000; stroke-linejoin: miter; stroke-linecap: butt;  opacity: 1.000000" clip-path="url(#-1467158557)" points = "194.382595,188.256706 195.162286,188.380197 195.865655,188.738582 196.423852,189.296779 196.782237,190.000148 196.905728,190.779839 196.782237,191.559529 196.423852,192.262899 195.865655,192.821096 195.162286,193.179480 194.382595,193.302971 193.602904,193.179480 192.899535,192.821096 192.341338,192.262899 191.982954,191.559529 191.859463,190.779839 191.982954,190.000148 192.341338,189.296779 192.899535,188.738582 193.602904,188.380197"/>
<polygon style="fill: #ff0000; stroke: #000000; stroke-width: 1.000000; stroke-linejoin: miter; stroke-linecap: butt;  opacity: 1.000000" clip-path="url(#-1467158557)" points = "194.932850,197.027400 195.712541,197.150891 196.415910,197.509276 196.974107,198.067473 197.332492,198.770842 197.455983,199.550533 197.332492,200.330224 196.974107,201.033593 196.415910,201.591790 195.712541,201.950174 194.932850,202.073665 194.153160,201.950174 193.449790,201.591790 192.891593,201.033593 192.533209,200.330224 192.409718,199.550533 192.533209,198.770842 192.891593,198.067473 193.449790,197.509276 194.153160,197.150891"/>
<polygon style="fill: #ff0000; stroke: #000000; stroke-width: 1.000000; stroke-linejoin: miter; stroke-linecap: butt;  opacity: 1.000000" clip-path="url(#-1467158557)" points = "207.215232,193.975324 207.994923,194.098815 208.698292,194.457199 209.256489,195.015396 209.614874,195.718765 209.738365,196.498456 209.614874,197.278147 209.256489,197.981516 208.698292,198.539713 207.994923,198.898098 207.215232,199.021589 206.435541,198.898098 205.732172,198.539713 205.173975,197.981516 204.815590,197.278147 204.692100,196.498456 204.815590,195.718765 205.173975,195.015396 205.732172,194.457199 206.435541,194.098815"/>
<polygon style="fill: #ff0000; stroke: #000000; stroke-width: 1.000000; stroke-linejoin: miter; stroke-linecap: butt;  opacity: 1.000000" clip-path="url(#-1467158557)" points = "193.431748,236.243161 194.211438,236.366652 194.914808,236.725037 195.473005,237.283234 195.831389,237.986603 195.954880,238.766294 195.831389,239.545985 195.473005,240.249354 194.914808,240.807551 194.211438,241.165935 193.431748,241.289426 192.652057,241.165935 191.948688,240.807551 191.390491,240.249354 191.032106,239.545985 190.908615,238.766294 191.032106,237.986603 191.390491,237.283234 191.948688,236.725037 192.652057,236.366652"/>
<polygon style="fill: #ff0000; stroke: #000000; stroke-width: 1.000000; stroke-linejoin: miter; stroke-linecap: butt;  opacity: 1.000000" clip-path="url(#-1467158557)" points = "210.054113,204.763771 210.833804,204.887262 211.537173,205.245646 212.095370,205.803843 212.453754,206.507212 212.577245,207.286903 212.453754,208.066594 212.095370,208.769963 211.537173,209.328160 210.833804,209.686545 210.054113,209.810036 209.274422,209.686545 208.571053,209.328160 208.012856,208.769963 207.654471,208.066594 207.530980,207.286903 207.654471,206.507212 208.012856,205.803843 208.571053,205.245646 209.274422,204.887262"/>
<polygon style="fill: #ff0000; stroke: #000000; stroke-width: 1.000000; stroke-linejoin: miter; stroke-linecap: butt;  opacity: 1.000000" clip-path="url(#-1467158557)" points = "187.898734,206.399991 188.678425,206.523482 189.381794,206.881866 189.939991,207.440063 190.298375,208.143433 190.421866,208.923123 190.298375,209.702814 189.939991,210.406183 189.381794,210.964380 188.678425,211.322765 187.898734,211.446256 187.119043,211.322765 186.415674,210.964380 185.857477,210.406183 185.499092,209.702814 185.375601,208.923123 185.499092,208.143433 185.857477,207.440063 186.415674,206.881866 187.119043,206.523482"/>
<polygon style="fill: #ff0000; stroke: #000000; stroke-width: 1.000000; stroke-linejoin: miter; stroke-linecap: butt;  opacity: 1.000000" clip-path="url(#-1467158557)" points = "181.519160,204.297291 182.298851,204.420782 183.002220,204.779166 183.560417,205.337363 183.918801,206.040733 184.042292,206.820423 183.918801,207.600114 183.560417,208.303483 183.002220,208.861680 182.298851,209.220065 181.519160,209.343556 180.739469,209.220065 180.036100,208.861680 179.477903,208.303483 179.119518,207.600114 178.996027,206.820423 179.119518,206.040733 179.477903,205.337363 180.036100,204.779166 180.739469,204.420782"/>
<polygon style="fill: #ff0000; stroke: #000000; stroke-width: 1.000000; stroke-linejoin: miter; stroke-linecap: butt;  opacity: 1.000000" clip-path="url(#-1467158557)" points = "210.290315,203.381522 211.070006,203.505012 211.773375,203.863397 212.331572,204.421594 212.689956,205.124963 212.813447,205.904654 212.689956,206.684345 212.331572,207.387714 211.773375,207.945911 211.070006,208.304296 210.290315,208.427787 209.510624,208.304296 208.807255,207.945911 208.249058,207.387714 207.890673,206.684345 207.767182,205.904654 207.890673,205.124963 208.249058,204.421594 208.807255,203.863397 209.510624,203.505012"/>
<polygon style="fill: #ff0000; stroke: #000000; stroke-width: 1.000000; stroke-linejoin: miter; stroke-linecap: butt;  opacity: 1.000000" clip-path="url(#-1467158557)" points = "192.164259,205.361329 192.943950,205.484820 193.647319,205.843204 194.205516,206.401401 194.563900,207.104771 194.687391,207.884462 194.563900,208.664152 194.205516,209.367522 193.647319,209.925719 192.943950,210.284103 192.164259,210.407594 191.384568,210.284103 190.681199,209.925719 190.123002,209.367522 189.764617,208.664152 189.641126,207.884462 189.764617,207.104771 190.123002,206.401401 190.681199,205.843204 191.384568,205.484820"/>
<polygon style="fill: #ff0000; stroke: #000000; stroke-width: 1.000000; stroke-linejoin: miter; stroke-linecap: butt;  opacity: 1.000000" clip-path="url(#-1467158557)" points = "191.435594,206.600828 192.215285,206.724319 192.918654,207.082704 193.476851,207.640901 193.835235,208.344270 193.958726,209.123961 193.835235,209.903652 193.476851,210.607021 192.918654,211.165218 192.215285,211.523602 191.435594,211.647093 190.655903,211.523602 189.952534,211.165218 189.394337,210.607021 189.035952,209.903652 188.912461,209.123961 189.035952,208.344270 189.394337,207.640901 189.952534,207.082704 190.655903,206.724319"/>
</g>
<g id="regpolycollection2">
<polygon style="fill: #008000; stroke: #000000; stroke-width: 1.000000; stroke-linejoin: miter; stroke-linecap: butt;  opacity: 1.000000" clip-path="url(#-1467158557)" points = "194.785237,203.080528 199.155430,210.649926 190.415043,210.649926"/>
</g>
<path style="fill: none; stroke: #000000; stroke-width: 1.000000; stroke-linejoin: miter; stroke-linecap: square;  opacity: 1.000000" clip-path="url(#-1467158557)" d="M 190.957500,86.940000 L 192.691571,86.955133 L 194.425114,87.000527 L 196.157601,87.076169 L 197.888503,87.182036 L 199.617295,87.318095 L 201.343448,87.484304 L 203.066438,87.680614 L 204.785739,87.906965 L 206.500828,88.163286 L 208.211183,88.449502 L 209.916282,88.765523 L 211.615606,89.111254 L 213.308637,89.486590 L 214.994860,89.891417 L 216.673760,90.325610 L 218.344828,90.789038 L 220.007553,91.281559 L 221.661429,91.803025 L 223.305952,92.353274 L 224.940621,92.932141 L 226.564939,93.539449 L 228.178411,94.175012 L 229.780545,94.838638 L 231.370853,95.530123 L 232.948850,96.249258 L 234.514057,96.995824 L 236.065996,97.769592 L 237.604194,98.570327 L 239.128184,99.397786 L 240.637500,100.251716 L 242.131683,101.131857 L 243.610278,102.037941 L 245.072835,102.969692 L 246.518907,103.926827 L 247.948055,104.909053 L 249.359843,105.916071 L 250.753841,106.947576 L 252.129624,108.003252 L 253.486774,109.082777 L 254.824877,110.185824 L 256.143525,111.312056 L 257.442317,112.461130 L 258.720857,113.632696 L 259.978756,114.826397 L 261.215630,116.041870 L 262.431103,117.278744 L 263.624804,118.536643 L 264.796370,119.815183 L 265.945444,121.113975 L 267.071676,122.432623 L 268.174723,123.770726 L 269.254248,125.127876 L 270.309924,126.503659 L 271.341429,127.897657 L 272.348447,129.309445 L 273.330673,130.738593 L 274.287808,132.184665 L 275.219559,133.647222 L 276.125643,135.125817 L 277.005784,136.620000 L 277.859714,138.129316 L 278.687173,139.653306 L 279.487908,141.191504 L 280.261676,142.743443 L 281.008242,144.308650 L 281.727377,145.886647 L 282.418862,147.476955 L 283.082488,149.079089 L 283.718051,150.692561 L 284.325359,152.316879 L 284.904226,153.951548 L 285.454475,155.596071 L 285.975941,157.249947 L 286.468462,158.912672 L 286.931890,160.583740 L 287.366083,162.262640 L 287.770910,163.948863 L 288.146246,165.641894 L 288.491977,167.341218 L 288.807998,169.046317 L 289.094214,170.756672 L 289.350535,172.471761 L 289.576886,174.191062 L 289.773196,175.914052 L 289.939405,177.640205 L 290.075464,179.368997 L 290.181331,181.099899 L 290.256973,182.832386 L 290.302367,184.565929 L 290.317500,186.300000 L 290.302367,188.034071 L 290.256973,189.767614 L 290.181331,191.500101 L 290.075464,193.231003 L 289.939405,194.959795 L 289.773196,196.685948 L 289.576886,198.408938 L 289.350535,200.128239 L 289.094214,201.843328 L 288.807998,203.553683 L 288.491977,205.258782 L 288.146246,206.958106 L 287.770910,208.651137 L 287.366083,210.337360 L 286.931890,212.016260 L 286.468462,213.687328 L 285.975941,215.350053 L 285.454475,217.003929 L 284.904226,218.648452 L 284.325359,220.283121 L 283.718051,221.907439 L 283.082488,223.520911 L 282.418862,225.123045 L 281.727377,226.713353 L 281.008242,228.291350 L 280.261676,229.856557 L 279.487908,231.408496 L 278.687173,232.946694 L 277.859714,234.470684 L 277.005784,235.980000 L 276.125643,237.474183 L 275.219559,238.952778 L 274.287808,240.415335 L 273.330673,241.861407 L 272.348447,243.290555 L 271.341429,244.702343 L 270.309924,246.096341 L 269.254248,247.472124 L 268.174723,248.829274 L 267.071676,250.167377 L 265.945444,251.486025 L 264.796370,252.784817 L 263.624804,254.063357 L 262.431103,255.321256 L 261.215630,256.558130 L 259.978756,257.773603 L 258.720857,258.967304 L 257.442317,260.138870 L 256.143525,261.287944 L 254.824877,262.414176 L 253.486774,263.517223 L 252.129624,264.596748 L 250.753841,265.652424 L 249.359843,266.683929 L 247.948055,267.690947 L 246.518907,268.673173 L 245.072835,269.630308 L 243.610278,270.562059 L 242.131683,271.468143 L 240.637500,272.348284 L 239.128184,273.202214 L 237.604194,274.029673 L 236.065996,274.830408 L 234.514057,275.604176 L 232.948850,276.350742 L 231.370853,277.069877 L 229.780545,277.761362 L 228.178411,278.424988 L 226.564939,279.060551 L 224.940621,279.667859 L 223.305952,280.246726 L 221.661429,280.796975 L 220.007553,281.318441 L 218.344828,281.810962 L 216.673760,282.274390 L 214.994860,282.708583 L 213.308637,283.113410 L 211.615606,283.488746 L 209.916282,283.834477 L 208.211183,284.150498 L 206.500828,284.436714 L 204.785739,284.693035 L 203.066438,284.919386 L 201.343448,285.115696 L 199.617295,285.281905 L 197.888503,285.417964 L 196.157601,285.523831 L 194.425114,285.599473 L 192.691571,285.644867 L 190.957500,285.660000 L 189.223429,285.644867 L 187.489886,285.599473 L 185.757399,285.523831 L 184.026497,285.417964 L 182.297705,285.281905 L 180.571552,285.115696 L 178.848562,284.919386 L 177.129261,284.693035 L 175.414172,284.436714 L 173.703817,284.150498 L 171.998718,283.834477 L 170.299394,283.488746 L 168.606363,283.113410 L 166.920140,282.708583 L 165.241240,282.274390 L 163.570172,281.810962 L 161.907447,281.318441 L 160.253571,280.796975 L 158.609048,280.246726 L 156.974379,279.667859 L 155.350061,279.060551 L 153.736589,278.424988 L 152.134455,277.761362 L 150.544147,277.069877 L 148.966150,276.350742 L 147.400943,275.604176 L 145.849004,274.830408 L 144.310806,274.029673 L 142.786816,273.202214 L 141.277500,272.348284 L 139.783317,271.468143 L 138.304722,270.562059 L 136.842165,269.630308 L 135.396093,268.673173 L 133.966945,267.690947 L 132.555157,266.683929 L 131.161159,265.652424 L 129.785376,264.596748 L 128.428226,263.517223 L 127.090123,262.414176 L 125.771475,261.287944 L 124.472683,260.138870 L 123.194143,258.967304 L 121.936244,257.773603 L 120.699370,256.558130 L 119.483897,255.321256 L 118.290196,254.063357 L 117.118630,252.784817 L 115.969556,251.486025 L 114.843324,250.167377 L 113.740277,248.829274 L 112.660752,247.472124 L 111.605076,246.096341 L 110.573571,244.702343 L 109.566553,243.290555 L 108.584327,241.861407 L 107.627192,240.415335 L 106.695441,238.952778 L 105.789357,237.474183 L 104.909216,235.980000 L 104.055286,234.470684 L 103.227827,232.946694 L 102.427092,231.408496 L 101.653324,229.856557 L 100.906758,228.291350 L 100.187623,226.713353 L 99.496138,225.123045 L 98.832512,223.520911 L 98.196949,221.907439 L 97.589641,220.283121 L 97.010774,218.648452 L 96.460525,217.003929 L 95.939059,215.350053 L 95.446538,213.687328 L 94.983110,212.016260 L 94.548917,210.337360 L 94.144090,208.651137 L 93.768754,206.958106 L 93.423023,205.258782 L 93.107002,203.553683 L 92.820786,201.843328 L 92.564465,200.128239 L 92.338114,198.408938 L 92.141804,196.685948 L 91.975595,194.959795 L 91.839536,193.231003 L 91.733669,191.500101 L 91.658027,189.767614 L 91.612633,188.034071 L 91.597500,186.300000 L 91.612633,184.565929 L 91.658027,182.832386 L 91.733669,181.099899 L 91.839536,179.368997 L 91.975595,177.640205 L 92.141804,175.914052 L 92.338114,174.191062 L 92.564465,172.471761 L 92.820786,170.756672 L 93.107002,169.046317 L 93.423023,167.341218 L 93.768754,165.641894 L 94.144090,163.948863 L 94.548917,162.262640 L 94.983110,160.583740 L 95.446538,158.912672 L 95.939059,157.249947 L 96.460525,155.596071 L 97.010774,153.951548 L 97.589641,152.316879 L 98.196949,150.692561 L 98.832512,149.079089 L 99.496138,147.476955 L 100.187623,145.886647 L 100.906758,144.308650 L 101.653324,142.743443 L 102.427092,141.191504 L 103.227827,139.653306 L 104.055286,138.129316 L 104.909216,136.620000 L 105.789357,135.125817 L 106.695441,133.647222 L 107.627192,132.184665 L 108.584327,130.738593 L 109.566553,129.309445 L 110.573571,127.897657 L 111.605076,126.503659 L 112.660752,125.127876 L 113.740277,123.770726 L 114.843324,122.432623 L 115.969556,121.113975 L 117.118630,119.815183 L 118.290196,118.536643 L 119.483897,117.278744 L 120.699370,116.041870 L 121.936244,114.826397 L 123.194143,113.632696 L 124.472683,112.461130 L 125.771475,111.312056 L 127.090123,110.185824 L 128.428226,109.082777 L 129.785376,108.003252 L 131.161159,106.947576 L 132.555157,105.916071 L 133.966945,104.909053 L 135.396093,103.926827 L 136.842165,102.969692 L 138.304722,102.037941 L 139.783317,101.131857 L 141.277500,100.251716 L 142.786816,99.397786 L 144.310806,98.570327 L 145.849004,97.769592 L 147.400943,96.995824 L 148.966150,96.249258 L 150.544147,95.530123 L 152.134455,94.838638 L 153.736589,94.175012 L 155.350061,93.539449 L 156.974379,92.932141 L 158.609048,92.353274 L 160.253571,91.803025 L 161.907447,91.281559 L 163.570172,90.789038 L 165.241240,90.325610 L 166.920140,89.891417 L 168.606363,89.486590 L 170.299394,89.111254 L 171.998718,88.765523 L 173.703817,88.449502 L 175.414172,88.163286 L 177.129261,87.906965 L 178.848562,87.680614 L 180.571552,87.484304 L 182.297705,87.318095 L 184.026497,87.182036 L 185.757399,87.076169 L 187.489886,87.000527 L 189.223429,86.955133 L 190.957500,86.940000 "/>
<path style="fill: none; stroke: #000000; stroke-width: 0.500000; stroke-linejoin: miter; stroke-linecap: butt;  opacity: 1.000000" clip-path="url(#-1467158557)" d="M 278.279611,186.300000 L 284.279611,186.300000"/>
<path style="fill: none; stroke: #000000; stroke-width: 0.500000; stroke-linejoin: miter; stroke-linecap: butt;  opacity: 1.000000" clip-path="url(#-1467158557)" d="M 281.279611,189.300000 L 281.279611,183.300000"/>
<path style="fill: none; stroke: #000000; stroke-width: 0.500000; stroke-linejoin: miter; stroke-linecap: butt;  opacity: 1.000000" clip-path="url(#-1467158557)" d="M 268.554315,186.300000 L 274.554315,186.300000"/>
<path style="fill: none; stroke: #000000; stroke-width: 0.500000; stroke-linejoin: miter; stroke-linecap: butt;  opacity: 1.000000" clip-path="url(#-1467158557)" d="M 271.554315,189.300000 L 271.554315,183.300000"/>
<path style="fill: none; stroke: #000000; stroke-width: 0.500000; stroke-linejoin: miter; stroke-linecap: butt;  opacity: 1.000000" clip-path="url(#-1467158557)" d="M 258.215630,186.300000 L 264.215630,186.300000"/>
<path style="fill: none; stroke: #000000; stroke-width: 0.500000; stroke-linejoin: miter; stroke-linecap: butt;  opacity: 1.000000" clip-path="url(#-1467158557)" d="M 261.215630,189.300000 L 261.215630,183.300000"/>
<path style="fill: none; stroke: #000000; stroke-width: 0.500000; stroke-linejoin: miter; stroke-linecap: butt;  opacity: 1.000000" clip-path="url(#-1467158557)" d="M 247.342237,186.300000 L 253.342237,186.300000"/>
<path style="fill: none; stroke: #000000; stroke-width: 0.500000; stroke-linejoin: miter; stroke-linecap: butt;  opacity: 1.000000" clip-path="url(#-1467158557)" d="M 250.342237,189.300000 L 250.342237,183.300000"/>
<path style="fill: none; stroke: #000000; stroke-width: 0.500000; stroke-linejoin: miter; stroke-linecap: butt;  opacity: 1.000000" clip-path="url(#-1467158557)" d="M 236.016891,186.300000 L 242.016891,186.300000"/>
<path style="fill: none; stroke: #000000; stroke-width: 0.500000; stroke-linejoin: miter; stroke-linecap: butt;  opacity: 1.000000" clip-path="url(#-1467158557)" d="M 239.016891,189.300000 L 239.016891,183.300000"/>
<path style="fill: none; stroke: #000000; stroke-width: 0.500000; stroke-linejoin: miter; stroke-linecap: butt;  opacity: 1.000000" clip-path="url(#-1467158557)" d="M 224.325784,186.300000 L 230.325784,186.300000"/>
<path style="fill: none; stroke: #000000; stroke-width: 0.500000; stroke-linejoin: miter; stroke-linecap: butt;  opacity: 1.000000" clip-path="url(#-1467158557)" d="M 227.325784,189.300000 L 227.325784,183.300000"/>
<path style="fill: none; stroke: #000000; stroke-width: 0.500000; stroke-linejoin: miter; stroke-linecap: butt;  opacity: 1.000000" clip-path="url(#-1467158557)" d="M 212.357892,186.300000 L 218.357892,186.300000"/>
<path style="fill: none; stroke: #000000; stroke-width: 0.500000; stroke-linejoin: miter; stroke-linecap: butt;  opacity: 1.000000" clip-path="url(#-1467158557)" d="M 215.357892,189.300000 L 215.357892,183.300000"/>
<path style="fill: none; stroke: #000000; stroke-width: 0.500000; stroke-linejoin: miter; stroke-linecap: butt;  opacity: 1.000000" clip-path="url(#-1467158557)" d="M 200.204299,186.300000 L 206.204299,186.300000"/>
<path style="fill: none; stroke: #000000; stroke-width: 0.500000; stroke-linejoin: miter; stroke-linecap: butt;  opacity: 1.000000" clip-path="url(#-1467158557)" d="M 203.204299,189.300000 L 203.204299,183.300000"/>
<path style="fill: none; stroke: #000000; stroke-width: 0.500000; stroke-linejoin: miter; stroke-linecap: butt;  opacity: 1.000000" clip-path="url(#-1467158557)" d="M 187.957500,186.300000 L 193.957500,186.300000"/>
<path style="fill: none; stroke: #000000; stroke-width: 0.500000; stroke-linejoin: miter; stroke-linecap: butt;  opacity: 1.000000" clip-path="url(#-1467158557)" d="M 190.957500,189.300000 L 190.957500,183.300000"/>
<path style="fill: none; stroke: #000000; stroke-width: 1.000000; stroke-linejoin: miter; stroke-linecap: square;  opacity: 1.000000" clip-path="url(#-1467158557)" d="M 190.957500,86.940000 L 190.957500,87.810852 L 190.957500,88.689204 L 190.957500,89.574990 "/>
<path style="fill: none; stroke: #000000; stroke-width: 1.000000; stroke-linejoin: miter; stroke-linecap: square;  opacity: 1.000000" clip-path="url(#-1467158557)" d="M 208.211183,88.449502 L 208.059961,89.307123 L 207.907437,90.172131 L 207.753622,91.044460 "/>
<path style="fill: none; stroke: #000000; stroke-width: 1.000000; stroke-linejoin: miter; stroke-linecap: square;  opacity: 1.000000" clip-path="url(#-1467158557)" d="M 224.940621,92.932141 L 224.642773,93.750474 L 224.342358,94.575855 L 224.039402,95.408222 "/>
<path style="fill: none; stroke: #000000; stroke-width: 1.000000; stroke-linejoin: miter; stroke-linecap: square;  opacity: 1.000000" clip-path="url(#-1467158557)" d="M 240.637500,100.251716 L 240.202074,101.005896 L 239.762898,101.766571 L 239.320005,102.533684 "/>
<path style="fill: none; stroke: #000000; stroke-width: 1.000000; stroke-linejoin: miter; stroke-linecap: square;  opacity: 1.000000" clip-path="url(#-1467158557)" d="M 254.824877,110.185824 L 254.265104,110.852935 L 253.700510,111.525792 L 253.131138,112.204343 "/>
<path style="fill: none; stroke: #000000; stroke-width: 1.000000; stroke-linejoin: miter; stroke-linecap: square;  opacity: 1.000000" clip-path="url(#-1467158557)" d="M 267.071676,122.432623 L 266.404565,122.992396 L 265.731708,123.556990 L 265.053157,124.126362 "/>
<path style="fill: none; stroke: #000000; stroke-width: 1.000000; stroke-linejoin: miter; stroke-linecap: square;  opacity: 1.000000" clip-path="url(#-1467158557)" d="M 277.005784,136.620000 L 276.251604,137.055426 L 275.490929,137.494602 L 274.723816,137.937495 "/>
<path style="fill: none; stroke: #000000; stroke-width: 1.000000; stroke-linejoin: miter; stroke-linecap: square;  opacity: 1.000000" clip-path="url(#-1467158557)" d="M 284.325359,152.316879 L 283.507026,152.614727 L 282.681645,152.915142 L 281.849278,153.218098 "/>
<path style="fill: none; stroke: #000000; stroke-width: 1.000000; stroke-linejoin: miter; stroke-linecap: square;  opacity: 1.000000" clip-path="url(#-1467158557)" d="M 288.807998,169.046317 L 287.950377,169.197539 L 287.085369,169.350063 L 286.213040,169.503878 "/>
<path style="fill: none; stroke: #000000; stroke-width: 1.000000; stroke-linejoin: miter; stroke-linecap: square;  opacity: 1.000000" clip-path="url(#-1467158557)" d="M 290.317500,186.300000 L 289.446648,186.300000 L 288.568296,186.300000 L 287.682510,186.300000 "/>
<path style="fill: none; stroke: #000000; stroke-width: 1.000000; stroke-linejoin: miter; stroke-linecap: square;  opacity: 1.000000" clip-path="url(#-1467158557)" d="M 288.807998,203.553683 L 287.950377,203.402461 L 287.085369,203.249937 L 286.213040,203.096122 "/>
<path style="fill: none; stroke: #000000; stroke-width: 1.000000; stroke-linejoin: miter; stroke-linecap: square;  opacity: 1.000000" clip-path="url(#-1467158557)" d="M 284.325359,220.283121 L 283.507026,219.985273 L 282.681645,219.684858 L 281.849278,219.381902 "/>
<path style="fill: none; stroke: #000000; stroke-width: 1.000000; stroke-linejoin: miter; stroke-linecap: square;  opacity: 1.000000" clip-path="url(#-1467158557)" d="M 277.005784,235.980000 L 276.251604,235.544574 L 275.490929,235.105398 L 274.723816,234.662505 "/>
<path style="fill: none; stroke: #000000; stroke-width: 1.000000; stroke-linejoin: miter; stroke-linecap: square;  opacity: 1.000000" clip-path="url(#-1467158557)" d="M 267.071676,250.167377 L 266.404565,249.607604 L 265.731708,249.043010 L 265.053157,248.473638 "/>
<path style="fill: none; stroke: #000000; stroke-width: 1.000000; stroke-linejoin: miter; stroke-linecap: square;  opacity: 1.000000" clip-path="url(#-1467158557)" d="M 254.824877,262.414176 L 254.265104,261.747065 L 253.700510,261.074208 L 253.131138,260.395657 "/>
<path style="fill: none; stroke: #000000; stroke-width: 1.000000; stroke-linejoin: miter; stroke-linecap: square;  opacity: 1.000000" clip-path="url(#-1467158557)" d="M 240.637500,272.348284 L 240.202074,271.594104 L 239.762898,270.833429 L 239.320005,270.066316 "/>
<path style="fill: none; stroke: #000000; stroke-width: 1.000000; stroke-linejoin: miter; stroke-linecap: square;  opacity: 1.000000" clip-path="url(#-1467158557)" d="M 224.940621,279.667859 L 224.642773,278.849526 L 224.342358,278.024145 L 224.039402,277.191778 "/>
<path style="fill: none; stroke: #000000; stroke-width: 1.000000; stroke-linejoin: miter; stroke-linecap: square;  opacity: 1.000000" clip-path="url(#-1467158557)" d="M 208.211183,284.150498 L 208.059961,283.292877 L 207.907437,282.427869 L 207.753622,281.555540 "/>
<path style="fill: none; stroke: #000000; stroke-width: 1.000000; stroke-linejoin: miter; stroke-linecap: square;  opacity: 1.000000" clip-path="url(#-1467158557)" d="M 190.957500,285.660000 L 190.957500,284.789148 L 190.957500,283.910796 L 190.957500,283.025010 "/>
<path style="fill: none; stroke: #000000; stroke-width: 1.000000; stroke-linejoin: miter; stroke-linecap: square;  opacity: 1.000000" clip-path="url(#-1467158557)" d="M 173.703817,284.150498 L 173.855039,283.292877 L 174.007563,282.427869 L 174.161378,281.555540 "/>
<path style="fill: none; stroke: #000000; stroke-width: 1.000000; stroke-linejoin: miter; stroke-linecap: square;  opacity: 1.000000" clip-path="url(#-1467158557)" d="M 156.974379,279.667859 L 157.272227,278.849526 L 157.572642,278.024145 L 157.875598,277.191778 "/>
<path style="fill: none; stroke: #000000; stroke-width: 1.000000; stroke-linejoin: miter; stroke-linecap: square;  opacity: 1.000000" clip-path="url(#-1467158557)" d="M 141.277500,272.348284 L 141.712926,271.594104 L 142.152102,270.833429 L 142.594995,270.066316 "/>
<path style="fill: none; stroke: #000000; stroke-width: 1.000000; stroke-linejoin: miter; stroke-linecap: square;  opacity: 1.000000" clip-path="url(#-1467158557)" d="M 127.090123,262.414176 L 127.649896,261.747065 L 128.214490,261.074208 L 128.783862,260.395657 "/>
<path style="fill: none; stroke: #000000; stroke-width: 1.000000; stroke-linejoin: miter; stroke-linecap: square;  opacity: 1.000000" clip-path="url(#-1467158557)" d="M 114.843324,250.167377 L 115.510435,249.607604 L 116.183292,249.043010 L 116.861843,248.473638 "/>
<path style="fill: none; stroke: #000000; stroke-width: 1.000000; stroke-linejoin: miter; stroke-linecap: square;  opacity: 1.000000" clip-path="url(#-1467158557)" d="M 104.909216,235.980000 L 105.663396,235.544574 L 106.424071,235.105398 L 107.191184,234.662505 "/>
<path style="fill: none; stroke: #000000; stroke-width: 1.000000; stroke-linejoin: miter; stroke-linecap: square;  opacity: 1.000000" clip-path="url(#-1467158557)" d="M 97.589641,220.283121 L 98.407974,219.985273 L 99.233355,219.684858 L 100.065722,219.381902 "/>
<path style="fill: none; stroke: #000000; stroke-width: 1.000000; stroke-linejoin: miter; stroke-linecap: square;  opacity: 1.000000" clip-path="url(#-1467158557)" d="M 93.107002,203.553683 L 93.964623,203.402461 L 94.829631,203.249937 L 95.701960,203.096122 "/>
<path style="fill: none; stroke: #000000; stroke-width: 1.000000; stroke-linejoin: miter; stroke-linecap: square;  opacity: 1.000000" clip-path="url(#-1467158557)" d="M 91.597500,186.300000 L 92.468352,186.300000 L 93.346704,186.300000 L 94.232490,186.300000 "/>
<path style="fill: none; stroke: #000000; stroke-width: 1.000000; stroke-linejoin: miter; stroke-linecap: square;  opacity: 1.000000" clip-path="url(#-1467158557)" d="M 93.107002,169.046317 L 93.964623,169.197539 L 94.829631,169.350063 L 95.701960,169.503878 "/>
<path style="fill: none; stroke: #000000; stroke-width: 1.000000; stroke-linejoin: miter; stroke-linecap: square;  opacity: 1.000000" clip-path="url(#-1467158557)" d="M 97.589641,152.316879 L 98.407974,152.614727 L 99.233355,152.915142 L 100.065722,153.218098 "/>
<path style="fill: none; stroke: #000000; stroke-width: 1.000000; stroke-linejoin: miter; stroke-linecap: square;  opacity: 1.000000" clip-path="url(#-1467158557)" d="M 104.909216,136.620000 L 105.663396,137.055426 L 106.424071,137.494602 L 107.191184,137.937495 "/>
<path style="fill: none; stroke: #000000; stroke-width: 1.000000; stroke-linejoin: miter; stroke-linecap: square;  opacity: 1.000000" clip-path="url(#-1467158557)" d="M 114.843324,122.432623 L 115.510435,122.992396 L 116.183292,123.556990 L 116.861843,124.126362 "/>
<path style="fill: none; stroke: #000000; stroke-width: 1.000000; stroke-linejoin: miter; stroke-linecap: square;  opacity: 1.000000" clip-path="url(#-1467158557)" d="M 127.090123,110.185824 L 127.649896,110.852935 L 128.214490,111.525792 L 128.783862,112.204343 "/>
<path style="fill: none; stroke: #000000; stroke-width: 1.000000; stroke-linejoin: miter; stroke-linecap: square;  opacity: 1.000000" clip-path="url(#-1467158557)" d="M 141.277500,100.251716 L 141.712926,101.005896 L 142.152102,101.766571 L 142.594995,102.533684 "/>
<path style="fill: none; stroke: #000000; stroke-width: 1.000000; stroke-linejoin: miter; stroke-linecap: square;  opacity: 1.000000" clip-path="url(#-1467158557)" d="M 156.974379,92.932141 L 157.272227,93.750474 L 157.572642,94.575855 L 157.875598,95.408222 "/>
<path style="fill: none; stroke: #000000; stroke-width: 1.000000; stroke-linejoin: miter; stroke-linecap: square;  opacity: 1.000000" clip-path="url(#-1467158557)" d="M 173.703817,88.449502 L 173.855039,89.307123 L 174.007563,90.172131 L 174.161378,91.044460 "/>
<path style="fill: none; stroke: #000000; stroke-width: 0.500000; stroke-linejoin: miter; stroke-linecap: square;  opacity: 1.000000" clip-path="url(#-1467158557)" d="M 81.661500,295.596000 L 300.253500,295.596000 L 300.253500,77.004000 L 81.661500,77.004000 L 81.661500,295.596000 "/>
<ellipse style="fill: #0000ff; stroke: #0000ff; stroke-width: 0.500000; stroke-linejoin: miter; stroke-linecap: butt;  opacity: 1.000000" clip-path="url(#-1467158557)" cx="186.155258" cy="205.402607" rx="0.500000" ry="0.000000" transform="rotate(0.000000 186.155258 205.402607)"/>
<ellipse style="fill: #0000ff; stroke: #0000ff; stroke-width: 0.500000; stroke-linejoin: miter; stroke-linecap: butt;  opacity: 1.000000" clip-path="url(#-1467158557)" cx="186.214169" cy="205.240160" rx="0.500000" ry="0.000000" transform="rotate(0.000000 186.214169 205.240160)"/>
<ellipse style="fill: #0000ff; stroke: #0000ff; stroke-width: 0.500000; stroke-linejoin: miter; stroke-linecap: butt;  opacity: 1.000000" clip-path="url(#-1467158557)" cx="186.281501" cy="205.080643" rx="0.500000" ry="0.000000" transform="rotate(0.000000 186.281501 205.080643)"/>
<ellipse style="fill: #0000ff; stroke: #0000ff; stroke-width: 0.500000; stroke-linejoin: miter; stroke-linecap: butt;  opacity: 1.000000" clip-path="url(#-1467158557)" cx="186.357184" cy="204.924208" rx="0.500000" ry="0.000000" transform="rotate(0.000000 186.357184 204.924208)"/>
<ellipse style="fill: #0000ff; stroke: #0000ff; stroke-width: 0.500000; stroke-linejoin: miter; stroke-linecap: butt;  opacity: 1.000000" clip-path="url(#-1467158557)" cx="186.441141" cy="204.771007" rx="0.500000" ry="0.000000" transform="rotate(0.000000 186.441141 204.771007)"/>
<ellipse style="fill: #0000ff; stroke: #0000ff; stroke-width: 0.500000; stroke-linejoin: miter; stroke-linecap: butt;  opacity: 1.000000" clip-path="url(#-1467158557)" cx="186.533283" cy="204.621185" rx="0.500000" ry="0.000000" transform="rotate(0.000000 186.533283 204.621185)"/>
<ellipse style="fill: #0000ff; stroke: #0000ff; stroke-width: 0.500000; stroke-linejoin: miter; stroke-linecap: butt;  opacity: 1.000000" clip-path="url(#-1467158557)" cx="186.633517" cy="204.474885" rx="0.500000" ry="0.000000" transform="rotate(0.000000 186.633517 204.474885)"/>
<ellipse style="fill: #0000ff; stroke: #0000ff; stroke-width: 0.500000; stroke-linejoin: miter; stroke-linecap: butt;  opacity: 1.000000" clip-path="url(#-1467158557)" cx="186.741739" cy="204.332245" rx="0.500000" ry="0.000000" transform="rotate(0.000000 186.741739 204.332245)"/>
<ellipse style="fill: #0000ff; stroke: #0000ff; stroke-width: 0.500000; stroke-linejoin: miter; stroke-linecap: butt;  opacity: 1.000000" clip-path="url(#-1467158557)" cx="186.857840" cy="204.193400" rx="0.500000" ry="0.000000" transform="rotate(0.000000 186.857840 204.193400)"/>
<ellipse style="fill: #0000ff; stroke: #0000ff; stroke-width: 0.500000; stroke-linejoin: miter; stroke-linecap: butt;  opacity: 1.000000" clip-path="url(#-1467158557)" cx="186.981701" cy="204.058480" rx="0.500000" ry="0.000000" transform="rotate(0.000000 186.981701 204.058480)"/>
<ellipse style="fill: #0000ff; stroke: #0000ff; stroke-width: 0.500000; stroke-linejoin: miter; stroke-linecap: butt;  opacity: 1.000000" clip-path="url(#-1467158557)" cx="187.113197" cy="203.927610" rx="0.500000" ry="0.000000" transform="rotate(0.000000 187.113197 203.927610)"/>
<ellipse style="fill: #0000ff; stroke: #0000ff; stroke-width: 0.500000; stroke-linejoin: miter; stroke-linecap: butt;  opacity: 1.000000" clip-path="url(#-1467158557)" cx="187.252196" cy="203.800911" rx="0.500000" ry="0.000000" transform="rotate(0.000000 187.252196 203.800911)"/>
<ellipse style="fill: #0000ff; stroke: #0000ff; stroke-width: 0.500000; stroke-linejoin: miter; stroke-linecap: butt;  opacity: 1.000000" clip-path="url(#-1467158557)" cx="187.398556" cy="203.678500" rx="0.500000" ry="0.000000" transform="rotate(0.000000 187.398556 203.678500)"/>
<ellipse style="fill: #0000ff; stroke: #0000ff; stroke-width: 0.500000; stroke-linejoin: miter; stroke-linecap: butt;  opacity: 1.000000" clip-path="url(#-1467158557)" cx="187.552133" cy="203.560490" rx="0.500000" ry="0.000000" transform="rotate(0.000000 187.552133 203.560490)"/>
<ellipse style="fill: #0000ff; stroke: #0000ff; stroke-width: 0.500000; stroke-linejoin: miter; stroke-linecap: butt;  opacity: 1.000000" clip-path="url(#-1467158557)" cx="187.712770" cy="203.446986" rx="0.500000" ry="0.000000" transform="rotate(0.000000 187.712770 203.446986)"/>
<ellipse style="fill: #0000ff; stroke: #0000ff; stroke-width: 0.500000; stroke-linejoin: miter; stroke-linecap: butt;  opacity: 1.000000" clip-path="url(#-1467158557)" cx="187.880309" cy="203.338092" rx="0.500000" ry="0.000000" transform="rotate(0.000000 187.880309 203.338092)"/>
<ellipse style="fill: #0000ff; stroke: #0000ff; stroke-width: 0.500000; stroke-linejoin: miter; stroke-linecap: butt;  opacity: 1.000000" clip-path="url(#-1467158557)" cx="188.054582" cy="203.233905" rx="0.500000" ry="0.000000" transform="rotate(0.000000 188.054582 203.233905)"/>
<ellipse style="fill: #0000ff; stroke: #0000ff; stroke-width: 0.500000; stroke-linejoin: miter; stroke-linecap: butt;  opacity: 1.000000" clip-path="url(#-1467158557)" cx="188.235416" cy="203.134518" rx="0.500000" ry="0.000000" transform="rotate(0.000000 188.235416 203.134518)"/>
<ellipse style="fill: #0000ff; stroke: #0000ff; stroke-width: 0.500000; stroke-linejoin: miter; stroke-linecap: butt;  opacity: 1.000000" clip-path="url(#-1467158557)" cx="188.422631" cy="203.040018" rx="0.500000" ry="0.000000" transform="rotate(0.000000 188.422631 203.040018)"/>
<ellipse style="fill: #0000ff; stroke: #0000ff; stroke-width: 0.500000; stroke-linejoin: miter; stroke-linecap: butt;  opacity: 1.000000" clip-path="url(#-1467158557)" cx="188.616042" cy="202.950487" rx="0.500000" ry="0.000000" transform="rotate(0.000000 188.616042 202.950487)"/>
<ellipse style="fill: #0000ff; stroke: #0000ff; stroke-width: 0.500000; stroke-linejoin: miter; stroke-linecap: butt;  opacity: 1.000000" clip-path="url(#-1467158557)" cx="188.815458" cy="202.866005" rx="0.500000" ry="0.000000" transform="rotate(0.000000 188.815458 202.866005)"/>
<ellipse style="fill: #0000ff; stroke: #0000ff; stroke-width: 0.500000; stroke-linejoin: miter; stroke-linecap: butt;  opacity: 1.000000" clip-path="url(#-1467158557)" cx="189.020681" cy="202.786643" rx="0.500000" ry="0.000000" transform="rotate(0.000000 189.020681 202.786643)"/>
<ellipse style="fill: #0000ff; stroke: #0000ff; stroke-width: 0.500000; stroke-linejoin: miter; stroke-linecap: butt;  opacity: 1.000000" clip-path="url(#-1467158557)" cx="189.231510" cy="202.712468" rx="0.500000" ry="0.000000" transform="rotate(0.000000 189.231510 202.712468)"/>
<ellipse style="fill: #0000ff; stroke: #0000ff; stroke-width: 0.500000; stroke-linejoin: miter; stroke-linecap: butt;  opacity: 1.000000" clip-path="url(#-1467158557)" cx="189.447738" cy="202.643543" rx="0.500000" ry="0.000000" transform="rotate(0.000000 189.447738 202.643543)"/>
<ellipse style="fill: #0000ff; stroke: #0000ff; stroke-width: 0.500000; stroke-linejoin: miter; stroke-linecap: butt;  opacity: 1.000000" clip-path="url(#-1467158557)" cx="189.669152" cy="202.579926" rx="0.500000" ry="0.000000" transform="rotate(0.000000 189.669152 202.579926)"/>
<ellipse style="fill: #0000ff; stroke: #0000ff; stroke-width: 0.500000; stroke-linejoin: miter; stroke-linecap: butt;  opacity: 1.000000" clip-path="url(#-1467158557)" cx="189.895535" cy="202.521668" rx="0.500000" ry="0.000000" transform="rotate(0.000000 189.895535 202.521668)"/>
<ellipse style="fill: #0000ff; stroke: #0000ff; stroke-width: 0.500000; stroke-linejoin: miter; stroke-linecap: butt;  opacity: 1.000000" clip-path="url(#-1467158557)" cx="190.126666" cy="202.468816" rx="0.500000" ry="0.000000" transform="rotate(0.000000 190.126666 202.468816)"/>
<ellipse style="fill: #0000ff; stroke: #0000ff; stroke-width: 0.500000; stroke-linejoin: miter; stroke-linecap: butt;  opacity: 1.000000" clip-path="url(#-1467158557)" cx="190.362320" cy="202.421413" rx="0.500000" ry="0.000000" transform="rotate(0.000000 190.362320 202.421413)"/>
<ellipse style="fill: #0000ff; stroke: #0000ff; stroke-width: 0.500000; stroke-linejoin: miter; stroke-linecap: butt;  opacity: 1.000000" clip-path="url(#-1467158557)" cx="190.602265" cy="202.379494" rx="0.500000" ry="0.000000" transform="rotate(0.000000 190.602265 202.379494)"/>
<ellipse style="fill: #0000ff; stroke: #0000ff; stroke-width: 0.500000; stroke-linejoin: miter; stroke-linecap: butt;  opacity: 1.000000" clip-path="url(#-1467158557)" cx="190.846269" cy="202.343091" rx="0.500000" ry="0.000000" transform="rotate(0.000000 190.846269 202.343091)"/>
<ellipse style="fill: #0000ff; stroke: #0000ff; stroke-width: 0.500000; stroke-linejoin: miter; stroke-linecap: butt;  opacity: 1.000000" clip-path="url(#-1467158557)" cx="191.094095" cy="202.312232" rx="0.500000" ry="0.000000" transform="rotate(0.000000 191.094095 202.312232)"/>
<ellipse style="fill: #0000ff; stroke: #0000ff; stroke-width: 0.500000; stroke-linejoin: miter; stroke-linecap: butt;  opacity: 1.000000" clip-path="url(#-1467158557)" cx="191.345500" cy="202.286936" rx="0.500000" ry="0.000000" transform="rotate(0.000000 191.345500 202.286936)"/>
<ellipse style="fill: #0000ff; stroke: #0000ff; stroke-width: 0.500000; stroke-linejoin: miter; stroke-linecap: butt;  opacity: 1.000000" clip-path="url(#-1467158557)" cx="191.600243" cy="202.267222" rx="0.500000" ry="0.000000" transform="rotate(0.000000 191.600243 202.267222)"/>
<ellipse style="fill: #0000ff; stroke: #0000ff; stroke-width: 0.500000; stroke-linejoin: miter; stroke-linecap: butt;  opacity: 1.000000" clip-path="url(#-1467158557)" cx="191.858074" cy="202.253098" rx="0.500000" ry="0.000000" transform="rotate(0.000000 191.858074 202.253098)"/>
<ellipse style="fill: #0000ff; stroke: #0000ff; stroke-width: 0.500000; stroke-linejoin: miter; stroke-linecap: butt;  opacity: 1.000000" clip-path="url(#-1467158557)" cx="192.118746" cy="202.244573" rx="0.500000" ry="0.000000" transform="rotate(0.000000 192.118746 202.244573)"/>
<ellipse style="fill: #0000ff; stroke: #0000ff; stroke-width: 0.500000; stroke-linejoin: miter; stroke-linecap: butt;  opacity: 1.000000" clip-path="url(#-1467158557)" cx="192.382005" cy="202.241647" rx="0.500000" ry="0.000000" transform="rotate(0.000000 192.382005 202.241647)"/>
<ellipse style="fill: #0000ff; stroke: #0000ff; stroke-width: 0.500000; stroke-linejoin: miter; stroke-linecap: butt;  opacity: 1.000000" clip-path="url(#-1467158557)" cx="192.647597" cy="202.244316" rx="0.500000" ry="0.000000" transform="rotate(0.000000 192.647597 202.244316)"/>
<ellipse style="fill: #0000ff; stroke: #0000ff; stroke-width: 0.500000; stroke-linejoin: miter; stroke-linecap: butt;  opacity: 1.000000" clip-path="url(#-1467158557)" cx="192.915266" cy="202.252572" rx="0.500000" ry="0.000000" transform="rotate(0.000000 192.915266 202.252572)"/>
<ellipse style="fill: #0000ff; stroke: #0000ff; stroke-width: 0.500000; stroke-linejoin: miter; stroke-linecap: butt;  opacity: 1.000000" clip-path="url(#-1467158557)" cx="193.184754" cy="202.266401" rx="0.500000" ry="0.000000" transform="rotate(0.000000 193.184754 202.266401)"/>
<ellipse style="fill: #0000ff; stroke: #0000ff; stroke-width: 0.500000; stroke-linejoin: miter; stroke-linecap: butt;  opacity: 1.000000" clip-path="url(#-1467158557)" cx="193.455799" cy="202.285784" rx="0.500000" ry="0.000000" transform="rotate(0.000000 193.455799 202.285784)"/>
<ellipse style="fill: #0000ff; stroke: #0000ff; stroke-width: 0.500000; stroke-linejoin: miter; stroke-linecap: butt;  opacity: 1.000000" clip-path="url(#-1467158557)" cx="193.728142" cy="202.310699" rx="0.500000" ry="0.000000" transform="rotate(0.000000 193.728142 202.310699)"/>
<ellipse style="fill: #0000ff; stroke: #0000ff; stroke-width: 0.500000; stroke-linejoin: miter; stroke-linecap: butt;  opacity: 1.000000" clip-path="url(#-1467158557)" cx="194.001519" cy="202.341117" rx="0.500000" ry="0.000000" transform="rotate(0.000000 194.001519 202.341117)"/>
<ellipse style="fill: #0000ff; stroke: #0000ff; stroke-width: 0.500000; stroke-linejoin: miter; stroke-linecap: butt;  opacity: 1.000000" clip-path="url(#-1467158557)" cx="194.275667" cy="202.377006" rx="0.500000" ry="0.000000" transform="rotate(0.000000 194.275667 202.377006)"/>
<ellipse style="fill: #0000ff; stroke: #0000ff; stroke-width: 0.500000; stroke-linejoin: miter; stroke-linecap: butt;  opacity: 1.000000" clip-path="url(#-1467158557)" cx="194.550322" cy="202.418328" rx="0.500000" ry="0.000000" transform="rotate(0.000000 194.550322 202.418328)"/>
<ellipse style="fill: #0000ff; stroke: #0000ff; stroke-width: 0.500000; stroke-linejoin: miter; stroke-linecap: butt;  opacity: 1.000000" clip-path="url(#-1467158557)" cx="194.825219" cy="202.465042" rx="0.500000" ry="0.000000" transform="rotate(0.000000 194.825219 202.465042)"/>
<ellipse style="fill: #0000ff; stroke: #0000ff; stroke-width: 0.500000; stroke-linejoin: miter; stroke-linecap: butt;  opacity: 1.000000" clip-path="url(#-1467158557)" cx="195.100094" cy="202.517099" rx="0.500000" ry="0.000000" transform="rotate(0.000000 195.100094 202.517099)"/>
<ellipse style="fill: #0000ff; stroke: #0000ff; stroke-width: 0.500000; stroke-linejoin: miter; stroke-linecap: butt;  opacity: 1.000000" clip-path="url(#-1467158557)" cx="195.374681" cy="202.574450" rx="0.500000" ry="0.000000" transform="rotate(0.000000 195.374681 202.574450)"/>
<ellipse style="fill: #0000ff; stroke: #0000ff; stroke-width: 0.500000; stroke-linejoin: miter; stroke-linecap: butt;  opacity: 1.000000" clip-path="url(#-1467158557)" cx="195.648717" cy="202.637039" rx="0.500000" ry="0.000000" transform="rotate(0.000000 195.648717 202.637039)"/>
<ellipse style="fill: #0000ff; stroke: #0000ff; stroke-width: 0.500000; stroke-linejoin: miter; stroke-linecap: butt;  opacity: 1.000000" clip-path="url(#-1467158557)" cx="195.921937" cy="202.704805" rx="0.500000" ry="0.000000" transform="rotate(0.000000 195.921937 202.704805)"/>
<ellipse style="fill: #0000ff; stroke: #0000ff; stroke-width: 0.500000; stroke-linejoin: miter; stroke-linecap: butt;  opacity: 1.000000" clip-path="url(#-1467158557)" cx="196.194077" cy="202.777683" rx="0.500000" ry="0.000000" transform="rotate(0.000000 196.194077 202.777683)"/>
<ellipse style="fill: #0000ff; stroke: #0000ff; stroke-width: 0.500000; stroke-linejoin: miter; stroke-linecap: butt;  opacity: 1.000000" clip-path="url(#-1467158557)" cx="196.464875" cy="202.855606" rx="0.500000" ry="0.000000" transform="rotate(0.000000 196.464875 202.855606)"/>
<ellipse style="fill: #0000ff; stroke: #0000ff; stroke-width: 0.500000; stroke-linejoin: miter; stroke-linecap: butt;  opacity: 1.000000" clip-path="url(#-1467158557)" cx="196.734070" cy="202.938500" rx="0.500000" ry="0.000000" transform="rotate(0.000000 196.734070 202.938500)"/>
<ellipse style="fill: #0000ff; stroke: #0000ff; stroke-width: 0.500000; stroke-linejoin: miter; stroke-linecap: butt;  opacity: 1.000000" clip-path="url(#-1467158557)" cx="197.001402" cy="203.026287" rx="0.500000" ry="0.000000" transform="rotate(0.000000 197.001402 203.026287)"/>
<ellipse style="fill: #0000ff; stroke: #0000ff; stroke-width: 0.500000; stroke-linejoin: miter; stroke-linecap: butt;  opacity: 1.000000" clip-path="url(#-1467158557)" cx="197.266611" cy="203.118887" rx="0.500000" ry="0.000000" transform="rotate(0.000000 197.266611 203.118887)"/>
<ellipse style="fill: #0000ff; stroke: #0000ff; stroke-width: 0.500000; stroke-linejoin: miter; stroke-linecap: butt;  opacity: 1.000000" clip-path="url(#-1467158557)" cx="197.529442" cy="203.216213" rx="0.500000" ry="0.000000" transform="rotate(0.000000 197.529442 203.216213)"/>
<ellipse style="fill: #0000ff; stroke: #0000ff; stroke-width: 0.500000; stroke-linejoin: miter; stroke-linecap: butt;  opacity: 1.000000" clip-path="url(#-1467158557)" cx="197.789639" cy="203.318175" rx="0.500000" ry="0.000000" transform="rotate(0.000000 197.789639 203.318175)"/>
<ellipse style="fill: #0000ff; stroke: #0000ff; stroke-width: 0.500000; stroke-linejoin: miter; stroke-linecap: butt;  opacity: 1.000000" clip-path="url(#-1467158557)" cx="198.046951" cy="203.424681" rx="0.500000" ry="0.000000" transform="rotate(0.000000 198.046951 203.424681)"/>
<ellipse style="fill: #0000ff; stroke: #0000ff; stroke-width: 0.500000; stroke-linejoin: miter; stroke-linecap: butt;  opacity: 1.000000" clip-path="url(#-1467158557)" cx="198.301127" cy="203.535632" rx="0.500000" ry="0.000000" transform="rotate(0.000000 198.301127 203.535632)"/>
<ellipse style="fill: #0000ff; stroke: #0000ff; stroke-width: 0.500000; stroke-linejoin: miter; stroke-linecap: butt;  opacity: 1.000000" clip-path="url(#-1467158557)" cx="198.551920" cy="203.650928" rx="0.500000" ry="0.000000" transform="rotate(0.000000 198.551920 203.650928)"/>
<ellipse style="fill: #0000ff; stroke: #0000ff; stroke-width: 0.500000; stroke-linejoin: miter; stroke-linecap: butt;  opacity: 1.000000" clip-path="url(#-1467158557)" cx="198.799086" cy="203.770462" rx="0.500000" ry="0.000000" transform="rotate(0.000000 198.799086 203.770462)"/>
<ellipse style="fill: #0000ff; stroke: #0000ff; stroke-width: 0.500000; stroke-linejoin: miter; stroke-linecap: butt;  opacity: 1.000000" clip-path="url(#-1467158557)" cx="199.042384" cy="203.894126" rx="0.500000" ry="0.000000" transform="rotate(0.000000 199.042384 203.894126)"/>
<ellipse style="fill: #0000ff; stroke: #0000ff; stroke-width: 0.500000; stroke-linejoin: miter; stroke-linecap: butt;  opacity: 1.000000" clip-path="url(#-1467158557)" cx="199.281575" cy="204.021808" rx="0.500000" ry="0.000000" transform="rotate(0.000000 199.281575 204.021808)"/>
<ellipse style="fill: #0000ff; stroke: #0000ff; stroke-width: 0.500000; stroke-linejoin: miter; stroke-linecap: butt;  opacity: 1.000000" clip-path="url(#-1467158557)" cx="199.516426" cy="204.153390" rx="0.500000" ry="0.000000" transform="rotate(0.000000 199.516426 204.153390)"/>
<ellipse style="fill: #0000ff; stroke: #0000ff; stroke-width: 0.500000; stroke-linejoin: miter; stroke-linecap: butt;  opacity: 1.000000" clip-path="url(#-1467158557)" cx="199.746706" cy="204.288753" rx="0.500000" ry="0.000000" transform="rotate(0.000000 199.746706 204.288753)"/>
<ellipse style="fill: #0000ff; stroke: #0000ff; stroke-width: 0.500000; stroke-linejoin: miter; stroke-linecap: butt;  opacity: 1.000000" clip-path="url(#-1467158557)" cx="199.972189" cy="204.427775" rx="0.500000" ry="0.000000" transform="rotate(0.000000 199.972189 204.427775)"/>
<ellipse style="fill: #0000ff; stroke: #0000ff; stroke-width: 0.500000; stroke-linejoin: miter; stroke-linecap: butt;  opacity: 1.000000" clip-path="url(#-1467158557)" cx="200.192653" cy="204.570328" rx="0.500000" ry="0.000000" transform="rotate(0.000000 200.192653 204.570328)"/>
<ellipse style="fill: #0000ff; stroke: #0000ff; stroke-width: 0.500000; stroke-linejoin: miter; stroke-linecap: butt;  opacity: 1.000000" clip-path="url(#-1467158557)" cx="200.407880" cy="204.716282" rx="0.500000" ry="0.000000" transform="rotate(0.000000 200.407880 204.716282)"/>
<ellipse style="fill: #0000ff; stroke: #0000ff; stroke-width: 0.500000; stroke-linejoin: miter; stroke-linecap: butt;  opacity: 1.000000" clip-path="url(#-1467158557)" cx="200.617657" cy="204.865505" rx="0.500000" ry="0.000000" transform="rotate(0.000000 200.617657 204.865505)"/>
<ellipse style="fill: #0000ff; stroke: #0000ff; stroke-width: 0.500000; stroke-linejoin: miter; stroke-linecap: butt;  opacity: 1.000000" clip-path="url(#-1467158557)" cx="200.821776" cy="205.017860" rx="0.500000" ry="0.000000" transform="rotate(0.000000 200.821776 205.017860)"/>
<ellipse style="fill: #0000ff; stroke: #0000ff; stroke-width: 0.500000; stroke-linejoin: miter; stroke-linecap: butt;  opacity: 1.000000" clip-path="url(#-1467158557)" cx="201.020034" cy="205.173207" rx="0.500000" ry="0.000000" transform="rotate(0.000000 201.020034 205.173207)"/>
<ellipse style="fill: #0000ff; stroke: #0000ff; stroke-width: 0.500000; stroke-linejoin: miter; stroke-linecap: butt;  opacity: 1.000000" clip-path="url(#-1467158557)" cx="201.212233" cy="205.331406" rx="0.500000" ry="0.000000" transform="rotate(0.000000 201.212233 205.331406)"/>
<ellipse style="fill: #0000ff; stroke: #0000ff; stroke-width: 0.500000; stroke-linejoin: miter; stroke-linecap: butt;  opacity: 1.000000" clip-path="url(#-1467158557)" cx="201.398181" cy="205.492309" rx="0.500000" ry="0.000000" transform="rotate(0.000000 201.398181 205.492309)"/>
<ellipse style="fill: #0000ff; stroke: #0000ff; stroke-width: 0.500000; stroke-linejoin: miter; stroke-linecap: butt;  opacity: 1.000000" clip-path="url(#-1467158557)" cx="201.577692" cy="205.655771" rx="0.500000" ry="0.000000" transform="rotate(0.000000 201.577692 205.655771)"/>
<ellipse style="fill: #0000ff; stroke: #0000ff; stroke-width: 0.500000; stroke-linejoin: miter; stroke-linecap: butt;  opacity: 1.000000" clip-path="url(#-1467158557)" cx="201.750585" cy="205.821639" rx="0.500000" ry="0.000000" transform="rotate(0.000000 201.750585 205.821639)"/>
<ellipse style="fill: #0000ff; stroke: #0000ff; stroke-width: 0.500000; stroke-linejoin: miter; stroke-linecap: butt;  opacity: 1.000000" clip-path="url(#-1467158557)" cx="201.916685" cy="205.989761" rx="0.500000" ry="0.000000" transform="rotate(0.000000 201.916685 205.989761)"/>
<ellipse style="fill: #0000ff; stroke: #0000ff; stroke-width: 0.500000; stroke-linejoin: miter; stroke-linecap: butt;  opacity: 1.000000" clip-path="url(#-1467158557)" cx="202.075825" cy="206.159981" rx="0.500000" ry="0.000000" transform="rotate(0.000000 202.075825 206.159981)"/>
<ellipse style="fill: #0000ff; stroke: #0000ff; stroke-width: 0.500000; stroke-linejoin: miter; stroke-linecap: butt;  opacity: 1.000000" clip-path="url(#-1467158557)" cx="202.227842" cy="206.332142" rx="0.500000" ry="0.000000" transform="rotate(0.000000 202.227842 206.332142)"/>
<ellipse style="fill: #0000ff; stroke: #0000ff; stroke-width: 0.500000; stroke-linejoin: miter; stroke-linecap: butt;  opacity: 1.000000" clip-path="url(#-1467158557)" cx="202.372581" cy="206.506082" rx="0.500000" ry="0.000000" transform="rotate(0.000000 202.372581 206.506082)"/>
<ellipse style="fill: #0000ff; stroke: #0000ff; stroke-width: 0.500000; stroke-linejoin: miter; stroke-linecap: butt;  opacity: 1.000000" clip-path="url(#-1467158557)" cx="202.509895" cy="206.681641" rx="0.500000" ry="0.000000" transform="rotate(0.000000 202.509895 206.681641)"/>
<ellipse style="fill: #0000ff; stroke: #0000ff; stroke-width: 0.500000; stroke-linejoin: miter; stroke-linecap: butt;  opacity: 1.000000" clip-path="url(#-1467158557)" cx="202.639642" cy="206.858652" rx="0.500000" ry="0.000000" transform="rotate(0.000000 202.639642 206.858652)"/>
<ellipse style="fill: #0000ff; stroke: #0000ff; stroke-width: 0.500000; stroke-linejoin: miter; stroke-linecap: butt;  opacity: 1.000000" clip-path="url(#-1467158557)" cx="202.761689" cy="207.036951" rx="0.500000" ry="0.000000" transform="rotate(0.000000 202.761689 207.036951)"/>
<ellipse style="fill: #0000ff; stroke: #0000ff; stroke-width: 0.500000; stroke-linejoin: miter; stroke-linecap: butt;  opacity: 1.000000" clip-path="url(#-1467158557)" cx="202.875908" cy="207.216369" rx="0.500000" ry="0.000000" transform="rotate(0.000000 202.875908 207.216369)"/>
<ellipse style="fill: #0000ff; stroke: #0000ff; stroke-width: 0.500000; stroke-linejoin: miter; stroke-linecap: butt;  opacity: 1.000000" clip-path="url(#-1467158557)" cx="202.982181" cy="207.396736" rx="0.500000" ry="0.000000" transform="rotate(0.000000 202.982181 207.396736)"/>
<ellipse style="fill: #0000ff; stroke: #0000ff; stroke-width: 0.500000; stroke-linejoin: miter; stroke-linecap: butt;  opacity: 1.000000" clip-path="url(#-1467158557)" cx="203.080396" cy="207.577882" rx="0.500000" ry="0.000000" transform="rotate(0.000000 203.080396 207.577882)"/>
<ellipse style="fill: #0000ff; stroke: #0000ff; stroke-width: 0.500000; stroke-linejoin: miter; stroke-linecap: butt;  opacity: 1.000000" clip-path="url(#-1467158557)" cx="203.170450" cy="207.759634" rx="0.500000" ry="0.000000" transform="rotate(0.000000 203.170450 207.759634)"/>
<ellipse style="fill: #0000ff; stroke: #0000ff; stroke-width: 0.500000; stroke-linejoin: miter; stroke-linecap: butt;  opacity: 1.000000" clip-path="url(#-1467158557)" cx="203.252247" cy="207.941819" rx="0.500000" ry="0.000000" transform="rotate(0.000000 203.252247 207.941819)"/>
<ellipse style="fill: #0000ff; stroke: #0000ff; stroke-width: 0.500000; stroke-linejoin: miter; stroke-linecap: butt;  opacity: 1.000000" clip-path="url(#-1467158557)" cx="203.325700" cy="208.124262" rx="0.500000" ry="0.000000" transform="rotate(0.000000 203.325700 208.124262)"/>
<ellipse style="fill: #0000ff; stroke: #0000ff; stroke-width: 0.500000; stroke-linejoin: miter; stroke-linecap: butt;  opacity: 1.000000" clip-path="url(#-1467158557)" cx="203.390729" cy="208.306786" rx="0.500000" ry="0.000000" transform="rotate(0.000000 203.390729 208.306786)"/>
<ellipse style="fill: #0000ff; stroke: #0000ff; stroke-width: 0.500000; stroke-linejoin: miter; stroke-linecap: butt;  opacity: 1.000000" clip-path="url(#-1467158557)" cx="203.447263" cy="208.489217" rx="0.500000" ry="0.000000" transform="rotate(0.000000 203.447263 208.489217)"/>
<ellipse style="fill: #0000ff; stroke: #0000ff; stroke-width: 0.500000; stroke-linejoin: miter; stroke-linecap: butt;  opacity: 1.000000" clip-path="url(#-1467158557)" cx="203.495240" cy="208.671377" rx="0.500000" ry="0.000000" transform="rotate(0.000000 203.495240 208.671377)"/>
<ellipse style="fill: #0000ff; stroke: #0000ff; stroke-width: 0.500000; stroke-linejoin: miter; stroke-linecap: butt;  opacity: 1.000000" clip-path="url(#-1467158557)" cx="203.534605" cy="208.853089" rx="0.500000" ry="0.000000" transform="rotate(0.000000 203.534605 208.853089)"/>
<ellipse style="fill: #0000ff; stroke: #0000ff; stroke-width: 0.500000; stroke-linejoin: miter; stroke-linecap: butt;  opacity: 1.000000" clip-path="url(#-1467158557)" cx="203.565314" cy="209.034176" rx="0.500000" ry="0.000000" transform="rotate(0.000000 203.565314 209.034176)"/>
<ellipse style="fill: #0000ff; stroke: #0000ff; stroke-width: 0.500000; stroke-linejoin: miter; stroke-linecap: butt;  opacity: 1.000000" clip-path="url(#-1467158557)" cx="203.587330" cy="209.214459" rx="0.500000" ry="0.000000" transform="rotate(0.000000 203.587330 209.214459)"/>
<ellipse style="fill: #0000ff; stroke: #0000ff; stroke-width: 0.500000; stroke-linejoin: miter; stroke-linecap: butt;  opacity: 1.000000" clip-path="url(#-1467158557)" cx="203.600624" cy="209.393762" rx="0.500000" ry="0.000000" transform="rotate(0.000000 203.600624 209.393762)"/>
<ellipse style="fill: #0000ff; stroke: #0000ff; stroke-width: 0.500000; stroke-linejoin: miter; stroke-linecap: butt;  opacity: 1.000000" clip-path="url(#-1467158557)" cx="203.605178" cy="209.571907" rx="0.500000" ry="0.000000" transform="rotate(0.000000 203.605178 209.571907)"/>
<ellipse style="fill: #0000ff; stroke: #0000ff; stroke-width: 0.500000; stroke-linejoin: miter; stroke-linecap: butt;  opacity: 1.000000" clip-path="url(#-1467158557)" cx="203.600981" cy="209.748718" rx="0.500000" ry="0.000000" transform="rotate(0.000000 203.600981 209.748718)"/>
<ellipse style="fill: #0000ff; stroke: #0000ff; stroke-width: 0.500000; stroke-linejoin: miter; stroke-linecap: butt;  opacity: 1.000000" clip-path="url(#-1467158557)" cx="203.588033" cy="209.924019" rx="0.500000" ry="0.000000" transform="rotate(0.000000 203.588033 209.924019)"/>
<ellipse style="fill: #0000ff; stroke: #0000ff; stroke-width: 0.500000; stroke-linejoin: miter; stroke-linecap: butt;  opacity: 1.000000" clip-path="url(#-1467158557)" cx="203.566339" cy="210.097634" rx="0.500000" ry="0.000000" transform="rotate(0.000000 203.566339 210.097634)"/>
<ellipse style="fill: #0000ff; stroke: #0000ff; stroke-width: 0.500000; stroke-linejoin: miter; stroke-linecap: butt;  opacity: 1.000000" clip-path="url(#-1467158557)" cx="203.535918" cy="210.269390" rx="0.500000" ry="0.000000" transform="rotate(0.000000 203.535918 210.269390)"/>
<ellipse style="fill: #0000ff; stroke: #0000ff; stroke-width: 0.500000; stroke-linejoin: miter; stroke-linecap: butt;  opacity: 1.000000" clip-path="url(#-1467158557)" cx="203.496795" cy="210.439113" rx="0.500000" ry="0.000000" transform="rotate(0.000000 203.496795 210.439113)"/>
<ellipse style="fill: #0000ff; stroke: #0000ff; stroke-width: 0.500000; stroke-linejoin: miter; stroke-linecap: butt;  opacity: 1.000000" clip-path="url(#-1467158557)" cx="203.449003" cy="210.606632" rx="0.500000" ry="0.000000" transform="rotate(0.000000 203.449003 210.606632)"/>
<ellipse style="fill: #0000ff; stroke: #0000ff; stroke-width: 0.500000; stroke-linejoin: miter; stroke-linecap: butt;  opacity: 1.000000" clip-path="url(#-1467158557)" cx="203.392588" cy="210.771777" rx="0.500000" ry="0.000000" transform="rotate(0.000000 203.392588 210.771777)"/>
<ellipse style="fill: #0000ff; stroke: #0000ff; stroke-width: 0.500000; stroke-linejoin: miter; stroke-linecap: butt;  opacity: 1.000000" clip-path="url(#-1467158557)" cx="203.327600" cy="210.934379" rx="0.500000" ry="0.000000" transform="rotate(0.000000 203.327600 210.934379)"/>
<ellipse style="fill: #0000ff; stroke: #0000ff; stroke-width: 0.500000; stroke-linejoin: miter; stroke-linecap: butt;  opacity: 1.000000" clip-path="url(#-1467158557)" cx="203.254101" cy="211.094274" rx="0.500000" ry="0.000000" transform="rotate(0.000000 203.254101 211.094274)"/>
<ellipse style="fill: #0000ff; stroke: #0000ff; stroke-width: 0.500000; stroke-linejoin: miter; stroke-linecap: butt;  opacity: 1.000000" clip-path="url(#-1467158557)" cx="203.172161" cy="211.251296" rx="0.500000" ry="0.000000" transform="rotate(0.000000 203.172161 211.251296)"/>
<ellipse style="fill: #0000ff; stroke: #0000ff; stroke-width: 0.500000; stroke-linejoin: miter; stroke-linecap: butt;  opacity: 1.000000" clip-path="url(#-1467158557)" cx="203.081859" cy="211.405284" rx="0.500000" ry="0.000000" transform="rotate(0.000000 203.081859 211.405284)"/>
<ellipse style="fill: #0000ff; stroke: #0000ff; stroke-width: 0.500000; stroke-linejoin: miter; stroke-linecap: butt;  opacity: 1.000000" clip-path="url(#-1467158557)" cx="202.983282" cy="211.556079" rx="0.500000" ry="0.000000" transform="rotate(0.000000 202.983282 211.556079)"/>
<ellipse style="fill: #0000ff; stroke: #0000ff; stroke-width: 0.500000; stroke-linejoin: miter; stroke-linecap: butt;  opacity: 1.000000" clip-path="url(#-1467158557)" cx="202.876526" cy="211.703524" rx="0.500000" ry="0.000000" transform="rotate(0.000000 202.876526 211.703524)"/>
<ellipse style="fill: #0000ff; stroke: #0000ff; stroke-width: 0.500000; stroke-linejoin: miter; stroke-linecap: butt;  opacity: 1.000000" clip-path="url(#-1467158557)" cx="202.761696" cy="211.847467" rx="0.500000" ry="0.000000" transform="rotate(0.000000 202.761696 211.847467)"/>
<ellipse style="fill: #0000ff; stroke: #0000ff; stroke-width: 0.500000; stroke-linejoin: miter; stroke-linecap: butt;  opacity: 1.000000" clip-path="url(#-1467158557)" cx="202.638905" cy="211.987757" rx="0.500000" ry="0.000000" transform="rotate(0.000000 202.638905 211.987757)"/>
<ellipse style="fill: #0000ff; stroke: #0000ff; stroke-width: 0.500000; stroke-linejoin: miter; stroke-linecap: butt;  opacity: 1.000000" clip-path="url(#-1467158557)" cx="202.508274" cy="212.124247" rx="0.500000" ry="0.000000" transform="rotate(0.000000 202.508274 212.124247)"/>
<ellipse style="fill: #0000ff; stroke: #0000ff; stroke-width: 0.500000; stroke-linejoin: miter; stroke-linecap: butt;  opacity: 1.000000" clip-path="url(#-1467158557)" cx="202.369932" cy="212.256794" rx="0.500000" ry="0.000000" transform="rotate(0.000000 202.369932 212.256794)"/>
<ellipse style="fill: #0000ff; stroke: #0000ff; stroke-width: 0.500000; stroke-linejoin: miter; stroke-linecap: butt;  opacity: 1.000000" clip-path="url(#-1467158557)" cx="202.224017" cy="212.385258" rx="0.500000" ry="0.000000" transform="rotate(0.000000 202.224017 212.385258)"/>
<ellipse style="fill: #0000ff; stroke: #0000ff; stroke-width: 0.500000; stroke-linejoin: miter; stroke-linecap: butt;  opacity: 1.000000" clip-path="url(#-1467158557)" cx="202.070674" cy="212.509502" rx="0.500000" ry="0.000000" transform="rotate(0.000000 202.070674 212.509502)"/>
<ellipse style="fill: #0000ff; stroke: #0000ff; stroke-width: 0.500000; stroke-linejoin: miter; stroke-linecap: butt;  opacity: 1.000000" clip-path="url(#-1467158557)" cx="201.910055" cy="212.629395" rx="0.500000" ry="0.000000" transform="rotate(0.000000 201.910055 212.629395)"/>
<ellipse style="fill: #0000ff; stroke: #0000ff; stroke-width: 0.500000; stroke-linejoin: miter; stroke-linecap: butt;  opacity: 1.000000" clip-path="url(#-1467158557)" cx="201.742322" cy="212.744810" rx="0.500000" ry="0.000000" transform="rotate(0.000000 201.742322 212.744810)"/>
<ellipse style="fill: #0000ff; stroke: #0000ff; stroke-width: 0.500000; stroke-linejoin: miter; stroke-linecap: butt;  opacity: 1.000000" clip-path="url(#-1467158557)" cx="201.567642" cy="212.855623" rx="0.500000" ry="0.000000" transform="rotate(0.000000 201.567642 212.855623)"/>
<ellipse style="fill: #0000ff; stroke: #0000ff; stroke-width: 0.500000; stroke-linejoin: miter; stroke-linecap: butt;  opacity: 1.000000" clip-path="url(#-1467158557)" cx="201.386190" cy="212.961714" rx="0.500000" ry="0.000000" transform="rotate(0.000000 201.386190 212.961714)"/>
<ellipse style="fill: #0000ff; stroke: #0000ff; stroke-width: 0.500000; stroke-linejoin: miter; stroke-linecap: butt;  opacity: 1.000000" clip-path="url(#-1467158557)" cx="201.198148" cy="213.062970" rx="0.500000" ry="0.000000" transform="rotate(0.000000 201.198148 213.062970)"/>
<ellipse style="fill: #0000ff; stroke: #0000ff; stroke-width: 0.500000; stroke-linejoin: miter; stroke-linecap: butt;  opacity: 1.000000" clip-path="url(#-1467158557)" cx="201.003705" cy="213.159282" rx="0.500000" ry="0.000000" transform="rotate(0.000000 201.003705 213.159282)"/>
<ellipse style="fill: #0000ff; stroke: #0000ff; stroke-width: 0.500000; stroke-linejoin: miter; stroke-linecap: butt;  opacity: 1.000000" clip-path="url(#-1467158557)" cx="200.803056" cy="213.250545" rx="0.500000" ry="0.000000" transform="rotate(0.000000 200.803056 213.250545)"/>
<ellipse style="fill: #0000ff; stroke: #0000ff; stroke-width: 0.500000; stroke-linejoin: miter; stroke-linecap: butt;  opacity: 1.000000" clip-path="url(#-1467158557)" cx="200.596404" cy="213.336659" rx="0.500000" ry="0.000000" transform="rotate(0.000000 200.596404 213.336659)"/>
<ellipse style="fill: #0000ff; stroke: #0000ff; stroke-width: 0.500000; stroke-linejoin: miter; stroke-linecap: butt;  opacity: 1.000000" clip-path="url(#-1467158557)" cx="200.383954" cy="213.417530" rx="0.500000" ry="0.000000" transform="rotate(0.000000 200.383954 213.417530)"/>
<ellipse style="fill: #0000ff; stroke: #0000ff; stroke-width: 0.500000; stroke-linejoin: miter; stroke-linecap: butt;  opacity: 1.000000" clip-path="url(#-1467158557)" cx="200.165923" cy="213.493070" rx="0.500000" ry="0.000000" transform="rotate(0.000000 200.165923 213.493070)"/>
<ellipse style="fill: #0000ff; stroke: #0000ff; stroke-width: 0.500000; stroke-linejoin: miter; stroke-linecap: butt;  opacity: 1.000000" clip-path="url(#-1467158557)" cx="199.942528" cy="213.563195" rx="0.500000" ry="0.000000" transform="rotate(0.000000 199.942528 213.563195)"/>
<ellipse style="fill: #0000ff; stroke: #0000ff; stroke-width: 0.500000; stroke-linejoin: miter; stroke-linecap: butt;  opacity: 1.000000" clip-path="url(#-1467158557)" cx="199.713995" cy="213.627828" rx="0.500000" ry="0.000000" transform="rotate(0.000000 199.713995 213.627828)"/>
<ellipse style="fill: #0000ff; stroke: #0000ff; stroke-width: 0.500000; stroke-linejoin: miter; stroke-linecap: butt;  opacity: 1.000000" clip-path="url(#-1467158557)" cx="199.480554" cy="213.686896" rx="0.500000" ry="0.000000" transform="rotate(0.000000 199.480554 213.686896)"/>
<ellipse style="fill: #0000ff; stroke: #0000ff; stroke-width: 0.500000; stroke-linejoin: miter; stroke-linecap: butt;  opacity: 1.000000" clip-path="url(#-1467158557)" cx="199.242439" cy="213.740334" rx="0.500000" ry="0.000000" transform="rotate(0.000000 199.242439 213.740334)"/>
<ellipse style="fill: #0000ff; stroke: #0000ff; stroke-width: 0.500000; stroke-linejoin: miter; stroke-linecap: butt;  opacity: 1.000000" clip-path="url(#-1467158557)" cx="198.999891" cy="213.788080" rx="0.500000" ry="0.000000" transform="rotate(0.000000 198.999891 213.788080)"/>
<ellipse style="fill: #0000ff; stroke: #0000ff; stroke-width: 0.500000; stroke-linejoin: miter; stroke-linecap: butt;  opacity: 1.000000" clip-path="url(#-1467158557)" cx="198.753153" cy="213.830080" rx="0.500000" ry="0.000000" transform="rotate(0.000000 198.753153 213.830080)"/>
<ellipse style="fill: #0000ff; stroke: #0000ff; stroke-width: 0.500000; stroke-linejoin: miter; stroke-linecap: butt;  opacity: 1.000000" clip-path="url(#-1467158557)" cx="198.502473" cy="213.866286" rx="0.500000" ry="0.000000" transform="rotate(0.000000 198.502473 213.866286)"/>
<ellipse style="fill: #0000ff; stroke: #0000ff; stroke-width: 0.500000; stroke-linejoin: miter; stroke-linecap: butt;  opacity: 1.000000" clip-path="url(#-1467158557)" cx="198.248104" cy="213.896655" rx="0.500000" ry="0.000000" transform="rotate(0.000000 198.248104 213.896655)"/>
<ellipse style="fill: #0000ff; stroke: #0000ff; stroke-width: 0.500000; stroke-linejoin: miter; stroke-linecap: butt;  opacity: 1.000000" clip-path="url(#-1467158557)" cx="197.990302" cy="213.921152" rx="0.500000" ry="0.000000" transform="rotate(0.000000 197.990302 213.921152)"/>
<ellipse style="fill: #0000ff; stroke: #0000ff; stroke-width: 0.500000; stroke-linejoin: miter; stroke-linecap: butt;  opacity: 1.000000" clip-path="url(#-1467158557)" cx="197.729324" cy="213.939746" rx="0.500000" ry="0.000000" transform="rotate(0.000000 197.729324 213.939746)"/>
<ellipse style="fill: #0000ff; stroke: #0000ff; stroke-width: 0.500000; stroke-linejoin: miter; stroke-linecap: butt;  opacity: 1.000000" clip-path="url(#-1467158557)" cx="197.465434" cy="213.952413" rx="0.500000" ry="0.000000" transform="rotate(0.000000 197.465434 213.952413)"/>
<ellipse style="fill: #0000ff; stroke: #0000ff; stroke-width: 0.500000; stroke-linejoin: miter; stroke-linecap: butt;  opacity: 1.000000" clip-path="url(#-1467158557)" cx="197.198896" cy="213.959137" rx="0.500000" ry="0.000000" transform="rotate(0.000000 197.198896 213.959137)"/>
<ellipse style="fill: #0000ff; stroke: #0000ff; stroke-width: 0.500000; stroke-linejoin: miter; stroke-linecap: butt;  opacity: 1.000000" clip-path="url(#-1467158557)" cx="196.929977" cy="213.959906" rx="0.500000" ry="0.000000" transform="rotate(0.000000 196.929977 213.959906)"/>
<ellipse style="fill: #0000ff; stroke: #0000ff; stroke-width: 0.500000; stroke-linejoin: miter; stroke-linecap: butt;  opacity: 1.000000" clip-path="url(#-1467158557)" cx="196.658948" cy="213.954715" rx="0.500000" ry="0.000000" transform="rotate(0.000000 196.658948 213.954715)"/>
<ellipse style="fill: #0000ff; stroke: #0000ff; stroke-width: 0.500000; stroke-linejoin: miter; stroke-linecap: butt;  opacity: 1.000000" clip-path="url(#-1467158557)" cx="196.386080" cy="213.943566" rx="0.500000" ry="0.000000" transform="rotate(0.000000 196.386080 213.943566)"/>
<ellipse style="fill: #0000ff; stroke: #0000ff; stroke-width: 0.500000; stroke-linejoin: miter; stroke-linecap: butt;  opacity: 1.000000" clip-path="url(#-1467158557)" cx="196.111646" cy="213.926468" rx="0.500000" ry="0.000000" transform="rotate(0.000000 196.111646 213.926468)"/>
<ellipse style="fill: #0000ff; stroke: #0000ff; stroke-width: 0.500000; stroke-linejoin: miter; stroke-linecap: butt;  opacity: 1.000000" clip-path="url(#-1467158557)" cx="195.835920" cy="213.903433" rx="0.500000" ry="0.000000" transform="rotate(0.000000 195.835920 213.903433)"/>
<ellipse style="fill: #0000ff; stroke: #0000ff; stroke-width: 0.500000; stroke-linejoin: miter; stroke-linecap: butt;  opacity: 1.000000" clip-path="url(#-1467158557)" cx="195.559179" cy="213.874484" rx="0.500000" ry="0.000000" transform="rotate(0.000000 195.559179 213.874484)"/>
<ellipse style="fill: #0000ff; stroke: #0000ff; stroke-width: 0.500000; stroke-linejoin: miter; stroke-linecap: butt;  opacity: 1.000000" clip-path="url(#-1467158557)" cx="195.281699" cy="213.839646" rx="0.500000" ry="0.000000" transform="rotate(0.000000 195.281699 213.839646)"/>
<ellipse style="fill: #0000ff; stroke: #0000ff; stroke-width: 0.500000; stroke-linejoin: miter; stroke-linecap: butt;  opacity: 1.000000" clip-path="url(#-1467158557)" cx="195.003758" cy="213.798954" rx="0.500000" ry="0.000000" transform="rotate(0.000000 195.003758 213.798954)"/>
<ellipse style="fill: #0000ff; stroke: #0000ff; stroke-width: 0.500000; stroke-linejoin: miter; stroke-linecap: butt;  opacity: 1.000000" clip-path="url(#-1467158557)" cx="194.725632" cy="213.752448" rx="0.500000" ry="0.000000" transform="rotate(0.000000 194.725632 213.752448)"/>
<ellipse style="fill: #0000ff; stroke: #0000ff; stroke-width: 0.500000; stroke-linejoin: miter; stroke-linecap: butt;  opacity: 1.000000" clip-path="url(#-1467158557)" cx="194.447600" cy="213.700172" rx="0.500000" ry="0.000000" transform="rotate(0.000000 194.447600 213.700172)"/>
<ellipse style="fill: #0000ff; stroke: #0000ff; stroke-width: 0.500000; stroke-linejoin: miter; stroke-linecap: butt;  opacity: 1.000000" clip-path="url(#-1467158557)" cx="194.169938" cy="213.642180" rx="0.500000" ry="0.000000" transform="rotate(0.000000 194.169938 213.642180)"/>
<ellipse style="fill: #0000ff; stroke: #0000ff; stroke-width: 0.500000; stroke-linejoin: miter; stroke-linecap: butt;  opacity: 1.000000" clip-path="url(#-1467158557)" cx="193.892924" cy="213.578529" rx="0.500000" ry="0.000000" transform="rotate(0.000000 193.892924 213.578529)"/>
<ellipse style="fill: #0000ff; stroke: #0000ff; stroke-width: 0.500000; stroke-linejoin: miter; stroke-linecap: butt;  opacity: 1.000000" clip-path="url(#-1467158557)" cx="193.616832" cy="213.509283" rx="0.500000" ry="0.000000" transform="rotate(0.000000 193.616832 213.509283)"/>
<ellipse style="fill: #0000ff; stroke: #0000ff; stroke-width: 0.500000; stroke-linejoin: miter; stroke-linecap: butt;  opacity: 1.000000" clip-path="url(#-1467158557)" cx="193.341938" cy="213.434514" rx="0.500000" ry="0.000000" transform="rotate(0.000000 193.341938 213.434514)"/>
<ellipse style="fill: #0000ff; stroke: #0000ff; stroke-width: 0.500000; stroke-linejoin: miter; stroke-linecap: butt;  opacity: 1.000000" clip-path="url(#-1467158557)" cx="193.068515" cy="213.354297" rx="0.500000" ry="0.000000" transform="rotate(0.000000 193.068515 213.354297)"/>
<ellipse style="fill: #0000ff; stroke: #0000ff; stroke-width: 0.500000; stroke-linejoin: miter; stroke-linecap: butt;  opacity: 1.000000" clip-path="url(#-1467158557)" cx="192.796835" cy="213.268715" rx="0.500000" ry="0.000000" transform="rotate(0.000000 192.796835 213.268715)"/>
<ellipse style="fill: #0000ff; stroke: #0000ff; stroke-width: 0.500000; stroke-linejoin: miter; stroke-linecap: butt;  opacity: 1.000000" clip-path="url(#-1467158557)" cx="192.527167" cy="213.177855" rx="0.500000" ry="0.000000" transform="rotate(0.000000 192.527167 213.177855)"/>
<ellipse style="fill: #0000ff; stroke: #0000ff; stroke-width: 0.500000; stroke-linejoin: miter; stroke-linecap: butt;  opacity: 1.000000" clip-path="url(#-1467158557)" cx="192.259780" cy="213.081811" rx="0.500000" ry="0.000000" transform="rotate(0.000000 192.259780 213.081811)"/>
<ellipse style="fill: #0000ff; stroke: #0000ff; stroke-width: 0.500000; stroke-linejoin: miter; stroke-linecap: butt;  opacity: 1.000000" clip-path="url(#-1467158557)" cx="191.994938" cy="212.980682" rx="0.500000" ry="0.000000" transform="rotate(0.000000 191.994938 212.980682)"/>
<ellipse style="fill: #0000ff; stroke: #0000ff; stroke-width: 0.500000; stroke-linejoin: miter; stroke-linecap: butt;  opacity: 1.000000" clip-path="url(#-1467158557)" cx="191.732904" cy="212.874573" rx="0.500000" ry="0.000000" transform="rotate(0.000000 191.732904 212.874573)"/>
<ellipse style="fill: #0000ff; stroke: #0000ff; stroke-width: 0.500000; stroke-linejoin: miter; stroke-linecap: butt;  opacity: 1.000000" clip-path="url(#-1467158557)" cx="191.473938" cy="212.763594" rx="0.500000" ry="0.000000" transform="rotate(0.000000 191.473938 212.763594)"/>
<ellipse style="fill: #0000ff; stroke: #0000ff; stroke-width: 0.500000; stroke-linejoin: miter; stroke-linecap: butt;  opacity: 1.000000" clip-path="url(#-1467158557)" cx="191.218296" cy="212.647859" rx="0.500000" ry="0.000000" transform="rotate(0.000000 191.218296 212.647859)"/>
<ellipse style="fill: #0000ff; stroke: #0000ff; stroke-width: 0.500000; stroke-linejoin: miter; stroke-linecap: butt;  opacity: 1.000000" clip-path="url(#-1467158557)" cx="190.966231" cy="212.527489" rx="0.500000" ry="0.000000" transform="rotate(0.000000 190.966231 212.527489)"/>
<ellipse style="fill: #0000ff; stroke: #0000ff; stroke-width: 0.500000; stroke-linejoin: miter; stroke-linecap: butt;  opacity: 1.000000" clip-path="url(#-1467158557)" cx="190.717993" cy="212.402609" rx="0.500000" ry="0.000000" transform="rotate(0.000000 190.717993 212.402609)"/>
<ellipse style="fill: #0000ff; stroke: #0000ff; stroke-width: 0.500000; stroke-linejoin: miter; stroke-linecap: butt;  opacity: 1.000000" clip-path="url(#-1467158557)" cx="190.473827" cy="212.273349" rx="0.500000" ry="0.000000" transform="rotate(0.000000 190.473827 212.273349)"/>
<ellipse style="fill: #0000ff; stroke: #0000ff; stroke-width: 0.500000; stroke-linejoin: miter; stroke-linecap: butt;  opacity: 1.000000" clip-path="url(#-1467158557)" cx="190.233974" cy="212.139844" rx="0.500000" ry="0.000000" transform="rotate(0.000000 190.233974 212.139844)"/>
<ellipse style="fill: #0000ff; stroke: #0000ff; stroke-width: 0.500000; stroke-linejoin: miter; stroke-linecap: butt;  opacity: 1.000000" clip-path="url(#-1467158557)" cx="189.998671" cy="212.002232" rx="0.500000" ry="0.000000" transform="rotate(0.000000 189.998671 212.002232)"/>
<ellipse style="fill: #0000ff; stroke: #0000ff; stroke-width: 0.500000; stroke-linejoin: miter; stroke-linecap: butt;  opacity: 1.000000" clip-path="url(#-1467158557)" cx="189.768150" cy="211.860658" rx="0.500000" ry="0.000000" transform="rotate(0.000000 189.768150 211.860658)"/>
<ellipse style="fill: #0000ff; stroke: #0000ff; stroke-width: 0.500000; stroke-linejoin: miter; stroke-linecap: butt;  opacity: 1.000000" clip-path="url(#-1467158557)" cx="189.542638" cy="211.715268" rx="0.500000" ry="0.000000" transform="rotate(0.000000 189.542638 211.715268)"/>
<ellipse style="fill: #0000ff; stroke: #0000ff; stroke-width: 0.500000; stroke-linejoin: miter; stroke-linecap: butt;  opacity: 1.000000" clip-path="url(#-1467158557)" cx="189.322359" cy="211.566214" rx="0.500000" ry="0.000000" transform="rotate(0.000000 189.322359 211.566214)"/>
<ellipse style="fill: #0000ff; stroke: #0000ff; stroke-width: 0.500000; stroke-linejoin: miter; stroke-linecap: butt;  opacity: 1.000000" clip-path="url(#-1467158557)" cx="189.107528" cy="211.413652" rx="0.500000" ry="0.000000" transform="rotate(0.000000 189.107528 211.413652)"/>
<ellipse style="fill: #0000ff; stroke: #0000ff; stroke-width: 0.500000; stroke-linejoin: miter; stroke-linecap: butt;  opacity: 1.000000" clip-path="url(#-1467158557)" cx="188.898357" cy="211.257741" rx="0.500000" ry="0.000000" transform="rotate(0.000000 188.898357 211.257741)"/>
<ellipse style="fill: #0000ff; stroke: #0000ff; stroke-width: 0.500000; stroke-linejoin: miter; stroke-linecap: butt;  opacity: 1.000000" clip-path="url(#-1467158557)" cx="188.695053" cy="211.098644" rx="0.500000" ry="0.000000" transform="rotate(0.000000 188.695053 211.098644)"/>
<ellipse style="fill: #0000ff; stroke: #0000ff; stroke-width: 0.500000; stroke-linejoin: miter; stroke-linecap: butt;  opacity: 1.000000" clip-path="url(#-1467158557)" cx="188.497815" cy="210.936525" rx="0.500000" ry="0.000000" transform="rotate(0.000000 188.497815 210.936525)"/>
<ellipse style="fill: #0000ff; stroke: #0000ff; stroke-width: 0.500000; stroke-linejoin: miter; stroke-linecap: butt;  opacity: 1.000000" clip-path="url(#-1467158557)" cx="188.306837" cy="210.771555" rx="0.500000" ry="0.000000" transform="rotate(0.000000 188.306837 210.771555)"/>
<ellipse style="fill: #0000ff; stroke: #0000ff; stroke-width: 0.500000; stroke-linejoin: miter; stroke-linecap: butt;  opacity: 1.000000" clip-path="url(#-1467158557)" cx="188.122305" cy="210.603904" rx="0.500000" ry="0.000000" transform="rotate(0.000000 188.122305 210.603904)"/>
<ellipse style="fill: #0000ff; stroke: #0000ff; stroke-width: 0.500000; stroke-linejoin: miter; stroke-linecap: butt;  opacity: 1.000000" clip-path="url(#-1467158557)" cx="187.944402" cy="210.433748" rx="0.500000" ry="0.000000" transform="rotate(0.000000 187.944402 210.433748)"/>
<ellipse style="fill: #0000ff; stroke: #0000ff; stroke-width: 0.500000; stroke-linejoin: miter; stroke-linecap: butt;  opacity: 1.000000" clip-path="url(#-1467158557)" cx="187.773302" cy="210.261263" rx="0.500000" ry="0.000000" transform="rotate(0.000000 187.773302 210.261263)"/>
<ellipse style="fill: #0000ff; stroke: #0000ff; stroke-width: 0.500000; stroke-linejoin: miter; stroke-linecap: butt;  opacity: 1.000000" clip-path="url(#-1467158557)" cx="187.609171" cy="210.086629" rx="0.500000" ry="0.000000" transform="rotate(0.000000 187.609171 210.086629)"/>
<ellipse style="fill: #0000ff; stroke: #0000ff; stroke-width: 0.500000; stroke-linejoin: miter; stroke-linecap: butt;  opacity: 1.000000" clip-path="url(#-1467158557)" cx="187.452172" cy="209.910027" rx="0.500000" ry="0.000000" transform="rotate(0.000000 187.452172 209.910027)"/>
<ellipse style="fill: #0000ff; stroke: #0000ff; stroke-width: 0.500000; stroke-linejoin: miter; stroke-linecap: butt;  opacity: 1.000000" clip-path="url(#-1467158557)" cx="187.302455" cy="209.731640" rx="0.500000" ry="0.000000" transform="rotate(0.000000 187.302455 209.731640)"/>
<ellipse style="fill: #0000ff; stroke: #0000ff; stroke-width: 0.500000; stroke-linejoin: miter; stroke-linecap: butt;  opacity: 1.000000" clip-path="url(#-1467158557)" cx="187.160169" cy="209.551653" rx="0.500000" ry="0.000000" transform="rotate(0.000000 187.160169 209.551653)"/>
<ellipse style="fill: #0000ff; stroke: #0000ff; stroke-width: 0.500000; stroke-linejoin: miter; stroke-linecap: butt;  opacity: 1.000000" clip-path="url(#-1467158557)" cx="187.025451" cy="209.370252" rx="0.500000" ry="0.000000" transform="rotate(0.000000 187.025451 209.370252)"/>
<ellipse style="fill: #0000ff; stroke: #0000ff; stroke-width: 0.500000; stroke-linejoin: miter; stroke-linecap: butt;  opacity: 1.000000" clip-path="url(#-1467158557)" cx="186.898432" cy="209.187625" rx="0.500000" ry="0.000000" transform="rotate(0.000000 186.898432 209.187625)"/>
<ellipse style="fill: #0000ff; stroke: #0000ff; stroke-width: 0.500000; stroke-linejoin: miter; stroke-linecap: butt;  opacity: 1.000000" clip-path="url(#-1467158557)" cx="186.779236" cy="209.003960" rx="0.500000" ry="0.000000" transform="rotate(0.000000 186.779236 209.003960)"/>
<ellipse style="fill: #0000ff; stroke: #0000ff; stroke-width: 0.500000; stroke-linejoin: miter; stroke-linecap: butt;  opacity: 1.000000" clip-path="url(#-1467158557)" cx="186.667978" cy="208.819447" rx="0.500000" ry="0.000000" transform="rotate(0.000000 186.667978 208.819447)"/>
<ellipse style="fill: #0000ff; stroke: #0000ff; stroke-width: 0.500000; stroke-linejoin: miter; stroke-linecap: butt;  opacity: 1.000000" clip-path="url(#-1467158557)" cx="186.564764" cy="208.634275" rx="0.500000" ry="0.000000" transform="rotate(0.000000 186.564764 208.634275)"/>
<ellipse style="fill: #0000ff; stroke: #0000ff; stroke-width: 0.500000; stroke-linejoin: miter; stroke-linecap: butt;  opacity: 1.000000" clip-path="url(#-1467158557)" cx="186.469696" cy="208.448635" rx="0.500000" ry="0.000000" transform="rotate(0.000000 186.469696 208.448635)"/>
<ellipse style="fill: #0000ff; stroke: #0000ff; stroke-width: 0.500000; stroke-linejoin: miter; stroke-linecap: butt;  opacity: 1.000000" clip-path="url(#-1467158557)" cx="186.382863" cy="208.262716" rx="0.500000" ry="0.000000" transform="rotate(0.000000 186.382863 208.262716)"/>
<ellipse style="fill: #0000ff; stroke: #0000ff; stroke-width: 0.500000; stroke-linejoin: miter; stroke-linecap: butt;  opacity: 1.000000" clip-path="url(#-1467158557)" cx="186.304348" cy="208.076710" rx="0.500000" ry="0.000000" transform="rotate(0.000000 186.304348 208.076710)"/>
<ellipse style="fill: #0000ff; stroke: #0000ff; stroke-width: 0.500000; stroke-linejoin: miter; stroke-linecap: butt;  opacity: 1.000000" clip-path="url(#-1467158557)" cx="186.234227" cy="207.890805" rx="0.500000" ry="0.000000" transform="rotate(0.000000 186.234227 207.890805)"/>
<ellipse style="fill: #0000ff; stroke: #0000ff; stroke-width: 0.500000; stroke-linejoin: miter; stroke-linecap: butt;  opacity: 1.000000" clip-path="url(#-1467158557)" cx="186.172565" cy="207.705192" rx="0.500000" ry="0.000000" transform="rotate(0.000000 186.172565 207.705192)"/>
<ellipse style="fill: #0000ff; stroke: #0000ff; stroke-width: 0.500000; stroke-linejoin: miter; stroke-linecap: butt;  opacity: 1.000000" clip-path="url(#-1467158557)" cx="186.119420" cy="207.520058" rx="0.500000" ry="0.000000" transform="rotate(0.000000 186.119420 207.520058)"/>
<ellipse style="fill: #0000ff; stroke: #0000ff; stroke-width: 0.500000; stroke-linejoin: miter; stroke-linecap: butt;  opacity: 1.000000" clip-path="url(#-1467158557)" cx="186.074840" cy="207.335592" rx="0.500000" ry="0.000000" transform="rotate(0.000000 186.074840 207.335592)"/>
<ellipse style="fill: #0000ff; stroke: #0000ff; stroke-width: 0.500000; stroke-linejoin: miter; stroke-linecap: butt;  opacity: 1.000000" clip-path="url(#-1467158557)" cx="186.038868" cy="207.151980" rx="0.500000" ry="0.000000" transform="rotate(0.000000 186.038868 207.151980)"/>
<ellipse style="fill: #0000ff; stroke: #0000ff; stroke-width: 0.500000; stroke-linejoin: miter; stroke-linecap: butt;  opacity: 1.000000" clip-path="url(#-1467158557)" cx="186.011534" cy="206.969407" rx="0.500000" ry="0.000000" transform="rotate(0.000000 186.011534 206.969407)"/>
<ellipse style="fill: #0000ff; stroke: #0000ff; stroke-width: 0.500000; stroke-linejoin: miter; stroke-linecap: butt;  opacity: 1.000000" clip-path="url(#-1467158557)" cx="185.992861" cy="206.788056" rx="0.500000" ry="0.000000" transform="rotate(0.000000 185.992861 206.788056)"/>
<ellipse style="fill: #0000ff; stroke: #0000ff; stroke-width: 0.500000; stroke-linejoin: miter; stroke-linecap: butt;  opacity: 1.000000" clip-path="url(#-1467158557)" cx="185.982866" cy="206.608109" rx="0.500000" ry="0.000000" transform="rotate(0.000000 185.982866 206.608109)"/>
<ellipse style="fill: #0000ff; stroke: #0000ff; stroke-width: 0.500000; stroke-linejoin: miter; stroke-linecap: butt;  opacity: 1.000000" clip-path="url(#-1467158557)" cx="185.981553" cy="206.429747" rx="0.500000" ry="0.000000" transform="rotate(0.000000 185.981553 206.429747)"/>
<ellipse style="fill: #0000ff; stroke: #0000ff; stroke-width: 0.500000; stroke-linejoin: miter; stroke-linecap: butt;  opacity: 1.000000" clip-path="url(#-1467158557)" cx="185.988919" cy="206.253146" rx="0.500000" ry="0.000000" transform="rotate(0.000000 185.988919 206.253146)"/>
<ellipse style="fill: #0000ff; stroke: #0000ff; stroke-width: 0.500000; stroke-linejoin: miter; stroke-linecap: butt;  opacity: 1.000000" clip-path="url(#-1467158557)" cx="186.004955" cy="206.078482" rx="0.500000" ry="0.000000" transform="rotate(0.000000 186.004955 206.078482)"/>
<ellipse style="fill: #0000ff; stroke: #0000ff; stroke-width: 0.500000; stroke-linejoin: miter; stroke-linecap: butt;  opacity: 1.000000" clip-path="url(#-1467158557)" cx="186.029639" cy="205.905927" rx="0.500000" ry="0.000000" transform="rotate(0.000000 186.029639 205.905927)"/>
<ellipse style="fill: #0000ff; stroke: #0000ff; stroke-width: 0.500000; stroke-linejoin: miter; stroke-linecap: butt;  opacity: 1.000000" clip-path="url(#-1467158557)" cx="186.062944" cy="205.735653" rx="0.500000" ry="0.000000" transform="rotate(0.000000 186.062944 205.735653)"/>
<ellipse style="fill: #0000ff; stroke: #0000ff; stroke-width: 0.500000; stroke-linejoin: miter; stroke-linecap: butt;  opacity: 1.000000" clip-path="url(#-1467158557)" cx="186.104832" cy="205.567824" rx="0.500000" ry="0.000000" transform="rotate(0.000000 186.104832 205.567824)"/>
<ellipse style="fill: #0000ff; stroke: #0000ff; stroke-width: 0.500000; stroke-linejoin: miter; stroke-linecap: butt;  opacity: 1.000000" clip-path="url(#-1467158557)" cx="186.155258" cy="205.402607" rx="0.500000" ry="0.000000" transform="rotate(0.000000 186.155258 205.402607)"/>
<text style="font-size: 12.000000; font-family: Times; font-style: Regular; fill: #000000;" x="81.661500" y="72.036000" >lat30_squish.vgp.rot</text>
<text style="font-size: 14.000000; font-family: Times; font-style: Regular; fill: #000000;" x="104.457500" y="31.298400" >Bootstrapped confidence ellipse</text>
</g>
<text style="font-size: 12.000000; font-family: Times; font-style: Regular; fill: #000000;" x="7.452000" y="368.874000" >pmagpy-1.50b</text>
</g>
</svg>
