<?xml version="1.0" standalone="no"?>
<!DOCTYPE svg PUBLIC "-//W3C//DTD SVG 1.1//EN"
  "http://www.w3.org/Graphics/SVG/1.1/DTD/svg11.dtd">
<!-- Created with matplotlib (http://matplotlib.sourceforge.net/) -->
<svg width="372" height="372" viewBox="0 0 372 372"
   xmlns="http://www.w3.org/2000/svg"
   xmlns:xlink="http://www.w3.org/1999/xlink"
   version="1.1"
   id="svg1">
<g id="figure1">
<polygon style="fill: #ffffff; stroke: #ffffff; stroke-width: 1.000000; stroke-linejoin: miter; stroke-linecap: square;  opacity: 1.000000"  points = "0.000000,372.600000 0.000000,0.000000 372.600000,0.000000 372.600000,372.600000"/>
<g id="axes1">
<g id="regpolycollection1">
<defs>
    <clipPath id="-1467158557">
    <rect x="46.575000" y="37.260000" width="288.765000" height="298.080000"
    style="stroke: gray; fill: none;"/>
    </clipPath>
</defs>
<polygon style="fill: #ff0000; stroke: #000000; stroke-width: 1.000000; stroke-linejoin: miter; stroke-linecap: butt;  opacity: 1.000000" clip-path="url(#-1467158557)" points = "186.900939,113.423307 187.680630,113.546798 188.383999,113.905183 188.942196,114.463380 189.300581,115.166749 189.424072,115.946440 189.300581,116.726131 188.942196,117.429500 188.383999,117.987697 187.680630,118.346082 186.900939,118.469572 186.121248,118.346082 185.417879,117.987697 184.859682,117.429500 184.501298,116.726131 184.377807,115.946440 184.501298,115.166749 184.859682,114.463380 185.417879,113.905183 186.121248,113.546798"/>
<polygon style="fill: #ff0000; stroke: #000000; stroke-width: 1.000000; stroke-linejoin: miter; stroke-linecap: butt;  opacity: 1.000000" clip-path="url(#-1467158557)" points = "183.352888,114.895158 184.132579,115.018649 184.835949,115.377033 185.394146,115.935230 185.752530,116.638600 185.876021,117.418291 185.752530,118.197981 185.394146,118.901351 184.835949,119.459548 184.132579,119.817932 183.352888,119.941423 182.573198,119.817932 181.869828,119.459548 181.311631,118.901351 180.953247,118.197981 180.829756,117.418291 180.953247,116.638600 181.311631,115.935230 181.869828,115.377033 182.573198,115.018649"/>
<polygon style="fill: #ff0000; stroke: #000000; stroke-width: 1.000000; stroke-linejoin: miter; stroke-linecap: butt;  opacity: 1.000000" clip-path="url(#-1467158557)" points = "157.895204,117.173305 158.674895,117.296796 159.378265,117.655180 159.936462,118.213377 160.294846,118.916747 160.418337,119.696438 160.294846,120.476128 159.936462,121.179498 159.378265,121.737695 158.674895,122.096079 157.895204,122.219570 157.115514,122.096079 156.412144,121.737695 155.853947,121.179498 155.495563,120.476128 155.372072,119.696438 155.495563,118.916747 155.853947,118.213377 156.412144,117.655180 157.115514,117.296796"/>
<polygon style="fill: #ff0000; stroke: #000000; stroke-width: 1.000000; stroke-linejoin: miter; stroke-linecap: butt;  opacity: 1.000000" clip-path="url(#-1467158557)" points = "195.685513,119.393575 196.465204,119.517066 197.168574,119.875451 197.726771,120.433648 198.085155,121.137017 198.208646,121.916708 198.085155,122.696399 197.726771,123.399768 197.168574,123.957965 196.465204,124.316349 195.685513,124.439840 194.905823,124.316349 194.202453,123.957965 193.644256,123.399768 193.285872,122.696399 193.162381,121.916708 193.285872,121.137017 193.644256,120.433648 194.202453,119.875451 194.905823,119.517066"/>
<polygon style="fill: #ff0000; stroke: #000000; stroke-width: 1.000000; stroke-linejoin: miter; stroke-linecap: butt;  opacity: 1.000000" clip-path="url(#-1467158557)" points = "171.062558,111.053209 171.842249,111.176700 172.545619,111.535085 173.103816,112.093282 173.462200,112.796651 173.585691,113.576342 173.462200,114.356033 173.103816,115.059402 172.545619,115.617599 171.842249,115.975984 171.062558,116.099474 170.282868,115.975984 169.579498,115.617599 169.021301,115.059402 168.662917,114.356033 168.539426,113.576342 168.662917,112.796651 169.021301,112.093282 169.579498,111.535085 170.282868,111.176700"/>
<polygon style="fill: #ff0000; stroke: #000000; stroke-width: 1.000000; stroke-linejoin: miter; stroke-linecap: butt;  opacity: 1.000000" clip-path="url(#-1467158557)" points = "176.346659,96.465925 177.126350,96.589415 177.829719,96.947800 178.387916,97.505997 178.746301,98.209366 178.869792,98.989057 178.746301,99.768748 178.387916,100.472117 177.829719,101.030314 177.126350,101.388699 176.346659,101.512190 175.566968,101.388699 174.863599,101.030314 174.305402,100.472117 173.947017,99.768748 173.823526,98.989057 173.947017,98.209366 174.305402,97.505997 174.863599,96.947800 175.566968,96.589415"/>
<polygon style="fill: #ff0000; stroke: #000000; stroke-width: 1.000000; stroke-linejoin: miter; stroke-linecap: butt;  opacity: 1.000000" clip-path="url(#-1467158557)" points = "196.064394,110.744879 196.844085,110.868370 197.547454,111.226755 198.105651,111.784952 198.464036,112.488321 198.587527,113.268012 198.464036,114.047703 198.105651,114.751072 197.547454,115.309269 196.844085,115.667654 196.064394,115.791145 195.284703,115.667654 194.581334,115.309269 194.023137,114.751072 193.664752,114.047703 193.541262,113.268012 193.664752,112.488321 194.023137,111.784952 194.581334,111.226755 195.284703,110.868370"/>
<polygon style="fill: #ff0000; stroke: #000000; stroke-width: 1.000000; stroke-linejoin: miter; stroke-linecap: butt;  opacity: 1.000000" clip-path="url(#-1467158557)" points = "204.211133,111.563499 204.990824,111.686990 205.694193,112.045374 206.252390,112.603571 206.610775,113.306940 206.734266,114.086631 206.610775,114.866322 206.252390,115.569691 205.694193,116.127888 204.990824,116.486273 204.211133,116.609764 203.431442,116.486273 202.728073,116.127888 202.169876,115.569691 201.811492,114.866322 201.688001,114.086631 201.811492,113.306940 202.169876,112.603571 202.728073,112.045374 203.431442,111.686990"/>
<polygon style="fill: #ff0000; stroke: #000000; stroke-width: 1.000000; stroke-linejoin: miter; stroke-linecap: butt;  opacity: 1.000000" clip-path="url(#-1467158557)" points = "193.883863,129.743124 194.663554,129.866615 195.366923,130.225000 195.925120,130.783197 196.283505,131.486566 196.406995,132.266257 196.283505,133.045948 195.925120,133.749317 195.366923,134.307514 194.663554,134.665899 193.883863,134.789390 193.104172,134.665899 192.400803,134.307514 191.842606,133.749317 191.484221,133.045948 191.360730,132.266257 191.484221,131.486566 191.842606,130.783197 192.400803,130.225000 193.104172,129.866615"/>
<polygon style="fill: #ff0000; stroke: #000000; stroke-width: 1.000000; stroke-linejoin: miter; stroke-linecap: butt;  opacity: 1.000000" clip-path="url(#-1467158557)" points = "194.818382,118.790830 195.598073,118.914321 196.301442,119.272705 196.859639,119.830902 197.218024,120.534272 197.341515,121.313962 197.218024,122.093653 196.859639,122.797022 196.301442,123.355219 195.598073,123.713604 194.818382,123.837095 194.038691,123.713604 193.335322,123.355219 192.777125,122.797022 192.418740,122.093653 192.295250,121.313962 192.418740,120.534272 192.777125,119.830902 193.335322,119.272705 194.038691,118.914321"/>
<polygon style="fill: #ff0000; stroke: #000000; stroke-width: 1.000000; stroke-linejoin: miter; stroke-linecap: butt;  opacity: 1.000000" clip-path="url(#-1467158557)" points = "206.230021,123.420454 207.009711,123.543945 207.713081,123.902329 208.271278,124.460526 208.629662,125.163896 208.753153,125.943587 208.629662,126.723277 208.271278,127.426647 207.713081,127.984844 207.009711,128.343228 206.230021,128.466719 205.450330,128.343228 204.746960,127.984844 204.188763,127.426647 203.830379,126.723277 203.706888,125.943587 203.830379,125.163896 204.188763,124.460526 204.746960,123.902329 205.450330,123.543945"/>
<polygon style="fill: #ff0000; stroke: #000000; stroke-width: 1.000000; stroke-linejoin: miter; stroke-linecap: butt;  opacity: 1.000000" clip-path="url(#-1467158557)" points = "212.130151,108.954305 212.909842,109.077796 213.613211,109.436180 214.171408,109.994377 214.529793,110.697747 214.653284,111.477438 214.529793,112.257128 214.171408,112.960498 213.613211,113.518695 212.909842,113.877079 212.130151,114.000570 211.350460,113.877079 210.647091,113.518695 210.088894,112.960498 209.730509,112.257128 209.607019,111.477438 209.730509,110.697747 210.088894,109.994377 210.647091,109.436180 211.350460,109.077796"/>
<polygon style="fill: #ff0000; stroke: #000000; stroke-width: 1.000000; stroke-linejoin: miter; stroke-linecap: butt;  opacity: 1.000000" clip-path="url(#-1467158557)" points = "187.530076,105.275959 188.309767,105.399450 189.013136,105.757834 189.571333,106.316031 189.929718,107.019401 190.053209,107.799091 189.929718,108.578782 189.571333,109.282152 189.013136,109.840349 188.309767,110.198733 187.530076,110.322224 186.750385,110.198733 186.047016,109.840349 185.488819,109.282152 185.130435,108.578782 185.006944,107.799091 185.130435,107.019401 185.488819,106.316031 186.047016,105.757834 186.750385,105.399450"/>
<polygon style="fill: #ff0000; stroke: #000000; stroke-width: 1.000000; stroke-linejoin: miter; stroke-linecap: butt;  opacity: 1.000000" clip-path="url(#-1467158557)" points = "180.683009,108.771257 181.462700,108.894747 182.166069,109.253132 182.724266,109.811329 183.082651,110.514698 183.206142,111.294389 183.082651,112.074080 182.724266,112.777449 182.166069,113.335646 181.462700,113.694031 180.683009,113.817522 179.903319,113.694031 179.199949,113.335646 178.641752,112.777449 178.283368,112.074080 178.159877,111.294389 178.283368,110.514698 178.641752,109.811329 179.199949,109.253132 179.903319,108.894747"/>
<polygon style="fill: #ff0000; stroke: #000000; stroke-width: 1.000000; stroke-linejoin: miter; stroke-linecap: butt;  opacity: 1.000000" clip-path="url(#-1467158557)" points = "211.980538,110.940842 212.760229,111.064333 213.463598,111.422718 214.021795,111.980915 214.380180,112.684284 214.503671,113.463975 214.380180,114.243666 214.021795,114.947035 213.463598,115.505232 212.760229,115.863617 211.980538,115.987107 211.200848,115.863617 210.497478,115.505232 209.939281,114.947035 209.580897,114.243666 209.457406,113.463975 209.580897,112.684284 209.939281,111.980915 210.497478,111.422718 211.200848,111.064333"/>
<polygon style="fill: #ff0000; stroke: #000000; stroke-width: 1.000000; stroke-linejoin: miter; stroke-linecap: butt;  opacity: 1.000000" clip-path="url(#-1467158557)" points = "192.300315,106.847050 193.080006,106.970541 193.783375,107.328925 194.341572,107.887122 194.699957,108.590492 194.823447,109.370183 194.699957,110.149873 194.341572,110.853243 193.783375,111.411440 193.080006,111.769824 192.300315,111.893315 191.520624,111.769824 190.817255,111.411440 190.259058,110.853243 189.900673,110.149873 189.777182,109.370183 189.900673,108.590492 190.259058,107.887122 190.817255,107.328925 191.520624,106.970541"/>
<polygon style="fill: #ff0000; stroke: #000000; stroke-width: 1.000000; stroke-linejoin: miter; stroke-linecap: butt;  opacity: 1.000000" clip-path="url(#-1467158557)" points = "191.507476,104.999893 192.287167,105.123384 192.990536,105.481768 193.548733,106.039965 193.907118,106.743334 194.030608,107.523025 193.907118,108.302716 193.548733,109.006085 192.990536,109.564282 192.287167,109.922667 191.507476,110.046158 190.727785,109.922667 190.024416,109.564282 189.466219,109.006085 189.107834,108.302716 188.984343,107.523025 189.107834,106.743334 189.466219,106.039965 190.024416,105.481768 190.727785,105.123384"/>
</g>
<g id="regpolycollection2">
<polygon style="fill: #ffffff; stroke: #000000; stroke-width: 1.000000; stroke-linejoin: miter; stroke-linecap: butt;  opacity: 1.000000" clip-path="url(#-1467158557)" points = "230.552342,95.005370 230.552342,98.573618 226.984094,98.573618 226.984094,95.005370"/>
<polygon style="fill: #ffffff; stroke: #000000; stroke-width: 1.000000; stroke-linejoin: miter; stroke-linecap: butt;  opacity: 1.000000" clip-path="url(#-1467158557)" points = "242.628704,107.989250 242.628704,111.557498 239.060456,111.557498 239.060456,107.989250"/>
<polygon style="fill: #ffffff; stroke: #000000; stroke-width: 1.000000; stroke-linejoin: miter; stroke-linecap: butt;  opacity: 1.000000" clip-path="url(#-1467158557)" points = "195.203535,110.302521 195.203535,113.870770 191.635286,113.870770 191.635286,110.302521"/>
</g>
<path style="fill: none; stroke: #000000; stroke-width: 1.000000; stroke-linejoin: miter; stroke-linecap: square;  opacity: 1.000000" clip-path="url(#-1467158557)" d="M 190.957500,86.940000 L 192.691571,86.955133 L 194.425114,87.000527 L 196.157601,87.076169 L 197.888503,87.182036 L 199.617295,87.318095 L 201.343448,87.484304 L 203.066438,87.680614 L 204.785739,87.906965 L 206.500828,88.163286 L 208.211183,88.449502 L 209.916282,88.765523 L 211.615606,89.111254 L 213.308637,89.486590 L 214.994860,89.891417 L 216.673760,90.325610 L 218.344828,90.789038 L 220.007553,91.281559 L 221.661429,91.803025 L 223.305952,92.353274 L 224.940621,92.932141 L 226.564939,93.539449 L 228.178411,94.175012 L 229.780545,94.838638 L 231.370853,95.530123 L 232.948850,96.249258 L 234.514057,96.995824 L 236.065996,97.769592 L 237.604194,98.570327 L 239.128184,99.397786 L 240.637500,100.251716 L 242.131683,101.131857 L 243.610278,102.037941 L 245.072835,102.969692 L 246.518907,103.926827 L 247.948055,104.909053 L 249.359843,105.916071 L 250.753841,106.947576 L 252.129624,108.003252 L 253.486774,109.082777 L 254.824877,110.185824 L 256.143525,111.312056 L 257.442317,112.461130 L 258.720857,113.632696 L 259.978756,114.826397 L 261.215630,116.041870 L 262.431103,117.278744 L 263.624804,118.536643 L 264.796370,119.815183 L 265.945444,121.113975 L 267.071676,122.432623 L 268.174723,123.770726 L 269.254248,125.127876 L 270.309924,126.503659 L 271.341429,127.897657 L 272.348447,129.309445 L 273.330673,130.738593 L 274.287808,132.184665 L 275.219559,133.647222 L 276.125643,135.125817 L 277.005784,136.620000 L 277.859714,138.129316 L 278.687173,139.653306 L 279.487908,141.191504 L 280.261676,142.743443 L 281.008242,144.308650 L 281.727377,145.886647 L 282.418862,147.476955 L 283.082488,149.079089 L 283.718051,150.692561 L 284.325359,152.316879 L 284.904226,153.951548 L 285.454475,155.596071 L 285.975941,157.249947 L 286.468462,158.912672 L 286.931890,160.583740 L 287.366083,162.262640 L 287.770910,163.948863 L 288.146246,165.641894 L 288.491977,167.341218 L 288.807998,169.046317 L 289.094214,170.756672 L 289.350535,172.471761 L 289.576886,174.191062 L 289.773196,175.914052 L 289.939405,177.640205 L 290.075464,179.368997 L 290.181331,181.099899 L 290.256973,182.832386 L 290.302367,184.565929 L 290.317500,186.300000 L 290.302367,188.034071 L 290.256973,189.767614 L 290.181331,191.500101 L 290.075464,193.231003 L 289.939405,194.959795 L 289.773196,196.685948 L 289.576886,198.408938 L 289.350535,200.128239 L 289.094214,201.843328 L 288.807998,203.553683 L 288.491977,205.258782 L 288.146246,206.958106 L 287.770910,208.651137 L 287.366083,210.337360 L 286.931890,212.016260 L 286.468462,213.687328 L 285.975941,215.350053 L 285.454475,217.003929 L 284.904226,218.648452 L 284.325359,220.283121 L 283.718051,221.907439 L 283.082488,223.520911 L 282.418862,225.123045 L 281.727377,226.713353 L 281.008242,228.291350 L 280.261676,229.856557 L 279.487908,231.408496 L 278.687173,232.946694 L 277.859714,234.470684 L 277.005784,235.980000 L 276.125643,237.474183 L 275.219559,238.952778 L 274.287808,240.415335 L 273.330673,241.861407 L 272.348447,243.290555 L 271.341429,244.702343 L 270.309924,246.096341 L 269.254248,247.472124 L 268.174723,248.829274 L 267.071676,250.167377 L 265.945444,251.486025 L 264.796370,252.784817 L 263.624804,254.063357 L 262.431103,255.321256 L 261.215630,256.558130 L 259.978756,257.773603 L 258.720857,258.967304 L 257.442317,260.138870 L 256.143525,261.287944 L 254.824877,262.414176 L 253.486774,263.517223 L 252.129624,264.596748 L 250.753841,265.652424 L 249.359843,266.683929 L 247.948055,267.690947 L 246.518907,268.673173 L 245.072835,269.630308 L 243.610278,270.562059 L 242.131683,271.468143 L 240.637500,272.348284 L 239.128184,273.202214 L 237.604194,274.029673 L 236.065996,274.830408 L 234.514057,275.604176 L 232.948850,276.350742 L 231.370853,277.069877 L 229.780545,277.761362 L 228.178411,278.424988 L 226.564939,279.060551 L 224.940621,279.667859 L 223.305952,280.246726 L 221.661429,280.796975 L 220.007553,281.318441 L 218.344828,281.810962 L 216.673760,282.274390 L 214.994860,282.708583 L 213.308637,283.113410 L 211.615606,283.488746 L 209.916282,283.834477 L 208.211183,284.150498 L 206.500828,284.436714 L 204.785739,284.693035 L 203.066438,284.919386 L 201.343448,285.115696 L 199.617295,285.281905 L 197.888503,285.417964 L 196.157601,285.523831 L 194.425114,285.599473 L 192.691571,285.644867 L 190.957500,285.660000 L 189.223429,285.644867 L 187.489886,285.599473 L 185.757399,285.523831 L 184.026497,285.417964 L 182.297705,285.281905 L 180.571552,285.115696 L 178.848562,284.919386 L 177.129261,284.693035 L 175.414172,284.436714 L 173.703817,284.150498 L 171.998718,283.834477 L 170.299394,283.488746 L 168.606363,283.113410 L 166.920140,282.708583 L 165.241240,282.274390 L 163.570172,281.810962 L 161.907447,281.318441 L 160.253571,280.796975 L 158.609048,280.246726 L 156.974379,279.667859 L 155.350061,279.060551 L 153.736589,278.424988 L 152.134455,277.761362 L 150.544147,277.069877 L 148.966150,276.350742 L 147.400943,275.604176 L 145.849004,274.830408 L 144.310806,274.029673 L 142.786816,273.202214 L 141.277500,272.348284 L 139.783317,271.468143 L 138.304722,270.562059 L 136.842165,269.630308 L 135.396093,268.673173 L 133.966945,267.690947 L 132.555157,266.683929 L 131.161159,265.652424 L 129.785376,264.596748 L 128.428226,263.517223 L 127.090123,262.414176 L 125.771475,261.287944 L 124.472683,260.138870 L 123.194143,258.967304 L 121.936244,257.773603 L 120.699370,256.558130 L 119.483897,255.321256 L 118.290196,254.063357 L 117.118630,252.784817 L 115.969556,251.486025 L 114.843324,250.167377 L 113.740277,248.829274 L 112.660752,247.472124 L 111.605076,246.096341 L 110.573571,244.702343 L 109.566553,243.290555 L 108.584327,241.861407 L 107.627192,240.415335 L 106.695441,238.952778 L 105.789357,237.474183 L 104.909216,235.980000 L 104.055286,234.470684 L 103.227827,232.946694 L 102.427092,231.408496 L 101.653324,229.856557 L 100.906758,228.291350 L 100.187623,226.713353 L 99.496138,225.123045 L 98.832512,223.520911 L 98.196949,221.907439 L 97.589641,220.283121 L 97.010774,218.648452 L 96.460525,217.003929 L 95.939059,215.350053 L 95.446538,213.687328 L 94.983110,212.016260 L 94.548917,210.337360 L 94.144090,208.651137 L 93.768754,206.958106 L 93.423023,205.258782 L 93.107002,203.553683 L 92.820786,201.843328 L 92.564465,200.128239 L 92.338114,198.408938 L 92.141804,196.685948 L 91.975595,194.959795 L 91.839536,193.231003 L 91.733669,191.500101 L 91.658027,189.767614 L 91.612633,188.034071 L 91.597500,186.300000 L 91.612633,184.565929 L 91.658027,182.832386 L 91.733669,181.099899 L 91.839536,179.368997 L 91.975595,177.640205 L 92.141804,175.914052 L 92.338114,174.191062 L 92.564465,172.471761 L 92.820786,170.756672 L 93.107002,169.046317 L 93.423023,167.341218 L 93.768754,165.641894 L 94.144090,163.948863 L 94.548917,162.262640 L 94.983110,160.583740 L 95.446538,158.912672 L 95.939059,157.249947 L 96.460525,155.596071 L 97.010774,153.951548 L 97.589641,152.316879 L 98.196949,150.692561 L 98.832512,149.079089 L 99.496138,147.476955 L 100.187623,145.886647 L 100.906758,144.308650 L 101.653324,142.743443 L 102.427092,141.191504 L 103.227827,139.653306 L 104.055286,138.129316 L 104.909216,136.620000 L 105.789357,135.125817 L 106.695441,133.647222 L 107.627192,132.184665 L 108.584327,130.738593 L 109.566553,129.309445 L 110.573571,127.897657 L 111.605076,126.503659 L 112.660752,125.127876 L 113.740277,123.770726 L 114.843324,122.432623 L 115.969556,121.113975 L 117.118630,119.815183 L 118.290196,118.536643 L 119.483897,117.278744 L 120.699370,116.041870 L 121.936244,114.826397 L 123.194143,113.632696 L 124.472683,112.461130 L 125.771475,111.312056 L 127.090123,110.185824 L 128.428226,109.082777 L 129.785376,108.003252 L 131.161159,106.947576 L 132.555157,105.916071 L 133.966945,104.909053 L 135.396093,103.926827 L 136.842165,102.969692 L 138.304722,102.037941 L 139.783317,101.131857 L 141.277500,100.251716 L 142.786816,99.397786 L 144.310806,98.570327 L 145.849004,97.769592 L 147.400943,96.995824 L 148.966150,96.249258 L 150.544147,95.530123 L 152.134455,94.838638 L 153.736589,94.175012 L 155.350061,93.539449 L 156.974379,92.932141 L 158.609048,92.353274 L 160.253571,91.803025 L 161.907447,91.281559 L 163.570172,90.789038 L 165.241240,90.325610 L 166.920140,89.891417 L 168.606363,89.486590 L 170.299394,89.111254 L 171.998718,88.765523 L 173.703817,88.449502 L 175.414172,88.163286 L 177.129261,87.906965 L 178.848562,87.680614 L 180.571552,87.484304 L 182.297705,87.318095 L 184.026497,87.182036 L 185.757399,87.076169 L 187.489886,87.000527 L 189.223429,86.955133 L 190.957500,86.940000 "/>
<path style="fill: none; stroke: #000000; stroke-width: 0.500000; stroke-linejoin: miter; stroke-linecap: butt;  opacity: 1.000000" clip-path="url(#-1467158557)" d="M 278.279611,186.300000 L 284.279611,186.300000"/>
<path style="fill: none; stroke: #000000; stroke-width: 0.500000; stroke-linejoin: miter; stroke-linecap: butt;  opacity: 1.000000" clip-path="url(#-1467158557)" d="M 281.279611,189.300000 L 281.279611,183.300000"/>
<path style="fill: none; stroke: #000000; stroke-width: 0.500000; stroke-linejoin: miter; stroke-linecap: butt;  opacity: 1.000000" clip-path="url(#-1467158557)" d="M 268.554315,186.300000 L 274.554315,186.300000"/>
<path style="fill: none; stroke: #000000; stroke-width: 0.500000; stroke-linejoin: miter; stroke-linecap: butt;  opacity: 1.000000" clip-path="url(#-1467158557)" d="M 271.554315,189.300000 L 271.554315,183.300000"/>
<path style="fill: none; stroke: #000000; stroke-width: 0.500000; stroke-linejoin: miter; stroke-linecap: butt;  opacity: 1.000000" clip-path="url(#-1467158557)" d="M 258.215630,186.300000 L 264.215630,186.300000"/>
<path style="fill: none; stroke: #000000; stroke-width: 0.500000; stroke-linejoin: miter; stroke-linecap: butt;  opacity: 1.000000" clip-path="url(#-1467158557)" d="M 261.215630,189.300000 L 261.215630,183.300000"/>
<path style="fill: none; stroke: #000000; stroke-width: 0.500000; stroke-linejoin: miter; stroke-linecap: butt;  opacity: 1.000000" clip-path="url(#-1467158557)" d="M 247.342237,186.300000 L 253.342237,186.300000"/>
<path style="fill: none; stroke: #000000; stroke-width: 0.500000; stroke-linejoin: miter; stroke-linecap: butt;  opacity: 1.000000" clip-path="url(#-1467158557)" d="M 250.342237,189.300000 L 250.342237,183.300000"/>
<path style="fill: none; stroke: #000000; stroke-width: 0.500000; stroke-linejoin: miter; stroke-linecap: butt;  opacity: 1.000000" clip-path="url(#-1467158557)" d="M 236.016891,186.300000 L 242.016891,186.300000"/>
<path style="fill: none; stroke: #000000; stroke-width: 0.500000; stroke-linejoin: miter; stroke-linecap: butt;  opacity: 1.000000" clip-path="url(#-1467158557)" d="M 239.016891,189.300000 L 239.016891,183.300000"/>
<path style="fill: none; stroke: #000000; stroke-width: 0.500000; stroke-linejoin: miter; stroke-linecap: butt;  opacity: 1.000000" clip-path="url(#-1467158557)" d="M 224.325784,186.300000 L 230.325784,186.300000"/>
<path style="fill: none; stroke: #000000; stroke-width: 0.500000; stroke-linejoin: miter; stroke-linecap: butt;  opacity: 1.000000" clip-path="url(#-1467158557)" d="M 227.325784,189.300000 L 227.325784,183.300000"/>
<path style="fill: none; stroke: #000000; stroke-width: 0.500000; stroke-linejoin: miter; stroke-linecap: butt;  opacity: 1.000000" clip-path="url(#-1467158557)" d="M 212.357892,186.300000 L 218.357892,186.300000"/>
<path style="fill: none; stroke: #000000; stroke-width: 0.500000; stroke-linejoin: miter; stroke-linecap: butt;  opacity: 1.000000" clip-path="url(#-1467158557)" d="M 215.357892,189.300000 L 215.357892,183.300000"/>
<path style="fill: none; stroke: #000000; stroke-width: 0.500000; stroke-linejoin: miter; stroke-linecap: butt;  opacity: 1.000000" clip-path="url(#-1467158557)" d="M 200.204299,186.300000 L 206.204299,186.300000"/>
<path style="fill: none; stroke: #000000; stroke-width: 0.500000; stroke-linejoin: miter; stroke-linecap: butt;  opacity: 1.000000" clip-path="url(#-1467158557)" d="M 203.204299,189.300000 L 203.204299,183.300000"/>
<path style="fill: none; stroke: #000000; stroke-width: 0.500000; stroke-linejoin: miter; stroke-linecap: butt;  opacity: 1.000000" clip-path="url(#-1467158557)" d="M 187.957500,186.300000 L 193.957500,186.300000"/>
<path style="fill: none; stroke: #000000; stroke-width: 0.500000; stroke-linejoin: miter; stroke-linecap: butt;  opacity: 1.000000" clip-path="url(#-1467158557)" d="M 190.957500,189.300000 L 190.957500,183.300000"/>
<path style="fill: none; stroke: #000000; stroke-width: 1.000000; stroke-linejoin: miter; stroke-linecap: square;  opacity: 1.000000" clip-path="url(#-1467158557)" d="M 190.957500,86.940000 L 190.957500,87.810852 L 190.957500,88.689204 L 190.957500,89.574990 "/>
<path style="fill: none; stroke: #000000; stroke-width: 1.000000; stroke-linejoin: miter; stroke-linecap: square;  opacity: 1.000000" clip-path="url(#-1467158557)" d="M 208.211183,88.449502 L 208.059961,89.307123 L 207.907437,90.172131 L 207.753622,91.044460 "/>
<path style="fill: none; stroke: #000000; stroke-width: 1.000000; stroke-linejoin: miter; stroke-linecap: square;  opacity: 1.000000" clip-path="url(#-1467158557)" d="M 224.940621,92.932141 L 224.642773,93.750474 L 224.342358,94.575855 L 224.039402,95.408222 "/>
<path style="fill: none; stroke: #000000; stroke-width: 1.000000; stroke-linejoin: miter; stroke-linecap: square;  opacity: 1.000000" clip-path="url(#-1467158557)" d="M 240.637500,100.251716 L 240.202074,101.005896 L 239.762898,101.766571 L 239.320005,102.533684 "/>
<path style="fill: none; stroke: #000000; stroke-width: 1.000000; stroke-linejoin: miter; stroke-linecap: square;  opacity: 1.000000" clip-path="url(#-1467158557)" d="M 254.824877,110.185824 L 254.265104,110.852935 L 253.700510,111.525792 L 253.131138,112.204343 "/>
<path style="fill: none; stroke: #000000; stroke-width: 1.000000; stroke-linejoin: miter; stroke-linecap: square;  opacity: 1.000000" clip-path="url(#-1467158557)" d="M 267.071676,122.432623 L 266.404565,122.992396 L 265.731708,123.556990 L 265.053157,124.126362 "/>
<path style="fill: none; stroke: #000000; stroke-width: 1.000000; stroke-linejoin: miter; stroke-linecap: square;  opacity: 1.000000" clip-path="url(#-1467158557)" d="M 277.005784,136.620000 L 276.251604,137.055426 L 275.490929,137.494602 L 274.723816,137.937495 "/>
<path style="fill: none; stroke: #000000; stroke-width: 1.000000; stroke-linejoin: miter; stroke-linecap: square;  opacity: 1.000000" clip-path="url(#-1467158557)" d="M 284.325359,152.316879 L 283.507026,152.614727 L 282.681645,152.915142 L 281.849278,153.218098 "/>
<path style="fill: none; stroke: #000000; stroke-width: 1.000000; stroke-linejoin: miter; stroke-linecap: square;  opacity: 1.000000" clip-path="url(#-1467158557)" d="M 288.807998,169.046317 L 287.950377,169.197539 L 287.085369,169.350063 L 286.213040,169.503878 "/>
<path style="fill: none; stroke: #000000; stroke-width: 1.000000; stroke-linejoin: miter; stroke-linecap: square;  opacity: 1.000000" clip-path="url(#-1467158557)" d="M 290.317500,186.300000 L 289.446648,186.300000 L 288.568296,186.300000 L 287.682510,186.300000 "/>
<path style="fill: none; stroke: #000000; stroke-width: 1.000000; stroke-linejoin: miter; stroke-linecap: square;  opacity: 1.000000" clip-path="url(#-1467158557)" d="M 288.807998,203.553683 L 287.950377,203.402461 L 287.085369,203.249937 L 286.213040,203.096122 "/>
<path style="fill: none; stroke: #000000; stroke-width: 1.000000; stroke-linejoin: miter; stroke-linecap: square;  opacity: 1.000000" clip-path="url(#-1467158557)" d="M 284.325359,220.283121 L 283.507026,219.985273 L 282.681645,219.684858 L 281.849278,219.381902 "/>
<path style="fill: none; stroke: #000000; stroke-width: 1.000000; stroke-linejoin: miter; stroke-linecap: square;  opacity: 1.000000" clip-path="url(#-1467158557)" d="M 277.005784,235.980000 L 276.251604,235.544574 L 275.490929,235.105398 L 274.723816,234.662505 "/>
<path style="fill: none; stroke: #000000; stroke-width: 1.000000; stroke-linejoin: miter; stroke-linecap: square;  opacity: 1.000000" clip-path="url(#-1467158557)" d="M 267.071676,250.167377 L 266.404565,249.607604 L 265.731708,249.043010 L 265.053157,248.473638 "/>
<path style="fill: none; stroke: #000000; stroke-width: 1.000000; stroke-linejoin: miter; stroke-linecap: square;  opacity: 1.000000" clip-path="url(#-1467158557)" d="M 254.824877,262.414176 L 254.265104,261.747065 L 253.700510,261.074208 L 253.131138,260.395657 "/>
<path style="fill: none; stroke: #000000; stroke-width: 1.000000; stroke-linejoin: miter; stroke-linecap: square;  opacity: 1.000000" clip-path="url(#-1467158557)" d="M 240.637500,272.348284 L 240.202074,271.594104 L 239.762898,270.833429 L 239.320005,270.066316 "/>
<path style="fill: none; stroke: #000000; stroke-width: 1.000000; stroke-linejoin: miter; stroke-linecap: square;  opacity: 1.000000" clip-path="url(#-1467158557)" d="M 224.940621,279.667859 L 224.642773,278.849526 L 224.342358,278.024145 L 224.039402,277.191778 "/>
<path style="fill: none; stroke: #000000; stroke-width: 1.000000; stroke-linejoin: miter; stroke-linecap: square;  opacity: 1.000000" clip-path="url(#-1467158557)" d="M 208.211183,284.150498 L 208.059961,283.292877 L 207.907437,282.427869 L 207.753622,281.555540 "/>
<path style="fill: none; stroke: #000000; stroke-width: 1.000000; stroke-linejoin: miter; stroke-linecap: square;  opacity: 1.000000" clip-path="url(#-1467158557)" d="M 190.957500,285.660000 L 190.957500,284.789148 L 190.957500,283.910796 L 190.957500,283.025010 "/>
<path style="fill: none; stroke: #000000; stroke-width: 1.000000; stroke-linejoin: miter; stroke-linecap: square;  opacity: 1.000000" clip-path="url(#-1467158557)" d="M 173.703817,284.150498 L 173.855039,283.292877 L 174.007563,282.427869 L 174.161378,281.555540 "/>
<path style="fill: none; stroke: #000000; stroke-width: 1.000000; stroke-linejoin: miter; stroke-linecap: square;  opacity: 1.000000" clip-path="url(#-1467158557)" d="M 156.974379,279.667859 L 157.272227,278.849526 L 157.572642,278.024145 L 157.875598,277.191778 "/>
<path style="fill: none; stroke: #000000; stroke-width: 1.000000; stroke-linejoin: miter; stroke-linecap: square;  opacity: 1.000000" clip-path="url(#-1467158557)" d="M 141.277500,272.348284 L 141.712926,271.594104 L 142.152102,270.833429 L 142.594995,270.066316 "/>
<path style="fill: none; stroke: #000000; stroke-width: 1.000000; stroke-linejoin: miter; stroke-linecap: square;  opacity: 1.000000" clip-path="url(#-1467158557)" d="M 127.090123,262.414176 L 127.649896,261.747065 L 128.214490,261.074208 L 128.783862,260.395657 "/>
<path style="fill: none; stroke: #000000; stroke-width: 1.000000; stroke-linejoin: miter; stroke-linecap: square;  opacity: 1.000000" clip-path="url(#-1467158557)" d="M 114.843324,250.167377 L 115.510435,249.607604 L 116.183292,249.043010 L 116.861843,248.473638 "/>
<path style="fill: none; stroke: #000000; stroke-width: 1.000000; stroke-linejoin: miter; stroke-linecap: square;  opacity: 1.000000" clip-path="url(#-1467158557)" d="M 104.909216,235.980000 L 105.663396,235.544574 L 106.424071,235.105398 L 107.191184,234.662505 "/>
<path style="fill: none; stroke: #000000; stroke-width: 1.000000; stroke-linejoin: miter; stroke-linecap: square;  opacity: 1.000000" clip-path="url(#-1467158557)" d="M 97.589641,220.283121 L 98.407974,219.985273 L 99.233355,219.684858 L 100.065722,219.381902 "/>
<path style="fill: none; stroke: #000000; stroke-width: 1.000000; stroke-linejoin: miter; stroke-linecap: square;  opacity: 1.000000" clip-path="url(#-1467158557)" d="M 93.107002,203.553683 L 93.964623,203.402461 L 94.829631,203.249937 L 95.701960,203.096122 "/>
<path style="fill: none; stroke: #000000; stroke-width: 1.000000; stroke-linejoin: miter; stroke-linecap: square;  opacity: 1.000000" clip-path="url(#-1467158557)" d="M 91.597500,186.300000 L 92.468352,186.300000 L 93.346704,186.300000 L 94.232490,186.300000 "/>
<path style="fill: none; stroke: #000000; stroke-width: 1.000000; stroke-linejoin: miter; stroke-linecap: square;  opacity: 1.000000" clip-path="url(#-1467158557)" d="M 93.107002,169.046317 L 93.964623,169.197539 L 94.829631,169.350063 L 95.701960,169.503878 "/>
<path style="fill: none; stroke: #000000; stroke-width: 1.000000; stroke-linejoin: miter; stroke-linecap: square;  opacity: 1.000000" clip-path="url(#-1467158557)" d="M 97.589641,152.316879 L 98.407974,152.614727 L 99.233355,152.915142 L 100.065722,153.218098 "/>
<path style="fill: none; stroke: #000000; stroke-width: 1.000000; stroke-linejoin: miter; stroke-linecap: square;  opacity: 1.000000" clip-path="url(#-1467158557)" d="M 104.909216,136.620000 L 105.663396,137.055426 L 106.424071,137.494602 L 107.191184,137.937495 "/>
<path style="fill: none; stroke: #000000; stroke-width: 1.000000; stroke-linejoin: miter; stroke-linecap: square;  opacity: 1.000000" clip-path="url(#-1467158557)" d="M 114.843324,122.432623 L 115.510435,122.992396 L 116.183292,123.556990 L 116.861843,124.126362 "/>
<path style="fill: none; stroke: #000000; stroke-width: 1.000000; stroke-linejoin: miter; stroke-linecap: square;  opacity: 1.000000" clip-path="url(#-1467158557)" d="M 127.090123,110.185824 L 127.649896,110.852935 L 128.214490,111.525792 L 128.783862,112.204343 "/>
<path style="fill: none; stroke: #000000; stroke-width: 1.000000; stroke-linejoin: miter; stroke-linecap: square;  opacity: 1.000000" clip-path="url(#-1467158557)" d="M 141.277500,100.251716 L 141.712926,101.005896 L 142.152102,101.766571 L 142.594995,102.533684 "/>
<path style="fill: none; stroke: #000000; stroke-width: 1.000000; stroke-linejoin: miter; stroke-linecap: square;  opacity: 1.000000" clip-path="url(#-1467158557)" d="M 156.974379,92.932141 L 157.272227,93.750474 L 157.572642,94.575855 L 157.875598,95.408222 "/>
<path style="fill: none; stroke: #000000; stroke-width: 1.000000; stroke-linejoin: miter; stroke-linecap: square;  opacity: 1.000000" clip-path="url(#-1467158557)" d="M 173.703817,88.449502 L 173.855039,89.307123 L 174.007563,90.172131 L 174.161378,91.044460 "/>
<path style="fill: none; stroke: #000000; stroke-width: 0.500000; stroke-linejoin: miter; stroke-linecap: square;  opacity: 1.000000" clip-path="url(#-1467158557)" d="M 81.661500,295.596000 L 300.253500,295.596000 L 300.253500,77.004000 L 81.661500,77.004000 L 81.661500,295.596000 "/>
<text style="font-size: 12.000000; font-family: Times; font-style: Regular; fill: #000000;" x="81.661500" y="72.036000" >lat30_squish.di</text>
</g>
<text style="font-size: 12.000000; font-family: Times; font-style: Regular; fill: #000000;" x="7.452000" y="368.874000" >pmagpy-1.50b</text>
</g>
</svg>
