<?xml version="1.0" standalone="no"?>
<!DOCTYPE svg PUBLIC "-//W3C//DTD SVG 1.1//EN"
  "http://www.w3.org/Graphics/SVG/1.1/DTD/svg11.dtd">
<!-- Created with matplotlib (http://matplotlib.sourceforge.net/) -->
<svg width="372" height="372" viewBox="0 0 372 372"
   xmlns="http://www.w3.org/2000/svg"
   xmlns:xlink="http://www.w3.org/1999/xlink"
   version="1.1"
   id="svg1">
<g id="figure1">
<polygon style="fill: #ffffff; stroke: #ffffff; stroke-width: 1.000000; stroke-linejoin: miter; stroke-linecap: square;  opacity: 1.000000"  points = "0.000000,372.600000 0.000000,0.000000 372.600000,0.000000 372.600000,372.600000"/>
<g id="axes1">
<g id="regpolycollection1">
<defs>
    <clipPath id="-1467158557">
    <rect x="46.575000" y="37.260000" width="288.765000" height="298.080000"
    style="stroke: gray; fill: none;"/>
    </clipPath>
</defs>
<polygon style="fill: #ff0000; stroke: #000000; stroke-width: 1.000000; stroke-linejoin: miter; stroke-linecap: butt;  opacity: 1.000000" clip-path="url(#-1467158557)" points = "233.507938,228.772694 234.287629,228.896185 234.990998,229.254569 235.549195,229.812766 235.907580,230.516136 236.031070,231.295827 235.907580,232.075517 235.549195,232.778887 234.990998,233.337084 234.287629,233.695468 233.507938,233.818959 232.728247,233.695468 232.024878,233.337084 231.466681,232.778887 231.108296,232.075517 230.984805,231.295827 231.108296,230.516136 231.466681,229.812766 232.024878,229.254569 232.728247,228.896185"/>
<polygon style="fill: #ff0000; stroke: #000000; stroke-width: 1.000000; stroke-linejoin: miter; stroke-linecap: butt;  opacity: 1.000000" clip-path="url(#-1467158557)" points = "226.535578,224.849324 227.315268,224.972814 228.018638,225.331199 228.576835,225.889396 228.935219,226.592765 229.058710,227.372456 228.935219,228.152147 228.576835,228.855516 228.018638,229.413713 227.315268,229.772098 226.535578,229.895589 225.755887,229.772098 225.052517,229.413713 224.494320,228.855516 224.135936,228.152147 224.012445,227.372456 224.135936,226.592765 224.494320,225.889396 225.052517,225.331199 225.755887,224.972814"/>
<polygon style="fill: #ff0000; stroke: #000000; stroke-width: 1.000000; stroke-linejoin: miter; stroke-linecap: butt;  opacity: 1.000000" clip-path="url(#-1467158557)" points = "139.888286,251.302473 140.667977,251.425964 141.371346,251.784348 141.929543,252.342545 142.287928,253.045914 142.411418,253.825605 142.287928,254.605296 141.929543,255.308665 141.371346,255.866862 140.667977,256.225247 139.888286,256.348738 139.108595,256.225247 138.405226,255.866862 137.847029,255.308665 137.488644,254.605296 137.365153,253.825605 137.488644,253.045914 137.847029,252.342545 138.405226,251.784348 139.108595,251.425964"/>
<polygon style="fill: #ff0000; stroke: #000000; stroke-width: 1.000000; stroke-linejoin: miter; stroke-linecap: butt;  opacity: 1.000000" clip-path="url(#-1467158557)" points = "195.532132,240.634199 196.311823,240.757690 197.015192,241.116074 197.573389,241.674271 197.931774,242.377641 198.055265,243.157332 197.931774,243.937022 197.573389,244.640392 197.015192,245.198589 196.311823,245.556973 195.532132,245.680464 194.752441,245.556973 194.049072,245.198589 193.490875,244.640392 193.132491,243.937022 193.009000,243.157332 193.132491,242.377641 193.490875,241.674271 194.049072,241.116074 194.752441,240.757690"/>
<polygon style="fill: #ff0000; stroke: #000000; stroke-width: 1.000000; stroke-linejoin: miter; stroke-linecap: butt;  opacity: 1.000000" clip-path="url(#-1467158557)" points = "218.032901,158.966834 218.812591,159.090325 219.515961,159.448709 220.074158,160.006906 220.432542,160.710276 220.556033,161.489966 220.432542,162.269657 220.074158,162.973027 219.515961,163.531224 218.812591,163.889608 218.032901,164.013099 217.253210,163.889608 216.549840,163.531224 215.991643,162.973027 215.633259,162.269657 215.509768,161.489966 215.633259,160.710276 215.991643,160.006906 216.549840,159.448709 217.253210,159.090325"/>
<polygon style="fill: #ff0000; stroke: #000000; stroke-width: 1.000000; stroke-linejoin: miter; stroke-linecap: butt;  opacity: 1.000000" clip-path="url(#-1467158557)" points = "184.723146,178.064135 185.502837,178.187625 186.206206,178.546010 186.764403,179.104207 187.122788,179.807576 187.246279,180.587267 187.122788,181.366958 186.764403,182.070327 186.206206,182.628524 185.502837,182.986909 184.723146,183.110400 183.943455,182.986909 183.240086,182.628524 182.681889,182.070327 182.323504,181.366958 182.200013,180.587267 182.323504,179.807576 182.681889,179.104207 183.240086,178.546010 183.943455,178.187625"/>
<polygon style="fill: #ff0000; stroke: #000000; stroke-width: 1.000000; stroke-linejoin: miter; stroke-linecap: butt;  opacity: 1.000000" clip-path="url(#-1467158557)" points = "191.403648,141.174450 192.183339,141.297941 192.886708,141.656325 193.444905,142.214522 193.803289,142.917892 193.926780,143.697583 193.803289,144.477273 193.444905,145.180643 192.886708,145.738840 192.183339,146.097224 191.403648,146.220715 190.623957,146.097224 189.920588,145.738840 189.362391,145.180643 189.004006,144.477273 188.880515,143.697583 189.004006,142.917892 189.362391,142.214522 189.920588,141.656325 190.623957,141.297941"/>
<polygon style="fill: #ff0000; stroke: #000000; stroke-width: 1.000000; stroke-linejoin: miter; stroke-linecap: butt;  opacity: 1.000000" clip-path="url(#-1467158557)" points = "221.699180,256.199727 222.478871,256.323218 223.182240,256.681602 223.740437,257.239799 224.098822,257.943168 224.222312,258.722859 224.098822,259.502550 223.740437,260.205919 223.182240,260.764116 222.478871,261.122501 221.699180,261.245992 220.919489,261.122501 220.216120,260.764116 219.657923,260.205919 219.299538,259.502550 219.176047,258.722859 219.299538,257.943168 219.657923,257.239799 220.216120,256.681602 220.919489,256.323218"/>
<polygon style="fill: #ff0000; stroke: #000000; stroke-width: 1.000000; stroke-linejoin: miter; stroke-linecap: butt;  opacity: 1.000000" clip-path="url(#-1467158557)" points = "221.897264,181.667606 222.676955,181.791097 223.380324,182.149481 223.938521,182.707678 224.296906,183.411048 224.420396,184.190739 224.296906,184.970429 223.938521,185.673799 223.380324,186.231996 222.676955,186.590380 221.897264,186.713871 221.117573,186.590380 220.414204,186.231996 219.856007,185.673799 219.497622,184.970429 219.374131,184.190739 219.497622,183.411048 219.856007,182.707678 220.414204,182.149481 221.117573,181.791097"/>
<polygon style="fill: #ff0000; stroke: #000000; stroke-width: 1.000000; stroke-linejoin: miter; stroke-linecap: butt;  opacity: 1.000000" clip-path="url(#-1467158557)" points = "183.740175,183.322792 184.519866,183.446283 185.223235,183.804667 185.781432,184.362864 186.139817,185.066234 186.263308,185.845924 186.139817,186.625615 185.781432,187.328985 185.223235,187.887182 184.519866,188.245566 183.740175,188.369057 182.960485,188.245566 182.257115,187.887182 181.698918,187.328985 181.340534,186.625615 181.217043,185.845924 181.340534,185.066234 181.698918,184.362864 182.257115,183.804667 182.960485,183.446283"/>
<polygon style="fill: #ff0000; stroke: #000000; stroke-width: 1.000000; stroke-linejoin: miter; stroke-linecap: butt;  opacity: 1.000000" clip-path="url(#-1467158557)" points = "212.827629,175.029440 213.607320,175.152931 214.310689,175.511315 214.868886,176.069512 215.227271,176.772882 215.350761,177.552573 215.227271,178.332263 214.868886,179.035633 214.310689,179.593830 213.607320,179.952214 212.827629,180.075705 212.047938,179.952214 211.344569,179.593830 210.786372,179.035633 210.427987,178.332263 210.304496,177.552573 210.427987,176.772882 210.786372,176.069512 211.344569,175.511315 212.047938,175.152931"/>
<polygon style="fill: #ff0000; stroke: #000000; stroke-width: 1.000000; stroke-linejoin: miter; stroke-linecap: butt;  opacity: 1.000000" clip-path="url(#-1467158557)" points = "167.333739,121.258398 168.113430,121.381888 168.816799,121.740273 169.374996,122.298470 169.733380,123.001839 169.856871,123.781530 169.733380,124.561221 169.374996,125.264590 168.816799,125.822787 168.113430,126.181172 167.333739,126.304663 166.554048,126.181172 165.850679,125.822787 165.292482,125.264590 164.934097,124.561221 164.810606,123.781530 164.934097,123.001839 165.292482,122.298470 165.850679,121.740273 166.554048,121.381888"/>
<polygon style="fill: #ff0000; stroke: #000000; stroke-width: 1.000000; stroke-linejoin: miter; stroke-linecap: butt;  opacity: 1.000000" clip-path="url(#-1467158557)" points = "240.713853,161.935356 241.493543,162.058847 242.196913,162.417231 242.755110,162.975428 243.113494,163.678797 243.236985,164.458488 243.113494,165.238179 242.755110,165.941548 242.196913,166.499745 241.493543,166.858130 240.713853,166.981621 239.934162,166.858130 239.230792,166.499745 238.672595,165.941548 238.314211,165.238179 238.190720,164.458488 238.314211,163.678797 238.672595,162.975428 239.230792,162.417231 239.934162,162.058847"/>
<polygon style="fill: #ff0000; stroke: #000000; stroke-width: 1.000000; stroke-linejoin: miter; stroke-linecap: butt;  opacity: 1.000000" clip-path="url(#-1467158557)" points = "188.859150,140.872989 189.638841,140.996480 190.342210,141.354865 190.900407,141.913062 191.258792,142.616431 191.382283,143.396122 191.258792,144.175813 190.900407,144.879182 190.342210,145.437379 189.638841,145.795763 188.859150,145.919254 188.079459,145.795763 187.376090,145.437379 186.817893,144.879182 186.459509,144.175813 186.336018,143.396122 186.459509,142.616431 186.817893,141.913062 187.376090,141.354865 188.079459,140.996480"/>
<polygon style="fill: #ff0000; stroke: #000000; stroke-width: 1.000000; stroke-linejoin: miter; stroke-linecap: butt;  opacity: 1.000000" clip-path="url(#-1467158557)" points = "260.372212,210.145043 261.151903,210.268534 261.855272,210.626919 262.413469,211.185116 262.771854,211.888485 262.895345,212.668176 262.771854,213.447866 262.413469,214.151236 261.855272,214.709433 261.151903,215.067817 260.372212,215.191308 259.592522,215.067817 258.889152,214.709433 258.330955,214.151236 257.972571,213.447866 257.849080,212.668176 257.972571,211.888485 258.330955,211.185116 258.889152,210.626919 259.592522,210.268534"/>
<polygon style="fill: #ff0000; stroke: #000000; stroke-width: 1.000000; stroke-linejoin: miter; stroke-linecap: butt;  opacity: 1.000000" clip-path="url(#-1467158557)" points = "183.569213,229.393531 184.348904,229.517022 185.052273,229.875407 185.610470,230.433604 185.968854,231.136973 186.092345,231.916664 185.968854,232.696354 185.610470,233.399724 185.052273,233.957921 184.348904,234.316305 183.569213,234.439796 182.789522,234.316305 182.086153,233.957921 181.527956,233.399724 181.169571,232.696354 181.046080,231.916664 181.169571,231.136973 181.527956,230.433604 182.086153,229.875407 182.789522,229.517022"/>
<polygon style="fill: #ff0000; stroke: #000000; stroke-width: 1.000000; stroke-linejoin: miter; stroke-linecap: butt;  opacity: 1.000000" clip-path="url(#-1467158557)" points = "198.767794,183.052328 199.547485,183.175819 200.250854,183.534204 200.809051,184.092401 201.167436,184.795770 201.290927,185.575461 201.167436,186.355152 200.809051,187.058521 200.250854,187.616718 199.547485,187.975103 198.767794,188.098593 197.988104,187.975103 197.284734,187.616718 196.726537,187.058521 196.368153,186.355152 196.244662,185.575461 196.368153,184.795770 196.726537,184.092401 197.284734,183.534204 197.988104,183.175819"/>
<polygon style="fill: #ff0000; stroke: #000000; stroke-width: 1.000000; stroke-linejoin: miter; stroke-linecap: butt;  opacity: 1.000000" clip-path="url(#-1467158557)" points = "148.652360,168.629434 149.432051,168.752925 150.135420,169.111310 150.693617,169.669507 151.052002,170.372876 151.175493,171.152567 151.052002,171.932258 150.693617,172.635627 150.135420,173.193824 149.432051,173.552209 148.652360,173.675700 147.872669,173.552209 147.169300,173.193824 146.611103,172.635627 146.252719,171.932258 146.129228,171.152567 146.252719,170.372876 146.611103,169.669507 147.169300,169.111310 147.872669,168.752925"/>
<polygon style="fill: #ff0000; stroke: #000000; stroke-width: 1.000000; stroke-linejoin: miter; stroke-linecap: butt;  opacity: 1.000000" clip-path="url(#-1467158557)" points = "141.815210,132.531761 142.594901,132.655252 143.298270,133.013637 143.856467,133.571834 144.214852,134.275203 144.338342,135.054894 144.214852,135.834585 143.856467,136.537954 143.298270,137.096151 142.594901,137.454535 141.815210,137.578026 141.035519,137.454535 140.332150,137.096151 139.773953,136.537954 139.415568,135.834585 139.292077,135.054894 139.415568,134.275203 139.773953,133.571834 140.332150,133.013637 141.035519,132.655252"/>
<polygon style="fill: #ff0000; stroke: #000000; stroke-width: 1.000000; stroke-linejoin: miter; stroke-linecap: butt;  opacity: 1.000000" clip-path="url(#-1467158557)" points = "205.817029,203.282787 206.596719,203.406278 207.300089,203.764662 207.858286,204.322859 208.216670,205.026229 208.340161,205.805920 208.216670,206.585610 207.858286,207.288980 207.300089,207.847177 206.596719,208.205561 205.817029,208.329052 205.037338,208.205561 204.333969,207.847177 203.775772,207.288980 203.417387,206.585610 203.293896,205.805920 203.417387,205.026229 203.775772,204.322859 204.333969,203.764662 205.037338,203.406278"/>
</g>
<g id="regpolycollection2">
<polygon style="fill: #008000; stroke: #000000; stroke-width: 1.000000; stroke-linejoin: miter; stroke-linecap: butt;  opacity: 1.000000" clip-path="url(#-1467158557)" points = "200.416841,186.135840 204.787035,193.705238 196.046647,193.705238"/>
</g>
<path style="fill: none; stroke: #000000; stroke-width: 1.000000; stroke-linejoin: miter; stroke-linecap: square;  opacity: 1.000000" clip-path="url(#-1467158557)" d="M 190.957500,86.940000 L 192.691571,86.955133 L 194.425114,87.000527 L 196.157601,87.076169 L 197.888503,87.182036 L 199.617295,87.318095 L 201.343448,87.484304 L 203.066438,87.680614 L 204.785739,87.906965 L 206.500828,88.163286 L 208.211183,88.449502 L 209.916282,88.765523 L 211.615606,89.111254 L 213.308637,89.486590 L 214.994860,89.891417 L 216.673760,90.325610 L 218.344828,90.789038 L 220.007553,91.281559 L 221.661429,91.803025 L 223.305952,92.353274 L 224.940621,92.932141 L 226.564939,93.539449 L 228.178411,94.175012 L 229.780545,94.838638 L 231.370853,95.530123 L 232.948850,96.249258 L 234.514057,96.995824 L 236.065996,97.769592 L 237.604194,98.570327 L 239.128184,99.397786 L 240.637500,100.251716 L 242.131683,101.131857 L 243.610278,102.037941 L 245.072835,102.969692 L 246.518907,103.926827 L 247.948055,104.909053 L 249.359843,105.916071 L 250.753841,106.947576 L 252.129624,108.003252 L 253.486774,109.082777 L 254.824877,110.185824 L 256.143525,111.312056 L 257.442317,112.461130 L 258.720857,113.632696 L 259.978756,114.826397 L 261.215630,116.041870 L 262.431103,117.278744 L 263.624804,118.536643 L 264.796370,119.815183 L 265.945444,121.113975 L 267.071676,122.432623 L 268.174723,123.770726 L 269.254248,125.127876 L 270.309924,126.503659 L 271.341429,127.897657 L 272.348447,129.309445 L 273.330673,130.738593 L 274.287808,132.184665 L 275.219559,133.647222 L 276.125643,135.125817 L 277.005784,136.620000 L 277.859714,138.129316 L 278.687173,139.653306 L 279.487908,141.191504 L 280.261676,142.743443 L 281.008242,144.308650 L 281.727377,145.886647 L 282.418862,147.476955 L 283.082488,149.079089 L 283.718051,150.692561 L 284.325359,152.316879 L 284.904226,153.951548 L 285.454475,155.596071 L 285.975941,157.249947 L 286.468462,158.912672 L 286.931890,160.583740 L 287.366083,162.262640 L 287.770910,163.948863 L 288.146246,165.641894 L 288.491977,167.341218 L 288.807998,169.046317 L 289.094214,170.756672 L 289.350535,172.471761 L 289.576886,174.191062 L 289.773196,175.914052 L 289.939405,177.640205 L 290.075464,179.368997 L 290.181331,181.099899 L 290.256973,182.832386 L 290.302367,184.565929 L 290.317500,186.300000 L 290.302367,188.034071 L 290.256973,189.767614 L 290.181331,191.500101 L 290.075464,193.231003 L 289.939405,194.959795 L 289.773196,196.685948 L 289.576886,198.408938 L 289.350535,200.128239 L 289.094214,201.843328 L 288.807998,203.553683 L 288.491977,205.258782 L 288.146246,206.958106 L 287.770910,208.651137 L 287.366083,210.337360 L 286.931890,212.016260 L 286.468462,213.687328 L 285.975941,215.350053 L 285.454475,217.003929 L 284.904226,218.648452 L 284.325359,220.283121 L 283.718051,221.907439 L 283.082488,223.520911 L 282.418862,225.123045 L 281.727377,226.713353 L 281.008242,228.291350 L 280.261676,229.856557 L 279.487908,231.408496 L 278.687173,232.946694 L 277.859714,234.470684 L 277.005784,235.980000 L 276.125643,237.474183 L 275.219559,238.952778 L 274.287808,240.415335 L 273.330673,241.861407 L 272.348447,243.290555 L 271.341429,244.702343 L 270.309924,246.096341 L 269.254248,247.472124 L 268.174723,248.829274 L 267.071676,250.167377 L 265.945444,251.486025 L 264.796370,252.784817 L 263.624804,254.063357 L 262.431103,255.321256 L 261.215630,256.558130 L 259.978756,257.773603 L 258.720857,258.967304 L 257.442317,260.138870 L 256.143525,261.287944 L 254.824877,262.414176 L 253.486774,263.517223 L 252.129624,264.596748 L 250.753841,265.652424 L 249.359843,266.683929 L 247.948055,267.690947 L 246.518907,268.673173 L 245.072835,269.630308 L 243.610278,270.562059 L 242.131683,271.468143 L 240.637500,272.348284 L 239.128184,273.202214 L 237.604194,274.029673 L 236.065996,274.830408 L 234.514057,275.604176 L 232.948850,276.350742 L 231.370853,277.069877 L 229.780545,277.761362 L 228.178411,278.424988 L 226.564939,279.060551 L 224.940621,279.667859 L 223.305952,280.246726 L 221.661429,280.796975 L 220.007553,281.318441 L 218.344828,281.810962 L 216.673760,282.274390 L 214.994860,282.708583 L 213.308637,283.113410 L 211.615606,283.488746 L 209.916282,283.834477 L 208.211183,284.150498 L 206.500828,284.436714 L 204.785739,284.693035 L 203.066438,284.919386 L 201.343448,285.115696 L 199.617295,285.281905 L 197.888503,285.417964 L 196.157601,285.523831 L 194.425114,285.599473 L 192.691571,285.644867 L 190.957500,285.660000 L 189.223429,285.644867 L 187.489886,285.599473 L 185.757399,285.523831 L 184.026497,285.417964 L 182.297705,285.281905 L 180.571552,285.115696 L 178.848562,284.919386 L 177.129261,284.693035 L 175.414172,284.436714 L 173.703817,284.150498 L 171.998718,283.834477 L 170.299394,283.488746 L 168.606363,283.113410 L 166.920140,282.708583 L 165.241240,282.274390 L 163.570172,281.810962 L 161.907447,281.318441 L 160.253571,280.796975 L 158.609048,280.246726 L 156.974379,279.667859 L 155.350061,279.060551 L 153.736589,278.424988 L 152.134455,277.761362 L 150.544147,277.069877 L 148.966150,276.350742 L 147.400943,275.604176 L 145.849004,274.830408 L 144.310806,274.029673 L 142.786816,273.202214 L 141.277500,272.348284 L 139.783317,271.468143 L 138.304722,270.562059 L 136.842165,269.630308 L 135.396093,268.673173 L 133.966945,267.690947 L 132.555157,266.683929 L 131.161159,265.652424 L 129.785376,264.596748 L 128.428226,263.517223 L 127.090123,262.414176 L 125.771475,261.287944 L 124.472683,260.138870 L 123.194143,258.967304 L 121.936244,257.773603 L 120.699370,256.558130 L 119.483897,255.321256 L 118.290196,254.063357 L 117.118630,252.784817 L 115.969556,251.486025 L 114.843324,250.167377 L 113.740277,248.829274 L 112.660752,247.472124 L 111.605076,246.096341 L 110.573571,244.702343 L 109.566553,243.290555 L 108.584327,241.861407 L 107.627192,240.415335 L 106.695441,238.952778 L 105.789357,237.474183 L 104.909216,235.980000 L 104.055286,234.470684 L 103.227827,232.946694 L 102.427092,231.408496 L 101.653324,229.856557 L 100.906758,228.291350 L 100.187623,226.713353 L 99.496138,225.123045 L 98.832512,223.520911 L 98.196949,221.907439 L 97.589641,220.283121 L 97.010774,218.648452 L 96.460525,217.003929 L 95.939059,215.350053 L 95.446538,213.687328 L 94.983110,212.016260 L 94.548917,210.337360 L 94.144090,208.651137 L 93.768754,206.958106 L 93.423023,205.258782 L 93.107002,203.553683 L 92.820786,201.843328 L 92.564465,200.128239 L 92.338114,198.408938 L 92.141804,196.685948 L 91.975595,194.959795 L 91.839536,193.231003 L 91.733669,191.500101 L 91.658027,189.767614 L 91.612633,188.034071 L 91.597500,186.300000 L 91.612633,184.565929 L 91.658027,182.832386 L 91.733669,181.099899 L 91.839536,179.368997 L 91.975595,177.640205 L 92.141804,175.914052 L 92.338114,174.191062 L 92.564465,172.471761 L 92.820786,170.756672 L 93.107002,169.046317 L 93.423023,167.341218 L 93.768754,165.641894 L 94.144090,163.948863 L 94.548917,162.262640 L 94.983110,160.583740 L 95.446538,158.912672 L 95.939059,157.249947 L 96.460525,155.596071 L 97.010774,153.951548 L 97.589641,152.316879 L 98.196949,150.692561 L 98.832512,149.079089 L 99.496138,147.476955 L 100.187623,145.886647 L 100.906758,144.308650 L 101.653324,142.743443 L 102.427092,141.191504 L 103.227827,139.653306 L 104.055286,138.129316 L 104.909216,136.620000 L 105.789357,135.125817 L 106.695441,133.647222 L 107.627192,132.184665 L 108.584327,130.738593 L 109.566553,129.309445 L 110.573571,127.897657 L 111.605076,126.503659 L 112.660752,125.127876 L 113.740277,123.770726 L 114.843324,122.432623 L 115.969556,121.113975 L 117.118630,119.815183 L 118.290196,118.536643 L 119.483897,117.278744 L 120.699370,116.041870 L 121.936244,114.826397 L 123.194143,113.632696 L 124.472683,112.461130 L 125.771475,111.312056 L 127.090123,110.185824 L 128.428226,109.082777 L 129.785376,108.003252 L 131.161159,106.947576 L 132.555157,105.916071 L 133.966945,104.909053 L 135.396093,103.926827 L 136.842165,102.969692 L 138.304722,102.037941 L 139.783317,101.131857 L 141.277500,100.251716 L 142.786816,99.397786 L 144.310806,98.570327 L 145.849004,97.769592 L 147.400943,96.995824 L 148.966150,96.249258 L 150.544147,95.530123 L 152.134455,94.838638 L 153.736589,94.175012 L 155.350061,93.539449 L 156.974379,92.932141 L 158.609048,92.353274 L 160.253571,91.803025 L 161.907447,91.281559 L 163.570172,90.789038 L 165.241240,90.325610 L 166.920140,89.891417 L 168.606363,89.486590 L 170.299394,89.111254 L 171.998718,88.765523 L 173.703817,88.449502 L 175.414172,88.163286 L 177.129261,87.906965 L 178.848562,87.680614 L 180.571552,87.484304 L 182.297705,87.318095 L 184.026497,87.182036 L 185.757399,87.076169 L 187.489886,87.000527 L 189.223429,86.955133 L 190.957500,86.940000 "/>
<path style="fill: none; stroke: #000000; stroke-width: 0.500000; stroke-linejoin: miter; stroke-linecap: butt;  opacity: 1.000000" clip-path="url(#-1467158557)" d="M 278.279611,186.300000 L 284.279611,186.300000"/>
<path style="fill: none; stroke: #000000; stroke-width: 0.500000; stroke-linejoin: miter; stroke-linecap: butt;  opacity: 1.000000" clip-path="url(#-1467158557)" d="M 281.279611,189.300000 L 281.279611,183.300000"/>
<path style="fill: none; stroke: #000000; stroke-width: 0.500000; stroke-linejoin: miter; stroke-linecap: butt;  opacity: 1.000000" clip-path="url(#-1467158557)" d="M 268.554315,186.300000 L 274.554315,186.300000"/>
<path style="fill: none; stroke: #000000; stroke-width: 0.500000; stroke-linejoin: miter; stroke-linecap: butt;  opacity: 1.000000" clip-path="url(#-1467158557)" d="M 271.554315,189.300000 L 271.554315,183.300000"/>
<path style="fill: none; stroke: #000000; stroke-width: 0.500000; stroke-linejoin: miter; stroke-linecap: butt;  opacity: 1.000000" clip-path="url(#-1467158557)" d="M 258.215630,186.300000 L 264.215630,186.300000"/>
<path style="fill: none; stroke: #000000; stroke-width: 0.500000; stroke-linejoin: miter; stroke-linecap: butt;  opacity: 1.000000" clip-path="url(#-1467158557)" d="M 261.215630,189.300000 L 261.215630,183.300000"/>
<path style="fill: none; stroke: #000000; stroke-width: 0.500000; stroke-linejoin: miter; stroke-linecap: butt;  opacity: 1.000000" clip-path="url(#-1467158557)" d="M 247.342237,186.300000 L 253.342237,186.300000"/>
<path style="fill: none; stroke: #000000; stroke-width: 0.500000; stroke-linejoin: miter; stroke-linecap: butt;  opacity: 1.000000" clip-path="url(#-1467158557)" d="M 250.342237,189.300000 L 250.342237,183.300000"/>
<path style="fill: none; stroke: #000000; stroke-width: 0.500000; stroke-linejoin: miter; stroke-linecap: butt;  opacity: 1.000000" clip-path="url(#-1467158557)" d="M 236.016891,186.300000 L 242.016891,186.300000"/>
<path style="fill: none; stroke: #000000; stroke-width: 0.500000; stroke-linejoin: miter; stroke-linecap: butt;  opacity: 1.000000" clip-path="url(#-1467158557)" d="M 239.016891,189.300000 L 239.016891,183.300000"/>
<path style="fill: none; stroke: #000000; stroke-width: 0.500000; stroke-linejoin: miter; stroke-linecap: butt;  opacity: 1.000000" clip-path="url(#-1467158557)" d="M 224.325784,186.300000 L 230.325784,186.300000"/>
<path style="fill: none; stroke: #000000; stroke-width: 0.500000; stroke-linejoin: miter; stroke-linecap: butt;  opacity: 1.000000" clip-path="url(#-1467158557)" d="M 227.325784,189.300000 L 227.325784,183.300000"/>
<path style="fill: none; stroke: #000000; stroke-width: 0.500000; stroke-linejoin: miter; stroke-linecap: butt;  opacity: 1.000000" clip-path="url(#-1467158557)" d="M 212.357892,186.300000 L 218.357892,186.300000"/>
<path style="fill: none; stroke: #000000; stroke-width: 0.500000; stroke-linejoin: miter; stroke-linecap: butt;  opacity: 1.000000" clip-path="url(#-1467158557)" d="M 215.357892,189.300000 L 215.357892,183.300000"/>
<path style="fill: none; stroke: #000000; stroke-width: 0.500000; stroke-linejoin: miter; stroke-linecap: butt;  opacity: 1.000000" clip-path="url(#-1467158557)" d="M 200.204299,186.300000 L 206.204299,186.300000"/>
<path style="fill: none; stroke: #000000; stroke-width: 0.500000; stroke-linejoin: miter; stroke-linecap: butt;  opacity: 1.000000" clip-path="url(#-1467158557)" d="M 203.204299,189.300000 L 203.204299,183.300000"/>
<path style="fill: none; stroke: #000000; stroke-width: 0.500000; stroke-linejoin: miter; stroke-linecap: butt;  opacity: 1.000000" clip-path="url(#-1467158557)" d="M 187.957500,186.300000 L 193.957500,186.300000"/>
<path style="fill: none; stroke: #000000; stroke-width: 0.500000; stroke-linejoin: miter; stroke-linecap: butt;  opacity: 1.000000" clip-path="url(#-1467158557)" d="M 190.957500,189.300000 L 190.957500,183.300000"/>
<path style="fill: none; stroke: #000000; stroke-width: 1.000000; stroke-linejoin: miter; stroke-linecap: square;  opacity: 1.000000" clip-path="url(#-1467158557)" d="M 190.957500,86.940000 L 190.957500,87.810852 L 190.957500,88.689204 L 190.957500,89.574990 "/>
<path style="fill: none; stroke: #000000; stroke-width: 1.000000; stroke-linejoin: miter; stroke-linecap: square;  opacity: 1.000000" clip-path="url(#-1467158557)" d="M 208.211183,88.449502 L 208.059961,89.307123 L 207.907437,90.172131 L 207.753622,91.044460 "/>
<path style="fill: none; stroke: #000000; stroke-width: 1.000000; stroke-linejoin: miter; stroke-linecap: square;  opacity: 1.000000" clip-path="url(#-1467158557)" d="M 224.940621,92.932141 L 224.642773,93.750474 L 224.342358,94.575855 L 224.039402,95.408222 "/>
<path style="fill: none; stroke: #000000; stroke-width: 1.000000; stroke-linejoin: miter; stroke-linecap: square;  opacity: 1.000000" clip-path="url(#-1467158557)" d="M 240.637500,100.251716 L 240.202074,101.005896 L 239.762898,101.766571 L 239.320005,102.533684 "/>
<path style="fill: none; stroke: #000000; stroke-width: 1.000000; stroke-linejoin: miter; stroke-linecap: square;  opacity: 1.000000" clip-path="url(#-1467158557)" d="M 254.824877,110.185824 L 254.265104,110.852935 L 253.700510,111.525792 L 253.131138,112.204343 "/>
<path style="fill: none; stroke: #000000; stroke-width: 1.000000; stroke-linejoin: miter; stroke-linecap: square;  opacity: 1.000000" clip-path="url(#-1467158557)" d="M 267.071676,122.432623 L 266.404565,122.992396 L 265.731708,123.556990 L 265.053157,124.126362 "/>
<path style="fill: none; stroke: #000000; stroke-width: 1.000000; stroke-linejoin: miter; stroke-linecap: square;  opacity: 1.000000" clip-path="url(#-1467158557)" d="M 277.005784,136.620000 L 276.251604,137.055426 L 275.490929,137.494602 L 274.723816,137.937495 "/>
<path style="fill: none; stroke: #000000; stroke-width: 1.000000; stroke-linejoin: miter; stroke-linecap: square;  opacity: 1.000000" clip-path="url(#-1467158557)" d="M 284.325359,152.316879 L 283.507026,152.614727 L 282.681645,152.915142 L 281.849278,153.218098 "/>
<path style="fill: none; stroke: #000000; stroke-width: 1.000000; stroke-linejoin: miter; stroke-linecap: square;  opacity: 1.000000" clip-path="url(#-1467158557)" d="M 288.807998,169.046317 L 287.950377,169.197539 L 287.085369,169.350063 L 286.213040,169.503878 "/>
<path style="fill: none; stroke: #000000; stroke-width: 1.000000; stroke-linejoin: miter; stroke-linecap: square;  opacity: 1.000000" clip-path="url(#-1467158557)" d="M 290.317500,186.300000 L 289.446648,186.300000 L 288.568296,186.300000 L 287.682510,186.300000 "/>
<path style="fill: none; stroke: #000000; stroke-width: 1.000000; stroke-linejoin: miter; stroke-linecap: square;  opacity: 1.000000" clip-path="url(#-1467158557)" d="M 288.807998,203.553683 L 287.950377,203.402461 L 287.085369,203.249937 L 286.213040,203.096122 "/>
<path style="fill: none; stroke: #000000; stroke-width: 1.000000; stroke-linejoin: miter; stroke-linecap: square;  opacity: 1.000000" clip-path="url(#-1467158557)" d="M 284.325359,220.283121 L 283.507026,219.985273 L 282.681645,219.684858 L 281.849278,219.381902 "/>
<path style="fill: none; stroke: #000000; stroke-width: 1.000000; stroke-linejoin: miter; stroke-linecap: square;  opacity: 1.000000" clip-path="url(#-1467158557)" d="M 277.005784,235.980000 L 276.251604,235.544574 L 275.490929,235.105398 L 274.723816,234.662505 "/>
<path style="fill: none; stroke: #000000; stroke-width: 1.000000; stroke-linejoin: miter; stroke-linecap: square;  opacity: 1.000000" clip-path="url(#-1467158557)" d="M 267.071676,250.167377 L 266.404565,249.607604 L 265.731708,249.043010 L 265.053157,248.473638 "/>
<path style="fill: none; stroke: #000000; stroke-width: 1.000000; stroke-linejoin: miter; stroke-linecap: square;  opacity: 1.000000" clip-path="url(#-1467158557)" d="M 254.824877,262.414176 L 254.265104,261.747065 L 253.700510,261.074208 L 253.131138,260.395657 "/>
<path style="fill: none; stroke: #000000; stroke-width: 1.000000; stroke-linejoin: miter; stroke-linecap: square;  opacity: 1.000000" clip-path="url(#-1467158557)" d="M 240.637500,272.348284 L 240.202074,271.594104 L 239.762898,270.833429 L 239.320005,270.066316 "/>
<path style="fill: none; stroke: #000000; stroke-width: 1.000000; stroke-linejoin: miter; stroke-linecap: square;  opacity: 1.000000" clip-path="url(#-1467158557)" d="M 224.940621,279.667859 L 224.642773,278.849526 L 224.342358,278.024145 L 224.039402,277.191778 "/>
<path style="fill: none; stroke: #000000; stroke-width: 1.000000; stroke-linejoin: miter; stroke-linecap: square;  opacity: 1.000000" clip-path="url(#-1467158557)" d="M 208.211183,284.150498 L 208.059961,283.292877 L 207.907437,282.427869 L 207.753622,281.555540 "/>
<path style="fill: none; stroke: #000000; stroke-width: 1.000000; stroke-linejoin: miter; stroke-linecap: square;  opacity: 1.000000" clip-path="url(#-1467158557)" d="M 190.957500,285.660000 L 190.957500,284.789148 L 190.957500,283.910796 L 190.957500,283.025010 "/>
<path style="fill: none; stroke: #000000; stroke-width: 1.000000; stroke-linejoin: miter; stroke-linecap: square;  opacity: 1.000000" clip-path="url(#-1467158557)" d="M 173.703817,284.150498 L 173.855039,283.292877 L 174.007563,282.427869 L 174.161378,281.555540 "/>
<path style="fill: none; stroke: #000000; stroke-width: 1.000000; stroke-linejoin: miter; stroke-linecap: square;  opacity: 1.000000" clip-path="url(#-1467158557)" d="M 156.974379,279.667859 L 157.272227,278.849526 L 157.572642,278.024145 L 157.875598,277.191778 "/>
<path style="fill: none; stroke: #000000; stroke-width: 1.000000; stroke-linejoin: miter; stroke-linecap: square;  opacity: 1.000000" clip-path="url(#-1467158557)" d="M 141.277500,272.348284 L 141.712926,271.594104 L 142.152102,270.833429 L 142.594995,270.066316 "/>
<path style="fill: none; stroke: #000000; stroke-width: 1.000000; stroke-linejoin: miter; stroke-linecap: square;  opacity: 1.000000" clip-path="url(#-1467158557)" d="M 127.090123,262.414176 L 127.649896,261.747065 L 128.214490,261.074208 L 128.783862,260.395657 "/>
<path style="fill: none; stroke: #000000; stroke-width: 1.000000; stroke-linejoin: miter; stroke-linecap: square;  opacity: 1.000000" clip-path="url(#-1467158557)" d="M 114.843324,250.167377 L 115.510435,249.607604 L 116.183292,249.043010 L 116.861843,248.473638 "/>
<path style="fill: none; stroke: #000000; stroke-width: 1.000000; stroke-linejoin: miter; stroke-linecap: square;  opacity: 1.000000" clip-path="url(#-1467158557)" d="M 104.909216,235.980000 L 105.663396,235.544574 L 106.424071,235.105398 L 107.191184,234.662505 "/>
<path style="fill: none; stroke: #000000; stroke-width: 1.000000; stroke-linejoin: miter; stroke-linecap: square;  opacity: 1.000000" clip-path="url(#-1467158557)" d="M 97.589641,220.283121 L 98.407974,219.985273 L 99.233355,219.684858 L 100.065722,219.381902 "/>
<path style="fill: none; stroke: #000000; stroke-width: 1.000000; stroke-linejoin: miter; stroke-linecap: square;  opacity: 1.000000" clip-path="url(#-1467158557)" d="M 93.107002,203.553683 L 93.964623,203.402461 L 94.829631,203.249937 L 95.701960,203.096122 "/>
<path style="fill: none; stroke: #000000; stroke-width: 1.000000; stroke-linejoin: miter; stroke-linecap: square;  opacity: 1.000000" clip-path="url(#-1467158557)" d="M 91.597500,186.300000 L 92.468352,186.300000 L 93.346704,186.300000 L 94.232490,186.300000 "/>
<path style="fill: none; stroke: #000000; stroke-width: 1.000000; stroke-linejoin: miter; stroke-linecap: square;  opacity: 1.000000" clip-path="url(#-1467158557)" d="M 93.107002,169.046317 L 93.964623,169.197539 L 94.829631,169.350063 L 95.701960,169.503878 "/>
<path style="fill: none; stroke: #000000; stroke-width: 1.000000; stroke-linejoin: miter; stroke-linecap: square;  opacity: 1.000000" clip-path="url(#-1467158557)" d="M 97.589641,152.316879 L 98.407974,152.614727 L 99.233355,152.915142 L 100.065722,153.218098 "/>
<path style="fill: none; stroke: #000000; stroke-width: 1.000000; stroke-linejoin: miter; stroke-linecap: square;  opacity: 1.000000" clip-path="url(#-1467158557)" d="M 104.909216,136.620000 L 105.663396,137.055426 L 106.424071,137.494602 L 107.191184,137.937495 "/>
<path style="fill: none; stroke: #000000; stroke-width: 1.000000; stroke-linejoin: miter; stroke-linecap: square;  opacity: 1.000000" clip-path="url(#-1467158557)" d="M 114.843324,122.432623 L 115.510435,122.992396 L 116.183292,123.556990 L 116.861843,124.126362 "/>
<path style="fill: none; stroke: #000000; stroke-width: 1.000000; stroke-linejoin: miter; stroke-linecap: square;  opacity: 1.000000" clip-path="url(#-1467158557)" d="M 127.090123,110.185824 L 127.649896,110.852935 L 128.214490,111.525792 L 128.783862,112.204343 "/>
<path style="fill: none; stroke: #000000; stroke-width: 1.000000; stroke-linejoin: miter; stroke-linecap: square;  opacity: 1.000000" clip-path="url(#-1467158557)" d="M 141.277500,100.251716 L 141.712926,101.005896 L 142.152102,101.766571 L 142.594995,102.533684 "/>
<path style="fill: none; stroke: #000000; stroke-width: 1.000000; stroke-linejoin: miter; stroke-linecap: square;  opacity: 1.000000" clip-path="url(#-1467158557)" d="M 156.974379,92.932141 L 157.272227,93.750474 L 157.572642,94.575855 L 157.875598,95.408222 "/>
<path style="fill: none; stroke: #000000; stroke-width: 1.000000; stroke-linejoin: miter; stroke-linecap: square;  opacity: 1.000000" clip-path="url(#-1467158557)" d="M 173.703817,88.449502 L 173.855039,89.307123 L 174.007563,90.172131 L 174.161378,91.044460 "/>
<path style="fill: none; stroke: #000000; stroke-width: 0.500000; stroke-linejoin: miter; stroke-linecap: square;  opacity: 1.000000" clip-path="url(#-1467158557)" d="M 81.661500,295.596000 L 300.253500,295.596000 L 300.253500,77.004000 L 81.661500,77.004000 L 81.661500,295.596000 "/>
<ellipse style="fill: #0000ff; stroke: #0000ff; stroke-width: 0.500000; stroke-linejoin: miter; stroke-linecap: butt;  opacity: 1.000000" clip-path="url(#-1467158557)" cx="221.790788" cy="202.213513" rx="0.500000" ry="0.000000" transform="rotate(0.000000 221.790788 202.213513)"/>
<ellipse style="fill: #0000ff; stroke: #0000ff; stroke-width: 0.500000; stroke-linejoin: miter; stroke-linecap: butt;  opacity: 1.000000" clip-path="url(#-1467158557)" cx="221.424319" cy="202.896806" rx="0.500000" ry="0.000000" transform="rotate(0.000000 221.424319 202.896806)"/>
<ellipse style="fill: #0000ff; stroke: #0000ff; stroke-width: 0.500000; stroke-linejoin: miter; stroke-linecap: butt;  opacity: 1.000000" clip-path="url(#-1467158557)" cx="221.036414" cy="203.568139" rx="0.500000" ry="0.000000" transform="rotate(0.000000 221.036414 203.568139)"/>
<ellipse style="fill: #0000ff; stroke: #0000ff; stroke-width: 0.500000; stroke-linejoin: miter; stroke-linecap: butt;  opacity: 1.000000" clip-path="url(#-1467158557)" cx="220.627472" cy="204.226823" rx="0.500000" ry="0.000000" transform="rotate(0.000000 220.627472 204.226823)"/>
<ellipse style="fill: #0000ff; stroke: #0000ff; stroke-width: 0.500000; stroke-linejoin: miter; stroke-linecap: butt;  opacity: 1.000000" clip-path="url(#-1467158557)" cx="220.197917" cy="204.872183" rx="0.500000" ry="0.000000" transform="rotate(0.000000 220.197917 204.872183)"/>
<ellipse style="fill: #0000ff; stroke: #0000ff; stroke-width: 0.500000; stroke-linejoin: miter; stroke-linecap: butt;  opacity: 1.000000" clip-path="url(#-1467158557)" cx="219.748191" cy="205.503558" rx="0.500000" ry="0.000000" transform="rotate(0.000000 219.748191 205.503558)"/>
<ellipse style="fill: #0000ff; stroke: #0000ff; stroke-width: 0.500000; stroke-linejoin: miter; stroke-linecap: butt;  opacity: 1.000000" clip-path="url(#-1467158557)" cx="219.278761" cy="206.120302" rx="0.500000" ry="0.000000" transform="rotate(0.000000 219.278761 206.120302)"/>
<ellipse style="fill: #0000ff; stroke: #0000ff; stroke-width: 0.500000; stroke-linejoin: miter; stroke-linecap: butt;  opacity: 1.000000" clip-path="url(#-1467158557)" cx="218.790113" cy="206.721786" rx="0.500000" ry="0.000000" transform="rotate(0.000000 218.790113 206.721786)"/>
<ellipse style="fill: #0000ff; stroke: #0000ff; stroke-width: 0.500000; stroke-linejoin: miter; stroke-linecap: butt;  opacity: 1.000000" clip-path="url(#-1467158557)" cx="218.282754" cy="207.307395" rx="0.500000" ry="0.000000" transform="rotate(0.000000 218.282754 207.307395)"/>
<ellipse style="fill: #0000ff; stroke: #0000ff; stroke-width: 0.500000; stroke-linejoin: miter; stroke-linecap: butt;  opacity: 1.000000" clip-path="url(#-1467158557)" cx="217.757210" cy="207.876535" rx="0.500000" ry="0.000000" transform="rotate(0.000000 217.757210 207.876535)"/>
<ellipse style="fill: #0000ff; stroke: #0000ff; stroke-width: 0.500000; stroke-linejoin: miter; stroke-linecap: butt;  opacity: 1.000000" clip-path="url(#-1467158557)" cx="217.214026" cy="208.428627" rx="0.500000" ry="0.000000" transform="rotate(0.000000 217.214026 208.428627)"/>
<ellipse style="fill: #0000ff; stroke: #0000ff; stroke-width: 0.500000; stroke-linejoin: miter; stroke-linecap: butt;  opacity: 1.000000" clip-path="url(#-1467158557)" cx="216.653766" cy="208.963111" rx="0.500000" ry="0.000000" transform="rotate(0.000000 216.653766 208.963111)"/>
<ellipse style="fill: #0000ff; stroke: #0000ff; stroke-width: 0.500000; stroke-linejoin: miter; stroke-linecap: butt;  opacity: 1.000000" clip-path="url(#-1467158557)" cx="216.077012" cy="209.479448" rx="0.500000" ry="0.000000" transform="rotate(0.000000 216.077012 209.479448)"/>
<ellipse style="fill: #0000ff; stroke: #0000ff; stroke-width: 0.500000; stroke-linejoin: miter; stroke-linecap: butt;  opacity: 1.000000" clip-path="url(#-1467158557)" cx="215.484362" cy="209.977116" rx="0.500000" ry="0.000000" transform="rotate(0.000000 215.484362 209.977116)"/>
<ellipse style="fill: #0000ff; stroke: #0000ff; stroke-width: 0.500000; stroke-linejoin: miter; stroke-linecap: butt;  opacity: 1.000000" clip-path="url(#-1467158557)" cx="214.876431" cy="210.455616" rx="0.500000" ry="0.000000" transform="rotate(0.000000 214.876431 210.455616)"/>
<ellipse style="fill: #0000ff; stroke: #0000ff; stroke-width: 0.500000; stroke-linejoin: miter; stroke-linecap: butt;  opacity: 1.000000" clip-path="url(#-1467158557)" cx="214.253849" cy="210.914467" rx="0.500000" ry="0.000000" transform="rotate(0.000000 214.253849 210.914467)"/>
<ellipse style="fill: #0000ff; stroke: #0000ff; stroke-width: 0.500000; stroke-linejoin: miter; stroke-linecap: butt;  opacity: 1.000000" clip-path="url(#-1467158557)" cx="213.617261" cy="211.353213" rx="0.500000" ry="0.000000" transform="rotate(0.000000 213.617261 211.353213)"/>
<ellipse style="fill: #0000ff; stroke: #0000ff; stroke-width: 0.500000; stroke-linejoin: miter; stroke-linecap: butt;  opacity: 1.000000" clip-path="url(#-1467158557)" cx="212.967328" cy="211.771416" rx="0.500000" ry="0.000000" transform="rotate(0.000000 212.967328 211.771416)"/>
<ellipse style="fill: #0000ff; stroke: #0000ff; stroke-width: 0.500000; stroke-linejoin: miter; stroke-linecap: butt;  opacity: 1.000000" clip-path="url(#-1467158557)" cx="212.304720" cy="212.168664" rx="0.500000" ry="0.000000" transform="rotate(0.000000 212.304720 212.168664)"/>
<ellipse style="fill: #0000ff; stroke: #0000ff; stroke-width: 0.500000; stroke-linejoin: miter; stroke-linecap: butt;  opacity: 1.000000" clip-path="url(#-1467158557)" cx="211.630124" cy="212.544564" rx="0.500000" ry="0.000000" transform="rotate(0.000000 211.630124 212.544564)"/>
<ellipse style="fill: #0000ff; stroke: #0000ff; stroke-width: 0.500000; stroke-linejoin: miter; stroke-linecap: butt;  opacity: 1.000000" clip-path="url(#-1467158557)" cx="210.944236" cy="212.898748" rx="0.500000" ry="0.000000" transform="rotate(0.000000 210.944236 212.898748)"/>
<ellipse style="fill: #0000ff; stroke: #0000ff; stroke-width: 0.500000; stroke-linejoin: miter; stroke-linecap: butt;  opacity: 1.000000" clip-path="url(#-1467158557)" cx="210.247763" cy="213.230872" rx="0.500000" ry="0.000000" transform="rotate(0.000000 210.247763 213.230872)"/>
<ellipse style="fill: #0000ff; stroke: #0000ff; stroke-width: 0.500000; stroke-linejoin: miter; stroke-linecap: butt;  opacity: 1.000000" clip-path="url(#-1467158557)" cx="209.541424" cy="213.540615" rx="0.500000" ry="0.000000" transform="rotate(0.000000 209.541424 213.540615)"/>
<ellipse style="fill: #0000ff; stroke: #0000ff; stroke-width: 0.500000; stroke-linejoin: miter; stroke-linecap: butt;  opacity: 1.000000" clip-path="url(#-1467158557)" cx="208.825946" cy="213.827679" rx="0.500000" ry="0.000000" transform="rotate(0.000000 208.825946 213.827679)"/>
<ellipse style="fill: #0000ff; stroke: #0000ff; stroke-width: 0.500000; stroke-linejoin: miter; stroke-linecap: butt;  opacity: 1.000000" clip-path="url(#-1467158557)" cx="208.102063" cy="214.091792" rx="0.500000" ry="0.000000" transform="rotate(0.000000 208.102063 214.091792)"/>
<ellipse style="fill: #0000ff; stroke: #0000ff; stroke-width: 0.500000; stroke-linejoin: miter; stroke-linecap: butt;  opacity: 1.000000" clip-path="url(#-1467158557)" cx="207.370518" cy="214.332705" rx="0.500000" ry="0.000000" transform="rotate(0.000000 207.370518 214.332705)"/>
<ellipse style="fill: #0000ff; stroke: #0000ff; stroke-width: 0.500000; stroke-linejoin: miter; stroke-linecap: butt;  opacity: 1.000000" clip-path="url(#-1467158557)" cx="206.632061" cy="214.550196" rx="0.500000" ry="0.000000" transform="rotate(0.000000 206.632061 214.550196)"/>
<ellipse style="fill: #0000ff; stroke: #0000ff; stroke-width: 0.500000; stroke-linejoin: miter; stroke-linecap: butt;  opacity: 1.000000" clip-path="url(#-1467158557)" cx="205.887447" cy="214.744064" rx="0.500000" ry="0.000000" transform="rotate(0.000000 205.887447 214.744064)"/>
<ellipse style="fill: #0000ff; stroke: #0000ff; stroke-width: 0.500000; stroke-linejoin: miter; stroke-linecap: butt;  opacity: 1.000000" clip-path="url(#-1467158557)" cx="205.137437" cy="214.914136" rx="0.500000" ry="0.000000" transform="rotate(0.000000 205.137437 214.914136)"/>
<ellipse style="fill: #0000ff; stroke: #0000ff; stroke-width: 0.500000; stroke-linejoin: miter; stroke-linecap: butt;  opacity: 1.000000" clip-path="url(#-1467158557)" cx="204.382795" cy="215.060264" rx="0.500000" ry="0.000000" transform="rotate(0.000000 204.382795 215.060264)"/>
<ellipse style="fill: #0000ff; stroke: #0000ff; stroke-width: 0.500000; stroke-linejoin: miter; stroke-linecap: butt;  opacity: 1.000000" clip-path="url(#-1467158557)" cx="203.624289" cy="215.182323" rx="0.500000" ry="0.000000" transform="rotate(0.000000 203.624289 215.182323)"/>
<ellipse style="fill: #0000ff; stroke: #0000ff; stroke-width: 0.500000; stroke-linejoin: miter; stroke-linecap: butt;  opacity: 1.000000" clip-path="url(#-1467158557)" cx="202.862689" cy="215.280215" rx="0.500000" ry="0.000000" transform="rotate(0.000000 202.862689 215.280215)"/>
<ellipse style="fill: #0000ff; stroke: #0000ff; stroke-width: 0.500000; stroke-linejoin: miter; stroke-linecap: butt;  opacity: 1.000000" clip-path="url(#-1467158557)" cx="202.098767" cy="215.353868" rx="0.500000" ry="0.000000" transform="rotate(0.000000 202.098767 215.353868)"/>
<ellipse style="fill: #0000ff; stroke: #0000ff; stroke-width: 0.500000; stroke-linejoin: miter; stroke-linecap: butt;  opacity: 1.000000" clip-path="url(#-1467158557)" cx="201.333295" cy="215.403231" rx="0.500000" ry="0.000000" transform="rotate(0.000000 201.333295 215.403231)"/>
<ellipse style="fill: #0000ff; stroke: #0000ff; stroke-width: 0.500000; stroke-linejoin: miter; stroke-linecap: butt;  opacity: 1.000000" clip-path="url(#-1467158557)" cx="200.567046" cy="215.428284" rx="0.500000" ry="0.000000" transform="rotate(0.000000 200.567046 215.428284)"/>
<ellipse style="fill: #0000ff; stroke: #0000ff; stroke-width: 0.500000; stroke-linejoin: miter; stroke-linecap: butt;  opacity: 1.000000" clip-path="url(#-1467158557)" cx="199.800791" cy="215.429026" rx="0.500000" ry="0.000000" transform="rotate(0.000000 199.800791 215.429026)"/>
<ellipse style="fill: #0000ff; stroke: #0000ff; stroke-width: 0.500000; stroke-linejoin: miter; stroke-linecap: butt;  opacity: 1.000000" clip-path="url(#-1467158557)" cx="199.035301" cy="215.405486" rx="0.500000" ry="0.000000" transform="rotate(0.000000 199.035301 215.405486)"/>
<ellipse style="fill: #0000ff; stroke: #0000ff; stroke-width: 0.500000; stroke-linejoin: miter; stroke-linecap: butt;  opacity: 1.000000" clip-path="url(#-1467158557)" cx="198.271342" cy="215.357715" rx="0.500000" ry="0.000000" transform="rotate(0.000000 198.271342 215.357715)"/>
<ellipse style="fill: #0000ff; stroke: #0000ff; stroke-width: 0.500000; stroke-linejoin: miter; stroke-linecap: butt;  opacity: 1.000000" clip-path="url(#-1467158557)" cx="197.509679" cy="215.285788" rx="0.500000" ry="0.000000" transform="rotate(0.000000 197.509679 215.285788)"/>
<ellipse style="fill: #0000ff; stroke: #0000ff; stroke-width: 0.500000; stroke-linejoin: miter; stroke-linecap: butt;  opacity: 1.000000" clip-path="url(#-1467158557)" cx="196.751071" cy="215.189806" rx="0.500000" ry="0.000000" transform="rotate(0.000000 196.751071 215.189806)"/>
<ellipse style="fill: #0000ff; stroke: #0000ff; stroke-width: 0.500000; stroke-linejoin: miter; stroke-linecap: butt;  opacity: 1.000000" clip-path="url(#-1467158557)" cx="195.996273" cy="215.069894" rx="0.500000" ry="0.000000" transform="rotate(0.000000 195.996273 215.069894)"/>
<ellipse style="fill: #0000ff; stroke: #0000ff; stroke-width: 0.500000; stroke-linejoin: miter; stroke-linecap: butt;  opacity: 1.000000" clip-path="url(#-1467158557)" cx="195.246035" cy="214.926200" rx="0.500000" ry="0.000000" transform="rotate(0.000000 195.246035 214.926200)"/>
<ellipse style="fill: #0000ff; stroke: #0000ff; stroke-width: 0.500000; stroke-linejoin: miter; stroke-linecap: butt;  opacity: 1.000000" clip-path="url(#-1467158557)" cx="194.501099" cy="214.758897" rx="0.500000" ry="0.000000" transform="rotate(0.000000 194.501099 214.758897)"/>
<ellipse style="fill: #0000ff; stroke: #0000ff; stroke-width: 0.500000; stroke-linejoin: miter; stroke-linecap: butt;  opacity: 1.000000" clip-path="url(#-1467158557)" cx="193.762201" cy="214.568179" rx="0.500000" ry="0.000000" transform="rotate(0.000000 193.762201 214.568179)"/>
<ellipse style="fill: #0000ff; stroke: #0000ff; stroke-width: 0.500000; stroke-linejoin: miter; stroke-linecap: butt;  opacity: 1.000000" clip-path="url(#-1467158557)" cx="193.030069" cy="214.354267" rx="0.500000" ry="0.000000" transform="rotate(0.000000 193.030069 214.354267)"/>
<ellipse style="fill: #0000ff; stroke: #0000ff; stroke-width: 0.500000; stroke-linejoin: miter; stroke-linecap: butt;  opacity: 1.000000" clip-path="url(#-1467158557)" cx="192.305422" cy="214.117401" rx="0.500000" ry="0.000000" transform="rotate(0.000000 192.305422 214.117401)"/>
<ellipse style="fill: #0000ff; stroke: #0000ff; stroke-width: 0.500000; stroke-linejoin: miter; stroke-linecap: butt;  opacity: 1.000000" clip-path="url(#-1467158557)" cx="191.588971" cy="213.857844" rx="0.500000" ry="0.000000" transform="rotate(0.000000 191.588971 213.857844)"/>
<ellipse style="fill: #0000ff; stroke: #0000ff; stroke-width: 0.500000; stroke-linejoin: miter; stroke-linecap: butt;  opacity: 1.000000" clip-path="url(#-1467158557)" cx="190.881415" cy="213.575883" rx="0.500000" ry="0.000000" transform="rotate(0.000000 190.881415 213.575883)"/>
<ellipse style="fill: #0000ff; stroke: #0000ff; stroke-width: 0.500000; stroke-linejoin: miter; stroke-linecap: butt;  opacity: 1.000000" clip-path="url(#-1467158557)" cx="190.183443" cy="213.271824" rx="0.500000" ry="0.000000" transform="rotate(0.000000 190.183443 213.271824)"/>
<ellipse style="fill: #0000ff; stroke: #0000ff; stroke-width: 0.500000; stroke-linejoin: miter; stroke-linecap: butt;  opacity: 1.000000" clip-path="url(#-1467158557)" cx="189.495734" cy="212.945996" rx="0.500000" ry="0.000000" transform="rotate(0.000000 189.495734 212.945996)"/>
<ellipse style="fill: #0000ff; stroke: #0000ff; stroke-width: 0.500000; stroke-linejoin: miter; stroke-linecap: butt;  opacity: 1.000000" clip-path="url(#-1467158557)" cx="188.818953" cy="212.598749" rx="0.500000" ry="0.000000" transform="rotate(0.000000 188.818953 212.598749)"/>
<ellipse style="fill: #0000ff; stroke: #0000ff; stroke-width: 0.500000; stroke-linejoin: miter; stroke-linecap: butt;  opacity: 1.000000" clip-path="url(#-1467158557)" cx="188.153756" cy="212.230451" rx="0.500000" ry="0.000000" transform="rotate(0.000000 188.153756 212.230451)"/>
<ellipse style="fill: #0000ff; stroke: #0000ff; stroke-width: 0.500000; stroke-linejoin: miter; stroke-linecap: butt;  opacity: 1.000000" clip-path="url(#-1467158557)" cx="187.500782" cy="211.841492" rx="0.500000" ry="0.000000" transform="rotate(0.000000 187.500782 211.841492)"/>
<ellipse style="fill: #0000ff; stroke: #0000ff; stroke-width: 0.500000; stroke-linejoin: miter; stroke-linecap: butt;  opacity: 1.000000" clip-path="url(#-1467158557)" cx="186.860660" cy="211.432280" rx="0.500000" ry="0.000000" transform="rotate(0.000000 186.860660 211.432280)"/>
<ellipse style="fill: #0000ff; stroke: #0000ff; stroke-width: 0.500000; stroke-linejoin: miter; stroke-linecap: butt;  opacity: 1.000000" clip-path="url(#-1467158557)" cx="186.234000" cy="211.003242" rx="0.500000" ry="0.000000" transform="rotate(0.000000 186.234000 211.003242)"/>
<ellipse style="fill: #0000ff; stroke: #0000ff; stroke-width: 0.500000; stroke-linejoin: miter; stroke-linecap: butt;  opacity: 1.000000" clip-path="url(#-1467158557)" cx="185.621403" cy="210.554825" rx="0.500000" ry="0.000000" transform="rotate(0.000000 185.621403 210.554825)"/>
<ellipse style="fill: #0000ff; stroke: #0000ff; stroke-width: 0.500000; stroke-linejoin: miter; stroke-linecap: butt;  opacity: 1.000000" clip-path="url(#-1467158557)" cx="185.023451" cy="210.087492" rx="0.500000" ry="0.000000" transform="rotate(0.000000 185.023451 210.087492)"/>
<ellipse style="fill: #0000ff; stroke: #0000ff; stroke-width: 0.500000; stroke-linejoin: miter; stroke-linecap: butt;  opacity: 1.000000" clip-path="url(#-1467158557)" cx="184.440712" cy="209.601723" rx="0.500000" ry="0.000000" transform="rotate(0.000000 184.440712 209.601723)"/>
<ellipse style="fill: #0000ff; stroke: #0000ff; stroke-width: 0.500000; stroke-linejoin: miter; stroke-linecap: butt;  opacity: 1.000000" clip-path="url(#-1467158557)" cx="183.873736" cy="209.098017" rx="0.500000" ry="0.000000" transform="rotate(0.000000 183.873736 209.098017)"/>
<ellipse style="fill: #0000ff; stroke: #0000ff; stroke-width: 0.500000; stroke-linejoin: miter; stroke-linecap: butt;  opacity: 1.000000" clip-path="url(#-1467158557)" cx="183.323059" cy="208.576885" rx="0.500000" ry="0.000000" transform="rotate(0.000000 183.323059 208.576885)"/>
<ellipse style="fill: #0000ff; stroke: #0000ff; stroke-width: 0.500000; stroke-linejoin: miter; stroke-linecap: butt;  opacity: 1.000000" clip-path="url(#-1467158557)" cx="182.789198" cy="208.038859" rx="0.500000" ry="0.000000" transform="rotate(0.000000 182.789198 208.038859)"/>
<ellipse style="fill: #0000ff; stroke: #0000ff; stroke-width: 0.500000; stroke-linejoin: miter; stroke-linecap: butt;  opacity: 1.000000" clip-path="url(#-1467158557)" cx="182.272653" cy="207.484481" rx="0.500000" ry="0.000000" transform="rotate(0.000000 182.272653 207.484481)"/>
<ellipse style="fill: #0000ff; stroke: #0000ff; stroke-width: 0.500000; stroke-linejoin: miter; stroke-linecap: butt;  opacity: 1.000000" clip-path="url(#-1467158557)" cx="181.773906" cy="206.914311" rx="0.500000" ry="0.000000" transform="rotate(0.000000 181.773906 206.914311)"/>
<ellipse style="fill: #0000ff; stroke: #0000ff; stroke-width: 0.500000; stroke-linejoin: miter; stroke-linecap: butt;  opacity: 1.000000" clip-path="url(#-1467158557)" cx="181.293423" cy="206.328922" rx="0.500000" ry="0.000000" transform="rotate(0.000000 181.293423 206.328922)"/>
<ellipse style="fill: #0000ff; stroke: #0000ff; stroke-width: 0.500000; stroke-linejoin: miter; stroke-linecap: butt;  opacity: 1.000000" clip-path="url(#-1467158557)" cx="180.831647" cy="205.728898" rx="0.500000" ry="0.000000" transform="rotate(0.000000 180.831647 205.728898)"/>
<ellipse style="fill: #0000ff; stroke: #0000ff; stroke-width: 0.500000; stroke-linejoin: miter; stroke-linecap: butt;  opacity: 1.000000" clip-path="url(#-1467158557)" cx="180.389007" cy="205.114838" rx="0.500000" ry="0.000000" transform="rotate(0.000000 180.389007 205.114838)"/>
<ellipse style="fill: #0000ff; stroke: #0000ff; stroke-width: 0.500000; stroke-linejoin: miter; stroke-linecap: butt;  opacity: 1.000000" clip-path="url(#-1467158557)" cx="179.965910" cy="204.487353" rx="0.500000" ry="0.000000" transform="rotate(0.000000 179.965910 204.487353)"/>
<ellipse style="fill: #0000ff; stroke: #0000ff; stroke-width: 0.500000; stroke-linejoin: miter; stroke-linecap: butt;  opacity: 1.000000" clip-path="url(#-1467158557)" cx="179.562743" cy="203.847064" rx="0.500000" ry="0.000000" transform="rotate(0.000000 179.562743 203.847064)"/>
<ellipse style="fill: #0000ff; stroke: #0000ff; stroke-width: 0.500000; stroke-linejoin: miter; stroke-linecap: butt;  opacity: 1.000000" clip-path="url(#-1467158557)" cx="179.179875" cy="203.194604" rx="0.500000" ry="0.000000" transform="rotate(0.000000 179.179875 203.194604)"/>
<ellipse style="fill: #0000ff; stroke: #0000ff; stroke-width: 0.500000; stroke-linejoin: miter; stroke-linecap: butt;  opacity: 1.000000" clip-path="url(#-1467158557)" cx="178.817655" cy="202.530616" rx="0.500000" ry="0.000000" transform="rotate(0.000000 178.817655 202.530616)"/>
<ellipse style="fill: #0000ff; stroke: #0000ff; stroke-width: 0.500000; stroke-linejoin: miter; stroke-linecap: butt;  opacity: 1.000000" clip-path="url(#-1467158557)" cx="178.476411" cy="201.855753" rx="0.500000" ry="0.000000" transform="rotate(0.000000 178.476411 201.855753)"/>
<ellipse style="fill: #0000ff; stroke: #0000ff; stroke-width: 0.500000; stroke-linejoin: miter; stroke-linecap: butt;  opacity: 1.000000" clip-path="url(#-1467158557)" cx="178.156450" cy="201.170674" rx="0.500000" ry="0.000000" transform="rotate(0.000000 178.156450 201.170674)"/>
<ellipse style="fill: #0000ff; stroke: #0000ff; stroke-width: 0.500000; stroke-linejoin: miter; stroke-linecap: butt;  opacity: 1.000000" clip-path="url(#-1467158557)" cx="177.858059" cy="200.476051" rx="0.500000" ry="0.000000" transform="rotate(0.000000 177.858059 200.476051)"/>
<ellipse style="fill: #0000ff; stroke: #0000ff; stroke-width: 0.500000; stroke-linejoin: miter; stroke-linecap: butt;  opacity: 1.000000" clip-path="url(#-1467158557)" cx="177.581506" cy="199.772559" rx="0.500000" ry="0.000000" transform="rotate(0.000000 177.581506 199.772559)"/>
<ellipse style="fill: #0000ff; stroke: #0000ff; stroke-width: 0.500000; stroke-linejoin: miter; stroke-linecap: butt;  opacity: 1.000000" clip-path="url(#-1467158557)" cx="177.327035" cy="199.060884" rx="0.500000" ry="0.000000" transform="rotate(0.000000 177.327035 199.060884)"/>
<ellipse style="fill: #0000ff; stroke: #0000ff; stroke-width: 0.500000; stroke-linejoin: miter; stroke-linecap: butt;  opacity: 1.000000" clip-path="url(#-1467158557)" cx="177.094870" cy="198.341716" rx="0.500000" ry="0.000000" transform="rotate(0.000000 177.094870 198.341716)"/>
<ellipse style="fill: #0000ff; stroke: #0000ff; stroke-width: 0.500000; stroke-linejoin: miter; stroke-linecap: butt;  opacity: 1.000000" clip-path="url(#-1467158557)" cx="176.885215" cy="197.615751" rx="0.500000" ry="0.000000" transform="rotate(0.000000 176.885215 197.615751)"/>
<ellipse style="fill: #0000ff; stroke: #0000ff; stroke-width: 0.500000; stroke-linejoin: miter; stroke-linecap: butt;  opacity: 1.000000" clip-path="url(#-1467158557)" cx="176.698252" cy="196.883691" rx="0.500000" ry="0.000000" transform="rotate(0.000000 176.698252 196.883691)"/>
<ellipse style="fill: #0000ff; stroke: #0000ff; stroke-width: 0.500000; stroke-linejoin: miter; stroke-linecap: butt;  opacity: 1.000000" clip-path="url(#-1467158557)" cx="176.534140" cy="196.146243" rx="0.500000" ry="0.000000" transform="rotate(0.000000 176.534140 196.146243)"/>
<ellipse style="fill: #0000ff; stroke: #0000ff; stroke-width: 0.500000; stroke-linejoin: miter; stroke-linecap: butt;  opacity: 1.000000" clip-path="url(#-1467158557)" cx="176.393019" cy="195.404115" rx="0.500000" ry="0.000000" transform="rotate(0.000000 176.393019 195.404115)"/>
<ellipse style="fill: #0000ff; stroke: #0000ff; stroke-width: 0.500000; stroke-linejoin: miter; stroke-linecap: butt;  opacity: 1.000000" clip-path="url(#-1467158557)" cx="176.275005" cy="194.658020" rx="0.500000" ry="0.000000" transform="rotate(0.000000 176.275005 194.658020)"/>
<ellipse style="fill: #0000ff; stroke: #0000ff; stroke-width: 0.500000; stroke-linejoin: miter; stroke-linecap: butt;  opacity: 1.000000" clip-path="url(#-1467158557)" cx="176.180196" cy="193.908676" rx="0.500000" ry="0.000000" transform="rotate(0.000000 176.180196 193.908676)"/>
<ellipse style="fill: #0000ff; stroke: #0000ff; stroke-width: 0.500000; stroke-linejoin: miter; stroke-linecap: butt;  opacity: 1.000000" clip-path="url(#-1467158557)" cx="176.108665" cy="193.156799" rx="0.500000" ry="0.000000" transform="rotate(0.000000 176.108665 193.156799)"/>
<ellipse style="fill: #0000ff; stroke: #0000ff; stroke-width: 0.500000; stroke-linejoin: miter; stroke-linecap: butt;  opacity: 1.000000" clip-path="url(#-1467158557)" cx="176.060464" cy="192.403108" rx="0.500000" ry="0.000000" transform="rotate(0.000000 176.060464 192.403108)"/>
<ellipse style="fill: #0000ff; stroke: #0000ff; stroke-width: 0.500000; stroke-linejoin: miter; stroke-linecap: butt;  opacity: 1.000000" clip-path="url(#-1467158557)" cx="176.035626" cy="191.648323" rx="0.500000" ry="0.000000" transform="rotate(0.000000 176.035626 191.648323)"/>
<ellipse style="fill: #0000ff; stroke: #0000ff; stroke-width: 0.500000; stroke-linejoin: miter; stroke-linecap: butt;  opacity: 1.000000" clip-path="url(#-1467158557)" cx="176.034159" cy="190.893165" rx="0.500000" ry="0.000000" transform="rotate(0.000000 176.034159 190.893165)"/>
<ellipse style="fill: #0000ff; stroke: #0000ff; stroke-width: 0.500000; stroke-linejoin: miter; stroke-linecap: butt;  opacity: 1.000000" clip-path="url(#-1467158557)" cx="176.056051" cy="190.138352" rx="0.500000" ry="0.000000" transform="rotate(0.000000 176.056051 190.138352)"/>
<ellipse style="fill: #0000ff; stroke: #0000ff; stroke-width: 0.500000; stroke-linejoin: miter; stroke-linecap: butt;  opacity: 1.000000" clip-path="url(#-1467158557)" cx="176.101270" cy="189.384603" rx="0.500000" ry="0.000000" transform="rotate(0.000000 176.101270 189.384603)"/>
<ellipse style="fill: #0000ff; stroke: #0000ff; stroke-width: 0.500000; stroke-linejoin: miter; stroke-linecap: butt;  opacity: 1.000000" clip-path="url(#-1467158557)" cx="176.169760" cy="188.632635" rx="0.500000" ry="0.000000" transform="rotate(0.000000 176.169760 188.632635)"/>
<ellipse style="fill: #0000ff; stroke: #0000ff; stroke-width: 0.500000; stroke-linejoin: miter; stroke-linecap: butt;  opacity: 1.000000" clip-path="url(#-1467158557)" cx="176.261445" cy="187.883161" rx="0.500000" ry="0.000000" transform="rotate(0.000000 176.261445 187.883161)"/>
<ellipse style="fill: #0000ff; stroke: #0000ff; stroke-width: 0.500000; stroke-linejoin: miter; stroke-linecap: butt;  opacity: 1.000000" clip-path="url(#-1467158557)" cx="176.376229" cy="187.136893" rx="0.500000" ry="0.000000" transform="rotate(0.000000 176.376229 187.136893)"/>
<ellipse style="fill: #0000ff; stroke: #0000ff; stroke-width: 0.500000; stroke-linejoin: miter; stroke-linecap: butt;  opacity: 1.000000" clip-path="url(#-1467158557)" cx="176.513993" cy="186.394540" rx="0.500000" ry="0.000000" transform="rotate(0.000000 176.513993 186.394540)"/>
<ellipse style="fill: #0000ff; stroke: #0000ff; stroke-width: 0.500000; stroke-linejoin: miter; stroke-linecap: butt;  opacity: 1.000000" clip-path="url(#-1467158557)" cx="176.674598" cy="185.656804" rx="0.500000" ry="0.000000" transform="rotate(0.000000 176.674598 185.656804)"/>
<ellipse style="fill: #0000ff; stroke: #0000ff; stroke-width: 0.500000; stroke-linejoin: miter; stroke-linecap: butt;  opacity: 1.000000" clip-path="url(#-1467158557)" cx="176.857885" cy="184.924385" rx="0.500000" ry="0.000000" transform="rotate(0.000000 176.857885 184.924385)"/>
<ellipse style="fill: #0000ff; stroke: #0000ff; stroke-width: 0.500000; stroke-linejoin: miter; stroke-linecap: butt;  opacity: 1.000000" clip-path="url(#-1467158557)" cx="177.063672" cy="184.197977" rx="0.500000" ry="0.000000" transform="rotate(0.000000 177.063672 184.197977)"/>
<ellipse style="fill: #0000ff; stroke: #0000ff; stroke-width: 0.500000; stroke-linejoin: miter; stroke-linecap: butt;  opacity: 1.000000" clip-path="url(#-1467158557)" cx="177.291760" cy="183.478267" rx="0.500000" ry="0.000000" transform="rotate(0.000000 177.291760 183.478267)"/>
<ellipse style="fill: #0000ff; stroke: #0000ff; stroke-width: 0.500000; stroke-linejoin: miter; stroke-linecap: butt;  opacity: 1.000000" clip-path="url(#-1467158557)" cx="177.541926" cy="182.765937" rx="0.500000" ry="0.000000" transform="rotate(0.000000 177.541926 182.765937)"/>
<ellipse style="fill: #0000ff; stroke: #0000ff; stroke-width: 0.500000; stroke-linejoin: miter; stroke-linecap: butt;  opacity: 1.000000" clip-path="url(#-1467158557)" cx="177.813930" cy="182.061662" rx="0.500000" ry="0.000000" transform="rotate(0.000000 177.813930 182.061662)"/>
<ellipse style="fill: #0000ff; stroke: #0000ff; stroke-width: 0.500000; stroke-linejoin: miter; stroke-linecap: butt;  opacity: 1.000000" clip-path="url(#-1467158557)" cx="178.107511" cy="181.366109" rx="0.500000" ry="0.000000" transform="rotate(0.000000 178.107511 181.366109)"/>
<ellipse style="fill: #0000ff; stroke: #0000ff; stroke-width: 0.500000; stroke-linejoin: miter; stroke-linecap: butt;  opacity: 1.000000" clip-path="url(#-1467158557)" cx="178.422389" cy="180.679936" rx="0.500000" ry="0.000000" transform="rotate(0.000000 178.422389 180.679936)"/>
<ellipse style="fill: #0000ff; stroke: #0000ff; stroke-width: 0.500000; stroke-linejoin: miter; stroke-linecap: butt;  opacity: 1.000000" clip-path="url(#-1467158557)" cx="178.758263" cy="180.003794" rx="0.500000" ry="0.000000" transform="rotate(0.000000 178.758263 180.003794)"/>
<ellipse style="fill: #0000ff; stroke: #0000ff; stroke-width: 0.500000; stroke-linejoin: miter; stroke-linecap: butt;  opacity: 1.000000" clip-path="url(#-1467158557)" cx="179.114815" cy="179.338325" rx="0.500000" ry="0.000000" transform="rotate(0.000000 179.114815 179.338325)"/>
<ellipse style="fill: #0000ff; stroke: #0000ff; stroke-width: 0.500000; stroke-linejoin: miter; stroke-linecap: butt;  opacity: 1.000000" clip-path="url(#-1467158557)" cx="179.491706" cy="178.684158" rx="0.500000" ry="0.000000" transform="rotate(0.000000 179.491706 178.684158)"/>
<ellipse style="fill: #0000ff; stroke: #0000ff; stroke-width: 0.500000; stroke-linejoin: miter; stroke-linecap: butt;  opacity: 1.000000" clip-path="url(#-1467158557)" cx="179.888580" cy="178.041916" rx="0.500000" ry="0.000000" transform="rotate(0.000000 179.888580 178.041916)"/>
<ellipse style="fill: #0000ff; stroke: #0000ff; stroke-width: 0.500000; stroke-linejoin: miter; stroke-linecap: butt;  opacity: 1.000000" clip-path="url(#-1467158557)" cx="180.305064" cy="177.412209" rx="0.500000" ry="0.000000" transform="rotate(0.000000 180.305064 177.412209)"/>
<ellipse style="fill: #0000ff; stroke: #0000ff; stroke-width: 0.500000; stroke-linejoin: miter; stroke-linecap: butt;  opacity: 1.000000" clip-path="url(#-1467158557)" cx="180.740764" cy="176.795636" rx="0.500000" ry="0.000000" transform="rotate(0.000000 180.740764 176.795636)"/>
<ellipse style="fill: #0000ff; stroke: #0000ff; stroke-width: 0.500000; stroke-linejoin: miter; stroke-linecap: butt;  opacity: 1.000000" clip-path="url(#-1467158557)" cx="181.195270" cy="176.192784" rx="0.500000" ry="0.000000" transform="rotate(0.000000 181.195270 176.192784)"/>
<ellipse style="fill: #0000ff; stroke: #0000ff; stroke-width: 0.500000; stroke-linejoin: miter; stroke-linecap: butt;  opacity: 1.000000" clip-path="url(#-1467158557)" cx="181.668155" cy="175.604229" rx="0.500000" ry="0.000000" transform="rotate(0.000000 181.668155 175.604229)"/>
<ellipse style="fill: #0000ff; stroke: #0000ff; stroke-width: 0.500000; stroke-linejoin: miter; stroke-linecap: butt;  opacity: 1.000000" clip-path="url(#-1467158557)" cx="182.158974" cy="175.030532" rx="0.500000" ry="0.000000" transform="rotate(0.000000 182.158974 175.030532)"/>
<ellipse style="fill: #0000ff; stroke: #0000ff; stroke-width: 0.500000; stroke-linejoin: miter; stroke-linecap: butt;  opacity: 1.000000" clip-path="url(#-1467158557)" cx="182.667266" cy="174.472242" rx="0.500000" ry="0.000000" transform="rotate(0.000000 182.667266 174.472242)"/>
<ellipse style="fill: #0000ff; stroke: #0000ff; stroke-width: 0.500000; stroke-linejoin: miter; stroke-linecap: butt;  opacity: 1.000000" clip-path="url(#-1467158557)" cx="183.192554" cy="173.929896" rx="0.500000" ry="0.000000" transform="rotate(0.000000 183.192554 173.929896)"/>
<ellipse style="fill: #0000ff; stroke: #0000ff; stroke-width: 0.500000; stroke-linejoin: miter; stroke-linecap: butt;  opacity: 1.000000" clip-path="url(#-1467158557)" cx="183.734346" cy="173.404013" rx="0.500000" ry="0.000000" transform="rotate(0.000000 183.734346 173.404013)"/>
<ellipse style="fill: #0000ff; stroke: #0000ff; stroke-width: 0.500000; stroke-linejoin: miter; stroke-linecap: butt;  opacity: 1.000000" clip-path="url(#-1467158557)" cx="184.292132" cy="172.895101" rx="0.500000" ry="0.000000" transform="rotate(0.000000 184.292132 172.895101)"/>
<ellipse style="fill: #0000ff; stroke: #0000ff; stroke-width: 0.500000; stroke-linejoin: miter; stroke-linecap: butt;  opacity: 1.000000" clip-path="url(#-1467158557)" cx="184.865389" cy="172.403650" rx="0.500000" ry="0.000000" transform="rotate(0.000000 184.865389 172.403650)"/>
<ellipse style="fill: #0000ff; stroke: #0000ff; stroke-width: 0.500000; stroke-linejoin: miter; stroke-linecap: butt;  opacity: 1.000000" clip-path="url(#-1467158557)" cx="185.453579" cy="171.930136" rx="0.500000" ry="0.000000" transform="rotate(0.000000 185.453579 171.930136)"/>
<ellipse style="fill: #0000ff; stroke: #0000ff; stroke-width: 0.500000; stroke-linejoin: miter; stroke-linecap: butt;  opacity: 1.000000" clip-path="url(#-1467158557)" cx="186.056149" cy="171.475020" rx="0.500000" ry="0.000000" transform="rotate(0.000000 186.056149 171.475020)"/>
<ellipse style="fill: #0000ff; stroke: #0000ff; stroke-width: 0.500000; stroke-linejoin: miter; stroke-linecap: butt;  opacity: 1.000000" clip-path="url(#-1467158557)" cx="186.672533" cy="171.038744" rx="0.500000" ry="0.000000" transform="rotate(0.000000 186.672533 171.038744)"/>
<ellipse style="fill: #0000ff; stroke: #0000ff; stroke-width: 0.500000; stroke-linejoin: miter; stroke-linecap: butt;  opacity: 1.000000" clip-path="url(#-1467158557)" cx="187.302152" cy="170.621734" rx="0.500000" ry="0.000000" transform="rotate(0.000000 187.302152 170.621734)"/>
<ellipse style="fill: #0000ff; stroke: #0000ff; stroke-width: 0.500000; stroke-linejoin: miter; stroke-linecap: butt;  opacity: 1.000000" clip-path="url(#-1467158557)" cx="187.944413" cy="170.224401" rx="0.500000" ry="0.000000" transform="rotate(0.000000 187.944413 170.224401)"/>
<ellipse style="fill: #0000ff; stroke: #0000ff; stroke-width: 0.500000; stroke-linejoin: miter; stroke-linecap: butt;  opacity: 1.000000" clip-path="url(#-1467158557)" cx="188.598711" cy="169.847135" rx="0.500000" ry="0.000000" transform="rotate(0.000000 188.598711 169.847135)"/>
<ellipse style="fill: #0000ff; stroke: #0000ff; stroke-width: 0.500000; stroke-linejoin: miter; stroke-linecap: butt;  opacity: 1.000000" clip-path="url(#-1467158557)" cx="189.264430" cy="169.490310" rx="0.500000" ry="0.000000" transform="rotate(0.000000 189.264430 169.490310)"/>
<ellipse style="fill: #0000ff; stroke: #0000ff; stroke-width: 0.500000; stroke-linejoin: miter; stroke-linecap: butt;  opacity: 1.000000" clip-path="url(#-1467158557)" cx="189.940943" cy="169.154282" rx="0.500000" ry="0.000000" transform="rotate(0.000000 189.940943 169.154282)"/>
<ellipse style="fill: #0000ff; stroke: #0000ff; stroke-width: 0.500000; stroke-linejoin: miter; stroke-linecap: butt;  opacity: 1.000000" clip-path="url(#-1467158557)" cx="190.627609" cy="168.839388" rx="0.500000" ry="0.000000" transform="rotate(0.000000 190.627609 168.839388)"/>
<ellipse style="fill: #0000ff; stroke: #0000ff; stroke-width: 0.500000; stroke-linejoin: miter; stroke-linecap: butt;  opacity: 1.000000" clip-path="url(#-1467158557)" cx="191.323780" cy="168.545943" rx="0.500000" ry="0.000000" transform="rotate(0.000000 191.323780 168.545943)"/>
<ellipse style="fill: #0000ff; stroke: #0000ff; stroke-width: 0.500000; stroke-linejoin: miter; stroke-linecap: butt;  opacity: 1.000000" clip-path="url(#-1467158557)" cx="192.028796" cy="168.274248" rx="0.500000" ry="0.000000" transform="rotate(0.000000 192.028796 168.274248)"/>
<ellipse style="fill: #0000ff; stroke: #0000ff; stroke-width: 0.500000; stroke-linejoin: miter; stroke-linecap: butt;  opacity: 1.000000" clip-path="url(#-1467158557)" cx="192.741990" cy="168.024579" rx="0.500000" ry="0.000000" transform="rotate(0.000000 192.741990 168.024579)"/>
<ellipse style="fill: #0000ff; stroke: #0000ff; stroke-width: 0.500000; stroke-linejoin: miter; stroke-linecap: butt;  opacity: 1.000000" clip-path="url(#-1467158557)" cx="193.462684" cy="167.797195" rx="0.500000" ry="0.000000" transform="rotate(0.000000 193.462684 167.797195)"/>
<ellipse style="fill: #0000ff; stroke: #0000ff; stroke-width: 0.500000; stroke-linejoin: miter; stroke-linecap: butt;  opacity: 1.000000" clip-path="url(#-1467158557)" cx="194.190193" cy="167.592334" rx="0.500000" ry="0.000000" transform="rotate(0.000000 194.190193 167.592334)"/>
<ellipse style="fill: #0000ff; stroke: #0000ff; stroke-width: 0.500000; stroke-linejoin: miter; stroke-linecap: butt;  opacity: 1.000000" clip-path="url(#-1467158557)" cx="194.923824" cy="167.410214" rx="0.500000" ry="0.000000" transform="rotate(0.000000 194.923824 167.410214)"/>
<ellipse style="fill: #0000ff; stroke: #0000ff; stroke-width: 0.500000; stroke-linejoin: miter; stroke-linecap: butt;  opacity: 1.000000" clip-path="url(#-1467158557)" cx="195.662877" cy="167.251030" rx="0.500000" ry="0.000000" transform="rotate(0.000000 195.662877 167.251030)"/>
<ellipse style="fill: #0000ff; stroke: #0000ff; stroke-width: 0.500000; stroke-linejoin: miter; stroke-linecap: butt;  opacity: 1.000000" clip-path="url(#-1467158557)" cx="196.406645" cy="167.114958" rx="0.500000" ry="0.000000" transform="rotate(0.000000 196.406645 167.114958)"/>
<ellipse style="fill: #0000ff; stroke: #0000ff; stroke-width: 0.500000; stroke-linejoin: miter; stroke-linecap: butt;  opacity: 1.000000" clip-path="url(#-1467158557)" cx="197.154418" cy="167.002152" rx="0.500000" ry="0.000000" transform="rotate(0.000000 197.154418 167.002152)"/>
<ellipse style="fill: #0000ff; stroke: #0000ff; stroke-width: 0.500000; stroke-linejoin: miter; stroke-linecap: butt;  opacity: 1.000000" clip-path="url(#-1467158557)" cx="197.905477" cy="166.912743" rx="0.500000" ry="0.000000" transform="rotate(0.000000 197.905477 166.912743)"/>
<ellipse style="fill: #0000ff; stroke: #0000ff; stroke-width: 0.500000; stroke-linejoin: miter; stroke-linecap: butt;  opacity: 1.000000" clip-path="url(#-1467158557)" cx="198.659100" cy="166.846843" rx="0.500000" ry="0.000000" transform="rotate(0.000000 198.659100 166.846843)"/>
<ellipse style="fill: #0000ff; stroke: #0000ff; stroke-width: 0.500000; stroke-linejoin: miter; stroke-linecap: butt;  opacity: 1.000000" clip-path="url(#-1467158557)" cx="199.414563" cy="166.804540" rx="0.500000" ry="0.000000" transform="rotate(0.000000 199.414563 166.804540)"/>
<ellipse style="fill: #0000ff; stroke: #0000ff; stroke-width: 0.500000; stroke-linejoin: miter; stroke-linecap: butt;  opacity: 1.000000" clip-path="url(#-1467158557)" cx="200.171135" cy="166.785900" rx="0.500000" ry="0.000000" transform="rotate(0.000000 200.171135 166.785900)"/>
<ellipse style="fill: #0000ff; stroke: #0000ff; stroke-width: 0.500000; stroke-linejoin: miter; stroke-linecap: butt;  opacity: 1.000000" clip-path="url(#-1467158557)" cx="200.928086" cy="166.790967" rx="0.500000" ry="0.000000" transform="rotate(0.000000 200.928086 166.790967)"/>
<ellipse style="fill: #0000ff; stroke: #0000ff; stroke-width: 0.500000; stroke-linejoin: miter; stroke-linecap: butt;  opacity: 1.000000" clip-path="url(#-1467158557)" cx="201.684681" cy="166.819762" rx="0.500000" ry="0.000000" transform="rotate(0.000000 201.684681 166.819762)"/>
<ellipse style="fill: #0000ff; stroke: #0000ff; stroke-width: 0.500000; stroke-linejoin: miter; stroke-linecap: butt;  opacity: 1.000000" clip-path="url(#-1467158557)" cx="202.440185" cy="166.872284" rx="0.500000" ry="0.000000" transform="rotate(0.000000 202.440185 166.872284)"/>
<ellipse style="fill: #0000ff; stroke: #0000ff; stroke-width: 0.500000; stroke-linejoin: miter; stroke-linecap: butt;  opacity: 1.000000" clip-path="url(#-1467158557)" cx="203.193864" cy="166.948509" rx="0.500000" ry="0.000000" transform="rotate(0.000000 203.193864 166.948509)"/>
<ellipse style="fill: #0000ff; stroke: #0000ff; stroke-width: 0.500000; stroke-linejoin: miter; stroke-linecap: butt;  opacity: 1.000000" clip-path="url(#-1467158557)" cx="203.944981" cy="167.048390" rx="0.500000" ry="0.000000" transform="rotate(0.000000 203.944981 167.048390)"/>
<ellipse style="fill: #0000ff; stroke: #0000ff; stroke-width: 0.500000; stroke-linejoin: miter; stroke-linecap: butt;  opacity: 1.000000" clip-path="url(#-1467158557)" cx="204.692802" cy="167.171859" rx="0.500000" ry="0.000000" transform="rotate(0.000000 204.692802 167.171859)"/>
<ellipse style="fill: #0000ff; stroke: #0000ff; stroke-width: 0.500000; stroke-linejoin: miter; stroke-linecap: butt;  opacity: 1.000000" clip-path="url(#-1467158557)" cx="205.436593" cy="167.318821" rx="0.500000" ry="0.000000" transform="rotate(0.000000 205.436593 167.318821)"/>
<ellipse style="fill: #0000ff; stroke: #0000ff; stroke-width: 0.500000; stroke-linejoin: miter; stroke-linecap: butt;  opacity: 1.000000" clip-path="url(#-1467158557)" cx="206.175623" cy="167.489163" rx="0.500000" ry="0.000000" transform="rotate(0.000000 206.175623 167.489163)"/>
<ellipse style="fill: #0000ff; stroke: #0000ff; stroke-width: 0.500000; stroke-linejoin: miter; stroke-linecap: butt;  opacity: 1.000000" clip-path="url(#-1467158557)" cx="206.909164" cy="167.682746" rx="0.500000" ry="0.000000" transform="rotate(0.000000 206.909164 167.682746)"/>
<ellipse style="fill: #0000ff; stroke: #0000ff; stroke-width: 0.500000; stroke-linejoin: miter; stroke-linecap: butt;  opacity: 1.000000" clip-path="url(#-1467158557)" cx="207.636491" cy="167.899409" rx="0.500000" ry="0.000000" transform="rotate(0.000000 207.636491 167.899409)"/>
<ellipse style="fill: #0000ff; stroke: #0000ff; stroke-width: 0.500000; stroke-linejoin: miter; stroke-linecap: butt;  opacity: 1.000000" clip-path="url(#-1467158557)" cx="208.356883" cy="168.138967" rx="0.500000" ry="0.000000" transform="rotate(0.000000 208.356883 168.138967)"/>
<ellipse style="fill: #0000ff; stroke: #0000ff; stroke-width: 0.500000; stroke-linejoin: miter; stroke-linecap: butt;  opacity: 1.000000" clip-path="url(#-1467158557)" cx="209.069625" cy="168.401214" rx="0.500000" ry="0.000000" transform="rotate(0.000000 209.069625 168.401214)"/>
<ellipse style="fill: #0000ff; stroke: #0000ff; stroke-width: 0.500000; stroke-linejoin: miter; stroke-linecap: butt;  opacity: 1.000000" clip-path="url(#-1467158557)" cx="209.774007" cy="168.685921" rx="0.500000" ry="0.000000" transform="rotate(0.000000 209.774007 168.685921)"/>
<ellipse style="fill: #0000ff; stroke: #0000ff; stroke-width: 0.500000; stroke-linejoin: miter; stroke-linecap: butt;  opacity: 1.000000" clip-path="url(#-1467158557)" cx="210.469325" cy="168.992835" rx="0.500000" ry="0.000000" transform="rotate(0.000000 210.469325 168.992835)"/>
<ellipse style="fill: #0000ff; stroke: #0000ff; stroke-width: 0.500000; stroke-linejoin: miter; stroke-linecap: butt;  opacity: 1.000000" clip-path="url(#-1467158557)" cx="211.154884" cy="169.321682" rx="0.500000" ry="0.000000" transform="rotate(0.000000 211.154884 169.321682)"/>
<ellipse style="fill: #0000ff; stroke: #0000ff; stroke-width: 0.500000; stroke-linejoin: miter; stroke-linecap: butt;  opacity: 1.000000" clip-path="url(#-1467158557)" cx="211.829994" cy="169.672165" rx="0.500000" ry="0.000000" transform="rotate(0.000000 211.829994 169.672165)"/>
<ellipse style="fill: #0000ff; stroke: #0000ff; stroke-width: 0.500000; stroke-linejoin: miter; stroke-linecap: butt;  opacity: 1.000000" clip-path="url(#-1467158557)" cx="212.493976" cy="170.043965" rx="0.500000" ry="0.000000" transform="rotate(0.000000 212.493976 170.043965)"/>
<ellipse style="fill: #0000ff; stroke: #0000ff; stroke-width: 0.500000; stroke-linejoin: miter; stroke-linecap: butt;  opacity: 1.000000" clip-path="url(#-1467158557)" cx="213.146159" cy="170.436742" rx="0.500000" ry="0.000000" transform="rotate(0.000000 213.146159 170.436742)"/>
<ellipse style="fill: #0000ff; stroke: #0000ff; stroke-width: 0.500000; stroke-linejoin: miter; stroke-linecap: butt;  opacity: 1.000000" clip-path="url(#-1467158557)" cx="213.785883" cy="170.850132" rx="0.500000" ry="0.000000" transform="rotate(0.000000 213.785883 170.850132)"/>
<ellipse style="fill: #0000ff; stroke: #0000ff; stroke-width: 0.500000; stroke-linejoin: miter; stroke-linecap: butt;  opacity: 1.000000" clip-path="url(#-1467158557)" cx="214.412498" cy="171.283751" rx="0.500000" ry="0.000000" transform="rotate(0.000000 214.412498 171.283751)"/>
<ellipse style="fill: #0000ff; stroke: #0000ff; stroke-width: 0.500000; stroke-linejoin: miter; stroke-linecap: butt;  opacity: 1.000000" clip-path="url(#-1467158557)" cx="215.025366" cy="171.737196" rx="0.500000" ry="0.000000" transform="rotate(0.000000 215.025366 171.737196)"/>
<ellipse style="fill: #0000ff; stroke: #0000ff; stroke-width: 0.500000; stroke-linejoin: miter; stroke-linecap: butt;  opacity: 1.000000" clip-path="url(#-1467158557)" cx="215.623860" cy="172.210039" rx="0.500000" ry="0.000000" transform="rotate(0.000000 215.623860 172.210039)"/>
<ellipse style="fill: #0000ff; stroke: #0000ff; stroke-width: 0.500000; stroke-linejoin: miter; stroke-linecap: butt;  opacity: 1.000000" clip-path="url(#-1467158557)" cx="216.207367" cy="172.701834" rx="0.500000" ry="0.000000" transform="rotate(0.000000 216.207367 172.701834)"/>
<ellipse style="fill: #0000ff; stroke: #0000ff; stroke-width: 0.500000; stroke-linejoin: miter; stroke-linecap: butt;  opacity: 1.000000" clip-path="url(#-1467158557)" cx="216.775287" cy="173.212115" rx="0.500000" ry="0.000000" transform="rotate(0.000000 216.775287 173.212115)"/>
<ellipse style="fill: #0000ff; stroke: #0000ff; stroke-width: 0.500000; stroke-linejoin: miter; stroke-linecap: butt;  opacity: 1.000000" clip-path="url(#-1467158557)" cx="217.327034" cy="173.740395" rx="0.500000" ry="0.000000" transform="rotate(0.000000 217.327034 173.740395)"/>
<ellipse style="fill: #0000ff; stroke: #0000ff; stroke-width: 0.500000; stroke-linejoin: miter; stroke-linecap: butt;  opacity: 1.000000" clip-path="url(#-1467158557)" cx="217.862039" cy="174.286169" rx="0.500000" ry="0.000000" transform="rotate(0.000000 217.862039 174.286169)"/>
<ellipse style="fill: #0000ff; stroke: #0000ff; stroke-width: 0.500000; stroke-linejoin: miter; stroke-linecap: butt;  opacity: 1.000000" clip-path="url(#-1467158557)" cx="218.379745" cy="174.848912" rx="0.500000" ry="0.000000" transform="rotate(0.000000 218.379745 174.848912)"/>
<ellipse style="fill: #0000ff; stroke: #0000ff; stroke-width: 0.500000; stroke-linejoin: miter; stroke-linecap: butt;  opacity: 1.000000" clip-path="url(#-1467158557)" cx="218.879613" cy="175.428080" rx="0.500000" ry="0.000000" transform="rotate(0.000000 218.879613 175.428080)"/>
<ellipse style="fill: #0000ff; stroke: #0000ff; stroke-width: 0.500000; stroke-linejoin: miter; stroke-linecap: butt;  opacity: 1.000000" clip-path="url(#-1467158557)" cx="219.361123" cy="176.023113" rx="0.500000" ry="0.000000" transform="rotate(0.000000 219.361123 176.023113)"/>
<ellipse style="fill: #0000ff; stroke: #0000ff; stroke-width: 0.500000; stroke-linejoin: miter; stroke-linecap: butt;  opacity: 1.000000" clip-path="url(#-1467158557)" cx="219.823768" cy="176.633431" rx="0.500000" ry="0.000000" transform="rotate(0.000000 219.823768 176.633431)"/>
<ellipse style="fill: #0000ff; stroke: #0000ff; stroke-width: 0.500000; stroke-linejoin: miter; stroke-linecap: butt;  opacity: 1.000000" clip-path="url(#-1467158557)" cx="220.267063" cy="177.258440" rx="0.500000" ry="0.000000" transform="rotate(0.000000 220.267063 177.258440)"/>
<ellipse style="fill: #0000ff; stroke: #0000ff; stroke-width: 0.500000; stroke-linejoin: miter; stroke-linecap: butt;  opacity: 1.000000" clip-path="url(#-1467158557)" cx="220.690540" cy="177.897528" rx="0.500000" ry="0.000000" transform="rotate(0.000000 220.690540 177.897528)"/>
<ellipse style="fill: #0000ff; stroke: #0000ff; stroke-width: 0.500000; stroke-linejoin: miter; stroke-linecap: butt;  opacity: 1.000000" clip-path="url(#-1467158557)" cx="221.093750" cy="178.550066" rx="0.500000" ry="0.000000" transform="rotate(0.000000 221.093750 178.550066)"/>
<ellipse style="fill: #0000ff; stroke: #0000ff; stroke-width: 0.500000; stroke-linejoin: miter; stroke-linecap: butt;  opacity: 1.000000" clip-path="url(#-1467158557)" cx="221.476265" cy="179.215411" rx="0.500000" ry="0.000000" transform="rotate(0.000000 221.476265 179.215411)"/>
<ellipse style="fill: #0000ff; stroke: #0000ff; stroke-width: 0.500000; stroke-linejoin: miter; stroke-linecap: butt;  opacity: 1.000000" clip-path="url(#-1467158557)" cx="221.837676" cy="179.892906" rx="0.500000" ry="0.000000" transform="rotate(0.000000 221.837676 179.892906)"/>
<ellipse style="fill: #0000ff; stroke: #0000ff; stroke-width: 0.500000; stroke-linejoin: miter; stroke-linecap: butt;  opacity: 1.000000" clip-path="url(#-1467158557)" cx="222.177596" cy="180.581879" rx="0.500000" ry="0.000000" transform="rotate(0.000000 222.177596 180.581879)"/>
<ellipse style="fill: #0000ff; stroke: #0000ff; stroke-width: 0.500000; stroke-linejoin: miter; stroke-linecap: butt;  opacity: 1.000000" clip-path="url(#-1467158557)" cx="222.495660" cy="181.281646" rx="0.500000" ry="0.000000" transform="rotate(0.000000 222.495660 181.281646)"/>
<ellipse style="fill: #0000ff; stroke: #0000ff; stroke-width: 0.500000; stroke-linejoin: miter; stroke-linecap: butt;  opacity: 1.000000" clip-path="url(#-1467158557)" cx="222.791523" cy="181.991508" rx="0.500000" ry="0.000000" transform="rotate(0.000000 222.791523 181.991508)"/>
<ellipse style="fill: #0000ff; stroke: #0000ff; stroke-width: 0.500000; stroke-linejoin: miter; stroke-linecap: butt;  opacity: 1.000000" clip-path="url(#-1467158557)" cx="223.064863" cy="182.710758" rx="0.500000" ry="0.000000" transform="rotate(0.000000 223.064863 182.710758)"/>
<ellipse style="fill: #0000ff; stroke: #0000ff; stroke-width: 0.500000; stroke-linejoin: miter; stroke-linecap: butt;  opacity: 1.000000" clip-path="url(#-1467158557)" cx="223.315382" cy="183.438673" rx="0.500000" ry="0.000000" transform="rotate(0.000000 223.315382 183.438673)"/>
<ellipse style="fill: #0000ff; stroke: #0000ff; stroke-width: 0.500000; stroke-linejoin: miter; stroke-linecap: butt;  opacity: 1.000000" clip-path="url(#-1467158557)" cx="223.542805" cy="184.174523" rx="0.500000" ry="0.000000" transform="rotate(0.000000 223.542805 184.174523)"/>
<ellipse style="fill: #0000ff; stroke: #0000ff; stroke-width: 0.500000; stroke-linejoin: miter; stroke-linecap: butt;  opacity: 1.000000" clip-path="url(#-1467158557)" cx="223.746879" cy="184.917569" rx="0.500000" ry="0.000000" transform="rotate(0.000000 223.746879 184.917569)"/>
<ellipse style="fill: #0000ff; stroke: #0000ff; stroke-width: 0.500000; stroke-linejoin: miter; stroke-linecap: butt;  opacity: 1.000000" clip-path="url(#-1467158557)" cx="223.927376" cy="185.667059" rx="0.500000" ry="0.000000" transform="rotate(0.000000 223.927376 185.667059)"/>
<ellipse style="fill: #0000ff; stroke: #0000ff; stroke-width: 0.500000; stroke-linejoin: miter; stroke-linecap: butt;  opacity: 1.000000" clip-path="url(#-1467158557)" cx="224.084093" cy="186.422238" rx="0.500000" ry="0.000000" transform="rotate(0.000000 224.084093 186.422238)"/>
<ellipse style="fill: #0000ff; stroke: #0000ff; stroke-width: 0.500000; stroke-linejoin: miter; stroke-linecap: butt;  opacity: 1.000000" clip-path="url(#-1467158557)" cx="224.216852" cy="187.182340" rx="0.500000" ry="0.000000" transform="rotate(0.000000 224.216852 187.182340)"/>
<ellipse style="fill: #0000ff; stroke: #0000ff; stroke-width: 0.500000; stroke-linejoin: miter; stroke-linecap: butt;  opacity: 1.000000" clip-path="url(#-1467158557)" cx="224.325497" cy="187.946595" rx="0.500000" ry="0.000000" transform="rotate(0.000000 224.325497 187.946595)"/>
<ellipse style="fill: #0000ff; stroke: #0000ff; stroke-width: 0.500000; stroke-linejoin: miter; stroke-linecap: butt;  opacity: 1.000000" clip-path="url(#-1467158557)" cx="224.409900" cy="188.714226" rx="0.500000" ry="0.000000" transform="rotate(0.000000 224.409900 188.714226)"/>
<ellipse style="fill: #0000ff; stroke: #0000ff; stroke-width: 0.500000; stroke-linejoin: miter; stroke-linecap: butt;  opacity: 1.000000" clip-path="url(#-1467158557)" cx="224.469958" cy="189.484451" rx="0.500000" ry="0.000000" transform="rotate(0.000000 224.469958 189.484451)"/>
<ellipse style="fill: #0000ff; stroke: #0000ff; stroke-width: 0.500000; stroke-linejoin: miter; stroke-linecap: butt;  opacity: 1.000000" clip-path="url(#-1467158557)" cx="224.505592" cy="190.256486" rx="0.500000" ry="0.000000" transform="rotate(0.000000 224.505592 190.256486)"/>
<ellipse style="fill: #0000ff; stroke: #0000ff; stroke-width: 0.500000; stroke-linejoin: miter; stroke-linecap: butt;  opacity: 1.000000" clip-path="url(#-1467158557)" cx="224.516751" cy="191.029543" rx="0.500000" ry="0.000000" transform="rotate(0.000000 224.516751 191.029543)"/>
<ellipse style="fill: #0000ff; stroke: #0000ff; stroke-width: 0.500000; stroke-linejoin: miter; stroke-linecap: butt;  opacity: 1.000000" clip-path="url(#-1467158557)" cx="224.503407" cy="191.802832" rx="0.500000" ry="0.000000" transform="rotate(0.000000 224.503407 191.802832)"/>
<ellipse style="fill: #0000ff; stroke: #0000ff; stroke-width: 0.500000; stroke-linejoin: miter; stroke-linecap: butt;  opacity: 1.000000" clip-path="url(#-1467158557)" cx="224.465561" cy="192.575561" rx="0.500000" ry="0.000000" transform="rotate(0.000000 224.465561 192.575561)"/>
<ellipse style="fill: #0000ff; stroke: #0000ff; stroke-width: 0.500000; stroke-linejoin: miter; stroke-linecap: butt;  opacity: 1.000000" clip-path="url(#-1467158557)" cx="224.403238" cy="193.346938" rx="0.500000" ry="0.000000" transform="rotate(0.000000 224.403238 193.346938)"/>
<ellipse style="fill: #0000ff; stroke: #0000ff; stroke-width: 0.500000; stroke-linejoin: miter; stroke-linecap: butt;  opacity: 1.000000" clip-path="url(#-1467158557)" cx="224.316489" cy="194.116174" rx="0.500000" ry="0.000000" transform="rotate(0.000000 224.316489 194.116174)"/>
<ellipse style="fill: #0000ff; stroke: #0000ff; stroke-width: 0.500000; stroke-linejoin: miter; stroke-linecap: butt;  opacity: 1.000000" clip-path="url(#-1467158557)" cx="224.205393" cy="194.882478" rx="0.500000" ry="0.000000" transform="rotate(0.000000 224.205393 194.882478)"/>
<ellipse style="fill: #0000ff; stroke: #0000ff; stroke-width: 0.500000; stroke-linejoin: miter; stroke-linecap: butt;  opacity: 1.000000" clip-path="url(#-1467158557)" cx="224.070052" cy="195.645064" rx="0.500000" ry="0.000000" transform="rotate(0.000000 224.070052 195.645064)"/>
<ellipse style="fill: #0000ff; stroke: #0000ff; stroke-width: 0.500000; stroke-linejoin: miter; stroke-linecap: butt;  opacity: 1.000000" clip-path="url(#-1467158557)" cx="223.910597" cy="196.403147" rx="0.500000" ry="0.000000" transform="rotate(0.000000 223.910597 196.403147)"/>
<ellipse style="fill: #0000ff; stroke: #0000ff; stroke-width: 0.500000; stroke-linejoin: miter; stroke-linecap: butt;  opacity: 1.000000" clip-path="url(#-1467158557)" cx="223.727182" cy="197.155950" rx="0.500000" ry="0.000000" transform="rotate(0.000000 223.727182 197.155950)"/>
<ellipse style="fill: #0000ff; stroke: #0000ff; stroke-width: 0.500000; stroke-linejoin: miter; stroke-linecap: butt;  opacity: 1.000000" clip-path="url(#-1467158557)" cx="223.519988" cy="197.902696" rx="0.500000" ry="0.000000" transform="rotate(0.000000 223.519988 197.902696)"/>
<ellipse style="fill: #0000ff; stroke: #0000ff; stroke-width: 0.500000; stroke-linejoin: miter; stroke-linecap: butt;  opacity: 1.000000" clip-path="url(#-1467158557)" cx="223.289223" cy="198.642618" rx="0.500000" ry="0.000000" transform="rotate(0.000000 223.289223 198.642618)"/>
<ellipse style="fill: #0000ff; stroke: #0000ff; stroke-width: 0.500000; stroke-linejoin: miter; stroke-linecap: butt;  opacity: 1.000000" clip-path="url(#-1467158557)" cx="223.035116" cy="199.374955" rx="0.500000" ry="0.000000" transform="rotate(0.000000 223.035116 199.374955)"/>
<ellipse style="fill: #0000ff; stroke: #0000ff; stroke-width: 0.500000; stroke-linejoin: miter; stroke-linecap: butt;  opacity: 1.000000" clip-path="url(#-1467158557)" cx="222.757926" cy="200.098953" rx="0.500000" ry="0.000000" transform="rotate(0.000000 222.757926 200.098953)"/>
<ellipse style="fill: #0000ff; stroke: #0000ff; stroke-width: 0.500000; stroke-linejoin: miter; stroke-linecap: butt;  opacity: 1.000000" clip-path="url(#-1467158557)" cx="222.457934" cy="200.813868" rx="0.500000" ry="0.000000" transform="rotate(0.000000 222.457934 200.813868)"/>
<ellipse style="fill: #0000ff; stroke: #0000ff; stroke-width: 0.500000; stroke-linejoin: miter; stroke-linecap: butt;  opacity: 1.000000" clip-path="url(#-1467158557)" cx="222.135444" cy="201.518963" rx="0.500000" ry="0.000000" transform="rotate(0.000000 222.135444 201.518963)"/>
<ellipse style="fill: #0000ff; stroke: #0000ff; stroke-width: 0.500000; stroke-linejoin: miter; stroke-linecap: butt;  opacity: 1.000000" clip-path="url(#-1467158557)" cx="221.790788" cy="202.213513" rx="0.500000" ry="0.000000" transform="rotate(0.000000 221.790788 202.213513)"/>
<text style="font-size: 12.000000; font-family: Times; font-style: Regular; fill: #000000;" x="81.661500" y="72.036000" >fisher_5_2.di</text>
<text style="font-size: 14.000000; font-family: Times; font-style: Regular; fill: #000000;" x="127.957500" y="31.298400" >Fisher confidence cone</text>
</g>
<text style="font-size: 12.000000; font-family: Times; font-style: Regular; fill: #000000;" x="7.452000" y="368.874000" >pmagpy-1.47b</text>
</g>
</svg>
