<?xml version="1.0" standalone="no"?>
<!DOCTYPE svg PUBLIC "-//W3C//DTD SVG 1.1//EN"
  "http://www.w3.org/Graphics/SVG/1.1/DTD/svg11.dtd">
<!-- Created with matplotlib (http://matplotlib.sourceforge.net/) -->
<svg width="372" height="372" viewBox="0 0 372 372"
   xmlns="http://www.w3.org/2000/svg"
   xmlns:xlink="http://www.w3.org/1999/xlink"
   version="1.1"
   id="svg1">
<g id="figure1">
<polygon style="fill: #ffffff; stroke: #ffffff; stroke-width: 1.000000; stroke-linejoin: miter; stroke-linecap: square;  opacity: 1.000000"  points = "0.000000,372.600000 0.000000,0.000000 372.600000,0.000000 372.600000,372.600000"/>
<g id="axes1">
<g id="regpolycollection1">
<defs>
    <clipPath id="-1467158557">
    <rect x="46.575000" y="37.260000" width="288.765000" height="298.080000"
    style="stroke: gray; fill: none;"/>
    </clipPath>
</defs>
<polygon style="fill: #ff0000; stroke: #000000; stroke-width: 1.000000; stroke-linejoin: miter; stroke-linecap: butt;  opacity: 1.000000" clip-path="url(#-1467158557)" points = "153.246448,234.003273 154.026139,234.126764 154.729508,234.485148 155.287705,235.043345 155.646090,235.746714 155.769581,236.526405 155.646090,237.306096 155.287705,238.009465 154.729508,238.567662 154.026139,238.926047 153.246448,239.049538 152.466757,238.926047 151.763388,238.567662 151.205191,238.009465 150.846807,237.306096 150.723316,236.526405 150.846807,235.746714 151.205191,235.043345 151.763388,234.485148 152.466757,234.126764"/>
<polygon style="fill: #ff0000; stroke: #000000; stroke-width: 1.000000; stroke-linejoin: miter; stroke-linecap: butt;  opacity: 1.000000" clip-path="url(#-1467158557)" points = "175.116040,177.600540 175.895730,177.724031 176.599100,178.082416 177.157297,178.640613 177.515681,179.343982 177.639172,180.123673 177.515681,180.903363 177.157297,181.606733 176.599100,182.164930 175.895730,182.523314 175.116040,182.646805 174.336349,182.523314 173.632979,182.164930 173.074782,181.606733 172.716398,180.903363 172.592907,180.123673 172.716398,179.343982 173.074782,178.640613 173.632979,178.082416 174.336349,177.724031"/>
<polygon style="fill: #ff0000; stroke: #000000; stroke-width: 1.000000; stroke-linejoin: miter; stroke-linecap: butt;  opacity: 1.000000" clip-path="url(#-1467158557)" points = "232.658863,148.411539 233.438554,148.535030 234.141924,148.893415 234.700121,149.451612 235.058505,150.154981 235.181996,150.934672 235.058505,151.714363 234.700121,152.417732 234.141924,152.975929 233.438554,153.334314 232.658863,153.457804 231.879173,153.334314 231.175803,152.975929 230.617606,152.417732 230.259222,151.714363 230.135731,150.934672 230.259222,150.154981 230.617606,149.451612 231.175803,148.893415 231.879173,148.535030"/>
<polygon style="fill: #ff0000; stroke: #000000; stroke-width: 1.000000; stroke-linejoin: miter; stroke-linecap: butt;  opacity: 1.000000" clip-path="url(#-1467158557)" points = "163.647503,207.433529 164.427193,207.557020 165.130563,207.915405 165.688760,208.473602 166.047144,209.176971 166.170635,209.956662 166.047144,210.736353 165.688760,211.439722 165.130563,211.997919 164.427193,212.356303 163.647503,212.479794 162.867812,212.356303 162.164443,211.997919 161.606246,211.439722 161.247861,210.736353 161.124370,209.956662 161.247861,209.176971 161.606246,208.473602 162.164443,207.915405 162.867812,207.557020"/>
<polygon style="fill: #ff0000; stroke: #000000; stroke-width: 1.000000; stroke-linejoin: miter; stroke-linecap: butt;  opacity: 1.000000" clip-path="url(#-1467158557)" points = "195.948994,180.435353 196.728685,180.558844 197.432054,180.917229 197.990251,181.475426 198.348636,182.178795 198.472127,182.958486 198.348636,183.738177 197.990251,184.441546 197.432054,184.999743 196.728685,185.358127 195.948994,185.481618 195.169304,185.358127 194.465934,184.999743 193.907737,184.441546 193.549353,183.738177 193.425862,182.958486 193.549353,182.178795 193.907737,181.475426 194.465934,180.917229 195.169304,180.558844"/>
<polygon style="fill: #ff0000; stroke: #000000; stroke-width: 1.000000; stroke-linejoin: miter; stroke-linecap: butt;  opacity: 1.000000" clip-path="url(#-1467158557)" points = "204.254515,127.961839 205.034206,128.085330 205.737576,128.443714 206.295773,129.001911 206.654157,129.705281 206.777648,130.484971 206.654157,131.264662 206.295773,131.968031 205.737576,132.526228 205.034206,132.884613 204.254515,133.008104 203.474825,132.884613 202.771455,132.526228 202.213258,131.968031 201.854874,131.264662 201.731383,130.484971 201.854874,129.705281 202.213258,129.001911 202.771455,128.443714 203.474825,128.085330"/>
<polygon style="fill: #ff0000; stroke: #000000; stroke-width: 1.000000; stroke-linejoin: miter; stroke-linecap: butt;  opacity: 1.000000" clip-path="url(#-1467158557)" points = "165.786340,142.701267 166.566031,142.824758 167.269400,143.183143 167.827597,143.741340 168.185982,144.444709 168.309472,145.224400 168.185982,146.004091 167.827597,146.707460 167.269400,147.265657 166.566031,147.624042 165.786340,147.747532 165.006649,147.624042 164.303280,147.265657 163.745083,146.707460 163.386698,146.004091 163.263207,145.224400 163.386698,144.444709 163.745083,143.741340 164.303280,143.183143 165.006649,142.824758"/>
<polygon style="fill: #ff0000; stroke: #000000; stroke-width: 1.000000; stroke-linejoin: miter; stroke-linecap: butt;  opacity: 1.000000" clip-path="url(#-1467158557)" points = "191.539778,117.054364 192.319469,117.177855 193.022839,117.536240 193.581036,118.094437 193.939420,118.797806 194.062911,119.577497 193.939420,120.357188 193.581036,121.060557 193.022839,121.618754 192.319469,121.977139 191.539778,122.100629 190.760088,121.977139 190.056718,121.618754 189.498521,121.060557 189.140137,120.357188 189.016646,119.577497 189.140137,118.797806 189.498521,118.094437 190.056718,117.536240 190.760088,117.177855"/>
<polygon style="fill: #ff0000; stroke: #000000; stroke-width: 1.000000; stroke-linejoin: miter; stroke-linecap: butt;  opacity: 1.000000" clip-path="url(#-1467158557)" points = "199.674469,120.141440 200.454160,120.264931 201.157529,120.623315 201.715726,121.181512 202.074111,121.884882 202.197602,122.664572 202.074111,123.444263 201.715726,124.147632 201.157529,124.705829 200.454160,125.064214 199.674469,125.187705 198.894778,125.064214 198.191409,124.705829 197.633212,124.147632 197.274828,123.444263 197.151337,122.664572 197.274828,121.884882 197.633212,121.181512 198.191409,120.623315 198.894778,120.264931"/>
<polygon style="fill: #ff0000; stroke: #000000; stroke-width: 1.000000; stroke-linejoin: miter; stroke-linecap: butt;  opacity: 1.000000" clip-path="url(#-1467158557)" points = "180.701159,141.703667 181.480850,141.827158 182.184219,142.185542 182.742416,142.743739 183.100801,143.447109 183.224292,144.226799 183.100801,145.006490 182.742416,145.709860 182.184219,146.268057 181.480850,146.626441 180.701159,146.749932 179.921468,146.626441 179.218099,146.268057 178.659902,145.709860 178.301518,145.006490 178.178027,144.226799 178.301518,143.447109 178.659902,142.743739 179.218099,142.185542 179.921468,141.827158"/>
<polygon style="fill: #ff0000; stroke: #000000; stroke-width: 1.000000; stroke-linejoin: miter; stroke-linecap: butt;  opacity: 1.000000" clip-path="url(#-1467158557)" points = "226.423630,152.728618 227.203321,152.852109 227.906690,153.210493 228.464887,153.768690 228.823272,154.472059 228.946763,155.251750 228.823272,156.031441 228.464887,156.734810 227.906690,157.293007 227.203321,157.651392 226.423630,157.774883 225.643939,157.651392 224.940570,157.293007 224.382373,156.734810 224.023988,156.031441 223.900497,155.251750 224.023988,154.472059 224.382373,153.768690 224.940570,153.210493 225.643939,152.852109"/>
<polygon style="fill: #ff0000; stroke: #000000; stroke-width: 1.000000; stroke-linejoin: miter; stroke-linecap: butt;  opacity: 1.000000" clip-path="url(#-1467158557)" points = "237.665715,190.924229 238.445405,191.047720 239.148775,191.406104 239.706972,191.964301 240.065356,192.667670 240.188847,193.447361 240.065356,194.227052 239.706972,194.930421 239.148775,195.488618 238.445405,195.847003 237.665715,195.970494 236.886024,195.847003 236.182655,195.488618 235.624458,194.930421 235.266073,194.227052 235.142582,193.447361 235.266073,192.667670 235.624458,191.964301 236.182655,191.406104 236.886024,191.047720"/>
<polygon style="fill: #ff0000; stroke: #000000; stroke-width: 1.000000; stroke-linejoin: miter; stroke-linecap: butt;  opacity: 1.000000" clip-path="url(#-1467158557)" points = "216.802239,186.310966 217.581930,186.434457 218.285299,186.792842 218.843496,187.351039 219.201880,188.054408 219.325371,188.834099 219.201880,189.613790 218.843496,190.317159 218.285299,190.875356 217.581930,191.233740 216.802239,191.357231 216.022548,191.233740 215.319179,190.875356 214.760982,190.317159 214.402597,189.613790 214.279106,188.834099 214.402597,188.054408 214.760982,187.351039 215.319179,186.792842 216.022548,186.434457"/>
<polygon style="fill: #ff0000; stroke: #000000; stroke-width: 1.000000; stroke-linejoin: miter; stroke-linecap: butt;  opacity: 1.000000" clip-path="url(#-1467158557)" points = "191.838011,217.402241 192.617702,217.525732 193.321071,217.884117 193.879268,218.442314 194.237653,219.145683 194.361144,219.925374 194.237653,220.705065 193.879268,221.408434 193.321071,221.966631 192.617702,222.325016 191.838011,222.448506 191.058321,222.325016 190.354951,221.966631 189.796754,221.408434 189.438370,220.705065 189.314879,219.925374 189.438370,219.145683 189.796754,218.442314 190.354951,217.884117 191.058321,217.525732"/>
<polygon style="fill: #ff0000; stroke: #000000; stroke-width: 1.000000; stroke-linejoin: miter; stroke-linecap: butt;  opacity: 1.000000" clip-path="url(#-1467158557)" points = "193.823320,196.811362 194.603010,196.934853 195.306380,197.293238 195.864577,197.851435 196.222961,198.554804 196.346452,199.334495 196.222961,200.114186 195.864577,200.817555 195.306380,201.375752 194.603010,201.734136 193.823320,201.857627 193.043629,201.734136 192.340259,201.375752 191.782062,200.817555 191.423678,200.114186 191.300187,199.334495 191.423678,198.554804 191.782062,197.851435 192.340259,197.293238 193.043629,196.934853"/>
<polygon style="fill: #ff0000; stroke: #000000; stroke-width: 1.000000; stroke-linejoin: miter; stroke-linecap: butt;  opacity: 1.000000" clip-path="url(#-1467158557)" points = "191.152048,182.940846 191.931739,183.064337 192.635108,183.422721 193.193305,183.980918 193.551690,184.684288 193.675181,185.463978 193.551690,186.243669 193.193305,186.947038 192.635108,187.505235 191.931739,187.863620 191.152048,187.987111 190.372358,187.863620 189.668988,187.505235 189.110791,186.947038 188.752407,186.243669 188.628916,185.463978 188.752407,184.684288 189.110791,183.980918 189.668988,183.422721 190.372358,183.064337"/>
<polygon style="fill: #ff0000; stroke: #000000; stroke-width: 1.000000; stroke-linejoin: miter; stroke-linecap: butt;  opacity: 1.000000" clip-path="url(#-1467158557)" points = "209.410848,242.661572 210.190539,242.785063 210.893908,243.143448 211.452105,243.701645 211.810490,244.405014 211.933980,245.184705 211.810490,245.964396 211.452105,246.667765 210.893908,247.225962 210.190539,247.584346 209.410848,247.707837 208.631157,247.584346 207.927788,247.225962 207.369591,246.667765 207.011206,245.964396 206.887715,245.184705 207.011206,244.405014 207.369591,243.701645 207.927788,243.143448 208.631157,242.785063"/>
<polygon style="fill: #ff0000; stroke: #000000; stroke-width: 1.000000; stroke-linejoin: miter; stroke-linecap: butt;  opacity: 1.000000" clip-path="url(#-1467158557)" points = "174.382754,152.072302 175.162445,152.195793 175.865814,152.554178 176.424011,153.112375 176.782395,153.815744 176.905886,154.595435 176.782395,155.375126 176.424011,156.078495 175.865814,156.636692 175.162445,156.995076 174.382754,157.118567 173.603063,156.995076 172.899694,156.636692 172.341497,156.078495 171.983112,155.375126 171.859621,154.595435 171.983112,153.815744 172.341497,153.112375 172.899694,152.554178 173.603063,152.195793"/>
<polygon style="fill: #ff0000; stroke: #000000; stroke-width: 1.000000; stroke-linejoin: miter; stroke-linecap: butt;  opacity: 1.000000" clip-path="url(#-1467158557)" points = "167.059690,193.626834 167.839381,193.750325 168.542750,194.108709 169.100947,194.666906 169.459332,195.370276 169.582823,196.149966 169.459332,196.929657 169.100947,197.633027 168.542750,198.191224 167.839381,198.549608 167.059690,198.673099 166.279999,198.549608 165.576630,198.191224 165.018433,197.633027 164.660049,196.929657 164.536558,196.149966 164.660049,195.370276 165.018433,194.666906 165.576630,194.108709 166.279999,193.750325"/>
<polygon style="fill: #ff0000; stroke: #000000; stroke-width: 1.000000; stroke-linejoin: miter; stroke-linecap: butt;  opacity: 1.000000" clip-path="url(#-1467158557)" points = "146.876354,170.299909 147.656045,170.423400 148.359414,170.781784 148.917611,171.339981 149.275996,172.043350 149.399487,172.823041 149.275996,173.602732 148.917611,174.306101 148.359414,174.864298 147.656045,175.222683 146.876354,175.346174 146.096663,175.222683 145.393294,174.864298 144.835097,174.306101 144.476713,173.602732 144.353222,172.823041 144.476713,172.043350 144.835097,171.339981 145.393294,170.781784 146.096663,170.423400"/>
</g>
<g id="regpolycollection2">
<polygon style="fill: #008000; stroke: #000000; stroke-width: 1.000000; stroke-linejoin: miter; stroke-linecap: butt;  opacity: 1.000000" clip-path="url(#-1467158557)" points = "190.751976,170.439226 195.122170,178.008624 186.381782,178.008624"/>
</g>
<path style="fill: none; stroke: #000000; stroke-width: 1.000000; stroke-linejoin: miter; stroke-linecap: square;  opacity: 1.000000" clip-path="url(#-1467158557)" d="M 190.957500,86.940000 L 192.691571,86.955133 L 194.425114,87.000527 L 196.157601,87.076169 L 197.888503,87.182036 L 199.617295,87.318095 L 201.343448,87.484304 L 203.066438,87.680614 L 204.785739,87.906965 L 206.500828,88.163286 L 208.211183,88.449502 L 209.916282,88.765523 L 211.615606,89.111254 L 213.308637,89.486590 L 214.994860,89.891417 L 216.673760,90.325610 L 218.344828,90.789038 L 220.007553,91.281559 L 221.661429,91.803025 L 223.305952,92.353274 L 224.940621,92.932141 L 226.564939,93.539449 L 228.178411,94.175012 L 229.780545,94.838638 L 231.370853,95.530123 L 232.948850,96.249258 L 234.514057,96.995824 L 236.065996,97.769592 L 237.604194,98.570327 L 239.128184,99.397786 L 240.637500,100.251716 L 242.131683,101.131857 L 243.610278,102.037941 L 245.072835,102.969692 L 246.518907,103.926827 L 247.948055,104.909053 L 249.359843,105.916071 L 250.753841,106.947576 L 252.129624,108.003252 L 253.486774,109.082777 L 254.824877,110.185824 L 256.143525,111.312056 L 257.442317,112.461130 L 258.720857,113.632696 L 259.978756,114.826397 L 261.215630,116.041870 L 262.431103,117.278744 L 263.624804,118.536643 L 264.796370,119.815183 L 265.945444,121.113975 L 267.071676,122.432623 L 268.174723,123.770726 L 269.254248,125.127876 L 270.309924,126.503659 L 271.341429,127.897657 L 272.348447,129.309445 L 273.330673,130.738593 L 274.287808,132.184665 L 275.219559,133.647222 L 276.125643,135.125817 L 277.005784,136.620000 L 277.859714,138.129316 L 278.687173,139.653306 L 279.487908,141.191504 L 280.261676,142.743443 L 281.008242,144.308650 L 281.727377,145.886647 L 282.418862,147.476955 L 283.082488,149.079089 L 283.718051,150.692561 L 284.325359,152.316879 L 284.904226,153.951548 L 285.454475,155.596071 L 285.975941,157.249947 L 286.468462,158.912672 L 286.931890,160.583740 L 287.366083,162.262640 L 287.770910,163.948863 L 288.146246,165.641894 L 288.491977,167.341218 L 288.807998,169.046317 L 289.094214,170.756672 L 289.350535,172.471761 L 289.576886,174.191062 L 289.773196,175.914052 L 289.939405,177.640205 L 290.075464,179.368997 L 290.181331,181.099899 L 290.256973,182.832386 L 290.302367,184.565929 L 290.317500,186.300000 L 290.302367,188.034071 L 290.256973,189.767614 L 290.181331,191.500101 L 290.075464,193.231003 L 289.939405,194.959795 L 289.773196,196.685948 L 289.576886,198.408938 L 289.350535,200.128239 L 289.094214,201.843328 L 288.807998,203.553683 L 288.491977,205.258782 L 288.146246,206.958106 L 287.770910,208.651137 L 287.366083,210.337360 L 286.931890,212.016260 L 286.468462,213.687328 L 285.975941,215.350053 L 285.454475,217.003929 L 284.904226,218.648452 L 284.325359,220.283121 L 283.718051,221.907439 L 283.082488,223.520911 L 282.418862,225.123045 L 281.727377,226.713353 L 281.008242,228.291350 L 280.261676,229.856557 L 279.487908,231.408496 L 278.687173,232.946694 L 277.859714,234.470684 L 277.005784,235.980000 L 276.125643,237.474183 L 275.219559,238.952778 L 274.287808,240.415335 L 273.330673,241.861407 L 272.348447,243.290555 L 271.341429,244.702343 L 270.309924,246.096341 L 269.254248,247.472124 L 268.174723,248.829274 L 267.071676,250.167377 L 265.945444,251.486025 L 264.796370,252.784817 L 263.624804,254.063357 L 262.431103,255.321256 L 261.215630,256.558130 L 259.978756,257.773603 L 258.720857,258.967304 L 257.442317,260.138870 L 256.143525,261.287944 L 254.824877,262.414176 L 253.486774,263.517223 L 252.129624,264.596748 L 250.753841,265.652424 L 249.359843,266.683929 L 247.948055,267.690947 L 246.518907,268.673173 L 245.072835,269.630308 L 243.610278,270.562059 L 242.131683,271.468143 L 240.637500,272.348284 L 239.128184,273.202214 L 237.604194,274.029673 L 236.065996,274.830408 L 234.514057,275.604176 L 232.948850,276.350742 L 231.370853,277.069877 L 229.780545,277.761362 L 228.178411,278.424988 L 226.564939,279.060551 L 224.940621,279.667859 L 223.305952,280.246726 L 221.661429,280.796975 L 220.007553,281.318441 L 218.344828,281.810962 L 216.673760,282.274390 L 214.994860,282.708583 L 213.308637,283.113410 L 211.615606,283.488746 L 209.916282,283.834477 L 208.211183,284.150498 L 206.500828,284.436714 L 204.785739,284.693035 L 203.066438,284.919386 L 201.343448,285.115696 L 199.617295,285.281905 L 197.888503,285.417964 L 196.157601,285.523831 L 194.425114,285.599473 L 192.691571,285.644867 L 190.957500,285.660000 L 189.223429,285.644867 L 187.489886,285.599473 L 185.757399,285.523831 L 184.026497,285.417964 L 182.297705,285.281905 L 180.571552,285.115696 L 178.848562,284.919386 L 177.129261,284.693035 L 175.414172,284.436714 L 173.703817,284.150498 L 171.998718,283.834477 L 170.299394,283.488746 L 168.606363,283.113410 L 166.920140,282.708583 L 165.241240,282.274390 L 163.570172,281.810962 L 161.907447,281.318441 L 160.253571,280.796975 L 158.609048,280.246726 L 156.974379,279.667859 L 155.350061,279.060551 L 153.736589,278.424988 L 152.134455,277.761362 L 150.544147,277.069877 L 148.966150,276.350742 L 147.400943,275.604176 L 145.849004,274.830408 L 144.310806,274.029673 L 142.786816,273.202214 L 141.277500,272.348284 L 139.783317,271.468143 L 138.304722,270.562059 L 136.842165,269.630308 L 135.396093,268.673173 L 133.966945,267.690947 L 132.555157,266.683929 L 131.161159,265.652424 L 129.785376,264.596748 L 128.428226,263.517223 L 127.090123,262.414176 L 125.771475,261.287944 L 124.472683,260.138870 L 123.194143,258.967304 L 121.936244,257.773603 L 120.699370,256.558130 L 119.483897,255.321256 L 118.290196,254.063357 L 117.118630,252.784817 L 115.969556,251.486025 L 114.843324,250.167377 L 113.740277,248.829274 L 112.660752,247.472124 L 111.605076,246.096341 L 110.573571,244.702343 L 109.566553,243.290555 L 108.584327,241.861407 L 107.627192,240.415335 L 106.695441,238.952778 L 105.789357,237.474183 L 104.909216,235.980000 L 104.055286,234.470684 L 103.227827,232.946694 L 102.427092,231.408496 L 101.653324,229.856557 L 100.906758,228.291350 L 100.187623,226.713353 L 99.496138,225.123045 L 98.832512,223.520911 L 98.196949,221.907439 L 97.589641,220.283121 L 97.010774,218.648452 L 96.460525,217.003929 L 95.939059,215.350053 L 95.446538,213.687328 L 94.983110,212.016260 L 94.548917,210.337360 L 94.144090,208.651137 L 93.768754,206.958106 L 93.423023,205.258782 L 93.107002,203.553683 L 92.820786,201.843328 L 92.564465,200.128239 L 92.338114,198.408938 L 92.141804,196.685948 L 91.975595,194.959795 L 91.839536,193.231003 L 91.733669,191.500101 L 91.658027,189.767614 L 91.612633,188.034071 L 91.597500,186.300000 L 91.612633,184.565929 L 91.658027,182.832386 L 91.733669,181.099899 L 91.839536,179.368997 L 91.975595,177.640205 L 92.141804,175.914052 L 92.338114,174.191062 L 92.564465,172.471761 L 92.820786,170.756672 L 93.107002,169.046317 L 93.423023,167.341218 L 93.768754,165.641894 L 94.144090,163.948863 L 94.548917,162.262640 L 94.983110,160.583740 L 95.446538,158.912672 L 95.939059,157.249947 L 96.460525,155.596071 L 97.010774,153.951548 L 97.589641,152.316879 L 98.196949,150.692561 L 98.832512,149.079089 L 99.496138,147.476955 L 100.187623,145.886647 L 100.906758,144.308650 L 101.653324,142.743443 L 102.427092,141.191504 L 103.227827,139.653306 L 104.055286,138.129316 L 104.909216,136.620000 L 105.789357,135.125817 L 106.695441,133.647222 L 107.627192,132.184665 L 108.584327,130.738593 L 109.566553,129.309445 L 110.573571,127.897657 L 111.605076,126.503659 L 112.660752,125.127876 L 113.740277,123.770726 L 114.843324,122.432623 L 115.969556,121.113975 L 117.118630,119.815183 L 118.290196,118.536643 L 119.483897,117.278744 L 120.699370,116.041870 L 121.936244,114.826397 L 123.194143,113.632696 L 124.472683,112.461130 L 125.771475,111.312056 L 127.090123,110.185824 L 128.428226,109.082777 L 129.785376,108.003252 L 131.161159,106.947576 L 132.555157,105.916071 L 133.966945,104.909053 L 135.396093,103.926827 L 136.842165,102.969692 L 138.304722,102.037941 L 139.783317,101.131857 L 141.277500,100.251716 L 142.786816,99.397786 L 144.310806,98.570327 L 145.849004,97.769592 L 147.400943,96.995824 L 148.966150,96.249258 L 150.544147,95.530123 L 152.134455,94.838638 L 153.736589,94.175012 L 155.350061,93.539449 L 156.974379,92.932141 L 158.609048,92.353274 L 160.253571,91.803025 L 161.907447,91.281559 L 163.570172,90.789038 L 165.241240,90.325610 L 166.920140,89.891417 L 168.606363,89.486590 L 170.299394,89.111254 L 171.998718,88.765523 L 173.703817,88.449502 L 175.414172,88.163286 L 177.129261,87.906965 L 178.848562,87.680614 L 180.571552,87.484304 L 182.297705,87.318095 L 184.026497,87.182036 L 185.757399,87.076169 L 187.489886,87.000527 L 189.223429,86.955133 L 190.957500,86.940000 "/>
<path style="fill: none; stroke: #000000; stroke-width: 0.500000; stroke-linejoin: miter; stroke-linecap: butt;  opacity: 1.000000" clip-path="url(#-1467158557)" d="M 278.279611,186.300000 L 284.279611,186.300000"/>
<path style="fill: none; stroke: #000000; stroke-width: 0.500000; stroke-linejoin: miter; stroke-linecap: butt;  opacity: 1.000000" clip-path="url(#-1467158557)" d="M 281.279611,189.300000 L 281.279611,183.300000"/>
<path style="fill: none; stroke: #000000; stroke-width: 0.500000; stroke-linejoin: miter; stroke-linecap: butt;  opacity: 1.000000" clip-path="url(#-1467158557)" d="M 268.554315,186.300000 L 274.554315,186.300000"/>
<path style="fill: none; stroke: #000000; stroke-width: 0.500000; stroke-linejoin: miter; stroke-linecap: butt;  opacity: 1.000000" clip-path="url(#-1467158557)" d="M 271.554315,189.300000 L 271.554315,183.300000"/>
<path style="fill: none; stroke: #000000; stroke-width: 0.500000; stroke-linejoin: miter; stroke-linecap: butt;  opacity: 1.000000" clip-path="url(#-1467158557)" d="M 258.215630,186.300000 L 264.215630,186.300000"/>
<path style="fill: none; stroke: #000000; stroke-width: 0.500000; stroke-linejoin: miter; stroke-linecap: butt;  opacity: 1.000000" clip-path="url(#-1467158557)" d="M 261.215630,189.300000 L 261.215630,183.300000"/>
<path style="fill: none; stroke: #000000; stroke-width: 0.500000; stroke-linejoin: miter; stroke-linecap: butt;  opacity: 1.000000" clip-path="url(#-1467158557)" d="M 247.342237,186.300000 L 253.342237,186.300000"/>
<path style="fill: none; stroke: #000000; stroke-width: 0.500000; stroke-linejoin: miter; stroke-linecap: butt;  opacity: 1.000000" clip-path="url(#-1467158557)" d="M 250.342237,189.300000 L 250.342237,183.300000"/>
<path style="fill: none; stroke: #000000; stroke-width: 0.500000; stroke-linejoin: miter; stroke-linecap: butt;  opacity: 1.000000" clip-path="url(#-1467158557)" d="M 236.016891,186.300000 L 242.016891,186.300000"/>
<path style="fill: none; stroke: #000000; stroke-width: 0.500000; stroke-linejoin: miter; stroke-linecap: butt;  opacity: 1.000000" clip-path="url(#-1467158557)" d="M 239.016891,189.300000 L 239.016891,183.300000"/>
<path style="fill: none; stroke: #000000; stroke-width: 0.500000; stroke-linejoin: miter; stroke-linecap: butt;  opacity: 1.000000" clip-path="url(#-1467158557)" d="M 224.325784,186.300000 L 230.325784,186.300000"/>
<path style="fill: none; stroke: #000000; stroke-width: 0.500000; stroke-linejoin: miter; stroke-linecap: butt;  opacity: 1.000000" clip-path="url(#-1467158557)" d="M 227.325784,189.300000 L 227.325784,183.300000"/>
<path style="fill: none; stroke: #000000; stroke-width: 0.500000; stroke-linejoin: miter; stroke-linecap: butt;  opacity: 1.000000" clip-path="url(#-1467158557)" d="M 212.357892,186.300000 L 218.357892,186.300000"/>
<path style="fill: none; stroke: #000000; stroke-width: 0.500000; stroke-linejoin: miter; stroke-linecap: butt;  opacity: 1.000000" clip-path="url(#-1467158557)" d="M 215.357892,189.300000 L 215.357892,183.300000"/>
<path style="fill: none; stroke: #000000; stroke-width: 0.500000; stroke-linejoin: miter; stroke-linecap: butt;  opacity: 1.000000" clip-path="url(#-1467158557)" d="M 200.204299,186.300000 L 206.204299,186.300000"/>
<path style="fill: none; stroke: #000000; stroke-width: 0.500000; stroke-linejoin: miter; stroke-linecap: butt;  opacity: 1.000000" clip-path="url(#-1467158557)" d="M 203.204299,189.300000 L 203.204299,183.300000"/>
<path style="fill: none; stroke: #000000; stroke-width: 0.500000; stroke-linejoin: miter; stroke-linecap: butt;  opacity: 1.000000" clip-path="url(#-1467158557)" d="M 187.957500,186.300000 L 193.957500,186.300000"/>
<path style="fill: none; stroke: #000000; stroke-width: 0.500000; stroke-linejoin: miter; stroke-linecap: butt;  opacity: 1.000000" clip-path="url(#-1467158557)" d="M 190.957500,189.300000 L 190.957500,183.300000"/>
<path style="fill: none; stroke: #000000; stroke-width: 1.000000; stroke-linejoin: miter; stroke-linecap: square;  opacity: 1.000000" clip-path="url(#-1467158557)" d="M 190.957500,86.940000 L 190.957500,87.810852 L 190.957500,88.689204 L 190.957500,89.574990 "/>
<path style="fill: none; stroke: #000000; stroke-width: 1.000000; stroke-linejoin: miter; stroke-linecap: square;  opacity: 1.000000" clip-path="url(#-1467158557)" d="M 208.211183,88.449502 L 208.059961,89.307123 L 207.907437,90.172131 L 207.753622,91.044460 "/>
<path style="fill: none; stroke: #000000; stroke-width: 1.000000; stroke-linejoin: miter; stroke-linecap: square;  opacity: 1.000000" clip-path="url(#-1467158557)" d="M 224.940621,92.932141 L 224.642773,93.750474 L 224.342358,94.575855 L 224.039402,95.408222 "/>
<path style="fill: none; stroke: #000000; stroke-width: 1.000000; stroke-linejoin: miter; stroke-linecap: square;  opacity: 1.000000" clip-path="url(#-1467158557)" d="M 240.637500,100.251716 L 240.202074,101.005896 L 239.762898,101.766571 L 239.320005,102.533684 "/>
<path style="fill: none; stroke: #000000; stroke-width: 1.000000; stroke-linejoin: miter; stroke-linecap: square;  opacity: 1.000000" clip-path="url(#-1467158557)" d="M 254.824877,110.185824 L 254.265104,110.852935 L 253.700510,111.525792 L 253.131138,112.204343 "/>
<path style="fill: none; stroke: #000000; stroke-width: 1.000000; stroke-linejoin: miter; stroke-linecap: square;  opacity: 1.000000" clip-path="url(#-1467158557)" d="M 267.071676,122.432623 L 266.404565,122.992396 L 265.731708,123.556990 L 265.053157,124.126362 "/>
<path style="fill: none; stroke: #000000; stroke-width: 1.000000; stroke-linejoin: miter; stroke-linecap: square;  opacity: 1.000000" clip-path="url(#-1467158557)" d="M 277.005784,136.620000 L 276.251604,137.055426 L 275.490929,137.494602 L 274.723816,137.937495 "/>
<path style="fill: none; stroke: #000000; stroke-width: 1.000000; stroke-linejoin: miter; stroke-linecap: square;  opacity: 1.000000" clip-path="url(#-1467158557)" d="M 284.325359,152.316879 L 283.507026,152.614727 L 282.681645,152.915142 L 281.849278,153.218098 "/>
<path style="fill: none; stroke: #000000; stroke-width: 1.000000; stroke-linejoin: miter; stroke-linecap: square;  opacity: 1.000000" clip-path="url(#-1467158557)" d="M 288.807998,169.046317 L 287.950377,169.197539 L 287.085369,169.350063 L 286.213040,169.503878 "/>
<path style="fill: none; stroke: #000000; stroke-width: 1.000000; stroke-linejoin: miter; stroke-linecap: square;  opacity: 1.000000" clip-path="url(#-1467158557)" d="M 290.317500,186.300000 L 289.446648,186.300000 L 288.568296,186.300000 L 287.682510,186.300000 "/>
<path style="fill: none; stroke: #000000; stroke-width: 1.000000; stroke-linejoin: miter; stroke-linecap: square;  opacity: 1.000000" clip-path="url(#-1467158557)" d="M 288.807998,203.553683 L 287.950377,203.402461 L 287.085369,203.249937 L 286.213040,203.096122 "/>
<path style="fill: none; stroke: #000000; stroke-width: 1.000000; stroke-linejoin: miter; stroke-linecap: square;  opacity: 1.000000" clip-path="url(#-1467158557)" d="M 284.325359,220.283121 L 283.507026,219.985273 L 282.681645,219.684858 L 281.849278,219.381902 "/>
<path style="fill: none; stroke: #000000; stroke-width: 1.000000; stroke-linejoin: miter; stroke-linecap: square;  opacity: 1.000000" clip-path="url(#-1467158557)" d="M 277.005784,235.980000 L 276.251604,235.544574 L 275.490929,235.105398 L 274.723816,234.662505 "/>
<path style="fill: none; stroke: #000000; stroke-width: 1.000000; stroke-linejoin: miter; stroke-linecap: square;  opacity: 1.000000" clip-path="url(#-1467158557)" d="M 267.071676,250.167377 L 266.404565,249.607604 L 265.731708,249.043010 L 265.053157,248.473638 "/>
<path style="fill: none; stroke: #000000; stroke-width: 1.000000; stroke-linejoin: miter; stroke-linecap: square;  opacity: 1.000000" clip-path="url(#-1467158557)" d="M 254.824877,262.414176 L 254.265104,261.747065 L 253.700510,261.074208 L 253.131138,260.395657 "/>
<path style="fill: none; stroke: #000000; stroke-width: 1.000000; stroke-linejoin: miter; stroke-linecap: square;  opacity: 1.000000" clip-path="url(#-1467158557)" d="M 240.637500,272.348284 L 240.202074,271.594104 L 239.762898,270.833429 L 239.320005,270.066316 "/>
<path style="fill: none; stroke: #000000; stroke-width: 1.000000; stroke-linejoin: miter; stroke-linecap: square;  opacity: 1.000000" clip-path="url(#-1467158557)" d="M 224.940621,279.667859 L 224.642773,278.849526 L 224.342358,278.024145 L 224.039402,277.191778 "/>
<path style="fill: none; stroke: #000000; stroke-width: 1.000000; stroke-linejoin: miter; stroke-linecap: square;  opacity: 1.000000" clip-path="url(#-1467158557)" d="M 208.211183,284.150498 L 208.059961,283.292877 L 207.907437,282.427869 L 207.753622,281.555540 "/>
<path style="fill: none; stroke: #000000; stroke-width: 1.000000; stroke-linejoin: miter; stroke-linecap: square;  opacity: 1.000000" clip-path="url(#-1467158557)" d="M 190.957500,285.660000 L 190.957500,284.789148 L 190.957500,283.910796 L 190.957500,283.025010 "/>
<path style="fill: none; stroke: #000000; stroke-width: 1.000000; stroke-linejoin: miter; stroke-linecap: square;  opacity: 1.000000" clip-path="url(#-1467158557)" d="M 173.703817,284.150498 L 173.855039,283.292877 L 174.007563,282.427869 L 174.161378,281.555540 "/>
<path style="fill: none; stroke: #000000; stroke-width: 1.000000; stroke-linejoin: miter; stroke-linecap: square;  opacity: 1.000000" clip-path="url(#-1467158557)" d="M 156.974379,279.667859 L 157.272227,278.849526 L 157.572642,278.024145 L 157.875598,277.191778 "/>
<path style="fill: none; stroke: #000000; stroke-width: 1.000000; stroke-linejoin: miter; stroke-linecap: square;  opacity: 1.000000" clip-path="url(#-1467158557)" d="M 141.277500,272.348284 L 141.712926,271.594104 L 142.152102,270.833429 L 142.594995,270.066316 "/>
<path style="fill: none; stroke: #000000; stroke-width: 1.000000; stroke-linejoin: miter; stroke-linecap: square;  opacity: 1.000000" clip-path="url(#-1467158557)" d="M 127.090123,262.414176 L 127.649896,261.747065 L 128.214490,261.074208 L 128.783862,260.395657 "/>
<path style="fill: none; stroke: #000000; stroke-width: 1.000000; stroke-linejoin: miter; stroke-linecap: square;  opacity: 1.000000" clip-path="url(#-1467158557)" d="M 114.843324,250.167377 L 115.510435,249.607604 L 116.183292,249.043010 L 116.861843,248.473638 "/>
<path style="fill: none; stroke: #000000; stroke-width: 1.000000; stroke-linejoin: miter; stroke-linecap: square;  opacity: 1.000000" clip-path="url(#-1467158557)" d="M 104.909216,235.980000 L 105.663396,235.544574 L 106.424071,235.105398 L 107.191184,234.662505 "/>
<path style="fill: none; stroke: #000000; stroke-width: 1.000000; stroke-linejoin: miter; stroke-linecap: square;  opacity: 1.000000" clip-path="url(#-1467158557)" d="M 97.589641,220.283121 L 98.407974,219.985273 L 99.233355,219.684858 L 100.065722,219.381902 "/>
<path style="fill: none; stroke: #000000; stroke-width: 1.000000; stroke-linejoin: miter; stroke-linecap: square;  opacity: 1.000000" clip-path="url(#-1467158557)" d="M 93.107002,203.553683 L 93.964623,203.402461 L 94.829631,203.249937 L 95.701960,203.096122 "/>
<path style="fill: none; stroke: #000000; stroke-width: 1.000000; stroke-linejoin: miter; stroke-linecap: square;  opacity: 1.000000" clip-path="url(#-1467158557)" d="M 91.597500,186.300000 L 92.468352,186.300000 L 93.346704,186.300000 L 94.232490,186.300000 "/>
<path style="fill: none; stroke: #000000; stroke-width: 1.000000; stroke-linejoin: miter; stroke-linecap: square;  opacity: 1.000000" clip-path="url(#-1467158557)" d="M 93.107002,169.046317 L 93.964623,169.197539 L 94.829631,169.350063 L 95.701960,169.503878 "/>
<path style="fill: none; stroke: #000000; stroke-width: 1.000000; stroke-linejoin: miter; stroke-linecap: square;  opacity: 1.000000" clip-path="url(#-1467158557)" d="M 97.589641,152.316879 L 98.407974,152.614727 L 99.233355,152.915142 L 100.065722,153.218098 "/>
<path style="fill: none; stroke: #000000; stroke-width: 1.000000; stroke-linejoin: miter; stroke-linecap: square;  opacity: 1.000000" clip-path="url(#-1467158557)" d="M 104.909216,136.620000 L 105.663396,137.055426 L 106.424071,137.494602 L 107.191184,137.937495 "/>
<path style="fill: none; stroke: #000000; stroke-width: 1.000000; stroke-linejoin: miter; stroke-linecap: square;  opacity: 1.000000" clip-path="url(#-1467158557)" d="M 114.843324,122.432623 L 115.510435,122.992396 L 116.183292,123.556990 L 116.861843,124.126362 "/>
<path style="fill: none; stroke: #000000; stroke-width: 1.000000; stroke-linejoin: miter; stroke-linecap: square;  opacity: 1.000000" clip-path="url(#-1467158557)" d="M 127.090123,110.185824 L 127.649896,110.852935 L 128.214490,111.525792 L 128.783862,112.204343 "/>
<path style="fill: none; stroke: #000000; stroke-width: 1.000000; stroke-linejoin: miter; stroke-linecap: square;  opacity: 1.000000" clip-path="url(#-1467158557)" d="M 141.277500,100.251716 L 141.712926,101.005896 L 142.152102,101.766571 L 142.594995,102.533684 "/>
<path style="fill: none; stroke: #000000; stroke-width: 1.000000; stroke-linejoin: miter; stroke-linecap: square;  opacity: 1.000000" clip-path="url(#-1467158557)" d="M 156.974379,92.932141 L 157.272227,93.750474 L 157.572642,94.575855 L 157.875598,95.408222 "/>
<path style="fill: none; stroke: #000000; stroke-width: 1.000000; stroke-linejoin: miter; stroke-linecap: square;  opacity: 1.000000" clip-path="url(#-1467158557)" d="M 173.703817,88.449502 L 173.855039,89.307123 L 174.007563,90.172131 L 174.161378,91.044460 "/>
<path style="fill: none; stroke: #000000; stroke-width: 0.500000; stroke-linejoin: miter; stroke-linecap: square;  opacity: 1.000000" clip-path="url(#-1467158557)" d="M 81.661500,295.596000 L 300.253500,295.596000 L 300.253500,77.004000 L 81.661500,77.004000 L 81.661500,295.596000 "/>
<ellipse style="fill: #0000ff; stroke: #0000ff; stroke-width: 0.500000; stroke-linejoin: miter; stroke-linecap: butt;  opacity: 1.000000" clip-path="url(#-1467158557)" cx="190.380150" cy="155.920275" rx="0.500000" ry="0.000000" transform="rotate(0.000000 190.380150 155.920275)"/>
<ellipse style="fill: #0000ff; stroke: #0000ff; stroke-width: 0.500000; stroke-linejoin: miter; stroke-linecap: butt;  opacity: 1.000000" clip-path="url(#-1467158557)" cx="191.008826" cy="155.918255" rx="0.500000" ry="0.000000" transform="rotate(0.000000 191.008826 155.918255)"/>
<ellipse style="fill: #0000ff; stroke: #0000ff; stroke-width: 0.500000; stroke-linejoin: miter; stroke-linecap: butt;  opacity: 1.000000" clip-path="url(#-1467158557)" cx="191.637238" cy="155.936084" rx="0.500000" ry="0.000000" transform="rotate(0.000000 191.637238 155.936084)"/>
<ellipse style="fill: #0000ff; stroke: #0000ff; stroke-width: 0.500000; stroke-linejoin: miter; stroke-linecap: butt;  opacity: 1.000000" clip-path="url(#-1467158557)" cx="192.264746" cy="155.973744" rx="0.500000" ry="0.000000" transform="rotate(0.000000 192.264746 155.973744)"/>
<ellipse style="fill: #0000ff; stroke: #0000ff; stroke-width: 0.500000; stroke-linejoin: miter; stroke-linecap: butt;  opacity: 1.000000" clip-path="url(#-1467158557)" cx="192.890708" cy="156.031194" rx="0.500000" ry="0.000000" transform="rotate(0.000000 192.890708 156.031194)"/>
<ellipse style="fill: #0000ff; stroke: #0000ff; stroke-width: 0.500000; stroke-linejoin: miter; stroke-linecap: butt;  opacity: 1.000000" clip-path="url(#-1467158557)" cx="193.514488" cy="156.108373" rx="0.500000" ry="0.000000" transform="rotate(0.000000 193.514488 156.108373)"/>
<ellipse style="fill: #0000ff; stroke: #0000ff; stroke-width: 0.500000; stroke-linejoin: miter; stroke-linecap: butt;  opacity: 1.000000" clip-path="url(#-1467158557)" cx="194.135448" cy="156.205200" rx="0.500000" ry="0.000000" transform="rotate(0.000000 194.135448 156.205200)"/>
<ellipse style="fill: #0000ff; stroke: #0000ff; stroke-width: 0.500000; stroke-linejoin: miter; stroke-linecap: butt;  opacity: 1.000000" clip-path="url(#-1467158557)" cx="194.752958" cy="156.321572" rx="0.500000" ry="0.000000" transform="rotate(0.000000 194.752958 156.321572)"/>
<ellipse style="fill: #0000ff; stroke: #0000ff; stroke-width: 0.500000; stroke-linejoin: miter; stroke-linecap: butt;  opacity: 1.000000" clip-path="url(#-1467158557)" cx="195.366388" cy="156.457367" rx="0.500000" ry="0.000000" transform="rotate(0.000000 195.366388 156.457367)"/>
<ellipse style="fill: #0000ff; stroke: #0000ff; stroke-width: 0.500000; stroke-linejoin: miter; stroke-linecap: butt;  opacity: 1.000000" clip-path="url(#-1467158557)" cx="195.975114" cy="156.612441" rx="0.500000" ry="0.000000" transform="rotate(0.000000 195.975114 156.612441)"/>
<ellipse style="fill: #0000ff; stroke: #0000ff; stroke-width: 0.500000; stroke-linejoin: miter; stroke-linecap: butt;  opacity: 1.000000" clip-path="url(#-1467158557)" cx="196.578517" cy="156.786631" rx="0.500000" ry="0.000000" transform="rotate(0.000000 196.578517 156.786631)"/>
<ellipse style="fill: #0000ff; stroke: #0000ff; stroke-width: 0.500000; stroke-linejoin: miter; stroke-linecap: butt;  opacity: 1.000000" clip-path="url(#-1467158557)" cx="197.175985" cy="156.979753" rx="0.500000" ry="0.000000" transform="rotate(0.000000 197.175985 156.979753)"/>
<ellipse style="fill: #0000ff; stroke: #0000ff; stroke-width: 0.500000; stroke-linejoin: miter; stroke-linecap: butt;  opacity: 1.000000" clip-path="url(#-1467158557)" cx="197.766912" cy="157.191605" rx="0.500000" ry="0.000000" transform="rotate(0.000000 197.766912 157.191605)"/>
<ellipse style="fill: #0000ff; stroke: #0000ff; stroke-width: 0.500000; stroke-linejoin: miter; stroke-linecap: butt;  opacity: 1.000000" clip-path="url(#-1467158557)" cx="198.350698" cy="157.421963" rx="0.500000" ry="0.000000" transform="rotate(0.000000 198.350698 157.421963)"/>
<ellipse style="fill: #0000ff; stroke: #0000ff; stroke-width: 0.500000; stroke-linejoin: miter; stroke-linecap: butt;  opacity: 1.000000" clip-path="url(#-1467158557)" cx="198.926753" cy="157.670586" rx="0.500000" ry="0.000000" transform="rotate(0.000000 198.926753 157.670586)"/>
<ellipse style="fill: #0000ff; stroke: #0000ff; stroke-width: 0.500000; stroke-linejoin: miter; stroke-linecap: butt;  opacity: 1.000000" clip-path="url(#-1467158557)" cx="199.494494" cy="157.937213" rx="0.500000" ry="0.000000" transform="rotate(0.000000 199.494494 157.937213)"/>
<ellipse style="fill: #0000ff; stroke: #0000ff; stroke-width: 0.500000; stroke-linejoin: miter; stroke-linecap: butt;  opacity: 1.000000" clip-path="url(#-1467158557)" cx="200.053348" cy="158.221565" rx="0.500000" ry="0.000000" transform="rotate(0.000000 200.053348 158.221565)"/>
<ellipse style="fill: #0000ff; stroke: #0000ff; stroke-width: 0.500000; stroke-linejoin: miter; stroke-linecap: butt;  opacity: 1.000000" clip-path="url(#-1467158557)" cx="200.602753" cy="158.523343" rx="0.500000" ry="0.000000" transform="rotate(0.000000 200.602753 158.523343)"/>
<ellipse style="fill: #0000ff; stroke: #0000ff; stroke-width: 0.500000; stroke-linejoin: miter; stroke-linecap: butt;  opacity: 1.000000" clip-path="url(#-1467158557)" cx="201.142155" cy="158.842232" rx="0.500000" ry="0.000000" transform="rotate(0.000000 201.142155 158.842232)"/>
<ellipse style="fill: #0000ff; stroke: #0000ff; stroke-width: 0.500000; stroke-linejoin: miter; stroke-linecap: butt;  opacity: 1.000000" clip-path="url(#-1467158557)" cx="201.671012" cy="159.177900" rx="0.500000" ry="0.000000" transform="rotate(0.000000 201.671012 159.177900)"/>
<ellipse style="fill: #0000ff; stroke: #0000ff; stroke-width: 0.500000; stroke-linejoin: miter; stroke-linecap: butt;  opacity: 1.000000" clip-path="url(#-1467158557)" cx="202.188795" cy="159.529996" rx="0.500000" ry="0.000000" transform="rotate(0.000000 202.188795 159.529996)"/>
<ellipse style="fill: #0000ff; stroke: #0000ff; stroke-width: 0.500000; stroke-linejoin: miter; stroke-linecap: butt;  opacity: 1.000000" clip-path="url(#-1467158557)" cx="202.694985" cy="159.898152" rx="0.500000" ry="0.000000" transform="rotate(0.000000 202.694985 159.898152)"/>
<ellipse style="fill: #0000ff; stroke: #0000ff; stroke-width: 0.500000; stroke-linejoin: miter; stroke-linecap: butt;  opacity: 1.000000" clip-path="url(#-1467158557)" cx="203.189077" cy="160.281987" rx="0.500000" ry="0.000000" transform="rotate(0.000000 203.189077 160.281987)"/>
<ellipse style="fill: #0000ff; stroke: #0000ff; stroke-width: 0.500000; stroke-linejoin: miter; stroke-linecap: butt;  opacity: 1.000000" clip-path="url(#-1467158557)" cx="203.670579" cy="160.681100" rx="0.500000" ry="0.000000" transform="rotate(0.000000 203.670579 160.681100)"/>
<ellipse style="fill: #0000ff; stroke: #0000ff; stroke-width: 0.500000; stroke-linejoin: miter; stroke-linecap: butt;  opacity: 1.000000" clip-path="url(#-1467158557)" cx="204.139013" cy="161.095078" rx="0.500000" ry="0.000000" transform="rotate(0.000000 204.139013 161.095078)"/>
<ellipse style="fill: #0000ff; stroke: #0000ff; stroke-width: 0.500000; stroke-linejoin: miter; stroke-linecap: butt;  opacity: 1.000000" clip-path="url(#-1467158557)" cx="204.593914" cy="161.523492" rx="0.500000" ry="0.000000" transform="rotate(0.000000 204.593914 161.523492)"/>
<ellipse style="fill: #0000ff; stroke: #0000ff; stroke-width: 0.500000; stroke-linejoin: miter; stroke-linecap: butt;  opacity: 1.000000" clip-path="url(#-1467158557)" cx="205.034833" cy="161.965898" rx="0.500000" ry="0.000000" transform="rotate(0.000000 205.034833 161.965898)"/>
<ellipse style="fill: #0000ff; stroke: #0000ff; stroke-width: 0.500000; stroke-linejoin: miter; stroke-linecap: butt;  opacity: 1.000000" clip-path="url(#-1467158557)" cx="205.461336" cy="162.421839" rx="0.500000" ry="0.000000" transform="rotate(0.000000 205.461336 162.421839)"/>
<ellipse style="fill: #0000ff; stroke: #0000ff; stroke-width: 0.500000; stroke-linejoin: miter; stroke-linecap: butt;  opacity: 1.000000" clip-path="url(#-1467158557)" cx="205.873003" cy="162.890846" rx="0.500000" ry="0.000000" transform="rotate(0.000000 205.873003 162.890846)"/>
<ellipse style="fill: #0000ff; stroke: #0000ff; stroke-width: 0.500000; stroke-linejoin: miter; stroke-linecap: butt;  opacity: 1.000000" clip-path="url(#-1467158557)" cx="206.269432" cy="163.372433" rx="0.500000" ry="0.000000" transform="rotate(0.000000 206.269432 163.372433)"/>
<ellipse style="fill: #0000ff; stroke: #0000ff; stroke-width: 0.500000; stroke-linejoin: miter; stroke-linecap: butt;  opacity: 1.000000" clip-path="url(#-1467158557)" cx="206.650236" cy="163.866108" rx="0.500000" ry="0.000000" transform="rotate(0.000000 206.650236 163.866108)"/>
<ellipse style="fill: #0000ff; stroke: #0000ff; stroke-width: 0.500000; stroke-linejoin: miter; stroke-linecap: butt;  opacity: 1.000000" clip-path="url(#-1467158557)" cx="207.015046" cy="164.371361" rx="0.500000" ry="0.000000" transform="rotate(0.000000 207.015046 164.371361)"/>
<ellipse style="fill: #0000ff; stroke: #0000ff; stroke-width: 0.500000; stroke-linejoin: miter; stroke-linecap: butt;  opacity: 1.000000" clip-path="url(#-1467158557)" cx="207.363508" cy="164.887677" rx="0.500000" ry="0.000000" transform="rotate(0.000000 207.363508 164.887677)"/>
<ellipse style="fill: #0000ff; stroke: #0000ff; stroke-width: 0.500000; stroke-linejoin: miter; stroke-linecap: butt;  opacity: 1.000000" clip-path="url(#-1467158557)" cx="207.695286" cy="165.414526" rx="0.500000" ry="0.000000" transform="rotate(0.000000 207.695286 165.414526)"/>
<ellipse style="fill: #0000ff; stroke: #0000ff; stroke-width: 0.500000; stroke-linejoin: miter; stroke-linecap: butt;  opacity: 1.000000" clip-path="url(#-1467158557)" cx="208.010064" cy="165.951371" rx="0.500000" ry="0.000000" transform="rotate(0.000000 208.010064 165.951371)"/>
<ellipse style="fill: #0000ff; stroke: #0000ff; stroke-width: 0.500000; stroke-linejoin: miter; stroke-linecap: butt;  opacity: 1.000000" clip-path="url(#-1467158557)" cx="208.307540" cy="166.497664" rx="0.500000" ry="0.000000" transform="rotate(0.000000 208.307540 166.497664)"/>
<ellipse style="fill: #0000ff; stroke: #0000ff; stroke-width: 0.500000; stroke-linejoin: miter; stroke-linecap: butt;  opacity: 1.000000" clip-path="url(#-1467158557)" cx="208.587433" cy="167.052849" rx="0.500000" ry="0.000000" transform="rotate(0.000000 208.587433 167.052849)"/>
<ellipse style="fill: #0000ff; stroke: #0000ff; stroke-width: 0.500000; stroke-linejoin: miter; stroke-linecap: butt;  opacity: 1.000000" clip-path="url(#-1467158557)" cx="208.849480" cy="167.616362" rx="0.500000" ry="0.000000" transform="rotate(0.000000 208.849480 167.616362)"/>
<ellipse style="fill: #0000ff; stroke: #0000ff; stroke-width: 0.500000; stroke-linejoin: miter; stroke-linecap: butt;  opacity: 1.000000" clip-path="url(#-1467158557)" cx="209.093434" cy="168.187633" rx="0.500000" ry="0.000000" transform="rotate(0.000000 209.093434 168.187633)"/>
<ellipse style="fill: #0000ff; stroke: #0000ff; stroke-width: 0.500000; stroke-linejoin: miter; stroke-linecap: butt;  opacity: 1.000000" clip-path="url(#-1467158557)" cx="209.319072" cy="168.766083" rx="0.500000" ry="0.000000" transform="rotate(0.000000 209.319072 168.766083)"/>
<ellipse style="fill: #0000ff; stroke: #0000ff; stroke-width: 0.500000; stroke-linejoin: miter; stroke-linecap: butt;  opacity: 1.000000" clip-path="url(#-1467158557)" cx="209.526184" cy="169.351128" rx="0.500000" ry="0.000000" transform="rotate(0.000000 209.526184 169.351128)"/>
<ellipse style="fill: #0000ff; stroke: #0000ff; stroke-width: 0.500000; stroke-linejoin: miter; stroke-linecap: butt;  opacity: 1.000000" clip-path="url(#-1467158557)" cx="209.714583" cy="169.942179" rx="0.500000" ry="0.000000" transform="rotate(0.000000 209.714583 169.942179)"/>
<ellipse style="fill: #0000ff; stroke: #0000ff; stroke-width: 0.500000; stroke-linejoin: miter; stroke-linecap: butt;  opacity: 1.000000" clip-path="url(#-1467158557)" cx="209.884100" cy="170.538640" rx="0.500000" ry="0.000000" transform="rotate(0.000000 209.884100 170.538640)"/>
<ellipse style="fill: #0000ff; stroke: #0000ff; stroke-width: 0.500000; stroke-linejoin: miter; stroke-linecap: butt;  opacity: 1.000000" clip-path="url(#-1467158557)" cx="210.034585" cy="171.139914" rx="0.500000" ry="0.000000" transform="rotate(0.000000 210.034585 171.139914)"/>
<ellipse style="fill: #0000ff; stroke: #0000ff; stroke-width: 0.500000; stroke-linejoin: miter; stroke-linecap: butt;  opacity: 1.000000" clip-path="url(#-1467158557)" cx="210.165908" cy="171.745397" rx="0.500000" ry="0.000000" transform="rotate(0.000000 210.165908 171.745397)"/>
<ellipse style="fill: #0000ff; stroke: #0000ff; stroke-width: 0.500000; stroke-linejoin: miter; stroke-linecap: butt;  opacity: 1.000000" clip-path="url(#-1467158557)" cx="210.277958" cy="172.354486" rx="0.500000" ry="0.000000" transform="rotate(0.000000 210.277958 172.354486)"/>
<ellipse style="fill: #0000ff; stroke: #0000ff; stroke-width: 0.500000; stroke-linejoin: miter; stroke-linecap: butt;  opacity: 1.000000" clip-path="url(#-1467158557)" cx="210.370644" cy="172.966571" rx="0.500000" ry="0.000000" transform="rotate(0.000000 210.370644 172.966571)"/>
<ellipse style="fill: #0000ff; stroke: #0000ff; stroke-width: 0.500000; stroke-linejoin: miter; stroke-linecap: butt;  opacity: 1.000000" clip-path="url(#-1467158557)" cx="210.443893" cy="173.581044" rx="0.500000" ry="0.000000" transform="rotate(0.000000 210.443893 173.581044)"/>
<ellipse style="fill: #0000ff; stroke: #0000ff; stroke-width: 0.500000; stroke-linejoin: miter; stroke-linecap: butt;  opacity: 1.000000" clip-path="url(#-1467158557)" cx="210.497654" cy="174.197293" rx="0.500000" ry="0.000000" transform="rotate(0.000000 210.497654 174.197293)"/>
<ellipse style="fill: #0000ff; stroke: #0000ff; stroke-width: 0.500000; stroke-linejoin: miter; stroke-linecap: butt;  opacity: 1.000000" clip-path="url(#-1467158557)" cx="210.531893" cy="174.814709" rx="0.500000" ry="0.000000" transform="rotate(0.000000 210.531893 174.814709)"/>
<ellipse style="fill: #0000ff; stroke: #0000ff; stroke-width: 0.500000; stroke-linejoin: miter; stroke-linecap: butt;  opacity: 1.000000" clip-path="url(#-1467158557)" cx="210.546596" cy="175.432679" rx="0.500000" ry="0.000000" transform="rotate(0.000000 210.546596 175.432679)"/>
<ellipse style="fill: #0000ff; stroke: #0000ff; stroke-width: 0.500000; stroke-linejoin: miter; stroke-linecap: butt;  opacity: 1.000000" clip-path="url(#-1467158557)" cx="210.541769" cy="176.050594" rx="0.500000" ry="0.000000" transform="rotate(0.000000 210.541769 176.050594)"/>
<ellipse style="fill: #0000ff; stroke: #0000ff; stroke-width: 0.500000; stroke-linejoin: miter; stroke-linecap: butt;  opacity: 1.000000" clip-path="url(#-1467158557)" cx="210.517437" cy="176.667845" rx="0.500000" ry="0.000000" transform="rotate(0.000000 210.517437 176.667845)"/>
<ellipse style="fill: #0000ff; stroke: #0000ff; stroke-width: 0.500000; stroke-linejoin: miter; stroke-linecap: butt;  opacity: 1.000000" clip-path="url(#-1467158557)" cx="210.473645" cy="177.283825" rx="0.500000" ry="0.000000" transform="rotate(0.000000 210.473645 177.283825)"/>
<ellipse style="fill: #0000ff; stroke: #0000ff; stroke-width: 0.500000; stroke-linejoin: miter; stroke-linecap: butt;  opacity: 1.000000" clip-path="url(#-1467158557)" cx="210.410454" cy="177.897930" rx="0.500000" ry="0.000000" transform="rotate(0.000000 210.410454 177.897930)"/>
<ellipse style="fill: #0000ff; stroke: #0000ff; stroke-width: 0.500000; stroke-linejoin: miter; stroke-linecap: butt;  opacity: 1.000000" clip-path="url(#-1467158557)" cx="210.327947" cy="178.509557" rx="0.500000" ry="0.000000" transform="rotate(0.000000 210.327947 178.509557)"/>
<ellipse style="fill: #0000ff; stroke: #0000ff; stroke-width: 0.500000; stroke-linejoin: miter; stroke-linecap: butt;  opacity: 1.000000" clip-path="url(#-1467158557)" cx="210.226224" cy="179.118110" rx="0.500000" ry="0.000000" transform="rotate(0.000000 210.226224 179.118110)"/>
<ellipse style="fill: #0000ff; stroke: #0000ff; stroke-width: 0.500000; stroke-linejoin: miter; stroke-linecap: butt;  opacity: 1.000000" clip-path="url(#-1467158557)" cx="210.105406" cy="179.722994" rx="0.500000" ry="0.000000" transform="rotate(0.000000 210.105406 179.722994)"/>
<ellipse style="fill: #0000ff; stroke: #0000ff; stroke-width: 0.500000; stroke-linejoin: miter; stroke-linecap: butt;  opacity: 1.000000" clip-path="url(#-1467158557)" cx="209.965628" cy="180.323621" rx="0.500000" ry="0.000000" transform="rotate(0.000000 209.965628 180.323621)"/>
<ellipse style="fill: #0000ff; stroke: #0000ff; stroke-width: 0.500000; stroke-linejoin: miter; stroke-linecap: butt;  opacity: 1.000000" clip-path="url(#-1467158557)" cx="209.807047" cy="180.919407" rx="0.500000" ry="0.000000" transform="rotate(0.000000 209.807047 180.919407)"/>
<ellipse style="fill: #0000ff; stroke: #0000ff; stroke-width: 0.500000; stroke-linejoin: miter; stroke-linecap: butt;  opacity: 1.000000" clip-path="url(#-1467158557)" cx="209.629837" cy="181.509775" rx="0.500000" ry="0.000000" transform="rotate(0.000000 209.629837 181.509775)"/>
<ellipse style="fill: #0000ff; stroke: #0000ff; stroke-width: 0.500000; stroke-linejoin: miter; stroke-linecap: butt;  opacity: 1.000000" clip-path="url(#-1467158557)" cx="209.434188" cy="182.094154" rx="0.500000" ry="0.000000" transform="rotate(0.000000 209.434188 182.094154)"/>
<ellipse style="fill: #0000ff; stroke: #0000ff; stroke-width: 0.500000; stroke-linejoin: miter; stroke-linecap: butt;  opacity: 1.000000" clip-path="url(#-1467158557)" cx="209.220309" cy="182.671979" rx="0.500000" ry="0.000000" transform="rotate(0.000000 209.220309 182.671979)"/>
<ellipse style="fill: #0000ff; stroke: #0000ff; stroke-width: 0.500000; stroke-linejoin: miter; stroke-linecap: butt;  opacity: 1.000000" clip-path="url(#-1467158557)" cx="208.988426" cy="183.242693" rx="0.500000" ry="0.000000" transform="rotate(0.000000 208.988426 183.242693)"/>
<ellipse style="fill: #0000ff; stroke: #0000ff; stroke-width: 0.500000; stroke-linejoin: miter; stroke-linecap: butt;  opacity: 1.000000" clip-path="url(#-1467158557)" cx="208.738783" cy="183.805747" rx="0.500000" ry="0.000000" transform="rotate(0.000000 208.738783 183.805747)"/>
<ellipse style="fill: #0000ff; stroke: #0000ff; stroke-width: 0.500000; stroke-linejoin: miter; stroke-linecap: butt;  opacity: 1.000000" clip-path="url(#-1467158557)" cx="208.471637" cy="184.360601" rx="0.500000" ry="0.000000" transform="rotate(0.000000 208.471637 184.360601)"/>
<ellipse style="fill: #0000ff; stroke: #0000ff; stroke-width: 0.500000; stroke-linejoin: miter; stroke-linecap: butt;  opacity: 1.000000" clip-path="url(#-1467158557)" cx="208.187265" cy="184.906723" rx="0.500000" ry="0.000000" transform="rotate(0.000000 208.187265 184.906723)"/>
<ellipse style="fill: #0000ff; stroke: #0000ff; stroke-width: 0.500000; stroke-linejoin: miter; stroke-linecap: butt;  opacity: 1.000000" clip-path="url(#-1467158557)" cx="207.885959" cy="185.443590" rx="0.500000" ry="0.000000" transform="rotate(0.000000 207.885959 185.443590)"/>
<ellipse style="fill: #0000ff; stroke: #0000ff; stroke-width: 0.500000; stroke-linejoin: miter; stroke-linecap: butt;  opacity: 1.000000" clip-path="url(#-1467158557)" cx="207.568026" cy="185.970689" rx="0.500000" ry="0.000000" transform="rotate(0.000000 207.568026 185.970689)"/>
<ellipse style="fill: #0000ff; stroke: #0000ff; stroke-width: 0.500000; stroke-linejoin: miter; stroke-linecap: butt;  opacity: 1.000000" clip-path="url(#-1467158557)" cx="207.233788" cy="186.487518" rx="0.500000" ry="0.000000" transform="rotate(0.000000 207.233788 186.487518)"/>
<ellipse style="fill: #0000ff; stroke: #0000ff; stroke-width: 0.500000; stroke-linejoin: miter; stroke-linecap: butt;  opacity: 1.000000" clip-path="url(#-1467158557)" cx="206.883583" cy="186.993586" rx="0.500000" ry="0.000000" transform="rotate(0.000000 206.883583 186.993586)"/>
<ellipse style="fill: #0000ff; stroke: #0000ff; stroke-width: 0.500000; stroke-linejoin: miter; stroke-linecap: butt;  opacity: 1.000000" clip-path="url(#-1467158557)" cx="206.517763" cy="187.488411" rx="0.500000" ry="0.000000" transform="rotate(0.000000 206.517763 187.488411)"/>
<ellipse style="fill: #0000ff; stroke: #0000ff; stroke-width: 0.500000; stroke-linejoin: miter; stroke-linecap: butt;  opacity: 1.000000" clip-path="url(#-1467158557)" cx="206.136695" cy="187.971523" rx="0.500000" ry="0.000000" transform="rotate(0.000000 206.136695 187.971523)"/>
<ellipse style="fill: #0000ff; stroke: #0000ff; stroke-width: 0.500000; stroke-linejoin: miter; stroke-linecap: butt;  opacity: 1.000000" clip-path="url(#-1467158557)" cx="205.740758" cy="188.442466" rx="0.500000" ry="0.000000" transform="rotate(0.000000 205.740758 188.442466)"/>
<ellipse style="fill: #0000ff; stroke: #0000ff; stroke-width: 0.500000; stroke-linejoin: miter; stroke-linecap: butt;  opacity: 1.000000" clip-path="url(#-1467158557)" cx="205.330347" cy="188.900795" rx="0.500000" ry="0.000000" transform="rotate(0.000000 205.330347 188.900795)"/>
<ellipse style="fill: #0000ff; stroke: #0000ff; stroke-width: 0.500000; stroke-linejoin: miter; stroke-linecap: butt;  opacity: 1.000000" clip-path="url(#-1467158557)" cx="204.905868" cy="189.346075" rx="0.500000" ry="0.000000" transform="rotate(0.000000 204.905868 189.346075)"/>
<ellipse style="fill: #0000ff; stroke: #0000ff; stroke-width: 0.500000; stroke-linejoin: miter; stroke-linecap: butt;  opacity: 1.000000" clip-path="url(#-1467158557)" cx="204.467741" cy="189.777888" rx="0.500000" ry="0.000000" transform="rotate(0.000000 204.467741 189.777888)"/>
<ellipse style="fill: #0000ff; stroke: #0000ff; stroke-width: 0.500000; stroke-linejoin: miter; stroke-linecap: butt;  opacity: 1.000000" clip-path="url(#-1467158557)" cx="204.016397" cy="190.195827" rx="0.500000" ry="0.000000" transform="rotate(0.000000 204.016397 190.195827)"/>
<ellipse style="fill: #0000ff; stroke: #0000ff; stroke-width: 0.500000; stroke-linejoin: miter; stroke-linecap: butt;  opacity: 1.000000" clip-path="url(#-1467158557)" cx="203.552280" cy="190.599499" rx="0.500000" ry="0.000000" transform="rotate(0.000000 203.552280 190.599499)"/>
<ellipse style="fill: #0000ff; stroke: #0000ff; stroke-width: 0.500000; stroke-linejoin: miter; stroke-linecap: butt;  opacity: 1.000000" clip-path="url(#-1467158557)" cx="203.075845" cy="190.988525" rx="0.500000" ry="0.000000" transform="rotate(0.000000 203.075845 190.988525)"/>
<ellipse style="fill: #0000ff; stroke: #0000ff; stroke-width: 0.500000; stroke-linejoin: miter; stroke-linecap: butt;  opacity: 1.000000" clip-path="url(#-1467158557)" cx="202.587558" cy="191.362541" rx="0.500000" ry="0.000000" transform="rotate(0.000000 202.587558 191.362541)"/>
<ellipse style="fill: #0000ff; stroke: #0000ff; stroke-width: 0.500000; stroke-linejoin: miter; stroke-linecap: butt;  opacity: 1.000000" clip-path="url(#-1467158557)" cx="202.087894" cy="191.721195" rx="0.500000" ry="0.000000" transform="rotate(0.000000 202.087894 191.721195)"/>
<ellipse style="fill: #0000ff; stroke: #0000ff; stroke-width: 0.500000; stroke-linejoin: miter; stroke-linecap: butt;  opacity: 1.000000" clip-path="url(#-1467158557)" cx="201.577341" cy="192.064152" rx="0.500000" ry="0.000000" transform="rotate(0.000000 201.577341 192.064152)"/>
<ellipse style="fill: #0000ff; stroke: #0000ff; stroke-width: 0.500000; stroke-linejoin: miter; stroke-linecap: butt;  opacity: 1.000000" clip-path="url(#-1467158557)" cx="201.056395" cy="192.391093" rx="0.500000" ry="0.000000" transform="rotate(0.000000 201.056395 192.391093)"/>
<ellipse style="fill: #0000ff; stroke: #0000ff; stroke-width: 0.500000; stroke-linejoin: miter; stroke-linecap: butt;  opacity: 1.000000" clip-path="url(#-1467158557)" cx="200.525561" cy="192.701711" rx="0.500000" ry="0.000000" transform="rotate(0.000000 200.525561 192.701711)"/>
<ellipse style="fill: #0000ff; stroke: #0000ff; stroke-width: 0.500000; stroke-linejoin: miter; stroke-linecap: butt;  opacity: 1.000000" clip-path="url(#-1467158557)" cx="199.985352" cy="192.995717" rx="0.500000" ry="0.000000" transform="rotate(0.000000 199.985352 192.995717)"/>
<ellipse style="fill: #0000ff; stroke: #0000ff; stroke-width: 0.500000; stroke-linejoin: miter; stroke-linecap: butt;  opacity: 1.000000" clip-path="url(#-1467158557)" cx="199.436292" cy="193.272836" rx="0.500000" ry="0.000000" transform="rotate(0.000000 199.436292 193.272836)"/>
<ellipse style="fill: #0000ff; stroke: #0000ff; stroke-width: 0.500000; stroke-linejoin: miter; stroke-linecap: butt;  opacity: 1.000000" clip-path="url(#-1467158557)" cx="198.878909" cy="193.532812" rx="0.500000" ry="0.000000" transform="rotate(0.000000 198.878909 193.532812)"/>
<ellipse style="fill: #0000ff; stroke: #0000ff; stroke-width: 0.500000; stroke-linejoin: miter; stroke-linecap: butt;  opacity: 1.000000" clip-path="url(#-1467158557)" cx="198.313742" cy="193.775402" rx="0.500000" ry="0.000000" transform="rotate(0.000000 198.313742 193.775402)"/>
<ellipse style="fill: #0000ff; stroke: #0000ff; stroke-width: 0.500000; stroke-linejoin: miter; stroke-linecap: butt;  opacity: 1.000000" clip-path="url(#-1467158557)" cx="197.741334" cy="194.000380" rx="0.500000" ry="0.000000" transform="rotate(0.000000 197.741334 194.000380)"/>
<ellipse style="fill: #0000ff; stroke: #0000ff; stroke-width: 0.500000; stroke-linejoin: miter; stroke-linecap: butt;  opacity: 1.000000" clip-path="url(#-1467158557)" cx="197.162235" cy="194.207538" rx="0.500000" ry="0.000000" transform="rotate(0.000000 197.162235 194.207538)"/>
<ellipse style="fill: #0000ff; stroke: #0000ff; stroke-width: 0.500000; stroke-linejoin: miter; stroke-linecap: butt;  opacity: 1.000000" clip-path="url(#-1467158557)" cx="196.577002" cy="194.396683" rx="0.500000" ry="0.000000" transform="rotate(0.000000 196.577002 194.396683)"/>
<ellipse style="fill: #0000ff; stroke: #0000ff; stroke-width: 0.500000; stroke-linejoin: miter; stroke-linecap: butt;  opacity: 1.000000" clip-path="url(#-1467158557)" cx="195.986196" cy="194.567639" rx="0.500000" ry="0.000000" transform="rotate(0.000000 195.986196 194.567639)"/>
<ellipse style="fill: #0000ff; stroke: #0000ff; stroke-width: 0.500000; stroke-linejoin: miter; stroke-linecap: butt;  opacity: 1.000000" clip-path="url(#-1467158557)" cx="195.390383" cy="194.720249" rx="0.500000" ry="0.000000" transform="rotate(0.000000 195.390383 194.720249)"/>
<ellipse style="fill: #0000ff; stroke: #0000ff; stroke-width: 0.500000; stroke-linejoin: miter; stroke-linecap: butt;  opacity: 1.000000" clip-path="url(#-1467158557)" cx="194.790135" cy="194.854370" rx="0.500000" ry="0.000000" transform="rotate(0.000000 194.790135 194.854370)"/>
<ellipse style="fill: #0000ff; stroke: #0000ff; stroke-width: 0.500000; stroke-linejoin: miter; stroke-linecap: butt;  opacity: 1.000000" clip-path="url(#-1467158557)" cx="194.186026" cy="194.969877" rx="0.500000" ry="0.000000" transform="rotate(0.000000 194.186026 194.969877)"/>
<ellipse style="fill: #0000ff; stroke: #0000ff; stroke-width: 0.500000; stroke-linejoin: miter; stroke-linecap: butt;  opacity: 1.000000" clip-path="url(#-1467158557)" cx="193.578633" cy="195.066665" rx="0.500000" ry="0.000000" transform="rotate(0.000000 193.578633 195.066665)"/>
<ellipse style="fill: #0000ff; stroke: #0000ff; stroke-width: 0.500000; stroke-linejoin: miter; stroke-linecap: butt;  opacity: 1.000000" clip-path="url(#-1467158557)" cx="192.968538" cy="195.144642" rx="0.500000" ry="0.000000" transform="rotate(0.000000 192.968538 195.144642)"/>
<ellipse style="fill: #0000ff; stroke: #0000ff; stroke-width: 0.500000; stroke-linejoin: miter; stroke-linecap: butt;  opacity: 1.000000" clip-path="url(#-1467158557)" cx="192.356323" cy="195.203738" rx="0.500000" ry="0.000000" transform="rotate(0.000000 192.356323 195.203738)"/>
<ellipse style="fill: #0000ff; stroke: #0000ff; stroke-width: 0.500000; stroke-linejoin: miter; stroke-linecap: butt;  opacity: 1.000000" clip-path="url(#-1467158557)" cx="191.742574" cy="195.243895" rx="0.500000" ry="0.000000" transform="rotate(0.000000 191.742574 195.243895)"/>
<ellipse style="fill: #0000ff; stroke: #0000ff; stroke-width: 0.500000; stroke-linejoin: miter; stroke-linecap: butt;  opacity: 1.000000" clip-path="url(#-1467158557)" cx="191.127876" cy="195.265078" rx="0.500000" ry="0.000000" transform="rotate(0.000000 191.127876 195.265078)"/>
<ellipse style="fill: #0000ff; stroke: #0000ff; stroke-width: 0.500000; stroke-linejoin: miter; stroke-linecap: butt;  opacity: 1.000000" clip-path="url(#-1467158557)" cx="190.512818" cy="195.267266" rx="0.500000" ry="0.000000" transform="rotate(0.000000 190.512818 195.267266)"/>
<ellipse style="fill: #0000ff; stroke: #0000ff; stroke-width: 0.500000; stroke-linejoin: miter; stroke-linecap: butt;  opacity: 1.000000" clip-path="url(#-1467158557)" cx="189.897986" cy="195.250457" rx="0.500000" ry="0.000000" transform="rotate(0.000000 189.897986 195.250457)"/>
<ellipse style="fill: #0000ff; stroke: #0000ff; stroke-width: 0.500000; stroke-linejoin: miter; stroke-linecap: butt;  opacity: 1.000000" clip-path="url(#-1467158557)" cx="189.283968" cy="195.214666" rx="0.500000" ry="0.000000" transform="rotate(0.000000 189.283968 195.214666)"/>
<ellipse style="fill: #0000ff; stroke: #0000ff; stroke-width: 0.500000; stroke-linejoin: miter; stroke-linecap: butt;  opacity: 1.000000" clip-path="url(#-1467158557)" cx="188.671351" cy="195.159925" rx="0.500000" ry="0.000000" transform="rotate(0.000000 188.671351 195.159925)"/>
<ellipse style="fill: #0000ff; stroke: #0000ff; stroke-width: 0.500000; stroke-linejoin: miter; stroke-linecap: butt;  opacity: 1.000000" clip-path="url(#-1467158557)" cx="188.060719" cy="195.086286" rx="0.500000" ry="0.000000" transform="rotate(0.000000 188.060719 195.086286)"/>
<ellipse style="fill: #0000ff; stroke: #0000ff; stroke-width: 0.500000; stroke-linejoin: miter; stroke-linecap: butt;  opacity: 1.000000" clip-path="url(#-1467158557)" cx="187.452657" cy="194.993814" rx="0.500000" ry="0.000000" transform="rotate(0.000000 187.452657 194.993814)"/>
<ellipse style="fill: #0000ff; stroke: #0000ff; stroke-width: 0.500000; stroke-linejoin: miter; stroke-linecap: butt;  opacity: 1.000000" clip-path="url(#-1467158557)" cx="186.847747" cy="194.882597" rx="0.500000" ry="0.000000" transform="rotate(0.000000 186.847747 194.882597)"/>
<ellipse style="fill: #0000ff; stroke: #0000ff; stroke-width: 0.500000; stroke-linejoin: miter; stroke-linecap: butt;  opacity: 1.000000" clip-path="url(#-1467158557)" cx="186.246566" cy="194.752736" rx="0.500000" ry="0.000000" transform="rotate(0.000000 186.246566 194.752736)"/>
<ellipse style="fill: #0000ff; stroke: #0000ff; stroke-width: 0.500000; stroke-linejoin: miter; stroke-linecap: butt;  opacity: 1.000000" clip-path="url(#-1467158557)" cx="185.649691" cy="194.604351" rx="0.500000" ry="0.000000" transform="rotate(0.000000 185.649691 194.604351)"/>
<ellipse style="fill: #0000ff; stroke: #0000ff; stroke-width: 0.500000; stroke-linejoin: miter; stroke-linecap: butt;  opacity: 1.000000" clip-path="url(#-1467158557)" cx="185.057694" cy="194.437578" rx="0.500000" ry="0.000000" transform="rotate(0.000000 185.057694 194.437578)"/>
<ellipse style="fill: #0000ff; stroke: #0000ff; stroke-width: 0.500000; stroke-linejoin: miter; stroke-linecap: butt;  opacity: 1.000000" clip-path="url(#-1467158557)" cx="184.471142" cy="194.252573" rx="0.500000" ry="0.000000" transform="rotate(0.000000 184.471142 194.252573)"/>
<ellipse style="fill: #0000ff; stroke: #0000ff; stroke-width: 0.500000; stroke-linejoin: miter; stroke-linecap: butt;  opacity: 1.000000" clip-path="url(#-1467158557)" cx="183.890599" cy="194.049506" rx="0.500000" ry="0.000000" transform="rotate(0.000000 183.890599 194.049506)"/>
<ellipse style="fill: #0000ff; stroke: #0000ff; stroke-width: 0.500000; stroke-linejoin: miter; stroke-linecap: butt;  opacity: 1.000000" clip-path="url(#-1467158557)" cx="183.316623" cy="193.828565" rx="0.500000" ry="0.000000" transform="rotate(0.000000 183.316623 193.828565)"/>
<ellipse style="fill: #0000ff; stroke: #0000ff; stroke-width: 0.500000; stroke-linejoin: miter; stroke-linecap: butt;  opacity: 1.000000" clip-path="url(#-1467158557)" cx="182.749765" cy="193.589955" rx="0.500000" ry="0.000000" transform="rotate(0.000000 182.749765 193.589955)"/>
<ellipse style="fill: #0000ff; stroke: #0000ff; stroke-width: 0.500000; stroke-linejoin: miter; stroke-linecap: butt;  opacity: 1.000000" clip-path="url(#-1467158557)" cx="182.190571" cy="193.333897" rx="0.500000" ry="0.000000" transform="rotate(0.000000 182.190571 193.333897)"/>
<ellipse style="fill: #0000ff; stroke: #0000ff; stroke-width: 0.500000; stroke-linejoin: miter; stroke-linecap: butt;  opacity: 1.000000" clip-path="url(#-1467158557)" cx="181.639582" cy="193.060629" rx="0.500000" ry="0.000000" transform="rotate(0.000000 181.639582 193.060629)"/>
<ellipse style="fill: #0000ff; stroke: #0000ff; stroke-width: 0.500000; stroke-linejoin: miter; stroke-linecap: butt;  opacity: 1.000000" clip-path="url(#-1467158557)" cx="181.097329" cy="192.770404" rx="0.500000" ry="0.000000" transform="rotate(0.000000 181.097329 192.770404)"/>
<ellipse style="fill: #0000ff; stroke: #0000ff; stroke-width: 0.500000; stroke-linejoin: miter; stroke-linecap: butt;  opacity: 1.000000" clip-path="url(#-1467158557)" cx="180.564337" cy="192.463493" rx="0.500000" ry="0.000000" transform="rotate(0.000000 180.564337 192.463493)"/>
<ellipse style="fill: #0000ff; stroke: #0000ff; stroke-width: 0.500000; stroke-linejoin: miter; stroke-linecap: butt;  opacity: 1.000000" clip-path="url(#-1467158557)" cx="180.041122" cy="192.140182" rx="0.500000" ry="0.000000" transform="rotate(0.000000 180.041122 192.140182)"/>
<ellipse style="fill: #0000ff; stroke: #0000ff; stroke-width: 0.500000; stroke-linejoin: miter; stroke-linecap: butt;  opacity: 1.000000" clip-path="url(#-1467158557)" cx="179.528192" cy="191.800772" rx="0.500000" ry="0.000000" transform="rotate(0.000000 179.528192 191.800772)"/>
<ellipse style="fill: #0000ff; stroke: #0000ff; stroke-width: 0.500000; stroke-linejoin: miter; stroke-linecap: butt;  opacity: 1.000000" clip-path="url(#-1467158557)" cx="179.026047" cy="191.445579" rx="0.500000" ry="0.000000" transform="rotate(0.000000 179.026047 191.445579)"/>
<ellipse style="fill: #0000ff; stroke: #0000ff; stroke-width: 0.500000; stroke-linejoin: miter; stroke-linecap: butt;  opacity: 1.000000" clip-path="url(#-1467158557)" cx="178.535174" cy="191.074936" rx="0.500000" ry="0.000000" transform="rotate(0.000000 178.535174 191.074936)"/>
<ellipse style="fill: #0000ff; stroke: #0000ff; stroke-width: 0.500000; stroke-linejoin: miter; stroke-linecap: butt;  opacity: 1.000000" clip-path="url(#-1467158557)" cx="178.056055" cy="190.689190" rx="0.500000" ry="0.000000" transform="rotate(0.000000 178.056055 190.689190)"/>
<ellipse style="fill: #0000ff; stroke: #0000ff; stroke-width: 0.500000; stroke-linejoin: miter; stroke-linecap: butt;  opacity: 1.000000" clip-path="url(#-1467158557)" cx="177.589157" cy="190.288701" rx="0.500000" ry="0.000000" transform="rotate(0.000000 177.589157 190.288701)"/>
<ellipse style="fill: #0000ff; stroke: #0000ff; stroke-width: 0.500000; stroke-linejoin: miter; stroke-linecap: butt;  opacity: 1.000000" clip-path="url(#-1467158557)" cx="177.134940" cy="189.873847" rx="0.500000" ry="0.000000" transform="rotate(0.000000 177.134940 189.873847)"/>
<ellipse style="fill: #0000ff; stroke: #0000ff; stroke-width: 0.500000; stroke-linejoin: miter; stroke-linecap: butt;  opacity: 1.000000" clip-path="url(#-1467158557)" cx="176.693849" cy="189.445016" rx="0.500000" ry="0.000000" transform="rotate(0.000000 176.693849 189.445016)"/>
<ellipse style="fill: #0000ff; stroke: #0000ff; stroke-width: 0.500000; stroke-linejoin: miter; stroke-linecap: butt;  opacity: 1.000000" clip-path="url(#-1467158557)" cx="176.266320" cy="189.002612" rx="0.500000" ry="0.000000" transform="rotate(0.000000 176.266320 189.002612)"/>
<ellipse style="fill: #0000ff; stroke: #0000ff; stroke-width: 0.500000; stroke-linejoin: miter; stroke-linecap: butt;  opacity: 1.000000" clip-path="url(#-1467158557)" cx="175.852776" cy="188.547053" rx="0.500000" ry="0.000000" transform="rotate(0.000000 175.852776 188.547053)"/>
<ellipse style="fill: #0000ff; stroke: #0000ff; stroke-width: 0.500000; stroke-linejoin: miter; stroke-linecap: butt;  opacity: 1.000000" clip-path="url(#-1467158557)" cx="175.453626" cy="188.078768" rx="0.500000" ry="0.000000" transform="rotate(0.000000 175.453626 188.078768)"/>
<ellipse style="fill: #0000ff; stroke: #0000ff; stroke-width: 0.500000; stroke-linejoin: miter; stroke-linecap: butt;  opacity: 1.000000" clip-path="url(#-1467158557)" cx="175.069270" cy="187.598200" rx="0.500000" ry="0.000000" transform="rotate(0.000000 175.069270 187.598200)"/>
<ellipse style="fill: #0000ff; stroke: #0000ff; stroke-width: 0.500000; stroke-linejoin: miter; stroke-linecap: butt;  opacity: 1.000000" clip-path="url(#-1467158557)" cx="174.700089" cy="187.105804" rx="0.500000" ry="0.000000" transform="rotate(0.000000 174.700089 187.105804)"/>
<ellipse style="fill: #0000ff; stroke: #0000ff; stroke-width: 0.500000; stroke-linejoin: miter; stroke-linecap: butt;  opacity: 1.000000" clip-path="url(#-1467158557)" cx="174.346456" cy="186.602047" rx="0.500000" ry="0.000000" transform="rotate(0.000000 174.346456 186.602047)"/>
<ellipse style="fill: #0000ff; stroke: #0000ff; stroke-width: 0.500000; stroke-linejoin: miter; stroke-linecap: butt;  opacity: 1.000000" clip-path="url(#-1467158557)" cx="174.008725" cy="186.087408" rx="0.500000" ry="0.000000" transform="rotate(0.000000 174.008725 186.087408)"/>
<ellipse style="fill: #0000ff; stroke: #0000ff; stroke-width: 0.500000; stroke-linejoin: miter; stroke-linecap: butt;  opacity: 1.000000" clip-path="url(#-1467158557)" cx="173.687238" cy="185.562377" rx="0.500000" ry="0.000000" transform="rotate(0.000000 173.687238 185.562377)"/>
<ellipse style="fill: #0000ff; stroke: #0000ff; stroke-width: 0.500000; stroke-linejoin: miter; stroke-linecap: butt;  opacity: 1.000000" clip-path="url(#-1467158557)" cx="173.382322" cy="185.027455" rx="0.500000" ry="0.000000" transform="rotate(0.000000 173.382322 185.027455)"/>
<ellipse style="fill: #0000ff; stroke: #0000ff; stroke-width: 0.500000; stroke-linejoin: miter; stroke-linecap: butt;  opacity: 1.000000" clip-path="url(#-1467158557)" cx="173.094287" cy="184.483152" rx="0.500000" ry="0.000000" transform="rotate(0.000000 173.094287 184.483152)"/>
<ellipse style="fill: #0000ff; stroke: #0000ff; stroke-width: 0.500000; stroke-linejoin: miter; stroke-linecap: butt;  opacity: 1.000000" clip-path="url(#-1467158557)" cx="172.823430" cy="183.929989" rx="0.500000" ry="0.000000" transform="rotate(0.000000 172.823430 183.929989)"/>
<ellipse style="fill: #0000ff; stroke: #0000ff; stroke-width: 0.500000; stroke-linejoin: miter; stroke-linecap: butt;  opacity: 1.000000" clip-path="url(#-1467158557)" cx="172.570031" cy="183.368498" rx="0.500000" ry="0.000000" transform="rotate(0.000000 172.570031 183.368498)"/>
<ellipse style="fill: #0000ff; stroke: #0000ff; stroke-width: 0.500000; stroke-linejoin: miter; stroke-linecap: butt;  opacity: 1.000000" clip-path="url(#-1467158557)" cx="172.334352" cy="182.799216" rx="0.500000" ry="0.000000" transform="rotate(0.000000 172.334352 182.799216)"/>
<ellipse style="fill: #0000ff; stroke: #0000ff; stroke-width: 0.500000; stroke-linejoin: miter; stroke-linecap: butt;  opacity: 1.000000" clip-path="url(#-1467158557)" cx="172.116641" cy="182.222693" rx="0.500000" ry="0.000000" transform="rotate(0.000000 172.116641 182.222693)"/>
<ellipse style="fill: #0000ff; stroke: #0000ff; stroke-width: 0.500000; stroke-linejoin: miter; stroke-linecap: butt;  opacity: 1.000000" clip-path="url(#-1467158557)" cx="171.917127" cy="181.639485" rx="0.500000" ry="0.000000" transform="rotate(0.000000 171.917127 181.639485)"/>
<ellipse style="fill: #0000ff; stroke: #0000ff; stroke-width: 0.500000; stroke-linejoin: miter; stroke-linecap: butt;  opacity: 1.000000" clip-path="url(#-1467158557)" cx="171.736024" cy="181.050154" rx="0.500000" ry="0.000000" transform="rotate(0.000000 171.736024 181.050154)"/>
<ellipse style="fill: #0000ff; stroke: #0000ff; stroke-width: 0.500000; stroke-linejoin: miter; stroke-linecap: butt;  opacity: 1.000000" clip-path="url(#-1467158557)" cx="171.573526" cy="180.455271" rx="0.500000" ry="0.000000" transform="rotate(0.000000 171.573526 180.455271)"/>
<ellipse style="fill: #0000ff; stroke: #0000ff; stroke-width: 0.500000; stroke-linejoin: miter; stroke-linecap: butt;  opacity: 1.000000" clip-path="url(#-1467158557)" cx="171.429812" cy="179.855415" rx="0.500000" ry="0.000000" transform="rotate(0.000000 171.429812 179.855415)"/>
<ellipse style="fill: #0000ff; stroke: #0000ff; stroke-width: 0.500000; stroke-linejoin: miter; stroke-linecap: butt;  opacity: 1.000000" clip-path="url(#-1467158557)" cx="171.305041" cy="179.251166" rx="0.500000" ry="0.000000" transform="rotate(0.000000 171.305041 179.251166)"/>
<ellipse style="fill: #0000ff; stroke: #0000ff; stroke-width: 0.500000; stroke-linejoin: miter; stroke-linecap: butt;  opacity: 1.000000" clip-path="url(#-1467158557)" cx="171.199354" cy="178.643116" rx="0.500000" ry="0.000000" transform="rotate(0.000000 171.199354 178.643116)"/>
<ellipse style="fill: #0000ff; stroke: #0000ff; stroke-width: 0.500000; stroke-linejoin: miter; stroke-linecap: butt;  opacity: 1.000000" clip-path="url(#-1467158557)" cx="171.112876" cy="178.031856" rx="0.500000" ry="0.000000" transform="rotate(0.000000 171.112876 178.031856)"/>
<ellipse style="fill: #0000ff; stroke: #0000ff; stroke-width: 0.500000; stroke-linejoin: miter; stroke-linecap: butt;  opacity: 1.000000" clip-path="url(#-1467158557)" cx="171.045711" cy="177.417984" rx="0.500000" ry="0.000000" transform="rotate(0.000000 171.045711 177.417984)"/>
<ellipse style="fill: #0000ff; stroke: #0000ff; stroke-width: 0.500000; stroke-linejoin: miter; stroke-linecap: butt;  opacity: 1.000000" clip-path="url(#-1467158557)" cx="170.997944" cy="176.802103" rx="0.500000" ry="0.000000" transform="rotate(0.000000 170.997944 176.802103)"/>
<ellipse style="fill: #0000ff; stroke: #0000ff; stroke-width: 0.500000; stroke-linejoin: miter; stroke-linecap: butt;  opacity: 1.000000" clip-path="url(#-1467158557)" cx="170.969643" cy="176.184818" rx="0.500000" ry="0.000000" transform="rotate(0.000000 170.969643 176.184818)"/>
<ellipse style="fill: #0000ff; stroke: #0000ff; stroke-width: 0.500000; stroke-linejoin: miter; stroke-linecap: butt;  opacity: 1.000000" clip-path="url(#-1467158557)" cx="170.960856" cy="175.566735" rx="0.500000" ry="0.000000" transform="rotate(0.000000 170.960856 175.566735)"/>
<ellipse style="fill: #0000ff; stroke: #0000ff; stroke-width: 0.500000; stroke-linejoin: miter; stroke-linecap: butt;  opacity: 1.000000" clip-path="url(#-1467158557)" cx="170.971611" cy="174.948464" rx="0.500000" ry="0.000000" transform="rotate(0.000000 170.971611 174.948464)"/>
<ellipse style="fill: #0000ff; stroke: #0000ff; stroke-width: 0.500000; stroke-linejoin: miter; stroke-linecap: butt;  opacity: 1.000000" clip-path="url(#-1467158557)" cx="171.001918" cy="174.330617" rx="0.500000" ry="0.000000" transform="rotate(0.000000 171.001918 174.330617)"/>
<ellipse style="fill: #0000ff; stroke: #0000ff; stroke-width: 0.500000; stroke-linejoin: miter; stroke-linecap: butt;  opacity: 1.000000" clip-path="url(#-1467158557)" cx="171.051768" cy="173.713805" rx="0.500000" ry="0.000000" transform="rotate(0.000000 171.051768 173.713805)"/>
<ellipse style="fill: #0000ff; stroke: #0000ff; stroke-width: 0.500000; stroke-linejoin: miter; stroke-linecap: butt;  opacity: 1.000000" clip-path="url(#-1467158557)" cx="171.121130" cy="173.098640" rx="0.500000" ry="0.000000" transform="rotate(0.000000 171.121130 173.098640)"/>
<ellipse style="fill: #0000ff; stroke: #0000ff; stroke-width: 0.500000; stroke-linejoin: miter; stroke-linecap: butt;  opacity: 1.000000" clip-path="url(#-1467158557)" cx="171.209957" cy="172.485734" rx="0.500000" ry="0.000000" transform="rotate(0.000000 171.209957 172.485734)"/>
<ellipse style="fill: #0000ff; stroke: #0000ff; stroke-width: 0.500000; stroke-linejoin: miter; stroke-linecap: butt;  opacity: 1.000000" clip-path="url(#-1467158557)" cx="171.318180" cy="171.875698" rx="0.500000" ry="0.000000" transform="rotate(0.000000 171.318180 171.875698)"/>
<ellipse style="fill: #0000ff; stroke: #0000ff; stroke-width: 0.500000; stroke-linejoin: miter; stroke-linecap: butt;  opacity: 1.000000" clip-path="url(#-1467158557)" cx="171.445711" cy="171.269141" rx="0.500000" ry="0.000000" transform="rotate(0.000000 171.445711 171.269141)"/>
<ellipse style="fill: #0000ff; stroke: #0000ff; stroke-width: 0.500000; stroke-linejoin: miter; stroke-linecap: butt;  opacity: 1.000000" clip-path="url(#-1467158557)" cx="171.592443" cy="170.666669" rx="0.500000" ry="0.000000" transform="rotate(0.000000 171.592443 170.666669)"/>
<ellipse style="fill: #0000ff; stroke: #0000ff; stroke-width: 0.500000; stroke-linejoin: miter; stroke-linecap: butt;  opacity: 1.000000" clip-path="url(#-1467158557)" cx="171.758249" cy="170.068887" rx="0.500000" ry="0.000000" transform="rotate(0.000000 171.758249 170.068887)"/>
<ellipse style="fill: #0000ff; stroke: #0000ff; stroke-width: 0.500000; stroke-linejoin: miter; stroke-linecap: butt;  opacity: 1.000000" clip-path="url(#-1467158557)" cx="171.942982" cy="169.476395" rx="0.500000" ry="0.000000" transform="rotate(0.000000 171.942982 169.476395)"/>
<ellipse style="fill: #0000ff; stroke: #0000ff; stroke-width: 0.500000; stroke-linejoin: miter; stroke-linecap: butt;  opacity: 1.000000" clip-path="url(#-1467158557)" cx="172.146478" cy="168.889790" rx="0.500000" ry="0.000000" transform="rotate(0.000000 172.146478 168.889790)"/>
<ellipse style="fill: #0000ff; stroke: #0000ff; stroke-width: 0.500000; stroke-linejoin: miter; stroke-linecap: butt;  opacity: 1.000000" clip-path="url(#-1467158557)" cx="172.368551" cy="168.309663" rx="0.500000" ry="0.000000" transform="rotate(0.000000 172.368551 168.309663)"/>
<ellipse style="fill: #0000ff; stroke: #0000ff; stroke-width: 0.500000; stroke-linejoin: miter; stroke-linecap: butt;  opacity: 1.000000" clip-path="url(#-1467158557)" cx="172.608998" cy="167.736600" rx="0.500000" ry="0.000000" transform="rotate(0.000000 172.608998 167.736600)"/>
<ellipse style="fill: #0000ff; stroke: #0000ff; stroke-width: 0.500000; stroke-linejoin: miter; stroke-linecap: butt;  opacity: 1.000000" clip-path="url(#-1467158557)" cx="172.867594" cy="167.171181" rx="0.500000" ry="0.000000" transform="rotate(0.000000 172.867594 167.171181)"/>
<ellipse style="fill: #0000ff; stroke: #0000ff; stroke-width: 0.500000; stroke-linejoin: miter; stroke-linecap: butt;  opacity: 1.000000" clip-path="url(#-1467158557)" cx="173.144099" cy="166.613980" rx="0.500000" ry="0.000000" transform="rotate(0.000000 173.144099 166.613980)"/>
<ellipse style="fill: #0000ff; stroke: #0000ff; stroke-width: 0.500000; stroke-linejoin: miter; stroke-linecap: butt;  opacity: 1.000000" clip-path="url(#-1467158557)" cx="173.438252" cy="166.065563" rx="0.500000" ry="0.000000" transform="rotate(0.000000 173.438252 166.065563)"/>
<ellipse style="fill: #0000ff; stroke: #0000ff; stroke-width: 0.500000; stroke-linejoin: miter; stroke-linecap: butt;  opacity: 1.000000" clip-path="url(#-1467158557)" cx="173.749773" cy="165.526488" rx="0.500000" ry="0.000000" transform="rotate(0.000000 173.749773 165.526488)"/>
<ellipse style="fill: #0000ff; stroke: #0000ff; stroke-width: 0.500000; stroke-linejoin: miter; stroke-linecap: butt;  opacity: 1.000000" clip-path="url(#-1467158557)" cx="174.078366" cy="164.997305" rx="0.500000" ry="0.000000" transform="rotate(0.000000 174.078366 164.997305)"/>
<ellipse style="fill: #0000ff; stroke: #0000ff; stroke-width: 0.500000; stroke-linejoin: miter; stroke-linecap: butt;  opacity: 1.000000" clip-path="url(#-1467158557)" cx="174.423715" cy="164.478555" rx="0.500000" ry="0.000000" transform="rotate(0.000000 174.423715 164.478555)"/>
<ellipse style="fill: #0000ff; stroke: #0000ff; stroke-width: 0.500000; stroke-linejoin: miter; stroke-linecap: butt;  opacity: 1.000000" clip-path="url(#-1467158557)" cx="174.785487" cy="163.970769" rx="0.500000" ry="0.000000" transform="rotate(0.000000 174.785487 163.970769)"/>
<ellipse style="fill: #0000ff; stroke: #0000ff; stroke-width: 0.500000; stroke-linejoin: miter; stroke-linecap: butt;  opacity: 1.000000" clip-path="url(#-1467158557)" cx="175.163332" cy="163.474466" rx="0.500000" ry="0.000000" transform="rotate(0.000000 175.163332 163.474466)"/>
<ellipse style="fill: #0000ff; stroke: #0000ff; stroke-width: 0.500000; stroke-linejoin: miter; stroke-linecap: butt;  opacity: 1.000000" clip-path="url(#-1467158557)" cx="175.556882" cy="162.990158" rx="0.500000" ry="0.000000" transform="rotate(0.000000 175.556882 162.990158)"/>
<ellipse style="fill: #0000ff; stroke: #0000ff; stroke-width: 0.500000; stroke-linejoin: miter; stroke-linecap: butt;  opacity: 1.000000" clip-path="url(#-1467158557)" cx="175.965753" cy="162.518340" rx="0.500000" ry="0.000000" transform="rotate(0.000000 175.965753 162.518340)"/>
<ellipse style="fill: #0000ff; stroke: #0000ff; stroke-width: 0.500000; stroke-linejoin: miter; stroke-linecap: butt;  opacity: 1.000000" clip-path="url(#-1467158557)" cx="176.389544" cy="162.059501" rx="0.500000" ry="0.000000" transform="rotate(0.000000 176.389544 162.059501)"/>
<ellipse style="fill: #0000ff; stroke: #0000ff; stroke-width: 0.500000; stroke-linejoin: miter; stroke-linecap: butt;  opacity: 1.000000" clip-path="url(#-1467158557)" cx="176.827839" cy="161.614112" rx="0.500000" ry="0.000000" transform="rotate(0.000000 176.827839 161.614112)"/>
<ellipse style="fill: #0000ff; stroke: #0000ff; stroke-width: 0.500000; stroke-linejoin: miter; stroke-linecap: butt;  opacity: 1.000000" clip-path="url(#-1467158557)" cx="177.280206" cy="161.182635" rx="0.500000" ry="0.000000" transform="rotate(0.000000 177.280206 161.182635)"/>
<ellipse style="fill: #0000ff; stroke: #0000ff; stroke-width: 0.500000; stroke-linejoin: miter; stroke-linecap: butt;  opacity: 1.000000" clip-path="url(#-1467158557)" cx="177.746196" cy="160.765515" rx="0.500000" ry="0.000000" transform="rotate(0.000000 177.746196 160.765515)"/>
<ellipse style="fill: #0000ff; stroke: #0000ff; stroke-width: 0.500000; stroke-linejoin: miter; stroke-linecap: butt;  opacity: 1.000000" clip-path="url(#-1467158557)" cx="178.225347" cy="160.363184" rx="0.500000" ry="0.000000" transform="rotate(0.000000 178.225347 160.363184)"/>
<ellipse style="fill: #0000ff; stroke: #0000ff; stroke-width: 0.500000; stroke-linejoin: miter; stroke-linecap: butt;  opacity: 1.000000" clip-path="url(#-1467158557)" cx="178.717183" cy="159.976061" rx="0.500000" ry="0.000000" transform="rotate(0.000000 178.717183 159.976061)"/>
<ellipse style="fill: #0000ff; stroke: #0000ff; stroke-width: 0.500000; stroke-linejoin: miter; stroke-linecap: butt;  opacity: 1.000000" clip-path="url(#-1467158557)" cx="179.221214" cy="159.604546" rx="0.500000" ry="0.000000" transform="rotate(0.000000 179.221214 159.604546)"/>
<ellipse style="fill: #0000ff; stroke: #0000ff; stroke-width: 0.500000; stroke-linejoin: miter; stroke-linecap: butt;  opacity: 1.000000" clip-path="url(#-1467158557)" cx="179.736936" cy="159.249027" rx="0.500000" ry="0.000000" transform="rotate(0.000000 179.736936 159.249027)"/>
<ellipse style="fill: #0000ff; stroke: #0000ff; stroke-width: 0.500000; stroke-linejoin: miter; stroke-linecap: butt;  opacity: 1.000000" clip-path="url(#-1467158557)" cx="180.263832" cy="158.909873" rx="0.500000" ry="0.000000" transform="rotate(0.000000 180.263832 158.909873)"/>
<ellipse style="fill: #0000ff; stroke: #0000ff; stroke-width: 0.500000; stroke-linejoin: miter; stroke-linecap: butt;  opacity: 1.000000" clip-path="url(#-1467158557)" cx="180.801374" cy="158.587438" rx="0.500000" ry="0.000000" transform="rotate(0.000000 180.801374 158.587438)"/>
<ellipse style="fill: #0000ff; stroke: #0000ff; stroke-width: 0.500000; stroke-linejoin: miter; stroke-linecap: butt;  opacity: 1.000000" clip-path="url(#-1467158557)" cx="181.349021" cy="158.282058" rx="0.500000" ry="0.000000" transform="rotate(0.000000 181.349021 158.282058)"/>
<ellipse style="fill: #0000ff; stroke: #0000ff; stroke-width: 0.500000; stroke-linejoin: miter; stroke-linecap: butt;  opacity: 1.000000" clip-path="url(#-1467158557)" cx="181.906222" cy="157.994052" rx="0.500000" ry="0.000000" transform="rotate(0.000000 181.906222 157.994052)"/>
<ellipse style="fill: #0000ff; stroke: #0000ff; stroke-width: 0.500000; stroke-linejoin: miter; stroke-linecap: butt;  opacity: 1.000000" clip-path="url(#-1467158557)" cx="182.472414" cy="157.723721" rx="0.500000" ry="0.000000" transform="rotate(0.000000 182.472414 157.723721)"/>
<ellipse style="fill: #0000ff; stroke: #0000ff; stroke-width: 0.500000; stroke-linejoin: miter; stroke-linecap: butt;  opacity: 1.000000" clip-path="url(#-1467158557)" cx="183.047026" cy="157.471348" rx="0.500000" ry="0.000000" transform="rotate(0.000000 183.047026 157.471348)"/>
<ellipse style="fill: #0000ff; stroke: #0000ff; stroke-width: 0.500000; stroke-linejoin: miter; stroke-linecap: butt;  opacity: 1.000000" clip-path="url(#-1467158557)" cx="183.629476" cy="157.237197" rx="0.500000" ry="0.000000" transform="rotate(0.000000 183.629476 157.237197)"/>
<ellipse style="fill: #0000ff; stroke: #0000ff; stroke-width: 0.500000; stroke-linejoin: miter; stroke-linecap: butt;  opacity: 1.000000" clip-path="url(#-1467158557)" cx="184.219175" cy="157.021513" rx="0.500000" ry="0.000000" transform="rotate(0.000000 184.219175 157.021513)"/>
<ellipse style="fill: #0000ff; stroke: #0000ff; stroke-width: 0.500000; stroke-linejoin: miter; stroke-linecap: butt;  opacity: 1.000000" clip-path="url(#-1467158557)" cx="184.815525" cy="156.824523" rx="0.500000" ry="0.000000" transform="rotate(0.000000 184.815525 156.824523)"/>
<ellipse style="fill: #0000ff; stroke: #0000ff; stroke-width: 0.500000; stroke-linejoin: miter; stroke-linecap: butt;  opacity: 1.000000" clip-path="url(#-1467158557)" cx="185.417919" cy="156.646432" rx="0.500000" ry="0.000000" transform="rotate(0.000000 185.417919 156.646432)"/>
<ellipse style="fill: #0000ff; stroke: #0000ff; stroke-width: 0.500000; stroke-linejoin: miter; stroke-linecap: butt;  opacity: 1.000000" clip-path="url(#-1467158557)" cx="186.025746" cy="156.487428" rx="0.500000" ry="0.000000" transform="rotate(0.000000 186.025746 156.487428)"/>
<ellipse style="fill: #0000ff; stroke: #0000ff; stroke-width: 0.500000; stroke-linejoin: miter; stroke-linecap: butt;  opacity: 1.000000" clip-path="url(#-1467158557)" cx="186.638388" cy="156.347677" rx="0.500000" ry="0.000000" transform="rotate(0.000000 186.638388 156.347677)"/>
<ellipse style="fill: #0000ff; stroke: #0000ff; stroke-width: 0.500000; stroke-linejoin: miter; stroke-linecap: butt;  opacity: 1.000000" clip-path="url(#-1467158557)" cx="187.255222" cy="156.227327" rx="0.500000" ry="0.000000" transform="rotate(0.000000 187.255222 156.227327)"/>
<ellipse style="fill: #0000ff; stroke: #0000ff; stroke-width: 0.500000; stroke-linejoin: miter; stroke-linecap: butt;  opacity: 1.000000" clip-path="url(#-1467158557)" cx="187.875618" cy="156.126503" rx="0.500000" ry="0.000000" transform="rotate(0.000000 187.875618 156.126503)"/>
<ellipse style="fill: #0000ff; stroke: #0000ff; stroke-width: 0.500000; stroke-linejoin: miter; stroke-linecap: butt;  opacity: 1.000000" clip-path="url(#-1467158557)" cx="188.498946" cy="156.045311" rx="0.500000" ry="0.000000" transform="rotate(0.000000 188.498946 156.045311)"/>
<ellipse style="fill: #0000ff; stroke: #0000ff; stroke-width: 0.500000; stroke-linejoin: miter; stroke-linecap: butt;  opacity: 1.000000" clip-path="url(#-1467158557)" cx="189.124569" cy="155.983836" rx="0.500000" ry="0.000000" transform="rotate(0.000000 189.124569 155.983836)"/>
<ellipse style="fill: #0000ff; stroke: #0000ff; stroke-width: 0.500000; stroke-linejoin: miter; stroke-linecap: butt;  opacity: 1.000000" clip-path="url(#-1467158557)" cx="189.751850" cy="155.942143" rx="0.500000" ry="0.000000" transform="rotate(0.000000 189.751850 155.942143)"/>
<ellipse style="fill: #0000ff; stroke: #0000ff; stroke-width: 0.500000; stroke-linejoin: miter; stroke-linecap: butt;  opacity: 1.000000" clip-path="url(#-1467158557)" cx="190.380150" cy="155.920275" rx="0.500000" ry="0.000000" transform="rotate(0.000000 190.380150 155.920275)"/>
<text style="font-size: 12.000000; font-family: Times; font-style: Regular; fill: #000000;" x="81.661500" y="72.036000" >fisher_5_3.di</text>
<text style="font-size: 14.000000; font-family: Times; font-style: Regular; fill: #000000;" x="127.957500" y="31.298400" >Fisher confidence cone</text>
</g>
<text style="font-size: 12.000000; font-family: Times; font-style: Regular; fill: #000000;" x="7.452000" y="368.874000" >pmagpy-1.47b</text>
</g>
</svg>
