<?xml version="1.0" standalone="no"?>
<!DOCTYPE svg PUBLIC "-//W3C//DTD SVG 1.1//EN"
  "http://www.w3.org/Graphics/SVG/1.1/DTD/svg11.dtd">
<!-- Created with matplotlib (http://matplotlib.sourceforge.net/) -->
<svg width="372" height="372" viewBox="0 0 372 372"
   xmlns="http://www.w3.org/2000/svg"
   xmlns:xlink="http://www.w3.org/1999/xlink"
   version="1.1"
   id="svg1">
<g id="figure1">
<polygon style="fill: #ffffff; stroke: #ffffff; stroke-width: 1.000000; stroke-linejoin: miter; stroke-linecap: square;  opacity: 1.000000"  points = "0.000000,372.600000 0.000000,0.000000 372.600000,0.000000 372.600000,372.600000"/>
<g id="axes1">
<g id="regpolycollection1">
<defs>
    <clipPath id="-1467158557">
    <rect x="46.575000" y="37.260000" width="288.765000" height="298.080000"
    style="stroke: gray; fill: none;"/>
    </clipPath>
</defs>
<polygon style="fill: #ff0000; stroke: #000000; stroke-width: 1.000000; stroke-linejoin: miter; stroke-linecap: butt;  opacity: 1.000000" clip-path="url(#-1467158557)" points = "228.332400,190.771390 229.112091,190.894881 229.815460,191.253265 230.373657,191.811462 230.732042,192.514832 230.855533,193.294522 230.732042,194.074213 230.373657,194.777583 229.815460,195.335780 229.112091,195.694164 228.332400,195.817655 227.552709,195.694164 226.849340,195.335780 226.291143,194.777583 225.932759,194.074213 225.809268,193.294522 225.932759,192.514832 226.291143,191.811462 226.849340,191.253265 227.552709,190.894881"/>
<polygon style="fill: #ff0000; stroke: #000000; stroke-width: 1.000000; stroke-linejoin: miter; stroke-linecap: butt;  opacity: 1.000000" clip-path="url(#-1467158557)" points = "220.090449,235.269180 220.870139,235.392671 221.573509,235.751055 222.131706,236.309252 222.490090,237.012622 222.613581,237.792312 222.490090,238.572003 222.131706,239.275372 221.573509,239.833569 220.870139,240.191954 220.090449,240.315445 219.310758,240.191954 218.607389,239.833569 218.049192,239.275372 217.690807,238.572003 217.567316,237.792312 217.690807,237.012622 218.049192,236.309252 218.607389,235.751055 219.310758,235.392671"/>
<polygon style="fill: #ff0000; stroke: #000000; stroke-width: 1.000000; stroke-linejoin: miter; stroke-linecap: butt;  opacity: 1.000000" clip-path="url(#-1467158557)" points = "240.374123,174.707220 241.153814,174.830711 241.857183,175.189095 242.415380,175.747292 242.773765,176.450662 242.897256,177.230352 242.773765,178.010043 242.415380,178.713413 241.857183,179.271610 241.153814,179.629994 240.374123,179.753485 239.594432,179.629994 238.891063,179.271610 238.332866,178.713413 237.974481,178.010043 237.850991,177.230352 237.974481,176.450662 238.332866,175.747292 238.891063,175.189095 239.594432,174.830711"/>
<polygon style="fill: #ff0000; stroke: #000000; stroke-width: 1.000000; stroke-linejoin: miter; stroke-linecap: butt;  opacity: 1.000000" clip-path="url(#-1467158557)" points = "208.720465,171.885599 209.500156,172.009089 210.203526,172.367474 210.761723,172.925671 211.120107,173.629040 211.243598,174.408731 211.120107,175.188422 210.761723,175.891791 210.203526,176.449988 209.500156,176.808373 208.720465,176.931864 207.940775,176.808373 207.237405,176.449988 206.679208,175.891791 206.320824,175.188422 206.197333,174.408731 206.320824,173.629040 206.679208,172.925671 207.237405,172.367474 207.940775,172.009089"/>
<polygon style="fill: #ff0000; stroke: #000000; stroke-width: 1.000000; stroke-linejoin: miter; stroke-linecap: butt;  opacity: 1.000000" clip-path="url(#-1467158557)" points = "192.771022,179.887758 193.550712,180.011249 194.254082,180.369633 194.812279,180.927830 195.170663,181.631200 195.294154,182.410890 195.170663,183.190581 194.812279,183.893950 194.254082,184.452147 193.550712,184.810532 192.771022,184.934023 191.991331,184.810532 191.287962,184.452147 190.729764,183.893950 190.371380,183.190581 190.247889,182.410890 190.371380,181.631200 190.729764,180.927830 191.287962,180.369633 191.991331,180.011249"/>
<polygon style="fill: #ff0000; stroke: #000000; stroke-width: 1.000000; stroke-linejoin: miter; stroke-linecap: butt;  opacity: 1.000000" clip-path="url(#-1467158557)" points = "229.754547,206.904549 230.534237,207.028040 231.237607,207.386424 231.795804,207.944621 232.154188,208.647991 232.277679,209.427681 232.154188,210.207372 231.795804,210.910742 231.237607,211.468939 230.534237,211.827323 229.754547,211.950814 228.974856,211.827323 228.271486,211.468939 227.713289,210.910742 227.354905,210.207372 227.231414,209.427681 227.354905,208.647991 227.713289,207.944621 228.271486,207.386424 228.974856,207.028040"/>
<polygon style="fill: #ff0000; stroke: #000000; stroke-width: 1.000000; stroke-linejoin: miter; stroke-linecap: butt;  opacity: 1.000000" clip-path="url(#-1467158557)" points = "221.478796,248.932858 222.258487,249.056349 222.961856,249.414733 223.520053,249.972930 223.878438,250.676299 224.001929,251.455990 223.878438,252.235681 223.520053,252.939050 222.961856,253.497247 222.258487,253.855632 221.478796,253.979123 220.699105,253.855632 219.995736,253.497247 219.437539,252.939050 219.079155,252.235681 218.955664,251.455990 219.079155,250.676299 219.437539,249.972930 219.995736,249.414733 220.699105,249.056349"/>
<polygon style="fill: #ff0000; stroke: #000000; stroke-width: 1.000000; stroke-linejoin: miter; stroke-linecap: butt;  opacity: 1.000000" clip-path="url(#-1467158557)" points = "161.981786,192.195091 162.761476,192.318582 163.464846,192.676966 164.023043,193.235163 164.381427,193.938532 164.504918,194.718223 164.381427,195.497914 164.023043,196.201283 163.464846,196.759480 162.761476,197.117865 161.981786,197.241356 161.202095,197.117865 160.498726,196.759480 159.940529,196.201283 159.582144,195.497914 159.458653,194.718223 159.582144,193.938532 159.940529,193.235163 160.498726,192.676966 161.202095,192.318582"/>
<polygon style="fill: #ff0000; stroke: #000000; stroke-width: 1.000000; stroke-linejoin: miter; stroke-linecap: butt;  opacity: 1.000000" clip-path="url(#-1467158557)" points = "187.857247,120.387583 188.636938,120.511073 189.340307,120.869458 189.898504,121.427655 190.256888,122.131024 190.380379,122.910715 190.256888,123.690406 189.898504,124.393775 189.340307,124.951972 188.636938,125.310357 187.857247,125.433848 187.077556,125.310357 186.374187,124.951972 185.815990,124.393775 185.457605,123.690406 185.334114,122.910715 185.457605,122.131024 185.815990,121.427655 186.374187,120.869458 187.077556,120.511073"/>
<polygon style="fill: #ff0000; stroke: #000000; stroke-width: 1.000000; stroke-linejoin: miter; stroke-linecap: butt;  opacity: 1.000000" clip-path="url(#-1467158557)" points = "214.387171,150.315829 215.166862,150.439320 215.870231,150.797705 216.428428,151.355902 216.786813,152.059271 216.910304,152.838962 216.786813,153.618653 216.428428,154.322022 215.870231,154.880219 215.166862,155.238604 214.387171,155.362095 213.607480,155.238604 212.904111,154.880219 212.345914,154.322022 211.987529,153.618653 211.864039,152.838962 211.987529,152.059271 212.345914,151.355902 212.904111,150.797705 213.607480,150.439320"/>
<polygon style="fill: #ff0000; stroke: #000000; stroke-width: 1.000000; stroke-linejoin: miter; stroke-linecap: butt;  opacity: 1.000000" clip-path="url(#-1467158557)" points = "200.626224,157.355838 201.405915,157.479329 202.109284,157.837713 202.667481,158.395910 203.025865,159.099280 203.149356,159.878970 203.025865,160.658661 202.667481,161.362031 202.109284,161.920228 201.405915,162.278612 200.626224,162.402103 199.846533,162.278612 199.143164,161.920228 198.584967,161.362031 198.226582,160.658661 198.103091,159.878970 198.226582,159.099280 198.584967,158.395910 199.143164,157.837713 199.846533,157.479329"/>
<polygon style="fill: #ff0000; stroke: #000000; stroke-width: 1.000000; stroke-linejoin: miter; stroke-linecap: butt;  opacity: 1.000000" clip-path="url(#-1467158557)" points = "235.896114,205.986914 236.675805,206.110405 237.379174,206.468789 237.937371,207.026986 238.295756,207.730356 238.419246,208.510046 238.295756,209.289737 237.937371,209.993106 237.379174,210.551303 236.675805,210.909688 235.896114,211.033179 235.116423,210.909688 234.413054,210.551303 233.854857,209.993106 233.496472,209.289737 233.372981,208.510046 233.496472,207.730356 233.854857,207.026986 234.413054,206.468789 235.116423,206.110405"/>
<polygon style="fill: #ff0000; stroke: #000000; stroke-width: 1.000000; stroke-linejoin: miter; stroke-linecap: butt;  opacity: 1.000000" clip-path="url(#-1467158557)" points = "192.419780,153.878372 193.199471,154.001863 193.902840,154.360247 194.461037,154.918444 194.819422,155.621813 194.942913,156.401504 194.819422,157.181195 194.461037,157.884564 193.902840,158.442761 193.199471,158.801146 192.419780,158.924637 191.640090,158.801146 190.936720,158.442761 190.378523,157.884564 190.020139,157.181195 189.896648,156.401504 190.020139,155.621813 190.378523,154.918444 190.936720,154.360247 191.640090,154.001863"/>
<polygon style="fill: #ff0000; stroke: #000000; stroke-width: 1.000000; stroke-linejoin: miter; stroke-linecap: butt;  opacity: 1.000000" clip-path="url(#-1467158557)" points = "243.490466,167.816132 244.270157,167.939623 244.973526,168.298007 245.531723,168.856204 245.890108,169.559574 246.013599,170.339264 245.890108,171.118955 245.531723,171.822325 244.973526,172.380522 244.270157,172.738906 243.490466,172.862397 242.710776,172.738906 242.007406,172.380522 241.449209,171.822325 241.090825,171.118955 240.967334,170.339264 241.090825,169.559574 241.449209,168.856204 242.007406,168.298007 242.710776,167.939623"/>
<polygon style="fill: #ff0000; stroke: #000000; stroke-width: 1.000000; stroke-linejoin: miter; stroke-linecap: butt;  opacity: 1.000000" clip-path="url(#-1467158557)" points = "151.112429,120.258382 151.892120,120.381873 152.595489,120.740257 153.153686,121.298454 153.512071,122.001823 153.635562,122.781514 153.512071,123.561205 153.153686,124.264574 152.595489,124.822771 151.892120,125.181156 151.112429,125.304647 150.332738,125.181156 149.629369,124.822771 149.071172,124.264574 148.712787,123.561205 148.589296,122.781514 148.712787,122.001823 149.071172,121.298454 149.629369,120.740257 150.332738,120.381873"/>
<polygon style="fill: #ff0000; stroke: #000000; stroke-width: 1.000000; stroke-linejoin: miter; stroke-linecap: butt;  opacity: 1.000000" clip-path="url(#-1467158557)" points = "166.847993,173.193534 167.627684,173.317025 168.331053,173.675409 168.889250,174.233606 169.247634,174.936975 169.371125,175.716666 169.247634,176.496357 168.889250,177.199726 168.331053,177.757923 167.627684,178.116308 166.847993,178.239799 166.068302,178.116308 165.364933,177.757923 164.806736,177.199726 164.448351,176.496357 164.324860,175.716666 164.448351,174.936975 164.806736,174.233606 165.364933,173.675409 166.068302,173.317025"/>
<polygon style="fill: #ff0000; stroke: #000000; stroke-width: 1.000000; stroke-linejoin: miter; stroke-linecap: butt;  opacity: 1.000000" clip-path="url(#-1467158557)" points = "149.717369,197.735882 150.497059,197.859373 151.200429,198.217757 151.758626,198.775954 152.117010,199.479324 152.240501,200.259014 152.117010,201.038705 151.758626,201.742074 151.200429,202.300271 150.497059,202.658656 149.717369,202.782147 148.937678,202.658656 148.234309,202.300271 147.676112,201.742074 147.317727,201.038705 147.194236,200.259014 147.317727,199.479324 147.676112,198.775954 148.234309,198.217757 148.937678,197.859373"/>
<polygon style="fill: #ff0000; stroke: #000000; stroke-width: 1.000000; stroke-linejoin: miter; stroke-linecap: butt;  opacity: 1.000000" clip-path="url(#-1467158557)" points = "193.792084,150.020706 194.571775,150.144197 195.275144,150.502581 195.833341,151.060778 196.191726,151.764148 196.315217,152.543838 196.191726,153.323529 195.833341,154.026899 195.275144,154.585096 194.571775,154.943480 193.792084,155.066971 193.012393,154.943480 192.309024,154.585096 191.750827,154.026899 191.392442,153.323529 191.268952,152.543838 191.392442,151.764148 191.750827,151.060778 192.309024,150.502581 193.012393,150.144197"/>
<polygon style="fill: #ff0000; stroke: #000000; stroke-width: 1.000000; stroke-linejoin: miter; stroke-linecap: butt;  opacity: 1.000000" clip-path="url(#-1467158557)" points = "190.845912,151.809448 191.625603,151.932939 192.328972,152.291323 192.887169,152.849520 193.245554,153.552890 193.369045,154.332581 193.245554,155.112271 192.887169,155.815641 192.328972,156.373838 191.625603,156.732222 190.845912,156.855713 190.066221,156.732222 189.362852,156.373838 188.804655,155.815641 188.446271,155.112271 188.322780,154.332581 188.446271,153.552890 188.804655,152.849520 189.362852,152.291323 190.066221,151.932939"/>
<polygon style="fill: #ff0000; stroke: #000000; stroke-width: 1.000000; stroke-linejoin: miter; stroke-linecap: butt;  opacity: 1.000000" clip-path="url(#-1467158557)" points = "175.269219,174.275707 176.048910,174.399198 176.752279,174.757582 177.310476,175.315779 177.668861,176.019149 177.792352,176.798840 177.668861,177.578530 177.310476,178.281900 176.752279,178.840097 176.048910,179.198481 175.269219,179.321972 174.489529,179.198481 173.786159,178.840097 173.227962,178.281900 172.869578,177.578530 172.746087,176.798840 172.869578,176.019149 173.227962,175.315779 173.786159,174.757582 174.489529,174.399198"/>
</g>
<g id="regpolycollection2">
<polygon style="fill: #008000; stroke: #000000; stroke-width: 1.000000; stroke-linejoin: miter; stroke-linecap: butt;  opacity: 1.000000" clip-path="url(#-1467158557)" points = "201.681970,172.231952 206.052163,179.801350 197.311776,179.801350"/>
</g>
<path style="fill: none; stroke: #000000; stroke-width: 1.000000; stroke-linejoin: miter; stroke-linecap: square;  opacity: 1.000000" clip-path="url(#-1467158557)" d="M 190.957500,86.940000 L 192.691571,86.955133 L 194.425114,87.000527 L 196.157601,87.076169 L 197.888503,87.182036 L 199.617295,87.318095 L 201.343448,87.484304 L 203.066438,87.680614 L 204.785739,87.906965 L 206.500828,88.163286 L 208.211183,88.449502 L 209.916282,88.765523 L 211.615606,89.111254 L 213.308637,89.486590 L 214.994860,89.891417 L 216.673760,90.325610 L 218.344828,90.789038 L 220.007553,91.281559 L 221.661429,91.803025 L 223.305952,92.353274 L 224.940621,92.932141 L 226.564939,93.539449 L 228.178411,94.175012 L 229.780545,94.838638 L 231.370853,95.530123 L 232.948850,96.249258 L 234.514057,96.995824 L 236.065996,97.769592 L 237.604194,98.570327 L 239.128184,99.397786 L 240.637500,100.251716 L 242.131683,101.131857 L 243.610278,102.037941 L 245.072835,102.969692 L 246.518907,103.926827 L 247.948055,104.909053 L 249.359843,105.916071 L 250.753841,106.947576 L 252.129624,108.003252 L 253.486774,109.082777 L 254.824877,110.185824 L 256.143525,111.312056 L 257.442317,112.461130 L 258.720857,113.632696 L 259.978756,114.826397 L 261.215630,116.041870 L 262.431103,117.278744 L 263.624804,118.536643 L 264.796370,119.815183 L 265.945444,121.113975 L 267.071676,122.432623 L 268.174723,123.770726 L 269.254248,125.127876 L 270.309924,126.503659 L 271.341429,127.897657 L 272.348447,129.309445 L 273.330673,130.738593 L 274.287808,132.184665 L 275.219559,133.647222 L 276.125643,135.125817 L 277.005784,136.620000 L 277.859714,138.129316 L 278.687173,139.653306 L 279.487908,141.191504 L 280.261676,142.743443 L 281.008242,144.308650 L 281.727377,145.886647 L 282.418862,147.476955 L 283.082488,149.079089 L 283.718051,150.692561 L 284.325359,152.316879 L 284.904226,153.951548 L 285.454475,155.596071 L 285.975941,157.249947 L 286.468462,158.912672 L 286.931890,160.583740 L 287.366083,162.262640 L 287.770910,163.948863 L 288.146246,165.641894 L 288.491977,167.341218 L 288.807998,169.046317 L 289.094214,170.756672 L 289.350535,172.471761 L 289.576886,174.191062 L 289.773196,175.914052 L 289.939405,177.640205 L 290.075464,179.368997 L 290.181331,181.099899 L 290.256973,182.832386 L 290.302367,184.565929 L 290.317500,186.300000 L 290.302367,188.034071 L 290.256973,189.767614 L 290.181331,191.500101 L 290.075464,193.231003 L 289.939405,194.959795 L 289.773196,196.685948 L 289.576886,198.408938 L 289.350535,200.128239 L 289.094214,201.843328 L 288.807998,203.553683 L 288.491977,205.258782 L 288.146246,206.958106 L 287.770910,208.651137 L 287.366083,210.337360 L 286.931890,212.016260 L 286.468462,213.687328 L 285.975941,215.350053 L 285.454475,217.003929 L 284.904226,218.648452 L 284.325359,220.283121 L 283.718051,221.907439 L 283.082488,223.520911 L 282.418862,225.123045 L 281.727377,226.713353 L 281.008242,228.291350 L 280.261676,229.856557 L 279.487908,231.408496 L 278.687173,232.946694 L 277.859714,234.470684 L 277.005784,235.980000 L 276.125643,237.474183 L 275.219559,238.952778 L 274.287808,240.415335 L 273.330673,241.861407 L 272.348447,243.290555 L 271.341429,244.702343 L 270.309924,246.096341 L 269.254248,247.472124 L 268.174723,248.829274 L 267.071676,250.167377 L 265.945444,251.486025 L 264.796370,252.784817 L 263.624804,254.063357 L 262.431103,255.321256 L 261.215630,256.558130 L 259.978756,257.773603 L 258.720857,258.967304 L 257.442317,260.138870 L 256.143525,261.287944 L 254.824877,262.414176 L 253.486774,263.517223 L 252.129624,264.596748 L 250.753841,265.652424 L 249.359843,266.683929 L 247.948055,267.690947 L 246.518907,268.673173 L 245.072835,269.630308 L 243.610278,270.562059 L 242.131683,271.468143 L 240.637500,272.348284 L 239.128184,273.202214 L 237.604194,274.029673 L 236.065996,274.830408 L 234.514057,275.604176 L 232.948850,276.350742 L 231.370853,277.069877 L 229.780545,277.761362 L 228.178411,278.424988 L 226.564939,279.060551 L 224.940621,279.667859 L 223.305952,280.246726 L 221.661429,280.796975 L 220.007553,281.318441 L 218.344828,281.810962 L 216.673760,282.274390 L 214.994860,282.708583 L 213.308637,283.113410 L 211.615606,283.488746 L 209.916282,283.834477 L 208.211183,284.150498 L 206.500828,284.436714 L 204.785739,284.693035 L 203.066438,284.919386 L 201.343448,285.115696 L 199.617295,285.281905 L 197.888503,285.417964 L 196.157601,285.523831 L 194.425114,285.599473 L 192.691571,285.644867 L 190.957500,285.660000 L 189.223429,285.644867 L 187.489886,285.599473 L 185.757399,285.523831 L 184.026497,285.417964 L 182.297705,285.281905 L 180.571552,285.115696 L 178.848562,284.919386 L 177.129261,284.693035 L 175.414172,284.436714 L 173.703817,284.150498 L 171.998718,283.834477 L 170.299394,283.488746 L 168.606363,283.113410 L 166.920140,282.708583 L 165.241240,282.274390 L 163.570172,281.810962 L 161.907447,281.318441 L 160.253571,280.796975 L 158.609048,280.246726 L 156.974379,279.667859 L 155.350061,279.060551 L 153.736589,278.424988 L 152.134455,277.761362 L 150.544147,277.069877 L 148.966150,276.350742 L 147.400943,275.604176 L 145.849004,274.830408 L 144.310806,274.029673 L 142.786816,273.202214 L 141.277500,272.348284 L 139.783317,271.468143 L 138.304722,270.562059 L 136.842165,269.630308 L 135.396093,268.673173 L 133.966945,267.690947 L 132.555157,266.683929 L 131.161159,265.652424 L 129.785376,264.596748 L 128.428226,263.517223 L 127.090123,262.414176 L 125.771475,261.287944 L 124.472683,260.138870 L 123.194143,258.967304 L 121.936244,257.773603 L 120.699370,256.558130 L 119.483897,255.321256 L 118.290196,254.063357 L 117.118630,252.784817 L 115.969556,251.486025 L 114.843324,250.167377 L 113.740277,248.829274 L 112.660752,247.472124 L 111.605076,246.096341 L 110.573571,244.702343 L 109.566553,243.290555 L 108.584327,241.861407 L 107.627192,240.415335 L 106.695441,238.952778 L 105.789357,237.474183 L 104.909216,235.980000 L 104.055286,234.470684 L 103.227827,232.946694 L 102.427092,231.408496 L 101.653324,229.856557 L 100.906758,228.291350 L 100.187623,226.713353 L 99.496138,225.123045 L 98.832512,223.520911 L 98.196949,221.907439 L 97.589641,220.283121 L 97.010774,218.648452 L 96.460525,217.003929 L 95.939059,215.350053 L 95.446538,213.687328 L 94.983110,212.016260 L 94.548917,210.337360 L 94.144090,208.651137 L 93.768754,206.958106 L 93.423023,205.258782 L 93.107002,203.553683 L 92.820786,201.843328 L 92.564465,200.128239 L 92.338114,198.408938 L 92.141804,196.685948 L 91.975595,194.959795 L 91.839536,193.231003 L 91.733669,191.500101 L 91.658027,189.767614 L 91.612633,188.034071 L 91.597500,186.300000 L 91.612633,184.565929 L 91.658027,182.832386 L 91.733669,181.099899 L 91.839536,179.368997 L 91.975595,177.640205 L 92.141804,175.914052 L 92.338114,174.191062 L 92.564465,172.471761 L 92.820786,170.756672 L 93.107002,169.046317 L 93.423023,167.341218 L 93.768754,165.641894 L 94.144090,163.948863 L 94.548917,162.262640 L 94.983110,160.583740 L 95.446538,158.912672 L 95.939059,157.249947 L 96.460525,155.596071 L 97.010774,153.951548 L 97.589641,152.316879 L 98.196949,150.692561 L 98.832512,149.079089 L 99.496138,147.476955 L 100.187623,145.886647 L 100.906758,144.308650 L 101.653324,142.743443 L 102.427092,141.191504 L 103.227827,139.653306 L 104.055286,138.129316 L 104.909216,136.620000 L 105.789357,135.125817 L 106.695441,133.647222 L 107.627192,132.184665 L 108.584327,130.738593 L 109.566553,129.309445 L 110.573571,127.897657 L 111.605076,126.503659 L 112.660752,125.127876 L 113.740277,123.770726 L 114.843324,122.432623 L 115.969556,121.113975 L 117.118630,119.815183 L 118.290196,118.536643 L 119.483897,117.278744 L 120.699370,116.041870 L 121.936244,114.826397 L 123.194143,113.632696 L 124.472683,112.461130 L 125.771475,111.312056 L 127.090123,110.185824 L 128.428226,109.082777 L 129.785376,108.003252 L 131.161159,106.947576 L 132.555157,105.916071 L 133.966945,104.909053 L 135.396093,103.926827 L 136.842165,102.969692 L 138.304722,102.037941 L 139.783317,101.131857 L 141.277500,100.251716 L 142.786816,99.397786 L 144.310806,98.570327 L 145.849004,97.769592 L 147.400943,96.995824 L 148.966150,96.249258 L 150.544147,95.530123 L 152.134455,94.838638 L 153.736589,94.175012 L 155.350061,93.539449 L 156.974379,92.932141 L 158.609048,92.353274 L 160.253571,91.803025 L 161.907447,91.281559 L 163.570172,90.789038 L 165.241240,90.325610 L 166.920140,89.891417 L 168.606363,89.486590 L 170.299394,89.111254 L 171.998718,88.765523 L 173.703817,88.449502 L 175.414172,88.163286 L 177.129261,87.906965 L 178.848562,87.680614 L 180.571552,87.484304 L 182.297705,87.318095 L 184.026497,87.182036 L 185.757399,87.076169 L 187.489886,87.000527 L 189.223429,86.955133 L 190.957500,86.940000 "/>
<path style="fill: none; stroke: #000000; stroke-width: 0.500000; stroke-linejoin: miter; stroke-linecap: butt;  opacity: 1.000000" clip-path="url(#-1467158557)" d="M 278.279611,186.300000 L 284.279611,186.300000"/>
<path style="fill: none; stroke: #000000; stroke-width: 0.500000; stroke-linejoin: miter; stroke-linecap: butt;  opacity: 1.000000" clip-path="url(#-1467158557)" d="M 281.279611,189.300000 L 281.279611,183.300000"/>
<path style="fill: none; stroke: #000000; stroke-width: 0.500000; stroke-linejoin: miter; stroke-linecap: butt;  opacity: 1.000000" clip-path="url(#-1467158557)" d="M 268.554315,186.300000 L 274.554315,186.300000"/>
<path style="fill: none; stroke: #000000; stroke-width: 0.500000; stroke-linejoin: miter; stroke-linecap: butt;  opacity: 1.000000" clip-path="url(#-1467158557)" d="M 271.554315,189.300000 L 271.554315,183.300000"/>
<path style="fill: none; stroke: #000000; stroke-width: 0.500000; stroke-linejoin: miter; stroke-linecap: butt;  opacity: 1.000000" clip-path="url(#-1467158557)" d="M 258.215630,186.300000 L 264.215630,186.300000"/>
<path style="fill: none; stroke: #000000; stroke-width: 0.500000; stroke-linejoin: miter; stroke-linecap: butt;  opacity: 1.000000" clip-path="url(#-1467158557)" d="M 261.215630,189.300000 L 261.215630,183.300000"/>
<path style="fill: none; stroke: #000000; stroke-width: 0.500000; stroke-linejoin: miter; stroke-linecap: butt;  opacity: 1.000000" clip-path="url(#-1467158557)" d="M 247.342237,186.300000 L 253.342237,186.300000"/>
<path style="fill: none; stroke: #000000; stroke-width: 0.500000; stroke-linejoin: miter; stroke-linecap: butt;  opacity: 1.000000" clip-path="url(#-1467158557)" d="M 250.342237,189.300000 L 250.342237,183.300000"/>
<path style="fill: none; stroke: #000000; stroke-width: 0.500000; stroke-linejoin: miter; stroke-linecap: butt;  opacity: 1.000000" clip-path="url(#-1467158557)" d="M 236.016891,186.300000 L 242.016891,186.300000"/>
<path style="fill: none; stroke: #000000; stroke-width: 0.500000; stroke-linejoin: miter; stroke-linecap: butt;  opacity: 1.000000" clip-path="url(#-1467158557)" d="M 239.016891,189.300000 L 239.016891,183.300000"/>
<path style="fill: none; stroke: #000000; stroke-width: 0.500000; stroke-linejoin: miter; stroke-linecap: butt;  opacity: 1.000000" clip-path="url(#-1467158557)" d="M 224.325784,186.300000 L 230.325784,186.300000"/>
<path style="fill: none; stroke: #000000; stroke-width: 0.500000; stroke-linejoin: miter; stroke-linecap: butt;  opacity: 1.000000" clip-path="url(#-1467158557)" d="M 227.325784,189.300000 L 227.325784,183.300000"/>
<path style="fill: none; stroke: #000000; stroke-width: 0.500000; stroke-linejoin: miter; stroke-linecap: butt;  opacity: 1.000000" clip-path="url(#-1467158557)" d="M 212.357892,186.300000 L 218.357892,186.300000"/>
<path style="fill: none; stroke: #000000; stroke-width: 0.500000; stroke-linejoin: miter; stroke-linecap: butt;  opacity: 1.000000" clip-path="url(#-1467158557)" d="M 215.357892,189.300000 L 215.357892,183.300000"/>
<path style="fill: none; stroke: #000000; stroke-width: 0.500000; stroke-linejoin: miter; stroke-linecap: butt;  opacity: 1.000000" clip-path="url(#-1467158557)" d="M 200.204299,186.300000 L 206.204299,186.300000"/>
<path style="fill: none; stroke: #000000; stroke-width: 0.500000; stroke-linejoin: miter; stroke-linecap: butt;  opacity: 1.000000" clip-path="url(#-1467158557)" d="M 203.204299,189.300000 L 203.204299,183.300000"/>
<path style="fill: none; stroke: #000000; stroke-width: 0.500000; stroke-linejoin: miter; stroke-linecap: butt;  opacity: 1.000000" clip-path="url(#-1467158557)" d="M 187.957500,186.300000 L 193.957500,186.300000"/>
<path style="fill: none; stroke: #000000; stroke-width: 0.500000; stroke-linejoin: miter; stroke-linecap: butt;  opacity: 1.000000" clip-path="url(#-1467158557)" d="M 190.957500,189.300000 L 190.957500,183.300000"/>
<path style="fill: none; stroke: #000000; stroke-width: 1.000000; stroke-linejoin: miter; stroke-linecap: square;  opacity: 1.000000" clip-path="url(#-1467158557)" d="M 190.957500,86.940000 L 190.957500,87.810852 L 190.957500,88.689204 L 190.957500,89.574990 "/>
<path style="fill: none; stroke: #000000; stroke-width: 1.000000; stroke-linejoin: miter; stroke-linecap: square;  opacity: 1.000000" clip-path="url(#-1467158557)" d="M 208.211183,88.449502 L 208.059961,89.307123 L 207.907437,90.172131 L 207.753622,91.044460 "/>
<path style="fill: none; stroke: #000000; stroke-width: 1.000000; stroke-linejoin: miter; stroke-linecap: square;  opacity: 1.000000" clip-path="url(#-1467158557)" d="M 224.940621,92.932141 L 224.642773,93.750474 L 224.342358,94.575855 L 224.039402,95.408222 "/>
<path style="fill: none; stroke: #000000; stroke-width: 1.000000; stroke-linejoin: miter; stroke-linecap: square;  opacity: 1.000000" clip-path="url(#-1467158557)" d="M 240.637500,100.251716 L 240.202074,101.005896 L 239.762898,101.766571 L 239.320005,102.533684 "/>
<path style="fill: none; stroke: #000000; stroke-width: 1.000000; stroke-linejoin: miter; stroke-linecap: square;  opacity: 1.000000" clip-path="url(#-1467158557)" d="M 254.824877,110.185824 L 254.265104,110.852935 L 253.700510,111.525792 L 253.131138,112.204343 "/>
<path style="fill: none; stroke: #000000; stroke-width: 1.000000; stroke-linejoin: miter; stroke-linecap: square;  opacity: 1.000000" clip-path="url(#-1467158557)" d="M 267.071676,122.432623 L 266.404565,122.992396 L 265.731708,123.556990 L 265.053157,124.126362 "/>
<path style="fill: none; stroke: #000000; stroke-width: 1.000000; stroke-linejoin: miter; stroke-linecap: square;  opacity: 1.000000" clip-path="url(#-1467158557)" d="M 277.005784,136.620000 L 276.251604,137.055426 L 275.490929,137.494602 L 274.723816,137.937495 "/>
<path style="fill: none; stroke: #000000; stroke-width: 1.000000; stroke-linejoin: miter; stroke-linecap: square;  opacity: 1.000000" clip-path="url(#-1467158557)" d="M 284.325359,152.316879 L 283.507026,152.614727 L 282.681645,152.915142 L 281.849278,153.218098 "/>
<path style="fill: none; stroke: #000000; stroke-width: 1.000000; stroke-linejoin: miter; stroke-linecap: square;  opacity: 1.000000" clip-path="url(#-1467158557)" d="M 288.807998,169.046317 L 287.950377,169.197539 L 287.085369,169.350063 L 286.213040,169.503878 "/>
<path style="fill: none; stroke: #000000; stroke-width: 1.000000; stroke-linejoin: miter; stroke-linecap: square;  opacity: 1.000000" clip-path="url(#-1467158557)" d="M 290.317500,186.300000 L 289.446648,186.300000 L 288.568296,186.300000 L 287.682510,186.300000 "/>
<path style="fill: none; stroke: #000000; stroke-width: 1.000000; stroke-linejoin: miter; stroke-linecap: square;  opacity: 1.000000" clip-path="url(#-1467158557)" d="M 288.807998,203.553683 L 287.950377,203.402461 L 287.085369,203.249937 L 286.213040,203.096122 "/>
<path style="fill: none; stroke: #000000; stroke-width: 1.000000; stroke-linejoin: miter; stroke-linecap: square;  opacity: 1.000000" clip-path="url(#-1467158557)" d="M 284.325359,220.283121 L 283.507026,219.985273 L 282.681645,219.684858 L 281.849278,219.381902 "/>
<path style="fill: none; stroke: #000000; stroke-width: 1.000000; stroke-linejoin: miter; stroke-linecap: square;  opacity: 1.000000" clip-path="url(#-1467158557)" d="M 277.005784,235.980000 L 276.251604,235.544574 L 275.490929,235.105398 L 274.723816,234.662505 "/>
<path style="fill: none; stroke: #000000; stroke-width: 1.000000; stroke-linejoin: miter; stroke-linecap: square;  opacity: 1.000000" clip-path="url(#-1467158557)" d="M 267.071676,250.167377 L 266.404565,249.607604 L 265.731708,249.043010 L 265.053157,248.473638 "/>
<path style="fill: none; stroke: #000000; stroke-width: 1.000000; stroke-linejoin: miter; stroke-linecap: square;  opacity: 1.000000" clip-path="url(#-1467158557)" d="M 254.824877,262.414176 L 254.265104,261.747065 L 253.700510,261.074208 L 253.131138,260.395657 "/>
<path style="fill: none; stroke: #000000; stroke-width: 1.000000; stroke-linejoin: miter; stroke-linecap: square;  opacity: 1.000000" clip-path="url(#-1467158557)" d="M 240.637500,272.348284 L 240.202074,271.594104 L 239.762898,270.833429 L 239.320005,270.066316 "/>
<path style="fill: none; stroke: #000000; stroke-width: 1.000000; stroke-linejoin: miter; stroke-linecap: square;  opacity: 1.000000" clip-path="url(#-1467158557)" d="M 224.940621,279.667859 L 224.642773,278.849526 L 224.342358,278.024145 L 224.039402,277.191778 "/>
<path style="fill: none; stroke: #000000; stroke-width: 1.000000; stroke-linejoin: miter; stroke-linecap: square;  opacity: 1.000000" clip-path="url(#-1467158557)" d="M 208.211183,284.150498 L 208.059961,283.292877 L 207.907437,282.427869 L 207.753622,281.555540 "/>
<path style="fill: none; stroke: #000000; stroke-width: 1.000000; stroke-linejoin: miter; stroke-linecap: square;  opacity: 1.000000" clip-path="url(#-1467158557)" d="M 190.957500,285.660000 L 190.957500,284.789148 L 190.957500,283.910796 L 190.957500,283.025010 "/>
<path style="fill: none; stroke: #000000; stroke-width: 1.000000; stroke-linejoin: miter; stroke-linecap: square;  opacity: 1.000000" clip-path="url(#-1467158557)" d="M 173.703817,284.150498 L 173.855039,283.292877 L 174.007563,282.427869 L 174.161378,281.555540 "/>
<path style="fill: none; stroke: #000000; stroke-width: 1.000000; stroke-linejoin: miter; stroke-linecap: square;  opacity: 1.000000" clip-path="url(#-1467158557)" d="M 156.974379,279.667859 L 157.272227,278.849526 L 157.572642,278.024145 L 157.875598,277.191778 "/>
<path style="fill: none; stroke: #000000; stroke-width: 1.000000; stroke-linejoin: miter; stroke-linecap: square;  opacity: 1.000000" clip-path="url(#-1467158557)" d="M 141.277500,272.348284 L 141.712926,271.594104 L 142.152102,270.833429 L 142.594995,270.066316 "/>
<path style="fill: none; stroke: #000000; stroke-width: 1.000000; stroke-linejoin: miter; stroke-linecap: square;  opacity: 1.000000" clip-path="url(#-1467158557)" d="M 127.090123,262.414176 L 127.649896,261.747065 L 128.214490,261.074208 L 128.783862,260.395657 "/>
<path style="fill: none; stroke: #000000; stroke-width: 1.000000; stroke-linejoin: miter; stroke-linecap: square;  opacity: 1.000000" clip-path="url(#-1467158557)" d="M 114.843324,250.167377 L 115.510435,249.607604 L 116.183292,249.043010 L 116.861843,248.473638 "/>
<path style="fill: none; stroke: #000000; stroke-width: 1.000000; stroke-linejoin: miter; stroke-linecap: square;  opacity: 1.000000" clip-path="url(#-1467158557)" d="M 104.909216,235.980000 L 105.663396,235.544574 L 106.424071,235.105398 L 107.191184,234.662505 "/>
<path style="fill: none; stroke: #000000; stroke-width: 1.000000; stroke-linejoin: miter; stroke-linecap: square;  opacity: 1.000000" clip-path="url(#-1467158557)" d="M 97.589641,220.283121 L 98.407974,219.985273 L 99.233355,219.684858 L 100.065722,219.381902 "/>
<path style="fill: none; stroke: #000000; stroke-width: 1.000000; stroke-linejoin: miter; stroke-linecap: square;  opacity: 1.000000" clip-path="url(#-1467158557)" d="M 93.107002,203.553683 L 93.964623,203.402461 L 94.829631,203.249937 L 95.701960,203.096122 "/>
<path style="fill: none; stroke: #000000; stroke-width: 1.000000; stroke-linejoin: miter; stroke-linecap: square;  opacity: 1.000000" clip-path="url(#-1467158557)" d="M 91.597500,186.300000 L 92.468352,186.300000 L 93.346704,186.300000 L 94.232490,186.300000 "/>
<path style="fill: none; stroke: #000000; stroke-width: 1.000000; stroke-linejoin: miter; stroke-linecap: square;  opacity: 1.000000" clip-path="url(#-1467158557)" d="M 93.107002,169.046317 L 93.964623,169.197539 L 94.829631,169.350063 L 95.701960,169.503878 "/>
<path style="fill: none; stroke: #000000; stroke-width: 1.000000; stroke-linejoin: miter; stroke-linecap: square;  opacity: 1.000000" clip-path="url(#-1467158557)" d="M 97.589641,152.316879 L 98.407974,152.614727 L 99.233355,152.915142 L 100.065722,153.218098 "/>
<path style="fill: none; stroke: #000000; stroke-width: 1.000000; stroke-linejoin: miter; stroke-linecap: square;  opacity: 1.000000" clip-path="url(#-1467158557)" d="M 104.909216,136.620000 L 105.663396,137.055426 L 106.424071,137.494602 L 107.191184,137.937495 "/>
<path style="fill: none; stroke: #000000; stroke-width: 1.000000; stroke-linejoin: miter; stroke-linecap: square;  opacity: 1.000000" clip-path="url(#-1467158557)" d="M 114.843324,122.432623 L 115.510435,122.992396 L 116.183292,123.556990 L 116.861843,124.126362 "/>
<path style="fill: none; stroke: #000000; stroke-width: 1.000000; stroke-linejoin: miter; stroke-linecap: square;  opacity: 1.000000" clip-path="url(#-1467158557)" d="M 127.090123,110.185824 L 127.649896,110.852935 L 128.214490,111.525792 L 128.783862,112.204343 "/>
<path style="fill: none; stroke: #000000; stroke-width: 1.000000; stroke-linejoin: miter; stroke-linecap: square;  opacity: 1.000000" clip-path="url(#-1467158557)" d="M 141.277500,100.251716 L 141.712926,101.005896 L 142.152102,101.766571 L 142.594995,102.533684 "/>
<path style="fill: none; stroke: #000000; stroke-width: 1.000000; stroke-linejoin: miter; stroke-linecap: square;  opacity: 1.000000" clip-path="url(#-1467158557)" d="M 156.974379,92.932141 L 157.272227,93.750474 L 157.572642,94.575855 L 157.875598,95.408222 "/>
<path style="fill: none; stroke: #000000; stroke-width: 1.000000; stroke-linejoin: miter; stroke-linecap: square;  opacity: 1.000000" clip-path="url(#-1467158557)" d="M 173.703817,88.449502 L 173.855039,89.307123 L 174.007563,90.172131 L 174.161378,91.044460 "/>
<path style="fill: none; stroke: #000000; stroke-width: 0.500000; stroke-linejoin: miter; stroke-linecap: square;  opacity: 1.000000" clip-path="url(#-1467158557)" d="M 81.661500,295.596000 L 300.253500,295.596000 L 300.253500,77.004000 L 81.661500,77.004000 L 81.661500,295.596000 "/>
<ellipse style="fill: #0000ff; stroke: #0000ff; stroke-width: 0.500000; stroke-linejoin: miter; stroke-linecap: butt;  opacity: 1.000000" clip-path="url(#-1467158557)" cx="216.466235" cy="164.841199" rx="0.500000" ry="0.000000" transform="rotate(0.000000 216.466235 164.841199)"/>
<ellipse style="fill: #0000ff; stroke: #0000ff; stroke-width: 0.500000; stroke-linejoin: miter; stroke-linecap: butt;  opacity: 1.000000" clip-path="url(#-1467158557)" cx="216.861716" cy="165.326664" rx="0.500000" ry="0.000000" transform="rotate(0.000000 216.861716 165.326664)"/>
<ellipse style="fill: #0000ff; stroke: #0000ff; stroke-width: 0.500000; stroke-linejoin: miter; stroke-linecap: butt;  opacity: 1.000000" clip-path="url(#-1467158557)" cx="217.241672" cy="165.824347" rx="0.500000" ry="0.000000" transform="rotate(0.000000 217.241672 165.824347)"/>
<ellipse style="fill: #0000ff; stroke: #0000ff; stroke-width: 0.500000; stroke-linejoin: miter; stroke-linecap: butt;  opacity: 1.000000" clip-path="url(#-1467158557)" cx="217.605713" cy="166.333734" rx="0.500000" ry="0.000000" transform="rotate(0.000000 217.605713 166.333734)"/>
<ellipse style="fill: #0000ff; stroke: #0000ff; stroke-width: 0.500000; stroke-linejoin: miter; stroke-linecap: butt;  opacity: 1.000000" clip-path="url(#-1467158557)" cx="217.953466" cy="166.854300" rx="0.500000" ry="0.000000" transform="rotate(0.000000 217.953466 166.854300)"/>
<ellipse style="fill: #0000ff; stroke: #0000ff; stroke-width: 0.500000; stroke-linejoin: miter; stroke-linecap: butt;  opacity: 1.000000" clip-path="url(#-1467158557)" cx="218.284574" cy="167.385507" rx="0.500000" ry="0.000000" transform="rotate(0.000000 218.284574 167.385507)"/>
<ellipse style="fill: #0000ff; stroke: #0000ff; stroke-width: 0.500000; stroke-linejoin: miter; stroke-linecap: butt;  opacity: 1.000000" clip-path="url(#-1467158557)" cx="218.598702" cy="167.926806" rx="0.500000" ry="0.000000" transform="rotate(0.000000 218.598702 167.926806)"/>
<ellipse style="fill: #0000ff; stroke: #0000ff; stroke-width: 0.500000; stroke-linejoin: miter; stroke-linecap: butt;  opacity: 1.000000" clip-path="url(#-1467158557)" cx="218.895529" cy="168.477639" rx="0.500000" ry="0.000000" transform="rotate(0.000000 218.895529 168.477639)"/>
<ellipse style="fill: #0000ff; stroke: #0000ff; stroke-width: 0.500000; stroke-linejoin: miter; stroke-linecap: butt;  opacity: 1.000000" clip-path="url(#-1467158557)" cx="219.174755" cy="169.037434" rx="0.500000" ry="0.000000" transform="rotate(0.000000 219.174755 169.037434)"/>
<ellipse style="fill: #0000ff; stroke: #0000ff; stroke-width: 0.500000; stroke-linejoin: miter; stroke-linecap: butt;  opacity: 1.000000" clip-path="url(#-1467158557)" cx="219.436099" cy="169.605615" rx="0.500000" ry="0.000000" transform="rotate(0.000000 219.436099 169.605615)"/>
<ellipse style="fill: #0000ff; stroke: #0000ff; stroke-width: 0.500000; stroke-linejoin: miter; stroke-linecap: butt;  opacity: 1.000000" clip-path="url(#-1467158557)" cx="219.679298" cy="170.181594" rx="0.500000" ry="0.000000" transform="rotate(0.000000 219.679298 170.181594)"/>
<ellipse style="fill: #0000ff; stroke: #0000ff; stroke-width: 0.500000; stroke-linejoin: miter; stroke-linecap: butt;  opacity: 1.000000" clip-path="url(#-1467158557)" cx="219.904111" cy="170.764775" rx="0.500000" ry="0.000000" transform="rotate(0.000000 219.904111 170.764775)"/>
<ellipse style="fill: #0000ff; stroke: #0000ff; stroke-width: 0.500000; stroke-linejoin: miter; stroke-linecap: butt;  opacity: 1.000000" clip-path="url(#-1467158557)" cx="220.110314" cy="171.354557" rx="0.500000" ry="0.000000" transform="rotate(0.000000 220.110314 171.354557)"/>
<ellipse style="fill: #0000ff; stroke: #0000ff; stroke-width: 0.500000; stroke-linejoin: miter; stroke-linecap: butt;  opacity: 1.000000" clip-path="url(#-1467158557)" cx="220.297705" cy="171.950330" rx="0.500000" ry="0.000000" transform="rotate(0.000000 220.297705 171.950330)"/>
<ellipse style="fill: #0000ff; stroke: #0000ff; stroke-width: 0.500000; stroke-linejoin: miter; stroke-linecap: butt;  opacity: 1.000000" clip-path="url(#-1467158557)" cx="220.466102" cy="172.551481" rx="0.500000" ry="0.000000" transform="rotate(0.000000 220.466102 172.551481)"/>
<ellipse style="fill: #0000ff; stroke: #0000ff; stroke-width: 0.500000; stroke-linejoin: miter; stroke-linecap: butt;  opacity: 1.000000" clip-path="url(#-1467158557)" cx="220.615343" cy="173.157389" rx="0.500000" ry="0.000000" transform="rotate(0.000000 220.615343 173.157389)"/>
<ellipse style="fill: #0000ff; stroke: #0000ff; stroke-width: 0.500000; stroke-linejoin: miter; stroke-linecap: butt;  opacity: 1.000000" clip-path="url(#-1467158557)" cx="220.745286" cy="173.767431" rx="0.500000" ry="0.000000" transform="rotate(0.000000 220.745286 173.767431)"/>
<ellipse style="fill: #0000ff; stroke: #0000ff; stroke-width: 0.500000; stroke-linejoin: miter; stroke-linecap: butt;  opacity: 1.000000" clip-path="url(#-1467158557)" cx="220.855811" cy="174.380979" rx="0.500000" ry="0.000000" transform="rotate(0.000000 220.855811 174.380979)"/>
<ellipse style="fill: #0000ff; stroke: #0000ff; stroke-width: 0.500000; stroke-linejoin: miter; stroke-linecap: butt;  opacity: 1.000000" clip-path="url(#-1467158557)" cx="220.946819" cy="174.997403" rx="0.500000" ry="0.000000" transform="rotate(0.000000 220.946819 174.997403)"/>
<ellipse style="fill: #0000ff; stroke: #0000ff; stroke-width: 0.500000; stroke-linejoin: miter; stroke-linecap: butt;  opacity: 1.000000" clip-path="url(#-1467158557)" cx="221.018230" cy="175.616070" rx="0.500000" ry="0.000000" transform="rotate(0.000000 221.018230 175.616070)"/>
<ellipse style="fill: #0000ff; stroke: #0000ff; stroke-width: 0.500000; stroke-linejoin: miter; stroke-linecap: butt;  opacity: 1.000000" clip-path="url(#-1467158557)" cx="221.069986" cy="176.236346" rx="0.500000" ry="0.000000" transform="rotate(0.000000 221.069986 176.236346)"/>
<ellipse style="fill: #0000ff; stroke: #0000ff; stroke-width: 0.500000; stroke-linejoin: miter; stroke-linecap: butt;  opacity: 1.000000" clip-path="url(#-1467158557)" cx="221.102051" cy="176.857596" rx="0.500000" ry="0.000000" transform="rotate(0.000000 221.102051 176.857596)"/>
<ellipse style="fill: #0000ff; stroke: #0000ff; stroke-width: 0.500000; stroke-linejoin: miter; stroke-linecap: butt;  opacity: 1.000000" clip-path="url(#-1467158557)" cx="221.114406" cy="177.479186" rx="0.500000" ry="0.000000" transform="rotate(0.000000 221.114406 177.479186)"/>
<ellipse style="fill: #0000ff; stroke: #0000ff; stroke-width: 0.500000; stroke-linejoin: miter; stroke-linecap: butt;  opacity: 1.000000" clip-path="url(#-1467158557)" cx="221.107058" cy="178.100482" rx="0.500000" ry="0.000000" transform="rotate(0.000000 221.107058 178.100482)"/>
<ellipse style="fill: #0000ff; stroke: #0000ff; stroke-width: 0.500000; stroke-linejoin: miter; stroke-linecap: butt;  opacity: 1.000000" clip-path="url(#-1467158557)" cx="221.080031" cy="178.720850" rx="0.500000" ry="0.000000" transform="rotate(0.000000 221.080031 178.720850)"/>
<ellipse style="fill: #0000ff; stroke: #0000ff; stroke-width: 0.500000; stroke-linejoin: miter; stroke-linecap: butt;  opacity: 1.000000" clip-path="url(#-1467158557)" cx="221.033370" cy="179.339661" rx="0.500000" ry="0.000000" transform="rotate(0.000000 221.033370 179.339661)"/>
<ellipse style="fill: #0000ff; stroke: #0000ff; stroke-width: 0.500000; stroke-linejoin: miter; stroke-linecap: butt;  opacity: 1.000000" clip-path="url(#-1467158557)" cx="220.967143" cy="179.956287" rx="0.500000" ry="0.000000" transform="rotate(0.000000 220.967143 179.956287)"/>
<ellipse style="fill: #0000ff; stroke: #0000ff; stroke-width: 0.500000; stroke-linejoin: miter; stroke-linecap: butt;  opacity: 1.000000" clip-path="url(#-1467158557)" cx="220.881435" cy="180.570102" rx="0.500000" ry="0.000000" transform="rotate(0.000000 220.881435 180.570102)"/>
<ellipse style="fill: #0000ff; stroke: #0000ff; stroke-width: 0.500000; stroke-linejoin: miter; stroke-linecap: butt;  opacity: 1.000000" clip-path="url(#-1467158557)" cx="220.776354" cy="181.180489" rx="0.500000" ry="0.000000" transform="rotate(0.000000 220.776354 181.180489)"/>
<ellipse style="fill: #0000ff; stroke: #0000ff; stroke-width: 0.500000; stroke-linejoin: miter; stroke-linecap: butt;  opacity: 1.000000" clip-path="url(#-1467158557)" cx="220.652025" cy="181.786830" rx="0.500000" ry="0.000000" transform="rotate(0.000000 220.652025 181.786830)"/>
<ellipse style="fill: #0000ff; stroke: #0000ff; stroke-width: 0.500000; stroke-linejoin: miter; stroke-linecap: butt;  opacity: 1.000000" clip-path="url(#-1467158557)" cx="220.508596" cy="182.388517" rx="0.500000" ry="0.000000" transform="rotate(0.000000 220.508596 182.388517)"/>
<ellipse style="fill: #0000ff; stroke: #0000ff; stroke-width: 0.500000; stroke-linejoin: miter; stroke-linecap: butt;  opacity: 1.000000" clip-path="url(#-1467158557)" cx="220.346232" cy="182.984946" rx="0.500000" ry="0.000000" transform="rotate(0.000000 220.346232 182.984946)"/>
<ellipse style="fill: #0000ff; stroke: #0000ff; stroke-width: 0.500000; stroke-linejoin: miter; stroke-linecap: butt;  opacity: 1.000000" clip-path="url(#-1467158557)" cx="220.165119" cy="183.575520" rx="0.500000" ry="0.000000" transform="rotate(0.000000 220.165119 183.575520)"/>
<ellipse style="fill: #0000ff; stroke: #0000ff; stroke-width: 0.500000; stroke-linejoin: miter; stroke-linecap: butt;  opacity: 1.000000" clip-path="url(#-1467158557)" cx="219.965460" cy="184.159650" rx="0.500000" ry="0.000000" transform="rotate(0.000000 219.965460 184.159650)"/>
<ellipse style="fill: #0000ff; stroke: #0000ff; stroke-width: 0.500000; stroke-linejoin: miter; stroke-linecap: butt;  opacity: 1.000000" clip-path="url(#-1467158557)" cx="219.747479" cy="184.736754" rx="0.500000" ry="0.000000" transform="rotate(0.000000 219.747479 184.736754)"/>
<ellipse style="fill: #0000ff; stroke: #0000ff; stroke-width: 0.500000; stroke-linejoin: miter; stroke-linecap: butt;  opacity: 1.000000" clip-path="url(#-1467158557)" cx="219.511416" cy="185.306259" rx="0.500000" ry="0.000000" transform="rotate(0.000000 219.511416 185.306259)"/>
<ellipse style="fill: #0000ff; stroke: #0000ff; stroke-width: 0.500000; stroke-linejoin: miter; stroke-linecap: butt;  opacity: 1.000000" clip-path="url(#-1467158557)" cx="219.257531" cy="185.867603" rx="0.500000" ry="0.000000" transform="rotate(0.000000 219.257531 185.867603)"/>
<ellipse style="fill: #0000ff; stroke: #0000ff; stroke-width: 0.500000; stroke-linejoin: miter; stroke-linecap: butt;  opacity: 1.000000" clip-path="url(#-1467158557)" cx="218.986100" cy="186.420230" rx="0.500000" ry="0.000000" transform="rotate(0.000000 218.986100 186.420230)"/>
<ellipse style="fill: #0000ff; stroke: #0000ff; stroke-width: 0.500000; stroke-linejoin: miter; stroke-linecap: butt;  opacity: 1.000000" clip-path="url(#-1467158557)" cx="218.697418" cy="186.963597" rx="0.500000" ry="0.000000" transform="rotate(0.000000 218.697418 186.963597)"/>
<ellipse style="fill: #0000ff; stroke: #0000ff; stroke-width: 0.500000; stroke-linejoin: miter; stroke-linecap: butt;  opacity: 1.000000" clip-path="url(#-1467158557)" cx="218.391794" cy="187.497172" rx="0.500000" ry="0.000000" transform="rotate(0.000000 218.391794 187.497172)"/>
<ellipse style="fill: #0000ff; stroke: #0000ff; stroke-width: 0.500000; stroke-linejoin: miter; stroke-linecap: butt;  opacity: 1.000000" clip-path="url(#-1467158557)" cx="218.069556" cy="188.020432" rx="0.500000" ry="0.000000" transform="rotate(0.000000 218.069556 188.020432)"/>
<ellipse style="fill: #0000ff; stroke: #0000ff; stroke-width: 0.500000; stroke-linejoin: miter; stroke-linecap: butt;  opacity: 1.000000" clip-path="url(#-1467158557)" cx="217.731048" cy="188.532868" rx="0.500000" ry="0.000000" transform="rotate(0.000000 217.731048 188.532868)"/>
<ellipse style="fill: #0000ff; stroke: #0000ff; stroke-width: 0.500000; stroke-linejoin: miter; stroke-linecap: butt;  opacity: 1.000000" clip-path="url(#-1467158557)" cx="217.376628" cy="189.033983" rx="0.500000" ry="0.000000" transform="rotate(0.000000 217.376628 189.033983)"/>
<ellipse style="fill: #0000ff; stroke: #0000ff; stroke-width: 0.500000; stroke-linejoin: miter; stroke-linecap: butt;  opacity: 1.000000" clip-path="url(#-1467158557)" cx="217.006669" cy="189.523290" rx="0.500000" ry="0.000000" transform="rotate(0.000000 217.006669 189.523290)"/>
<ellipse style="fill: #0000ff; stroke: #0000ff; stroke-width: 0.500000; stroke-linejoin: miter; stroke-linecap: butt;  opacity: 1.000000" clip-path="url(#-1467158557)" cx="216.621562" cy="190.000320" rx="0.500000" ry="0.000000" transform="rotate(0.000000 216.621562 190.000320)"/>
<ellipse style="fill: #0000ff; stroke: #0000ff; stroke-width: 0.500000; stroke-linejoin: miter; stroke-linecap: butt;  opacity: 1.000000" clip-path="url(#-1467158557)" cx="216.221708" cy="190.464612" rx="0.500000" ry="0.000000" transform="rotate(0.000000 216.221708 190.464612)"/>
<ellipse style="fill: #0000ff; stroke: #0000ff; stroke-width: 0.500000; stroke-linejoin: miter; stroke-linecap: butt;  opacity: 1.000000" clip-path="url(#-1467158557)" cx="215.807523" cy="190.915724" rx="0.500000" ry="0.000000" transform="rotate(0.000000 215.807523 190.915724)"/>
<ellipse style="fill: #0000ff; stroke: #0000ff; stroke-width: 0.500000; stroke-linejoin: miter; stroke-linecap: butt;  opacity: 1.000000" clip-path="url(#-1467158557)" cx="215.379438" cy="191.353225" rx="0.500000" ry="0.000000" transform="rotate(0.000000 215.379438 191.353225)"/>
<ellipse style="fill: #0000ff; stroke: #0000ff; stroke-width: 0.500000; stroke-linejoin: miter; stroke-linecap: butt;  opacity: 1.000000" clip-path="url(#-1467158557)" cx="214.937894" cy="191.776700" rx="0.500000" ry="0.000000" transform="rotate(0.000000 214.937894 191.776700)"/>
<ellipse style="fill: #0000ff; stroke: #0000ff; stroke-width: 0.500000; stroke-linejoin: miter; stroke-linecap: butt;  opacity: 1.000000" clip-path="url(#-1467158557)" cx="214.483347" cy="192.185748" rx="0.500000" ry="0.000000" transform="rotate(0.000000 214.483347 192.185748)"/>
<ellipse style="fill: #0000ff; stroke: #0000ff; stroke-width: 0.500000; stroke-linejoin: miter; stroke-linecap: butt;  opacity: 1.000000" clip-path="url(#-1467158557)" cx="214.016262" cy="192.579986" rx="0.500000" ry="0.000000" transform="rotate(0.000000 214.016262 192.579986)"/>
<ellipse style="fill: #0000ff; stroke: #0000ff; stroke-width: 0.500000; stroke-linejoin: miter; stroke-linecap: butt;  opacity: 1.000000" clip-path="url(#-1467158557)" cx="213.537116" cy="192.959043" rx="0.500000" ry="0.000000" transform="rotate(0.000000 213.537116 192.959043)"/>
<ellipse style="fill: #0000ff; stroke: #0000ff; stroke-width: 0.500000; stroke-linejoin: miter; stroke-linecap: butt;  opacity: 1.000000" clip-path="url(#-1467158557)" cx="213.046399" cy="193.322567" rx="0.500000" ry="0.000000" transform="rotate(0.000000 213.046399 193.322567)"/>
<ellipse style="fill: #0000ff; stroke: #0000ff; stroke-width: 0.500000; stroke-linejoin: miter; stroke-linecap: butt;  opacity: 1.000000" clip-path="url(#-1467158557)" cx="212.544606" cy="193.670221" rx="0.500000" ry="0.000000" transform="rotate(0.000000 212.544606 193.670221)"/>
<ellipse style="fill: #0000ff; stroke: #0000ff; stroke-width: 0.500000; stroke-linejoin: miter; stroke-linecap: butt;  opacity: 1.000000" clip-path="url(#-1467158557)" cx="212.032247" cy="194.001683" rx="0.500000" ry="0.000000" transform="rotate(0.000000 212.032247 194.001683)"/>
<ellipse style="fill: #0000ff; stroke: #0000ff; stroke-width: 0.500000; stroke-linejoin: miter; stroke-linecap: butt;  opacity: 1.000000" clip-path="url(#-1467158557)" cx="211.509838" cy="194.316650" rx="0.500000" ry="0.000000" transform="rotate(0.000000 211.509838 194.316650)"/>
<ellipse style="fill: #0000ff; stroke: #0000ff; stroke-width: 0.500000; stroke-linejoin: miter; stroke-linecap: butt;  opacity: 1.000000" clip-path="url(#-1467158557)" cx="210.977903" cy="194.614835" rx="0.500000" ry="0.000000" transform="rotate(0.000000 210.977903 194.614835)"/>
<ellipse style="fill: #0000ff; stroke: #0000ff; stroke-width: 0.500000; stroke-linejoin: miter; stroke-linecap: butt;  opacity: 1.000000" clip-path="url(#-1467158557)" cx="210.436975" cy="194.895967" rx="0.500000" ry="0.000000" transform="rotate(0.000000 210.436975 194.895967)"/>
<ellipse style="fill: #0000ff; stroke: #0000ff; stroke-width: 0.500000; stroke-linejoin: miter; stroke-linecap: butt;  opacity: 1.000000" clip-path="url(#-1467158557)" cx="209.887595" cy="195.159795" rx="0.500000" ry="0.000000" transform="rotate(0.000000 209.887595 195.159795)"/>
<ellipse style="fill: #0000ff; stroke: #0000ff; stroke-width: 0.500000; stroke-linejoin: miter; stroke-linecap: butt;  opacity: 1.000000" clip-path="url(#-1467158557)" cx="209.330310" cy="195.406082" rx="0.500000" ry="0.000000" transform="rotate(0.000000 209.330310 195.406082)"/>
<ellipse style="fill: #0000ff; stroke: #0000ff; stroke-width: 0.500000; stroke-linejoin: miter; stroke-linecap: butt;  opacity: 1.000000" clip-path="url(#-1467158557)" cx="208.765672" cy="195.634612" rx="0.500000" ry="0.000000" transform="rotate(0.000000 208.765672 195.634612)"/>
<ellipse style="fill: #0000ff; stroke: #0000ff; stroke-width: 0.500000; stroke-linejoin: miter; stroke-linecap: butt;  opacity: 1.000000" clip-path="url(#-1467158557)" cx="208.194241" cy="195.845182" rx="0.500000" ry="0.000000" transform="rotate(0.000000 208.194241 195.845182)"/>
<ellipse style="fill: #0000ff; stroke: #0000ff; stroke-width: 0.500000; stroke-linejoin: miter; stroke-linecap: butt;  opacity: 1.000000" clip-path="url(#-1467158557)" cx="207.616580" cy="196.037612" rx="0.500000" ry="0.000000" transform="rotate(0.000000 207.616580 196.037612)"/>
<ellipse style="fill: #0000ff; stroke: #0000ff; stroke-width: 0.500000; stroke-linejoin: miter; stroke-linecap: butt;  opacity: 1.000000" clip-path="url(#-1467158557)" cx="207.033259" cy="196.211737" rx="0.500000" ry="0.000000" transform="rotate(0.000000 207.033259 196.211737)"/>
<ellipse style="fill: #0000ff; stroke: #0000ff; stroke-width: 0.500000; stroke-linejoin: miter; stroke-linecap: butt;  opacity: 1.000000" clip-path="url(#-1467158557)" cx="206.444849" cy="196.367409" rx="0.500000" ry="0.000000" transform="rotate(0.000000 206.444849 196.367409)"/>
<ellipse style="fill: #0000ff; stroke: #0000ff; stroke-width: 0.500000; stroke-linejoin: miter; stroke-linecap: butt;  opacity: 1.000000" clip-path="url(#-1467158557)" cx="205.851927" cy="196.504500" rx="0.500000" ry="0.000000" transform="rotate(0.000000 205.851927 196.504500)"/>
<ellipse style="fill: #0000ff; stroke: #0000ff; stroke-width: 0.500000; stroke-linejoin: miter; stroke-linecap: butt;  opacity: 1.000000" clip-path="url(#-1467158557)" cx="205.255072" cy="196.622898" rx="0.500000" ry="0.000000" transform="rotate(0.000000 205.255072 196.622898)"/>
<ellipse style="fill: #0000ff; stroke: #0000ff; stroke-width: 0.500000; stroke-linejoin: miter; stroke-linecap: butt;  opacity: 1.000000" clip-path="url(#-1467158557)" cx="204.654865" cy="196.722512" rx="0.500000" ry="0.000000" transform="rotate(0.000000 204.654865 196.722512)"/>
<ellipse style="fill: #0000ff; stroke: #0000ff; stroke-width: 0.500000; stroke-linejoin: miter; stroke-linecap: butt;  opacity: 1.000000" clip-path="url(#-1467158557)" cx="204.051890" cy="196.803266" rx="0.500000" ry="0.000000" transform="rotate(0.000000 204.051890 196.803266)"/>
<ellipse style="fill: #0000ff; stroke: #0000ff; stroke-width: 0.500000; stroke-linejoin: miter; stroke-linecap: butt;  opacity: 1.000000" clip-path="url(#-1467158557)" cx="203.446730" cy="196.865103" rx="0.500000" ry="0.000000" transform="rotate(0.000000 203.446730 196.865103)"/>
<ellipse style="fill: #0000ff; stroke: #0000ff; stroke-width: 0.500000; stroke-linejoin: miter; stroke-linecap: butt;  opacity: 1.000000" clip-path="url(#-1467158557)" cx="202.839972" cy="196.907984" rx="0.500000" ry="0.000000" transform="rotate(0.000000 202.839972 196.907984)"/>
<ellipse style="fill: #0000ff; stroke: #0000ff; stroke-width: 0.500000; stroke-linejoin: miter; stroke-linecap: butt;  opacity: 1.000000" clip-path="url(#-1467158557)" cx="202.232200" cy="196.931888" rx="0.500000" ry="0.000000" transform="rotate(0.000000 202.232200 196.931888)"/>
<ellipse style="fill: #0000ff; stroke: #0000ff; stroke-width: 0.500000; stroke-linejoin: miter; stroke-linecap: butt;  opacity: 1.000000" clip-path="url(#-1467158557)" cx="201.624000" cy="196.936812" rx="0.500000" ry="0.000000" transform="rotate(0.000000 201.624000 196.936812)"/>
<ellipse style="fill: #0000ff; stroke: #0000ff; stroke-width: 0.500000; stroke-linejoin: miter; stroke-linecap: butt;  opacity: 1.000000" clip-path="url(#-1467158557)" cx="201.015957" cy="196.922770" rx="0.500000" ry="0.000000" transform="rotate(0.000000 201.015957 196.922770)"/>
<ellipse style="fill: #0000ff; stroke: #0000ff; stroke-width: 0.500000; stroke-linejoin: miter; stroke-linecap: butt;  opacity: 1.000000" clip-path="url(#-1467158557)" cx="200.408654" cy="196.889795" rx="0.500000" ry="0.000000" transform="rotate(0.000000 200.408654 196.889795)"/>
<ellipse style="fill: #0000ff; stroke: #0000ff; stroke-width: 0.500000; stroke-linejoin: miter; stroke-linecap: butt;  opacity: 1.000000" clip-path="url(#-1467158557)" cx="199.802672" cy="196.837935" rx="0.500000" ry="0.000000" transform="rotate(0.000000 199.802672 196.837935)"/>
<ellipse style="fill: #0000ff; stroke: #0000ff; stroke-width: 0.500000; stroke-linejoin: miter; stroke-linecap: butt;  opacity: 1.000000" clip-path="url(#-1467158557)" cx="199.198589" cy="196.767259" rx="0.500000" ry="0.000000" transform="rotate(0.000000 199.198589 196.767259)"/>
<ellipse style="fill: #0000ff; stroke: #0000ff; stroke-width: 0.500000; stroke-linejoin: miter; stroke-linecap: butt;  opacity: 1.000000" clip-path="url(#-1467158557)" cx="198.596983" cy="196.677851" rx="0.500000" ry="0.000000" transform="rotate(0.000000 198.596983 196.677851)"/>
<ellipse style="fill: #0000ff; stroke: #0000ff; stroke-width: 0.500000; stroke-linejoin: miter; stroke-linecap: butt;  opacity: 1.000000" clip-path="url(#-1467158557)" cx="197.998426" cy="196.569812" rx="0.500000" ry="0.000000" transform="rotate(0.000000 197.998426 196.569812)"/>
<ellipse style="fill: #0000ff; stroke: #0000ff; stroke-width: 0.500000; stroke-linejoin: miter; stroke-linecap: butt;  opacity: 1.000000" clip-path="url(#-1467158557)" cx="197.403488" cy="196.443262" rx="0.500000" ry="0.000000" transform="rotate(0.000000 197.403488 196.443262)"/>
<ellipse style="fill: #0000ff; stroke: #0000ff; stroke-width: 0.500000; stroke-linejoin: miter; stroke-linecap: butt;  opacity: 1.000000" clip-path="url(#-1467158557)" cx="196.812732" cy="196.298336" rx="0.500000" ry="0.000000" transform="rotate(0.000000 196.812732 196.298336)"/>
<ellipse style="fill: #0000ff; stroke: #0000ff; stroke-width: 0.500000; stroke-linejoin: miter; stroke-linecap: butt;  opacity: 1.000000" clip-path="url(#-1467158557)" cx="196.226720" cy="196.135186" rx="0.500000" ry="0.000000" transform="rotate(0.000000 196.226720 196.135186)"/>
<ellipse style="fill: #0000ff; stroke: #0000ff; stroke-width: 0.500000; stroke-linejoin: miter; stroke-linecap: butt;  opacity: 1.000000" clip-path="url(#-1467158557)" cx="195.646006" cy="195.953982" rx="0.500000" ry="0.000000" transform="rotate(0.000000 195.646006 195.953982)"/>
<ellipse style="fill: #0000ff; stroke: #0000ff; stroke-width: 0.500000; stroke-linejoin: miter; stroke-linecap: butt;  opacity: 1.000000" clip-path="url(#-1467158557)" cx="195.071139" cy="195.754909" rx="0.500000" ry="0.000000" transform="rotate(0.000000 195.071139 195.754909)"/>
<ellipse style="fill: #0000ff; stroke: #0000ff; stroke-width: 0.500000; stroke-linejoin: miter; stroke-linecap: butt;  opacity: 1.000000" clip-path="url(#-1467158557)" cx="194.502663" cy="195.538169" rx="0.500000" ry="0.000000" transform="rotate(0.000000 194.502663 195.538169)"/>
<ellipse style="fill: #0000ff; stroke: #0000ff; stroke-width: 0.500000; stroke-linejoin: miter; stroke-linecap: butt;  opacity: 1.000000" clip-path="url(#-1467158557)" cx="193.941114" cy="195.303978" rx="0.500000" ry="0.000000" transform="rotate(0.000000 193.941114 195.303978)"/>
<ellipse style="fill: #0000ff; stroke: #0000ff; stroke-width: 0.500000; stroke-linejoin: miter; stroke-linecap: butt;  opacity: 1.000000" clip-path="url(#-1467158557)" cx="193.387021" cy="195.052570" rx="0.500000" ry="0.000000" transform="rotate(0.000000 193.387021 195.052570)"/>
<ellipse style="fill: #0000ff; stroke: #0000ff; stroke-width: 0.500000; stroke-linejoin: miter; stroke-linecap: butt;  opacity: 1.000000" clip-path="url(#-1467158557)" cx="192.840908" cy="194.784194" rx="0.500000" ry="0.000000" transform="rotate(0.000000 192.840908 194.784194)"/>
<ellipse style="fill: #0000ff; stroke: #0000ff; stroke-width: 0.500000; stroke-linejoin: miter; stroke-linecap: butt;  opacity: 1.000000" clip-path="url(#-1467158557)" cx="192.303287" cy="194.499113" rx="0.500000" ry="0.000000" transform="rotate(0.000000 192.303287 194.499113)"/>
<ellipse style="fill: #0000ff; stroke: #0000ff; stroke-width: 0.500000; stroke-linejoin: miter; stroke-linecap: butt;  opacity: 1.000000" clip-path="url(#-1467158557)" cx="191.774665" cy="194.197606" rx="0.500000" ry="0.000000" transform="rotate(0.000000 191.774665 194.197606)"/>
<ellipse style="fill: #0000ff; stroke: #0000ff; stroke-width: 0.500000; stroke-linejoin: miter; stroke-linecap: butt;  opacity: 1.000000" clip-path="url(#-1467158557)" cx="191.255539" cy="193.879966" rx="0.500000" ry="0.000000" transform="rotate(0.000000 191.255539 193.879966)"/>
<ellipse style="fill: #0000ff; stroke: #0000ff; stroke-width: 0.500000; stroke-linejoin: miter; stroke-linecap: butt;  opacity: 1.000000" clip-path="url(#-1467158557)" cx="190.746398" cy="193.546502" rx="0.500000" ry="0.000000" transform="rotate(0.000000 190.746398 193.546502)"/>
<ellipse style="fill: #0000ff; stroke: #0000ff; stroke-width: 0.500000; stroke-linejoin: miter; stroke-linecap: butt;  opacity: 1.000000" clip-path="url(#-1467158557)" cx="190.247720" cy="193.197536" rx="0.500000" ry="0.000000" transform="rotate(0.000000 190.247720 193.197536)"/>
<ellipse style="fill: #0000ff; stroke: #0000ff; stroke-width: 0.500000; stroke-linejoin: miter; stroke-linecap: butt;  opacity: 1.000000" clip-path="url(#-1467158557)" cx="189.759975" cy="192.833402" rx="0.500000" ry="0.000000" transform="rotate(0.000000 189.759975 192.833402)"/>
<ellipse style="fill: #0000ff; stroke: #0000ff; stroke-width: 0.500000; stroke-linejoin: miter; stroke-linecap: butt;  opacity: 1.000000" clip-path="url(#-1467158557)" cx="189.283621" cy="192.454452" rx="0.500000" ry="0.000000" transform="rotate(0.000000 189.283621 192.454452)"/>
<ellipse style="fill: #0000ff; stroke: #0000ff; stroke-width: 0.500000; stroke-linejoin: miter; stroke-linecap: butt;  opacity: 1.000000" clip-path="url(#-1467158557)" cx="188.819106" cy="192.061047" rx="0.500000" ry="0.000000" transform="rotate(0.000000 188.819106 192.061047)"/>
<ellipse style="fill: #0000ff; stroke: #0000ff; stroke-width: 0.500000; stroke-linejoin: miter; stroke-linecap: butt;  opacity: 1.000000" clip-path="url(#-1467158557)" cx="188.366867" cy="191.653564" rx="0.500000" ry="0.000000" transform="rotate(0.000000 188.366867 191.653564)"/>
<ellipse style="fill: #0000ff; stroke: #0000ff; stroke-width: 0.500000; stroke-linejoin: miter; stroke-linecap: butt;  opacity: 1.000000" clip-path="url(#-1467158557)" cx="187.927331" cy="191.232390" rx="0.500000" ry="0.000000" transform="rotate(0.000000 187.927331 191.232390)"/>
<ellipse style="fill: #0000ff; stroke: #0000ff; stroke-width: 0.500000; stroke-linejoin: miter; stroke-linecap: butt;  opacity: 1.000000" clip-path="url(#-1467158557)" cx="187.500911" cy="190.797926" rx="0.500000" ry="0.000000" transform="rotate(0.000000 187.500911 190.797926)"/>
<ellipse style="fill: #0000ff; stroke: #0000ff; stroke-width: 0.500000; stroke-linejoin: miter; stroke-linecap: butt;  opacity: 1.000000" clip-path="url(#-1467158557)" cx="187.088010" cy="190.350585" rx="0.500000" ry="0.000000" transform="rotate(0.000000 187.088010 190.350585)"/>
<ellipse style="fill: #0000ff; stroke: #0000ff; stroke-width: 0.500000; stroke-linejoin: miter; stroke-linecap: butt;  opacity: 1.000000" clip-path="url(#-1467158557)" cx="186.689017" cy="189.890790" rx="0.500000" ry="0.000000" transform="rotate(0.000000 186.689017 189.890790)"/>
<ellipse style="fill: #0000ff; stroke: #0000ff; stroke-width: 0.500000; stroke-linejoin: miter; stroke-linecap: butt;  opacity: 1.000000" clip-path="url(#-1467158557)" cx="186.304311" cy="189.418978" rx="0.500000" ry="0.000000" transform="rotate(0.000000 186.304311 189.418978)"/>
<ellipse style="fill: #0000ff; stroke: #0000ff; stroke-width: 0.500000; stroke-linejoin: miter; stroke-linecap: butt;  opacity: 1.000000" clip-path="url(#-1467158557)" cx="185.934255" cy="188.935594" rx="0.500000" ry="0.000000" transform="rotate(0.000000 185.934255 188.935594)"/>
<ellipse style="fill: #0000ff; stroke: #0000ff; stroke-width: 0.500000; stroke-linejoin: miter; stroke-linecap: butt;  opacity: 1.000000" clip-path="url(#-1467158557)" cx="185.579201" cy="188.441095" rx="0.500000" ry="0.000000" transform="rotate(0.000000 185.579201 188.441095)"/>
<ellipse style="fill: #0000ff; stroke: #0000ff; stroke-width: 0.500000; stroke-linejoin: miter; stroke-linecap: butt;  opacity: 1.000000" clip-path="url(#-1467158557)" cx="185.239485" cy="187.935949" rx="0.500000" ry="0.000000" transform="rotate(0.000000 185.239485 187.935949)"/>
<ellipse style="fill: #0000ff; stroke: #0000ff; stroke-width: 0.500000; stroke-linejoin: miter; stroke-linecap: butt;  opacity: 1.000000" clip-path="url(#-1467158557)" cx="184.915432" cy="187.420631" rx="0.500000" ry="0.000000" transform="rotate(0.000000 184.915432 187.420631)"/>
<ellipse style="fill: #0000ff; stroke: #0000ff; stroke-width: 0.500000; stroke-linejoin: miter; stroke-linecap: butt;  opacity: 1.000000" clip-path="url(#-1467158557)" cx="184.607352" cy="186.895628" rx="0.500000" ry="0.000000" transform="rotate(0.000000 184.607352 186.895628)"/>
<ellipse style="fill: #0000ff; stroke: #0000ff; stroke-width: 0.500000; stroke-linejoin: miter; stroke-linecap: butt;  opacity: 1.000000" clip-path="url(#-1467158557)" cx="184.315540" cy="186.361435" rx="0.500000" ry="0.000000" transform="rotate(0.000000 184.315540 186.361435)"/>
<ellipse style="fill: #0000ff; stroke: #0000ff; stroke-width: 0.500000; stroke-linejoin: miter; stroke-linecap: butt;  opacity: 1.000000" clip-path="url(#-1467158557)" cx="184.040275" cy="185.818556" rx="0.500000" ry="0.000000" transform="rotate(0.000000 184.040275 185.818556)"/>
<ellipse style="fill: #0000ff; stroke: #0000ff; stroke-width: 0.500000; stroke-linejoin: miter; stroke-linecap: butt;  opacity: 1.000000" clip-path="url(#-1467158557)" cx="183.781825" cy="185.267501" rx="0.500000" ry="0.000000" transform="rotate(0.000000 183.781825 185.267501)"/>
<ellipse style="fill: #0000ff; stroke: #0000ff; stroke-width: 0.500000; stroke-linejoin: miter; stroke-linecap: butt;  opacity: 1.000000" clip-path="url(#-1467158557)" cx="183.540440" cy="184.708792" rx="0.500000" ry="0.000000" transform="rotate(0.000000 183.540440 184.708792)"/>
<ellipse style="fill: #0000ff; stroke: #0000ff; stroke-width: 0.500000; stroke-linejoin: miter; stroke-linecap: butt;  opacity: 1.000000" clip-path="url(#-1467158557)" cx="183.316355" cy="184.142954" rx="0.500000" ry="0.000000" transform="rotate(0.000000 183.316355 184.142954)"/>
<ellipse style="fill: #0000ff; stroke: #0000ff; stroke-width: 0.500000; stroke-linejoin: miter; stroke-linecap: butt;  opacity: 1.000000" clip-path="url(#-1467158557)" cx="183.109791" cy="183.570522" rx="0.500000" ry="0.000000" transform="rotate(0.000000 183.109791 183.570522)"/>
<ellipse style="fill: #0000ff; stroke: #0000ff; stroke-width: 0.500000; stroke-linejoin: miter; stroke-linecap: butt;  opacity: 1.000000" clip-path="url(#-1467158557)" cx="182.920950" cy="182.992036" rx="0.500000" ry="0.000000" transform="rotate(0.000000 182.920950 182.992036)"/>
<ellipse style="fill: #0000ff; stroke: #0000ff; stroke-width: 0.500000; stroke-linejoin: miter; stroke-linecap: butt;  opacity: 1.000000" clip-path="url(#-1467158557)" cx="182.750021" cy="182.408041" rx="0.500000" ry="0.000000" transform="rotate(0.000000 182.750021 182.408041)"/>
<ellipse style="fill: #0000ff; stroke: #0000ff; stroke-width: 0.500000; stroke-linejoin: miter; stroke-linecap: butt;  opacity: 1.000000" clip-path="url(#-1467158557)" cx="182.597176" cy="181.819091" rx="0.500000" ry="0.000000" transform="rotate(0.000000 182.597176 181.819091)"/>
<ellipse style="fill: #0000ff; stroke: #0000ff; stroke-width: 0.500000; stroke-linejoin: miter; stroke-linecap: butt;  opacity: 1.000000" clip-path="url(#-1467158557)" cx="182.462570" cy="181.225741" rx="0.500000" ry="0.000000" transform="rotate(0.000000 182.462570 181.225741)"/>
<ellipse style="fill: #0000ff; stroke: #0000ff; stroke-width: 0.500000; stroke-linejoin: miter; stroke-linecap: butt;  opacity: 1.000000" clip-path="url(#-1467158557)" cx="182.346343" cy="180.628553" rx="0.500000" ry="0.000000" transform="rotate(0.000000 182.346343 180.628553)"/>
<ellipse style="fill: #0000ff; stroke: #0000ff; stroke-width: 0.500000; stroke-linejoin: miter; stroke-linecap: butt;  opacity: 1.000000" clip-path="url(#-1467158557)" cx="182.248616" cy="180.028094" rx="0.500000" ry="0.000000" transform="rotate(0.000000 182.248616 180.028094)"/>
<ellipse style="fill: #0000ff; stroke: #0000ff; stroke-width: 0.500000; stroke-linejoin: miter; stroke-linecap: butt;  opacity: 1.000000" clip-path="url(#-1467158557)" cx="182.169496" cy="179.424933" rx="0.500000" ry="0.000000" transform="rotate(0.000000 182.169496 179.424933)"/>
<ellipse style="fill: #0000ff; stroke: #0000ff; stroke-width: 0.500000; stroke-linejoin: miter; stroke-linecap: butt;  opacity: 1.000000" clip-path="url(#-1467158557)" cx="182.109070" cy="178.819642" rx="0.500000" ry="0.000000" transform="rotate(0.000000 182.109070 178.819642)"/>
<ellipse style="fill: #0000ff; stroke: #0000ff; stroke-width: 0.500000; stroke-linejoin: miter; stroke-linecap: butt;  opacity: 1.000000" clip-path="url(#-1467158557)" cx="182.067411" cy="178.212798" rx="0.500000" ry="0.000000" transform="rotate(0.000000 182.067411 178.212798)"/>
<ellipse style="fill: #0000ff; stroke: #0000ff; stroke-width: 0.500000; stroke-linejoin: miter; stroke-linecap: butt;  opacity: 1.000000" clip-path="url(#-1467158557)" cx="182.044573" cy="177.604977" rx="0.500000" ry="0.000000" transform="rotate(0.000000 182.044573 177.604977)"/>
<ellipse style="fill: #0000ff; stroke: #0000ff; stroke-width: 0.500000; stroke-linejoin: miter; stroke-linecap: butt;  opacity: 1.000000" clip-path="url(#-1467158557)" cx="182.040593" cy="176.996761" rx="0.500000" ry="0.000000" transform="rotate(0.000000 182.040593 176.996761)"/>
<ellipse style="fill: #0000ff; stroke: #0000ff; stroke-width: 0.500000; stroke-linejoin: miter; stroke-linecap: butt;  opacity: 1.000000" clip-path="url(#-1467158557)" cx="182.055489" cy="176.388730" rx="0.500000" ry="0.000000" transform="rotate(0.000000 182.055489 176.388730)"/>
<ellipse style="fill: #0000ff; stroke: #0000ff; stroke-width: 0.500000; stroke-linejoin: miter; stroke-linecap: butt;  opacity: 1.000000" clip-path="url(#-1467158557)" cx="182.089266" cy="175.781466" rx="0.500000" ry="0.000000" transform="rotate(0.000000 182.089266 175.781466)"/>
<ellipse style="fill: #0000ff; stroke: #0000ff; stroke-width: 0.500000; stroke-linejoin: miter; stroke-linecap: butt;  opacity: 1.000000" clip-path="url(#-1467158557)" cx="182.141906" cy="175.175551" rx="0.500000" ry="0.000000" transform="rotate(0.000000 182.141906 175.175551)"/>
<ellipse style="fill: #0000ff; stroke: #0000ff; stroke-width: 0.500000; stroke-linejoin: miter; stroke-linecap: butt;  opacity: 1.000000" clip-path="url(#-1467158557)" cx="182.213378" cy="174.571567" rx="0.500000" ry="0.000000" transform="rotate(0.000000 182.213378 174.571567)"/>
<ellipse style="fill: #0000ff; stroke: #0000ff; stroke-width: 0.500000; stroke-linejoin: miter; stroke-linecap: butt;  opacity: 1.000000" clip-path="url(#-1467158557)" cx="182.303630" cy="173.970096" rx="0.500000" ry="0.000000" transform="rotate(0.000000 182.303630 173.970096)"/>
<ellipse style="fill: #0000ff; stroke: #0000ff; stroke-width: 0.500000; stroke-linejoin: miter; stroke-linecap: butt;  opacity: 1.000000" clip-path="url(#-1467158557)" cx="182.412595" cy="173.371716" rx="0.500000" ry="0.000000" transform="rotate(0.000000 182.412595 173.371716)"/>
<ellipse style="fill: #0000ff; stroke: #0000ff; stroke-width: 0.500000; stroke-linejoin: miter; stroke-linecap: butt;  opacity: 1.000000" clip-path="url(#-1467158557)" cx="182.540187" cy="172.777008" rx="0.500000" ry="0.000000" transform="rotate(0.000000 182.540187 172.777008)"/>
<ellipse style="fill: #0000ff; stroke: #0000ff; stroke-width: 0.500000; stroke-linejoin: miter; stroke-linecap: butt;  opacity: 1.000000" clip-path="url(#-1467158557)" cx="182.686303" cy="172.186547" rx="0.500000" ry="0.000000" transform="rotate(0.000000 182.686303 172.186547)"/>
<ellipse style="fill: #0000ff; stroke: #0000ff; stroke-width: 0.500000; stroke-linejoin: miter; stroke-linecap: butt;  opacity: 1.000000" clip-path="url(#-1467158557)" cx="182.850821" cy="171.600905" rx="0.500000" ry="0.000000" transform="rotate(0.000000 182.850821 171.600905)"/>
<ellipse style="fill: #0000ff; stroke: #0000ff; stroke-width: 0.500000; stroke-linejoin: miter; stroke-linecap: butt;  opacity: 1.000000" clip-path="url(#-1467158557)" cx="183.033602" cy="171.020654" rx="0.500000" ry="0.000000" transform="rotate(0.000000 183.033602 171.020654)"/>
<ellipse style="fill: #0000ff; stroke: #0000ff; stroke-width: 0.500000; stroke-linejoin: miter; stroke-linecap: butt;  opacity: 1.000000" clip-path="url(#-1467158557)" cx="183.234491" cy="170.446359" rx="0.500000" ry="0.000000" transform="rotate(0.000000 183.234491 170.446359)"/>
<ellipse style="fill: #0000ff; stroke: #0000ff; stroke-width: 0.500000; stroke-linejoin: miter; stroke-linecap: butt;  opacity: 1.000000" clip-path="url(#-1467158557)" cx="183.453315" cy="169.878582" rx="0.500000" ry="0.000000" transform="rotate(0.000000 183.453315 169.878582)"/>
<ellipse style="fill: #0000ff; stroke: #0000ff; stroke-width: 0.500000; stroke-linejoin: miter; stroke-linecap: butt;  opacity: 1.000000" clip-path="url(#-1467158557)" cx="183.689881" cy="169.317880" rx="0.500000" ry="0.000000" transform="rotate(0.000000 183.689881 169.317880)"/>
<ellipse style="fill: #0000ff; stroke: #0000ff; stroke-width: 0.500000; stroke-linejoin: miter; stroke-linecap: butt;  opacity: 1.000000" clip-path="url(#-1467158557)" cx="183.943981" cy="168.764804" rx="0.500000" ry="0.000000" transform="rotate(0.000000 183.943981 168.764804)"/>
<ellipse style="fill: #0000ff; stroke: #0000ff; stroke-width: 0.500000; stroke-linejoin: miter; stroke-linecap: butt;  opacity: 1.000000" clip-path="url(#-1467158557)" cx="184.215390" cy="168.219900" rx="0.500000" ry="0.000000" transform="rotate(0.000000 184.215390 168.219900)"/>
<ellipse style="fill: #0000ff; stroke: #0000ff; stroke-width: 0.500000; stroke-linejoin: miter; stroke-linecap: butt;  opacity: 1.000000" clip-path="url(#-1467158557)" cx="184.503866" cy="167.683707" rx="0.500000" ry="0.000000" transform="rotate(0.000000 184.503866 167.683707)"/>
<ellipse style="fill: #0000ff; stroke: #0000ff; stroke-width: 0.500000; stroke-linejoin: miter; stroke-linecap: butt;  opacity: 1.000000" clip-path="url(#-1467158557)" cx="184.809148" cy="167.156757" rx="0.500000" ry="0.000000" transform="rotate(0.000000 184.809148 167.156757)"/>
<ellipse style="fill: #0000ff; stroke: #0000ff; stroke-width: 0.500000; stroke-linejoin: miter; stroke-linecap: butt;  opacity: 1.000000" clip-path="url(#-1467158557)" cx="185.130961" cy="166.639575" rx="0.500000" ry="0.000000" transform="rotate(0.000000 185.130961 166.639575)"/>
<ellipse style="fill: #0000ff; stroke: #0000ff; stroke-width: 0.500000; stroke-linejoin: miter; stroke-linecap: butt;  opacity: 1.000000" clip-path="url(#-1467158557)" cx="185.469011" cy="166.132676" rx="0.500000" ry="0.000000" transform="rotate(0.000000 185.469011 166.132676)"/>
<ellipse style="fill: #0000ff; stroke: #0000ff; stroke-width: 0.500000; stroke-linejoin: miter; stroke-linecap: butt;  opacity: 1.000000" clip-path="url(#-1467158557)" cx="185.822990" cy="165.636568" rx="0.500000" ry="0.000000" transform="rotate(0.000000 185.822990 165.636568)"/>
<ellipse style="fill: #0000ff; stroke: #0000ff; stroke-width: 0.500000; stroke-linejoin: miter; stroke-linecap: butt;  opacity: 1.000000" clip-path="url(#-1467158557)" cx="186.192571" cy="165.151751" rx="0.500000" ry="0.000000" transform="rotate(0.000000 186.192571 165.151751)"/>
<ellipse style="fill: #0000ff; stroke: #0000ff; stroke-width: 0.500000; stroke-linejoin: miter; stroke-linecap: butt;  opacity: 1.000000" clip-path="url(#-1467158557)" cx="186.577413" cy="164.678712" rx="0.500000" ry="0.000000" transform="rotate(0.000000 186.577413 164.678712)"/>
<ellipse style="fill: #0000ff; stroke: #0000ff; stroke-width: 0.500000; stroke-linejoin: miter; stroke-linecap: butt;  opacity: 1.000000" clip-path="url(#-1467158557)" cx="186.977159" cy="164.217931" rx="0.500000" ry="0.000000" transform="rotate(0.000000 186.977159 164.217931)"/>
<ellipse style="fill: #0000ff; stroke: #0000ff; stroke-width: 0.500000; stroke-linejoin: miter; stroke-linecap: butt;  opacity: 1.000000" clip-path="url(#-1467158557)" cx="187.391436" cy="163.769876" rx="0.500000" ry="0.000000" transform="rotate(0.000000 187.391436 163.769876)"/>
<ellipse style="fill: #0000ff; stroke: #0000ff; stroke-width: 0.500000; stroke-linejoin: miter; stroke-linecap: butt;  opacity: 1.000000" clip-path="url(#-1467158557)" cx="187.819856" cy="163.335003" rx="0.500000" ry="0.000000" transform="rotate(0.000000 187.819856 163.335003)"/>
<ellipse style="fill: #0000ff; stroke: #0000ff; stroke-width: 0.500000; stroke-linejoin: miter; stroke-linecap: butt;  opacity: 1.000000" clip-path="url(#-1467158557)" cx="188.262017" cy="162.913758" rx="0.500000" ry="0.000000" transform="rotate(0.000000 188.262017 162.913758)"/>
<ellipse style="fill: #0000ff; stroke: #0000ff; stroke-width: 0.500000; stroke-linejoin: miter; stroke-linecap: butt;  opacity: 1.000000" clip-path="url(#-1467158557)" cx="188.717501" cy="162.506574" rx="0.500000" ry="0.000000" transform="rotate(0.000000 188.717501 162.506574)"/>
<ellipse style="fill: #0000ff; stroke: #0000ff; stroke-width: 0.500000; stroke-linejoin: miter; stroke-linecap: butt;  opacity: 1.000000" clip-path="url(#-1467158557)" cx="189.185877" cy="162.113871" rx="0.500000" ry="0.000000" transform="rotate(0.000000 189.185877 162.113871)"/>
<ellipse style="fill: #0000ff; stroke: #0000ff; stroke-width: 0.500000; stroke-linejoin: miter; stroke-linecap: butt;  opacity: 1.000000" clip-path="url(#-1467158557)" cx="189.666699" cy="161.736055" rx="0.500000" ry="0.000000" transform="rotate(0.000000 189.666699 161.736055)"/>
<ellipse style="fill: #0000ff; stroke: #0000ff; stroke-width: 0.500000; stroke-linejoin: miter; stroke-linecap: butt;  opacity: 1.000000" clip-path="url(#-1467158557)" cx="190.159508" cy="161.373521" rx="0.500000" ry="0.000000" transform="rotate(0.000000 190.159508 161.373521)"/>
<ellipse style="fill: #0000ff; stroke: #0000ff; stroke-width: 0.500000; stroke-linejoin: miter; stroke-linecap: butt;  opacity: 1.000000" clip-path="url(#-1467158557)" cx="190.663833" cy="161.026648" rx="0.500000" ry="0.000000" transform="rotate(0.000000 190.663833 161.026648)"/>
<ellipse style="fill: #0000ff; stroke: #0000ff; stroke-width: 0.500000; stroke-linejoin: miter; stroke-linecap: butt;  opacity: 1.000000" clip-path="url(#-1467158557)" cx="191.179187" cy="160.695800" rx="0.500000" ry="0.000000" transform="rotate(0.000000 191.179187 160.695800)"/>
<ellipse style="fill: #0000ff; stroke: #0000ff; stroke-width: 0.500000; stroke-linejoin: miter; stroke-linecap: butt;  opacity: 1.000000" clip-path="url(#-1467158557)" cx="191.705075" cy="160.381328" rx="0.500000" ry="0.000000" transform="rotate(0.000000 191.705075 160.381328)"/>
<ellipse style="fill: #0000ff; stroke: #0000ff; stroke-width: 0.500000; stroke-linejoin: miter; stroke-linecap: butt;  opacity: 1.000000" clip-path="url(#-1467158557)" cx="192.240987" cy="160.083564" rx="0.500000" ry="0.000000" transform="rotate(0.000000 192.240987 160.083564)"/>
<ellipse style="fill: #0000ff; stroke: #0000ff; stroke-width: 0.500000; stroke-linejoin: miter; stroke-linecap: butt;  opacity: 1.000000" clip-path="url(#-1467158557)" cx="192.786403" cy="159.802829" rx="0.500000" ry="0.000000" transform="rotate(0.000000 192.786403 159.802829)"/>
<ellipse style="fill: #0000ff; stroke: #0000ff; stroke-width: 0.500000; stroke-linejoin: miter; stroke-linecap: butt;  opacity: 1.000000" clip-path="url(#-1467158557)" cx="193.340791" cy="159.539423" rx="0.500000" ry="0.000000" transform="rotate(0.000000 193.340791 159.539423)"/>
<ellipse style="fill: #0000ff; stroke: #0000ff; stroke-width: 0.500000; stroke-linejoin: miter; stroke-linecap: butt;  opacity: 1.000000" clip-path="url(#-1467158557)" cx="193.903611" cy="159.293632" rx="0.500000" ry="0.000000" transform="rotate(0.000000 193.903611 159.293632)"/>
<ellipse style="fill: #0000ff; stroke: #0000ff; stroke-width: 0.500000; stroke-linejoin: miter; stroke-linecap: butt;  opacity: 1.000000" clip-path="url(#-1467158557)" cx="194.474309" cy="159.065725" rx="0.500000" ry="0.000000" transform="rotate(0.000000 194.474309 159.065725)"/>
<ellipse style="fill: #0000ff; stroke: #0000ff; stroke-width: 0.500000; stroke-linejoin: miter; stroke-linecap: butt;  opacity: 1.000000" clip-path="url(#-1467158557)" cx="195.052326" cy="158.855952" rx="0.500000" ry="0.000000" transform="rotate(0.000000 195.052326 158.855952)"/>
<ellipse style="fill: #0000ff; stroke: #0000ff; stroke-width: 0.500000; stroke-linejoin: miter; stroke-linecap: butt;  opacity: 1.000000" clip-path="url(#-1467158557)" cx="195.637090" cy="158.664546" rx="0.500000" ry="0.000000" transform="rotate(0.000000 195.637090 158.664546)"/>
<ellipse style="fill: #0000ff; stroke: #0000ff; stroke-width: 0.500000; stroke-linejoin: miter; stroke-linecap: butt;  opacity: 1.000000" clip-path="url(#-1467158557)" cx="196.228025" cy="158.491722" rx="0.500000" ry="0.000000" transform="rotate(0.000000 196.228025 158.491722)"/>
<ellipse style="fill: #0000ff; stroke: #0000ff; stroke-width: 0.500000; stroke-linejoin: miter; stroke-linecap: butt;  opacity: 1.000000" clip-path="url(#-1467158557)" cx="196.824544" cy="158.337678" rx="0.500000" ry="0.000000" transform="rotate(0.000000 196.824544 158.337678)"/>
<ellipse style="fill: #0000ff; stroke: #0000ff; stroke-width: 0.500000; stroke-linejoin: miter; stroke-linecap: butt;  opacity: 1.000000" clip-path="url(#-1467158557)" cx="197.426053" cy="158.202590" rx="0.500000" ry="0.000000" transform="rotate(0.000000 197.426053 158.202590)"/>
<ellipse style="fill: #0000ff; stroke: #0000ff; stroke-width: 0.500000; stroke-linejoin: miter; stroke-linecap: butt;  opacity: 1.000000" clip-path="url(#-1467158557)" cx="198.031953" cy="158.086617" rx="0.500000" ry="0.000000" transform="rotate(0.000000 198.031953 158.086617)"/>
<ellipse style="fill: #0000ff; stroke: #0000ff; stroke-width: 0.500000; stroke-linejoin: miter; stroke-linecap: butt;  opacity: 1.000000" clip-path="url(#-1467158557)" cx="198.641639" cy="157.989899" rx="0.500000" ry="0.000000" transform="rotate(0.000000 198.641639 157.989899)"/>
<ellipse style="fill: #0000ff; stroke: #0000ff; stroke-width: 0.500000; stroke-linejoin: miter; stroke-linecap: butt;  opacity: 1.000000" clip-path="url(#-1467158557)" cx="199.254499" cy="157.912556" rx="0.500000" ry="0.000000" transform="rotate(0.000000 199.254499 157.912556)"/>
<ellipse style="fill: #0000ff; stroke: #0000ff; stroke-width: 0.500000; stroke-linejoin: miter; stroke-linecap: butt;  opacity: 1.000000" clip-path="url(#-1467158557)" cx="199.869918" cy="157.854688" rx="0.500000" ry="0.000000" transform="rotate(0.000000 199.869918 157.854688)"/>
<ellipse style="fill: #0000ff; stroke: #0000ff; stroke-width: 0.500000; stroke-linejoin: miter; stroke-linecap: butt;  opacity: 1.000000" clip-path="url(#-1467158557)" cx="200.487276" cy="157.816375" rx="0.500000" ry="0.000000" transform="rotate(0.000000 200.487276 157.816375)"/>
<ellipse style="fill: #0000ff; stroke: #0000ff; stroke-width: 0.500000; stroke-linejoin: miter; stroke-linecap: butt;  opacity: 1.000000" clip-path="url(#-1467158557)" cx="201.105951" cy="157.797678" rx="0.500000" ry="0.000000" transform="rotate(0.000000 201.105951 157.797678)"/>
<ellipse style="fill: #0000ff; stroke: #0000ff; stroke-width: 0.500000; stroke-linejoin: miter; stroke-linecap: butt;  opacity: 1.000000" clip-path="url(#-1467158557)" cx="201.725315" cy="157.798636" rx="0.500000" ry="0.000000" transform="rotate(0.000000 201.725315 157.798636)"/>
<ellipse style="fill: #0000ff; stroke: #0000ff; stroke-width: 0.500000; stroke-linejoin: miter; stroke-linecap: butt;  opacity: 1.000000" clip-path="url(#-1467158557)" cx="202.344743" cy="157.819268" rx="0.500000" ry="0.000000" transform="rotate(0.000000 202.344743 157.819268)"/>
<ellipse style="fill: #0000ff; stroke: #0000ff; stroke-width: 0.500000; stroke-linejoin: miter; stroke-linecap: butt;  opacity: 1.000000" clip-path="url(#-1467158557)" cx="202.963603" cy="157.859575" rx="0.500000" ry="0.000000" transform="rotate(0.000000 202.963603 157.859575)"/>
<ellipse style="fill: #0000ff; stroke: #0000ff; stroke-width: 0.500000; stroke-linejoin: miter; stroke-linecap: butt;  opacity: 1.000000" clip-path="url(#-1467158557)" cx="203.581267" cy="157.919534" rx="0.500000" ry="0.000000" transform="rotate(0.000000 203.581267 157.919534)"/>
<ellipse style="fill: #0000ff; stroke: #0000ff; stroke-width: 0.500000; stroke-linejoin: miter; stroke-linecap: butt;  opacity: 1.000000" clip-path="url(#-1467158557)" cx="204.197105" cy="157.999102" rx="0.500000" ry="0.000000" transform="rotate(0.000000 204.197105 157.999102)"/>
<ellipse style="fill: #0000ff; stroke: #0000ff; stroke-width: 0.500000; stroke-linejoin: miter; stroke-linecap: butt;  opacity: 1.000000" clip-path="url(#-1467158557)" cx="204.810488" cy="158.098218" rx="0.500000" ry="0.000000" transform="rotate(0.000000 204.810488 158.098218)"/>
<ellipse style="fill: #0000ff; stroke: #0000ff; stroke-width: 0.500000; stroke-linejoin: miter; stroke-linecap: butt;  opacity: 1.000000" clip-path="url(#-1467158557)" cx="205.420788" cy="158.216798" rx="0.500000" ry="0.000000" transform="rotate(0.000000 205.420788 158.216798)"/>
<ellipse style="fill: #0000ff; stroke: #0000ff; stroke-width: 0.500000; stroke-linejoin: miter; stroke-linecap: butt;  opacity: 1.000000" clip-path="url(#-1467158557)" cx="206.027379" cy="158.354737" rx="0.500000" ry="0.000000" transform="rotate(0.000000 206.027379 158.354737)"/>
<ellipse style="fill: #0000ff; stroke: #0000ff; stroke-width: 0.500000; stroke-linejoin: miter; stroke-linecap: butt;  opacity: 1.000000" clip-path="url(#-1467158557)" cx="206.629639" cy="158.511911" rx="0.500000" ry="0.000000" transform="rotate(0.000000 206.629639 158.511911)"/>
<ellipse style="fill: #0000ff; stroke: #0000ff; stroke-width: 0.500000; stroke-linejoin: miter; stroke-linecap: butt;  opacity: 1.000000" clip-path="url(#-1467158557)" cx="207.226950" cy="158.688173" rx="0.500000" ry="0.000000" transform="rotate(0.000000 207.226950 158.688173)"/>
<ellipse style="fill: #0000ff; stroke: #0000ff; stroke-width: 0.500000; stroke-linejoin: miter; stroke-linecap: butt;  opacity: 1.000000" clip-path="url(#-1467158557)" cx="207.818696" cy="158.883360" rx="0.500000" ry="0.000000" transform="rotate(0.000000 207.818696 158.883360)"/>
<ellipse style="fill: #0000ff; stroke: #0000ff; stroke-width: 0.500000; stroke-linejoin: miter; stroke-linecap: butt;  opacity: 1.000000" clip-path="url(#-1467158557)" cx="208.404267" cy="159.097283" rx="0.500000" ry="0.000000" transform="rotate(0.000000 208.404267 159.097283)"/>
<ellipse style="fill: #0000ff; stroke: #0000ff; stroke-width: 0.500000; stroke-linejoin: miter; stroke-linecap: butt;  opacity: 1.000000" clip-path="url(#-1467158557)" cx="208.983060" cy="159.329738" rx="0.500000" ry="0.000000" transform="rotate(0.000000 208.983060 159.329738)"/>
<ellipse style="fill: #0000ff; stroke: #0000ff; stroke-width: 0.500000; stroke-linejoin: miter; stroke-linecap: butt;  opacity: 1.000000" clip-path="url(#-1467158557)" cx="209.554477" cy="159.580497" rx="0.500000" ry="0.000000" transform="rotate(0.000000 209.554477 159.580497)"/>
<ellipse style="fill: #0000ff; stroke: #0000ff; stroke-width: 0.500000; stroke-linejoin: miter; stroke-linecap: butt;  opacity: 1.000000" clip-path="url(#-1467158557)" cx="210.117927" cy="159.849316" rx="0.500000" ry="0.000000" transform="rotate(0.000000 210.117927 159.849316)"/>
<ellipse style="fill: #0000ff; stroke: #0000ff; stroke-width: 0.500000; stroke-linejoin: miter; stroke-linecap: butt;  opacity: 1.000000" clip-path="url(#-1467158557)" cx="210.672828" cy="160.135928" rx="0.500000" ry="0.000000" transform="rotate(0.000000 210.672828 160.135928)"/>
<ellipse style="fill: #0000ff; stroke: #0000ff; stroke-width: 0.500000; stroke-linejoin: miter; stroke-linecap: butt;  opacity: 1.000000" clip-path="url(#-1467158557)" cx="211.218605" cy="160.440048" rx="0.500000" ry="0.000000" transform="rotate(0.000000 211.218605 160.440048)"/>
<ellipse style="fill: #0000ff; stroke: #0000ff; stroke-width: 0.500000; stroke-linejoin: miter; stroke-linecap: butt;  opacity: 1.000000" clip-path="url(#-1467158557)" cx="211.754694" cy="160.761373" rx="0.500000" ry="0.000000" transform="rotate(0.000000 211.754694 160.761373)"/>
<ellipse style="fill: #0000ff; stroke: #0000ff; stroke-width: 0.500000; stroke-linejoin: miter; stroke-linecap: butt;  opacity: 1.000000" clip-path="url(#-1467158557)" cx="212.280539" cy="161.099581" rx="0.500000" ry="0.000000" transform="rotate(0.000000 212.280539 161.099581)"/>
<ellipse style="fill: #0000ff; stroke: #0000ff; stroke-width: 0.500000; stroke-linejoin: miter; stroke-linecap: butt;  opacity: 1.000000" clip-path="url(#-1467158557)" cx="212.795595" cy="161.454331" rx="0.500000" ry="0.000000" transform="rotate(0.000000 212.795595 161.454331)"/>
<ellipse style="fill: #0000ff; stroke: #0000ff; stroke-width: 0.500000; stroke-linejoin: miter; stroke-linecap: butt;  opacity: 1.000000" clip-path="url(#-1467158557)" cx="213.299328" cy="161.825263" rx="0.500000" ry="0.000000" transform="rotate(0.000000 213.299328 161.825263)"/>
<ellipse style="fill: #0000ff; stroke: #0000ff; stroke-width: 0.500000; stroke-linejoin: miter; stroke-linecap: butt;  opacity: 1.000000" clip-path="url(#-1467158557)" cx="213.791218" cy="162.212003" rx="0.500000" ry="0.000000" transform="rotate(0.000000 213.791218 162.212003)"/>
<ellipse style="fill: #0000ff; stroke: #0000ff; stroke-width: 0.500000; stroke-linejoin: miter; stroke-linecap: butt;  opacity: 1.000000" clip-path="url(#-1467158557)" cx="214.270753" cy="162.614155" rx="0.500000" ry="0.000000" transform="rotate(0.000000 214.270753 162.614155)"/>
<ellipse style="fill: #0000ff; stroke: #0000ff; stroke-width: 0.500000; stroke-linejoin: miter; stroke-linecap: butt;  opacity: 1.000000" clip-path="url(#-1467158557)" cx="214.737439" cy="163.031310" rx="0.500000" ry="0.000000" transform="rotate(0.000000 214.737439 163.031310)"/>
<ellipse style="fill: #0000ff; stroke: #0000ff; stroke-width: 0.500000; stroke-linejoin: miter; stroke-linecap: butt;  opacity: 1.000000" clip-path="url(#-1467158557)" cx="215.190791" cy="163.463042" rx="0.500000" ry="0.000000" transform="rotate(0.000000 215.190791 163.463042)"/>
<ellipse style="fill: #0000ff; stroke: #0000ff; stroke-width: 0.500000; stroke-linejoin: miter; stroke-linecap: butt;  opacity: 1.000000" clip-path="url(#-1467158557)" cx="215.630342" cy="163.908908" rx="0.500000" ry="0.000000" transform="rotate(0.000000 215.630342 163.908908)"/>
<ellipse style="fill: #0000ff; stroke: #0000ff; stroke-width: 0.500000; stroke-linejoin: miter; stroke-linecap: butt;  opacity: 1.000000" clip-path="url(#-1467158557)" cx="216.055636" cy="164.368451" rx="0.500000" ry="0.000000" transform="rotate(0.000000 216.055636 164.368451)"/>
<ellipse style="fill: #0000ff; stroke: #0000ff; stroke-width: 0.500000; stroke-linejoin: miter; stroke-linecap: butt;  opacity: 1.000000" clip-path="url(#-1467158557)" cx="216.466235" cy="164.841199" rx="0.500000" ry="0.000000" transform="rotate(0.000000 216.466235 164.841199)"/>
<text style="font-size: 12.000000; font-family: Times; font-style: Regular; fill: #000000;" x="81.661500" y="72.036000" >fisher_5_1.di</text>
<text style="font-size: 14.000000; font-family: Times; font-style: Regular; fill: #000000;" x="127.957500" y="31.298400" >Fisher confidence cone</text>
</g>
<text style="font-size: 12.000000; font-family: Times; font-style: Regular; fill: #000000;" x="7.452000" y="368.874000" >pmagpy-1.47b</text>
</g>
</svg>
